<svg xmlns="http://www.w3.org/2000/svg" fill="none" viewBox="0 0 24 24" stroke-width="1.5" stroke="currentColor" aria-hidden="true" data-slot="icon">
  <path fill="color(display-p3 .9804 .5608 .5608)" d="M17 18a2 2 0 1 1-4 0 2 2 0 0 1 4 0Z"/>
  <path fill="#000" d="M19.53 2.47a.75.75 0 1 0-1.06 1.06l1.06-1.06Zm1.94 4.06a.75.75 0 1 0 1.06-1.06l-1.06 1.06Zm-3.813 12.127.53.53.53-.53-.53-.53-.53.53ZM4 13h.75H4Zm2.343-5.657.53-.53-.53-.53-.53.53.53.53Zm2.944-2.517a.75.75 0 0 0 .521 1.406l-.52-1.406Zm10.489 11.343a.75.75 0 1 0 1.408.517l-1.408-.517ZM1.47 5.47a.75.75 0 0 0 1.06 1.06L1.47 5.47Zm2.06-3a.75.75 0 0 0-1.06 1.06l1.06-1.06Zm16.94 19.06a.75.75 0 1 0 1.06-1.06l-1.06 1.06Zm-17-1.06a.75.75 0 1 0 1.06 1.06l-1.06-1.06Zm3.06-.94a.75.75 0 1 0-1.06-1.06l1.06 1.06Zm11.94-16 3 3 1.06-1.06-3-3-1.06 1.06Zm-1.343 14.597a7.25 7.25 0 0 1-2.352 1.571l.573 1.386a8.75 8.75 0 0 0 2.84-1.897l-1.061-1.06Zm-2.352 1.571A7.25 7.25 0 0 1 12 20.25v1.5c1.15 0 2.287-.226 3.348-.666l-.574-1.386ZM12 20.25a7.25 7.25 0 0 1-2.774-.552l-.574 1.386A8.74 8.74 0 0 0 12 21.75v-1.5Zm-2.774-.552a7.25 7.25 0 0 1-2.353-1.572l-1.06 1.061a8.75 8.75 0 0 0 2.839 1.897l.574-1.386Zm-2.353-1.572a7.25 7.25 0 0 1-1.571-2.352l-1.386.575a8.75 8.75 0 0 0 1.897 2.838l1.06-1.06Zm-1.571-2.352A7.25 7.25 0 0 1 4.75 13h-1.5c0 1.15.226 2.287.666 3.349l1.386-.575ZM4.75 13c0-.952.188-1.895.552-2.774l-1.386-.574A8.75 8.75 0 0 0 3.25 13h1.5Zm.552-2.774a7.25 7.25 0 0 1 1.571-2.353l-1.06-1.06a8.75 8.75 0 0 0-1.897 2.839l1.386.574Zm4.506-3.994a7.75 7.75 0 0 1 4.342-.304l.32-1.466a9.25 9.25 0 0 0-5.183.364l.521 1.406Zm4.342-.304a7.75 7.75 0 0 1 3.822 2.083L19.03 6.95a9.25 9.25 0 0 0-4.561-2.487l-.32 1.466Zm3.822 2.083a7.75 7.75 0 0 1 2.095 3.816l1.465-.324a9.25 9.25 0 0 0-2.501-4.554l-1.06 1.063Zm2.095 3.816a7.75 7.75 0 0 1-.291 4.342l1.408.517a9.25 9.25 0 0 0 .348-5.183l-1.465.323ZM2.53 6.53l2-2-1.06-1.06-2 2 1.06 1.06Zm2-3.06-1-1-1.06 1.06 1 1 1.06-1.06ZM3.47 4.53l17 17 1.06-1.06-17-17-1.06 1.06Zm1.06 17 2-2-1.06-1.06-2 2 1.06 1.06ZM5.813 7.873l11.314 11.314 1.06-1.06L6.873 6.813l-1.06 1.06Z"/>
</svg>
