<svg xmlns="http://www.w3.org/2000/svg" fill="none" viewBox="0 0 24 24" stroke-width="1.5" stroke="currentColor" aria-hidden="true" data-slot="icon">
  <path fill="color(display-p3 .9804 .5608 .5608)" d="M14 16a2 2 0 1 1-4 0 2 2 0 0 1 4 0Z"/>
  <path stroke-linecap="round" stroke-linejoin="round" d="M12 8v4m0 3.5v.5M8.414 2h7.172a1 1 0 0 1 .707.293l5.414 5.414a1 1 0 0 1 .293.707v7.172a1 1 0 0 1-.293.707l-5.414 5.414a1 1 0 0 1-.707.293H8.414a1 1 0 0 1-.707-.293l-5.414-5.414A1 1 0 0 1 2 15.586V8.414a1 1 0 0 1 .293-.707l5.414-5.414A1 1 0 0 1 8.414 2Z"/>
</svg>
