<svg xmlns="http://www.w3.org/2000/svg" fill="none" viewBox="0 0 24 24" stroke-width="1.5" stroke="currentColor" aria-hidden="true" data-slot="icon">
  <circle cx="10" cy="12" r="2" fill="color(display-p3 .9804 .5608 .5608)"/>
  <path fill="#000" d="M21.331 17.338a.75.75 0 0 0-1.302-.745l1.302.745ZM9.614 2.288l-.18-.727.18.728Zm6.442.572-.304.685.304-.685Zm4.086 4.75a.75.75 0 1 0 1.32-.712l-1.32.712ZM22 12.75a.75.75 0 0 0 0-1.5v1.5ZM8 12l-.53-.53a.75.75 0 0 0 0 1.06L8 12Zm4.53-3.47a.75.75 0 0 0-1.06-1.06l1.06 1.06Zm-1.06 8a.75.75 0 1 0 1.06-1.06l-1.06 1.06Zm8.56.063a9.25 9.25 0 0 1-4.491 3.953l.573 1.386a10.75 10.75 0 0 0 5.22-4.594l-1.303-.745Zm-4.491 3.953a9.25 9.25 0 0 1-5.971.378l-.395 1.448a10.75 10.75 0 0 0 6.94-.44l-.574-1.386Zm-5.971.378a9.25 9.25 0 0 1-4.954-3.355l-1.197.903a10.75 10.75 0 0 0 5.756 3.9l.395-1.448ZM4.614 17.57a9.25 9.25 0 0 1-1.863-5.685l-1.5-.019a10.75 10.75 0 0 0 2.166 6.607l1.197-.903Zm-1.863-5.685a9.25 9.25 0 0 1 2.006-5.637l-1.175-.933a10.75 10.75 0 0 0-2.331 6.551l1.5.019Zm2.006-5.637a9.25 9.25 0 0 1 5.036-3.23l-.358-1.456a10.75 10.75 0 0 0-5.853 3.753l1.175.933Zm5.036-3.23a9.25 9.25 0 0 1 5.96.528l.607-1.37a10.75 10.75 0 0 0-6.925-.614l.358 1.456Zm5.96.528a9.25 9.25 0 0 1 4.389 4.065l1.32-.712a10.75 10.75 0 0 0-5.102-4.724l-.608 1.371ZM22 11.25H8v1.5h14v-1.5ZM8.53 12.53l4-4-1.06-1.06-4 4 1.06 1.06Zm-1.06 0 4 4 1.06-1.06-4-4-1.06 1.06Z"/>
</svg>
