<svg xmlns="http://www.w3.org/2000/svg" fill="none" viewBox="0 0 24 24" stroke-width="1.5" stroke="currentColor" aria-hidden="true" data-slot="icon">
  <path fill="color(display-p3 .9804 .5608 .5608)" d="M14 14a2 2 0 1 1-4 0 2 2 0 0 1 4 0Z"/>
  <path stroke-linejoin="round" d="M8.534 15.895 7.746 21 12 18.447 16.255 21l-.789-5.105M8.376 4.809a2.143 2.143 0 0 0 1.874-.903 2.143 2.143 0 0 1 3.5 0 2.143 2.143 0 0 0 1.875.903 2.143 2.143 0 0 1 2.182 2.737 2.143 2.143 0 0 0 .463 2.028 2.143 2.143 0 0 1-.779 3.413 2.143 2.143 0 0 0-1.297 1.626 2.143 2.143 0 0 1-3.153 1.519 2.142 2.142 0 0 0-2.081 0 2.143 2.143 0 0 1-3.154-1.519 2.143 2.143 0 0 0-1.297-1.626 2.143 2.143 0 0 1-.779-3.413c.495-.55.67-1.318.463-2.028a2.143 2.143 0 0 1 2.183-2.737Z"/>
</svg>
