<svg xmlns="http://www.w3.org/2000/svg" fill="none" viewBox="0 0 24 24" stroke-width="1.5" stroke="currentColor" aria-hidden="true" data-slot="icon">
  <path fill="color(display-p3 .9804 .5608 .5608)" d="M20.027 5.833a2 2 0 1 1-4 0 2 2 0 0 1 4 0Z"/>
  <path fill="#000" d="M12 12.517a.45.45 0 1 1-.9 0 .45.45 0 0 1 .9 0Zm4.5 0a.45.45 0 1 1-.9 0 .45.45 0 0 1 .9 0Zm-9 3.6a.45.45 0 1 1-.9 0 .45.45 0 0 1 .9 0Zm4.5 0a.45.45 0 1 1-.9 0 .45.45 0 0 1 .9 0Zm4.5 0a.45.45 0 1 1-.9 0 .45.45 0 0 1 .9 0Z"/>
  <path d="M3.9 6.667a2.7 2.7 0 0 1 2.7-2.7h10.8a2.7 2.7 0 0 1 2.7 2.7m-16.2 0v10.8a2.7 2.7 0 0 0 2.7 2.7h10.8a2.7 2.7 0 0 0 2.7-2.7v-10.8m-16.2 0v2.7h16.2v-2.7m-8.1 5.85a.45.45 0 1 1-.9 0 .45.45 0 0 1 .9 0Zm4.5 0a.45.45 0 1 1-.9 0 .45.45 0 0 1 .9 0Zm-9 3.6a.45.45 0 1 1-.9 0 .45.45 0 0 1 .9 0Zm4.5 0a.45.45 0 1 1-.9 0 .45.45 0 0 1 .9 0Zm4.5 0a.45.45 0 1 1-.9 0 .45.45 0 0 1 .9 0Z"/>
</svg>
