<svg xmlns="http://www.w3.org/2000/svg" fill="none" viewBox="0 0 24 24" stroke-width="1.5" stroke="currentColor" aria-hidden="true" data-slot="icon">
  <path fill="color(display-p3 .9804 .5608 .5608)" d="M16.5 11a2 2 0 1 1-4 0 2 2 0 0 1 4 0Z"/>
  <path fill="#000" d="M4.5 7.092a.75.75 0 0 0 0-1.5v1.5ZM3.53 1.97a.75.75 0 0 0-1.06 1.06l1.06-1.06Zm17.94 20.06a.75.75 0 1 0 1.06-1.06l-1.06 1.06ZM10.172 9.672l-.53-.53-.531.53.53.53.53-.53ZM13 8.5v.75-.75Zm4 4h-.75.75Zm-1.172 2.828-.53.53.53.531.53-.53-.53-.53Zm-2.33 1.896a.75.75 0 0 0-.157-1.492l.157 1.492Zm-4.14-3.07.683-.31-.683.31Zm.392-1.621a.75.75 0 1 0-1.5.015l1.5-.015ZM9 4.25h6.579v-1.5H9v1.5Zm9.421 2.842H19.5v-1.5h-1.079v1.5Zm2.829 1.75V18.5h1.5V8.842h-1.5ZM19 20.75H5v1.5h14v-1.5ZM2.75 18.5V8.842h-1.5V18.5h1.5Zm5-12.158V5.5h-1.5v.842h1.5Zm0-.842c0-.69.56-1.25 1.25-1.25v-1.5A2.75 2.75 0 0 0 6.25 5.5h1.5Zm-5 3.342c0-.966.784-1.75 1.75-1.75v-1.5a3.25 3.25 0 0 0-3.25 3.25h1.5ZM5 20.75a2.25 2.25 0 0 1-2.25-2.25h-1.5A3.75 3.75 0 0 0 5 22.25v-1.5Zm16.25-2.25A2.25 2.25 0 0 1 19 20.75v1.5a3.75 3.75 0 0 0 3.75-3.75h-1.5ZM19.5 7.092c.966 0 1.75.784 1.75 1.75h1.5a3.25 3.25 0 0 0-3.25-3.25v1.5Zm-3.25-2.17a2.17 2.17 0 0 0 2.171 2.17v-1.5a.67.67 0 0 1-.671-.67h-1.5Zm-.671-.672c.37 0 .671.3.671.671h1.5a2.171 2.171 0 0 0-2.171-2.171v1.5ZM2.469 3.03l19 19 1.061-1.06-19-19-1.06 1.06Zm8.233 7.172a3.25 3.25 0 0 1 1.054-.705l-.574-1.385a4.75 4.75 0 0 0-1.54 1.03l1.06 1.06Zm1.054-.705A3.25 3.25 0 0 1 13 9.25v-1.5a4.75 4.75 0 0 0-1.818.362l.574 1.385ZM13 9.25c.427 0 .85.084 1.244.247l.574-1.385A4.75 4.75 0 0 0 13 7.75v1.5Zm1.244.247a3.25 3.25 0 0 1 1.054.705l1.06-1.06a4.75 4.75 0 0 0-1.54-1.03l-.574 1.385Zm1.054.705c.302.302.541.66.705 1.054l1.385-.574a4.751 4.751 0 0 0-1.03-1.54l-1.06 1.06Zm.705 1.054c.163.395.247.817.247 1.244h1.5a4.75 4.75 0 0 0-.362-1.818l-1.385.574Zm.247 1.244c0 .427-.084.85-.247 1.244l1.385.574a4.75 4.75 0 0 0 .362-1.818h-1.5Zm-.247 1.244a3.25 3.25 0 0 1-.705 1.054l1.06 1.06c.442-.44.792-.964 1.03-1.54l-1.385-.574Zm-2.662 1.988c-.45.048-.906 0-1.337-.138l-.46 1.428c.63.202 1.296.271 1.954.202l-.157-1.492Zm-1.337-.138a3.25 3.25 0 0 1-1.166-.667l-.998 1.12c.494.44 1.075.772 1.705.975l.46-1.428Zm-1.166-.667a3.248 3.248 0 0 1-.797-1.082l-1.365.62a4.75 4.75 0 0 0 1.164 1.582l.998-1.12Zm-.797-1.082a3.25 3.25 0 0 1-.29-1.312l-1.5.015a4.75 4.75 0 0 0 .425 1.917l1.365-.62Zm6.318.953-5.657-5.657-1.06 1.06 5.656 5.658 1.06-1.06Z"/>
</svg>
