<svg xmlns="http://www.w3.org/2000/svg" fill="none" viewBox="0 0 24 24" stroke-width="1.5" stroke="currentColor" aria-hidden="true" data-slot="icon">
  <path fill="color(display-p3 .9804 .5608 .5608)" d="M14 18a2 2 0 1 1-4 0 2 2 0 0 1 4 0Z"/>
  <path fill="#000" d="m2.5 9.5-.75-.003V9.5h.75Zm13.665 3.83a.75.75 0 1 0 .67 1.34l-.67-1.34Zm1.335.17h.75a.75.75 0 0 0-1.085-.67l.335.67Zm-1 2.75a.75.75 0 0 0 0 1.5v-1.5Zm2 1.5a.75.75 0 0 0 0-1.5v1.5ZM12.75 5.5c0-.025.016.049-.171.21-.185.159-.496.336-.946.5-.894.324-2.178.54-3.633.54v1.5c1.583 0 3.048-.232 4.145-.63.546-.2 1.04-.453 1.412-.773.37-.317.693-.77.693-1.347h-1.5ZM8 6.75c-1.455 0-2.74-.216-3.633-.54-.45-.164-.761-.341-.946-.5-.187-.161-.171-.235-.171-.21h-1.5c0 .577.324 1.03.693 1.347.372.32.866.574 1.412.772 1.097.399 2.562.631 4.145.631v-1.5Zm0-2.5c1.455 0 2.74.216 3.633.54.45.164.761.341.946.5.187.161.171.235.171.21h1.5c0-.577-.324-1.03-.693-1.347-.372-.32-.866-.574-1.412-.772C11.048 2.982 9.583 2.75 8 2.75v1.5Zm4.75 5.25c0-.025.016.049-.171.21-.185.159-.496.336-.946.5-.894.324-2.178.54-3.633.54v1.5c1.583 0 3.048-.232 4.145-.63.546-.2 1.04-.453 1.412-.773.37-.317.693-.77.693-1.347h-1.5ZM8 10.75c-1.455 0-2.74-.216-3.633-.54-.45-.164-.761-.341-.946-.5-.187-.161-.171-.235-.171-.21h-1.5c0 .577.324 1.03.693 1.347.372.32.866.574 1.412.772 1.097.399 2.562.631 4.145.631v-1.5Zm4.75 7.75c0-.025.016.049-.171.21-.185.159-.496.336-.946.5-.894.324-2.178.54-3.633.54v1.5c1.583 0 3.048-.232 4.145-.63.546-.2 1.04-.453 1.412-.773.37-.317.693-.77.693-1.347h-1.5ZM8 19.75c-1.455 0-2.74-.216-3.633-.54-.45-.164-.761-.341-.946-.5-.187-.161-.171-.235-.171-.21h-1.5c0 .577.324 1.03.693 1.347.372.32.866.574 1.412.772 1.097.399 2.562.631 4.145.631v-1.5Zm4.75-6.25c0-.025.016.049-.171.21-.185.159-.496.336-.946.5-.894.324-2.178.54-3.633.54v1.5c1.583 0 3.048-.232 4.145-.63.546-.2 1.04-.453 1.412-.773.37-.317.693-.77.693-1.347h-1.5ZM8 14.75c-1.455 0-2.74-.216-3.633-.54-.45-.164-.761-.341-.946-.5-.187-.161-.171-.235-.171-.21h-1.5c0 .577.324 1.03.693 1.347.372.32.866.574 1.412.772 1.097.399 2.562.631 4.145.631v-1.5Zm6.25-5.25v-4h-1.5v4h1.5Zm-1.5 0v4h1.5v-4h-1.5Zm0 4v5h1.5v-5h-1.5Zm-9.5 5v-5h-1.5v5h1.5Zm-1.5-9v4h1.5v-4h-1.5Zm1.5-4-1.463-.332a1.501 1.501 0 0 0-.037.332h1.5Zm0 0c.002-.01.036-.116.262-.282.217-.159.547-.325.992-.475C5.392 4.444 6.62 4.25 8 4.25v-1.5c-1.504 0-2.9.21-3.974.571-.536.18-1.02.408-1.402.689-.374.274-.723.655-.837 1.158L3.25 5.5Zm0 4.003.019-4.166-1.5-.007-.019 4.167 1.5.006Zm17.5 5.997a3.25 3.25 0 0 1-3.25 3.25v1.5a4.75 4.75 0 0 0 4.75-4.75h-1.5Zm-3.25 3.25a3.25 3.25 0 0 1-3.25-3.25h-1.5a4.75 4.75 0 0 0 4.75 4.75v-1.5Zm-3.25-3.25a3.25 3.25 0 0 1 3.25-3.25v-1.5a4.75 4.75 0 0 0-4.75 4.75h1.5Zm3.25-3.25a3.25 3.25 0 0 1 3.25 3.25h1.5a4.75 4.75 0 0 0-4.75-4.75v1.5Zm-.665 2.42 1-.5-.67-1.34-1 .5.67 1.34Zm-.085-1.17V17h1.5v-3.5h-1.5Zm.75 2.75h-1v1.5h1v-1.5Zm0 1.5h1v-1.5h-1v1.5Z"/>
</svg>
