<svg xmlns="http://www.w3.org/2000/svg" fill="none" viewBox="0 0 24 24" stroke-width="1.5" stroke="currentColor" aria-hidden="true" data-slot="icon">
  <path fill="color(display-p3 .9804 .5608 .5608)" d="M19 17a2 2 0 1 1-4 0 2 2 0 0 1 4 0Z"/>
  <path fill="#000" d="M12.537 22.736a.75.75 0 0 0-.076-1.498l.076 1.498Zm-5.786-2.22.393-.638-.393.638Zm-3.903-4.47-.686.304.686-.303ZM4.94 4.91l.529.532-.529-.532Zm5.26-2.747.134.738-.135-.738Zm5.89.716-.308.684.307-.684Zm5.152 9.08a.75.75 0 1 0 1.498.084l-1.498-.084Zm.75 5.042.181.728a.75.75 0 0 0 .104-1.422l-.286.694Zm-8.5-3.5.285-.694a.75.75 0 0 0-.98.98l.694-.286Zm3.5 8.5-.694.286a.75.75 0 0 0 1.42-.104L16.993 22Zm1-4-.183-.728a.75.75 0 0 0-.545.546l.727.182ZM9.465 4.895l-.592.46.592-.46Zm.793 1.02.592-.461-.592.46Zm.236 3.33.652.371-.652-.372Zm-.622 1.088-.65-.372.65.372Zm-3.593 4.31.083-.745-.083.745Zm-.736-.082-.083.746.083-.746Zm-3.019-.445-.739.126.74-.127Zm3.411-9.88.455.596-.455-.596ZM4.548 14.833l-.45-.6.45.6Zm12.894-8.862.61.436-.61-.436Zm-.75 1.05-.61-.437.61.436Zm2.362 5.112-.093.744.093-.744Zm2.938.367-.093.744a.75.75 0 0 0 .843-.744h-.75ZM19.86 5.667l-.576.48.576-.48Zm-7.4 15.571a9.25 9.25 0 0 1-5.316-1.36l-.787 1.277a10.75 10.75 0 0 0 6.18 1.581l-.076-1.498Zm-5.316-1.36a9.25 9.25 0 0 1-3.61-4.135l-1.372.607a10.75 10.75 0 0 0 4.195 4.805l.787-1.277Zm-3.61-4.135a9.25 9.25 0 0 1-.633-5.452l-1.474-.277a10.75 10.75 0 0 0 .735 6.336l1.372-.607ZM2.9 10.291a9.25 9.25 0 0 1 2.569-4.85L4.412 4.377a10.75 10.75 0 0 0-2.985 5.637l1.474.277Zm2.569-4.85A9.25 9.25 0 0 1 10.335 2.9l-.27-1.476a10.75 10.75 0 0 0-5.653 2.953L5.47 5.441ZM10.335 2.9a9.25 9.25 0 0 1 5.448.662l.615-1.368a10.75 10.75 0 0 0-6.332-.77l.269 1.476Zm5.448.662a9.25 9.25 0 0 1 4.114 3.634l1.282-.78a10.75 10.75 0 0 0-4.781-4.222l-.615 1.368Zm4.114 3.634c.997 1.641 1.45 2.936 1.346 4.762l1.498.084c.125-2.214-.458-3.809-1.562-5.625l-1.282.779Zm2.38 9.11-8.5-3.5-.57 1.388 8.5 3.5.57-1.387Zm-9.478-2.52 3.5 8.5 1.387-.572-3.5-8.5-1.387.572Zm4.92 8.396 1-4-1.454-.364-1 4 1.455.364Zm.455-3.454 4-1-.364-1.456-4 1 .364 1.456Zm-9.3-13.373.793 1.02 1.184-.921-.793-1.02-1.184.921Zm.97 3.517-.622 1.089 1.303.744.622-1.089-1.303-.744Zm-3.481 5.026-.736-.082-.166 1.49.736.083.166-1.491Zm-3.099.09c-.478-2.788-.207-6.611 3.127-9.156l-.91-1.193c-3.978 3.036-4.216 7.566-3.695 10.603l1.478-.253Zm.834.245a.591.591 0 0 1-.545.1.418.418 0 0 1-.289-.344l-1.478.253c.272 1.588 2.075 2.044 3.212 1.191l-.9-1.2Zm1.529-.417a2.151 2.151 0 0 0-1.529.417l.9 1.2a.652.652 0 0 1 .463-.126l.166-1.491Zm3.115-2.048c0 1.277-1.11 2.27-2.379 2.13l-.166 1.49a3.643 3.643 0 0 0 4.045-3.62h-1.5Zm.48-1.807a3.643 3.643 0 0 0-.48 1.807h1.5c0-.373.097-.74.282-1.063l-1.302-.744Zm.445-3.586c.56.72.63 1.706.177 2.497l1.303.744a3.75 3.75 0 0 0-.296-4.162l-1.184.92Zm.39-1.94c-1.044-1.344-3.05-1.96-4.576-.796l.91 1.193c.706-.539 1.805-.349 2.483.523l1.184-.92Zm6.774 1.1-.75 1.05 1.221.871.75-1.05-1.22-.871Zm-.971 3.877.983 1.966 1.341-.67-.983-1.966-1.341.67Zm3.101 3.465 2.938.367.186-1.488-2.938-.367-.186 1.488Zm3.781-.377c0-.872-.122-2.142-.463-3.461-.34-1.314-.91-2.733-1.843-3.852l-1.152.96c.738.886 1.234 2.071 1.543 3.267a13 13 0 0 1 .415 3.086h1.5Zm-5.9-1.122a2.75 2.75 0 0 0 2.12 1.499l.185-1.488a1.25 1.25 0 0 1-.963-.682l-1.341.671Zm-.76-4.794a2.75 2.75 0 0 0-.222 2.828l1.341-.67a1.25 1.25 0 0 1 .101-1.286l-1.22-.872Zm1.97-.177c.19-.266.457-.42.692-.456a.547.547 0 0 1 .54.196l1.152-.96a2.045 2.045 0 0 0-1.924-.718c-.66.103-1.274.496-1.68 1.066l1.22.872Z"/>
</svg>
