<svg xmlns="http://www.w3.org/2000/svg" fill="none" viewBox="0 0 24 24" stroke-width="1.5" stroke="currentColor" aria-hidden="true" data-slot="icon">
  <path fill="color(display-p3 .9804 .5608 .5608)" d="M12 12a2 2 0 1 1-4 0 2 2 0 0 1 4 0Z"/>
  <path fill="#000" d="m2 21-.624-.416A.75.75 0 0 0 2 21.75V21Zm8-12 .612-.434a.75.75 0 0 0-1.236.018L10 9Zm8.5 12v.75a.75.75 0 0 0 .612-1.183L18.5 21ZM15 16l-.624-.416a.75.75 0 0 0-.02.802L15 16Zm2-3 .636-.398a.75.75 0 0 0-1.26-.018L17 13Zm5 8v.75a.75.75 0 0 0 .636-1.148L22 21Zm-4 0-.643.386a.75.75 0 0 0 .643.364V21Zm-15.376.416 8-12-1.248-.832-8 12 1.248.832ZM9.388 9.434l8.5 12 1.224-.867-8.5-12-1.224.867ZM18.5 20.25H2v1.5h16.5v-1.5Zm-2.876-3.834 2-3-1.248-.832-2 3 1.248.832Zm.74-3.018 5 8 1.272-.796-5-8-1.272.796ZM22 20.25h-4v1.5h4v-1.5Zm-3.357.364-3-5-1.286.772 3 5 1.286-.772ZM20.25 6A2.25 2.25 0 0 1 18 8.25v1.5A3.75 3.75 0 0 0 21.75 6h-1.5ZM18 8.25A2.25 2.25 0 0 1 15.75 6h-1.5A3.75 3.75 0 0 0 18 9.75v-1.5ZM15.75 6A2.25 2.25 0 0 1 18 3.75v-1.5A3.75 3.75 0 0 0 14.25 6h1.5ZM18 3.75A2.25 2.25 0 0 1 20.25 6h1.5A3.75 3.75 0 0 0 18 2.25v1.5Z"/>
</svg>
