<svg xmlns="http://www.w3.org/2000/svg" fill="none" viewBox="0 0 24 24" stroke-width="1.5" stroke="currentColor" aria-hidden="true" data-slot="icon">
  <path fill="#000" d="M16.047 11.62a.75.75 0 0 0-.281 1.474l.281-1.473Zm-7.66 1.446a.75.75 0 0 0-.268-1.476l.268 1.476ZM11.25 17a.75.75 0 0 0 1.5 0h-1.5Zm4.516-3.906c2.064.394 3.67 1.085 4.605 1.888l.978-1.138c-1.212-1.041-3.106-1.804-5.302-2.223l-.281 1.473Zm4.605 1.888c.461.396.712.78.817 1.118.1.325.082.654-.078 1.002l1.361.629c.31-.672.364-1.383.15-2.075-.21-.677-.66-1.286-1.272-1.812l-.978 1.138Zm.739 2.12c-.345.745-1.352 1.566-3.089 2.196l.512 1.41c1.864-.676 3.34-1.684 3.938-2.977l-1.361-.63Zm-3.089 2.196c-1.703.618-3.862.96-6.105.952l-.005 1.5c2.383.01 4.722-.353 6.622-1.042l-.512-1.41Zm-6.105.952c-2.243-.009-4.387-.368-6.063-.998l-.527 1.404c1.875.705 4.2 1.085 6.585 1.094l.005-1.5Zm-6.063-.998c-1.711-.644-2.676-1.468-2.986-2.204l-1.382.583c.553 1.31 2.001 2.333 3.84 3.025l.528-1.404Zm-2.986-2.204a1.337 1.337 0 0 1-.038-1c.12-.342.39-.729.87-1.125l-.954-1.157c-.628.518-1.098 1.117-1.332 1.788a2.836 2.836 0 0 0 .072 2.077l1.382-.583Zm.832-2.125c.971-.8 2.61-1.48 4.688-1.857L8.12 11.59c-2.211.402-4.129 1.149-5.374 2.176l.954 1.157ZM11.25 9v8h1.5V9h-1.5Zm3-3A2.25 2.25 0 0 1 12 8.25v1.5A3.75 3.75 0 0 0 15.75 6h-1.5ZM12 8.25A2.25 2.25 0 0 1 9.75 6h-1.5A3.75 3.75 0 0 0 12 9.75v-1.5ZM9.75 6A2.25 2.25 0 0 1 12 3.75v-1.5A3.75 3.75 0 0 0 8.25 6h1.5ZM12 3.75A2.25 2.25 0 0 1 14.25 6h1.5A3.75 3.75 0 0 0 12 2.25v1.5Z"/>
  <path fill="color(display-p3 .9804 .5608 .5608)" d="M14 6a2 2 0 1 1-4 0 2 2 0 0 1 4 0Z"/>
</svg>
