<svg xmlns="http://www.w3.org/2000/svg" fill="none" viewBox="0 0 24 24" stroke-width="1.5" stroke="currentColor" aria-hidden="true" data-slot="icon">
  <path fill="color(display-p3 .9804 .5608 .5608)" d="M12.5 11a2 2 0 1 1-4 0 2 2 0 0 1 4 0Z"/>
  <path stroke-linecap="round" stroke-linejoin="round" d="m3.707 3.707 2.856 11.898a1 1 0 0 0 .747.741l5.357 1.236a1 1 0 0 0 .932-.267l3.716-3.716a1 1 0 0 0 .267-.932L16.346 7.31a1 1 0 0 0-.74-.747l-11.9-2.856Zm0 0 5.5 5.5m3.5 1.5a2 2 0 1 1-4 0 2 2 0 0 1 4 0ZM14 20l-.586-.586a1 1 0 0 1 0-1.414L18 13.414a1 1 0 0 1 1.414 0L20 14a1 1 0 0 1 0 1.414L15.414 20A1 1 0 0 1 14 20Z"/>
</svg>
