<svg xmlns="http://www.w3.org/2000/svg" fill="none" viewBox="0 0 24 24" stroke-width="1.5" stroke="currentColor" aria-hidden="true" data-slot="icon">
  <path fill="color(display-p3 .9804 .5608 .5608)" d="M20.81 17a2 2 0 1 1-4 0 2 2 0 0 1 4 0Z"/>
  <path fill="#000" d="m8.079 4.148.53-.53-.53.53Zm.616.616-.53.53.53-.53Zm-.431 4.428-.615.43.615-.43Zm1.074 1.534-.614.43.614-.43ZM13.3 14.42l-.386.643.386-.643Zm1.516.91.386-.643-.386.643Zm4.275-.336-.488.57.488-.57Zm.509.436.488-.57-.488.57Zm.242 3.376.564.494-.564-.494Zm-.62.708-.564-.494.564.494Zm-3.172.881.229-.714-.229.714Zm-1.304-.417.23-.714-.23.714ZM3.982 4.938l-.53-.53.53.53Zm.79-.79-.53-.53.53.53ZM3.258 7.45l-.732.167.732-.167Zm5.31-.37-.469-.585.469.586Zm-1.02-2.401.617.616 1.06-1.06-.616-.617-1.06 1.061Zm.101 4.944 1.075 1.535 1.228-.86L8.878 8.76l-1.229.86Zm5.265 5.44 1.516.91.772-1.286-1.517-.91-.771 1.286Zm5.689.5.508.437.977-1.14-.51-.435-.975 1.139Zm.674 2.749-.62.708 1.13.988.62-.709-1.13-.987Zm-2.998 1.37-1.304-.418-.457 1.428 1.304.418.457-1.429ZM4.512 5.467l.79-.79-1.06-1.06-.79.79 1.06 1.06Zm10.463 13.795A16.39 16.39 0 0 1 3.988 7.285l-1.463.333a17.89 17.89 0 0 0 11.993 13.074l.457-1.43ZM3.988 7.285a1.956 1.956 0 0 1 .524-1.817l-1.06-1.06a3.456 3.456 0 0 0-.927 3.21l1.463-.333Zm14.67 11.734a2.25 2.25 0 0 1-2.38.661l-.456 1.429a3.75 3.75 0 0 0 3.965-1.103l-1.13-.987Zm.453-3.02c.69.59.764 1.629.166 2.312l1.13.988a3.13 3.13 0 0 0-.32-4.44L19.112 16Zm-1.74-.389a.907.907 0 0 1 1.232-.047l.976-1.14a2.407 2.407 0 0 0-3.269.126l1.06 1.061Zm-8.647-4.453a13.75 13.75 0 0 0 4.19 3.905l.771-1.286a12.25 12.25 0 0 1-3.733-3.48l-1.228.86Zm5.706 4.815c.947.568 2.16.419 2.94-.362l-1.06-1.06a.907.907 0 0 1-1.108.136l-.772 1.286ZM8.098 6.496a2.308 2.308 0 0 0-.449 3.126l1.229-.86a.808.808 0 0 1 .157-1.095l-.937-1.17Zm.067-1.202c.34.34.31.901-.067 1.202l.937 1.171a2.308 2.308 0 0 0 .19-3.433l-1.06 1.06Zm.444-1.677a3.088 3.088 0 0 0-4.367 0l1.06 1.061a1.589 1.589 0 0 1 2.246 0l1.061-1.06Z"/>
</svg>
