<svg xmlns="http://www.w3.org/2000/svg" fill="none" viewBox="0 0 24 24" stroke-width="1.5" stroke="currentColor" aria-hidden="true" data-slot="icon">
  <path fill="color(display-p3 .9804 .5608 .5608)" d="M14.5 12.5a2 2 0 1 1-4 0 2 2 0 0 1 4 0Z"/>
  <path fill="#000" d="M18 17.5a.5.5 0 1 1-1 0 .5.5 0 0 1 1 0Zm-5-5a.5.5 0 1 1-1 0 .5.5 0 0 1 1 0Z"/>
  <path fill="color(display-p3 .851 .851 .851)" d="M7 6.5a.5.5 0 1 1-1 0 .5.5 0 0 1 1 0Zm0 11a.5.5 0 1 1-1 0 .5.5 0 0 1 1 0Zm11-11a.5.5 0 1 1-1 0 .5.5 0 0 1 1 0Z"/>
  <path stroke-linecap="round" d="M14 16.5V21m3 0h3a1 1 0 0 0 1-1v-3m-4.5-3H21M4 3h5a1 1 0 0 1 1 1v5a1 1 0 0 1-1 1H4a1 1 0 0 1-1-1V4a1 1 0 0 1 1-1Zm11 0h5a1 1 0 0 1 1 1v5a1 1 0 0 1-1 1h-5a1 1 0 0 1-1-1V4a1 1 0 0 1 1-1ZM4 14h5a1 1 0 0 1 1 1v5a1 1 0 0 1-1 1H4a1 1 0 0 1-1-1v-5a1 1 0 0 1 1-1Zm14 3.5a.5.5 0 1 1-1 0 .5.5 0 0 1 1 0Zm-5-5a.5.5 0 1 1-1 0 .5.5 0 0 1 1 0Zm-6-6a.5.5 0 1 1-1 0 .5.5 0 0 1 1 0Zm0 11a.5.5 0 1 1-1 0 .5.5 0 0 1 1 0Zm11-11a.5.5 0 1 1-1 0 .5.5 0 0 1 1 0Z"/>
</svg>
