<svg xmlns="http://www.w3.org/2000/svg" fill="none" viewBox="0 0 24 24" stroke-width="1.5" stroke="currentColor" aria-hidden="true" data-slot="icon">
  <path fill="color(display-p3 .9804 .5608 .5608)" d="M17.936 4.5a2 2 0 1 1-4 0 2 2 0 0 1 4 0Z"/>
  <path stroke-linecap="round" stroke-linejoin="round" d="M18.708 5H19a2 2 0 0 1 2 2v2.314a2 2 0 0 1-2 2h-5.167a2 2 0 0 0-2 2V15.2m0 0H11a1 1 0 0 0-1 1V21a1 1 0 0 0 1 1h1.667a1 1 0 0 0 1-1v-4.8a1 1 0 0 0-1-1h-.834ZM5 7h11a2 2 0 0 0 2-2V4a2 2 0 0 0-2-2H5a2 2 0 0 0-2 2v1a2 2 0 0 0 2 2Z"/>
</svg>
