<svg xmlns="http://www.w3.org/2000/svg" fill="none" viewBox="0 0 24 24" stroke-width="1.5" stroke="currentColor" aria-hidden="true" data-slot="icon">
  <circle cx="13" cy="7" r="2" fill="color(display-p3 .9804 .5608 .5608)"/>
  <path stroke-linejoin="round" d="m13 3 2.292 5.613a2 2 0 0 0 1.095 1.095L22 12l-5.613 2.292a2 2 0 0 0-1.095 1.095L13 21l-2.292-5.613a2 2 0 0 0-1.095-1.095L4 12l5.613-2.292a2 2 0 0 0 1.095-1.095L13 3Z"/>
  <path stroke-linecap="round" stroke-linejoin="round" d="M4.5 2v2.5m0 2.5V4.5m0 0H2h5M4.5 17v2.5m0 2.5v-2.5m0 0H7 2"/>
</svg>
