<svg xmlns="http://www.w3.org/2000/svg" fill="none" viewBox="0 0 24 24" stroke-width="1.5" stroke="currentColor" aria-hidden="true" data-slot="icon">
  <path fill="color(display-p3 .9804 .5608 .5608)" d="M14.063 3.75a2 2 0 1 1-4 0 2 2 0 0 1 4 0Z"/>
  <path fill="#000" d="M17.75 19.25a.75.75 0 0 0-1.5 0h1.5ZM11.674 3h.652V1.5h-.652V3Zm10 8.5H2.326V13h19.348v-1.5Zm-19.348 0c.234 0 .424.19.424.424h-1.5c0 .594.482 1.076 1.076 1.076v-1.5Zm18.924.424c0-.234.19-.424.424-.424V13c.594 0 1.076-.482 1.076-1.076h-1.5ZM12.326 3a8.924 8.924 0 0 1 8.924 8.924h1.5C22.75 6.167 18.083 1.5 12.326 1.5V3Zm-.652-1.5C5.917 1.5 1.25 6.167 1.25 11.924h1.5A8.924 8.924 0 0 1 11.674 3V1.5Zm-.424 10.75v7.5h1.5v-7.5h-1.5Zm6.5 7.5v-.5h-1.5v.5h1.5ZM14.5 23a3.25 3.25 0 0 0 3.25-3.25h-1.5a1.75 1.75 0 0 1-1.75 1.75V23Zm-3.25-3.25A3.25 3.25 0 0 0 14.5 23v-1.5a1.75 1.75 0 0 1-1.75-1.75h-1.5Z"/>
</svg>
