<svg xmlns="http://www.w3.org/2000/svg" viewBox="0 0 24 24" fill="currentColor" aria-hidden="true" data-slot="icon">
  <path d="M21 12.81a9 9 0 1 1-18 0 9 9 0 0 1 18 0Z"/>
  <path d="m17.16 20.185.703-.546.519-.483 1.778 1.753a.75.75 0 0 1-1.06 1.061l-1.94-1.785Zm-10.53-.152L6 19.518l-.546-.531L3.53 20.91a.75.75 0 1 0 1.061 1.06l2.038-1.937Z"/>
  <path d="M12.5 12.218V8.56a.75.75 0 0 0-1.5 0v4.153c0 .063.021.124.06.173l1.443 1.803a.713.713 0 0 0 1.126-.873l-1.073-1.432a.278.278 0 0 1-.056-.166Z"/>
  <path d="M2.872 7.037c-.329.13-.706-.033-.781-.378a4 4 0 0 1 4.905-4.723c.342.088.49.471.348.795-.141.324-.52.464-.867.402a2.72 2.72 0 0 0-3.17 3.052c.048.35-.106.723-.435.852Zm18.256 0c.329.13.706-.033.781-.378a3.999 3.999 0 0 0-4.904-4.723c-.343.088-.49.471-.35.795.142.324.52.464.868.402a2.72 2.72 0 0 1 3.17 3.052c-.048.35.105.723.435.852Z"/>
</svg>
