<svg xmlns="http://www.w3.org/2000/svg" viewBox="0 0 24 24" fill="currentColor" aria-hidden="true" data-slot="icon">
  <path d="m12.5 19.09 3.488-3.487a.884.884 0 1 1 1.25 1.25l-4.895 4.894a.553.553 0 0 1-.728.048L6.448 17.82a.857.857 0 0 1 1.037-1.365L11 19.09V9.84a.75.75 0 0 1 1.5 0v9.25Z"/>
  <path d="M22 4.377V9.34a.75.75 0 0 1-1.5 0V4.674c0-.598-.485-1.083-1.083-1.083H4.583c-.598 0-1.083.485-1.083 1.083v4.667a.75.75 0 0 1-1.5 0V4.377A2.286 2.286 0 0 1 4.286 2.09h15.428A2.286 2.286 0 0 1 22 4.377Z"/>
</svg>
