<svg xmlns="http://www.w3.org/2000/svg" viewBox="0 0 24 24" fill="currentColor" aria-hidden="true" data-slot="icon">
  <path d="m12.5 4.91 3.488 3.487a.884.884 0 1 0 1.25-1.25l-4.895-4.895a.553.553 0 0 0-.728-.047L6.448 6.18a.857.857 0 0 0 1.037 1.365L11 4.91v9.25a.75.75 0 0 0 1.5 0V4.91Z"/>
  <path d="M22 19.623V14.66a.75.75 0 0 0-1.5 0v4.667c0 .598-.485 1.083-1.083 1.083H4.583A1.083 1.083 0 0 1 3.5 19.326v-4.667a.75.75 0 0 0-1.5 0v4.964a2.286 2.286 0 0 0 2.286 2.286h15.428A2.286 2.286 0 0 0 22 19.624Z"/>
</svg>
