<svg xmlns="http://www.w3.org/2000/svg" viewBox="0 0 24 24" fill="currentColor" aria-hidden="true" data-slot="icon">
  <path d="m11.351 7.707-3.195-3.55a.28.28 0 0 0-.407-.011L4.166 7.729a.707.707 0 1 0 1 1l2.792-2.792 2.28 2.734a.737.737 0 1 0 1.113-.964Zm8.5 4-3.195-3.55a.28.28 0 0 0-.407-.011l-3.583 3.583a.707.707 0 1 0 1 1l2.792-2.792 2.28 2.734a.737.737 0 1 0 1.113-.964Z"/>
  <path d="M7.227 19.186a.75.75 0 0 0 1.5 0v-12.5a.75.75 0 0 0-1.5 0v12.5Zm8.5 0a.75.75 0 0 0 1.5 0v-8.5a.75.75 0 0 0-1.5 0v8.5Z"/>
</svg>
