<svg xmlns="http://www.w3.org/2000/svg" viewBox="0 0 24 24" fill="currentColor" aria-hidden="true" data-slot="icon">
  <path d="M13.616 12.116a1.5 1.5 0 1 1-3 0 1.5 1.5 0 0 1 3 0Z"/>
  <path fill-rule="evenodd" d="M20.574 20.574c2.104-2.105-.029-7.65-4.764-12.385C11.075 3.454 5.53 1.322 3.426 3.426c-2.104 2.105.028 7.65 4.763 12.384 4.736 4.736 10.28 6.868 12.385 4.764Zm-1.27-1.27c1.503-1.504-1.25-6.694-4.582-10.026S6.2 3.193 4.696 4.696C3.193 6.2 5.946 11.39 9.278 14.722s8.522 6.085 10.025 4.581Z" clip-rule="evenodd"/>
  <path fill-rule="evenodd" d="M3.426 20.574c2.105 2.104 7.65-.028 12.384-4.764 4.736-4.735 6.868-10.28 4.764-12.384-2.105-2.104-7.65.028-12.385 4.763-4.735 4.736-6.867 10.28-4.763 12.385Zm1.27-1.27c1.504 1.503 6.694-1.25 10.026-4.582S20.807 6.2 19.303 4.696C17.8 3.193 12.61 5.946 9.278 9.278 5.946 12.61 3.193 17.8 4.696 19.303Z" clip-rule="evenodd"/>
</svg>
