<svg xmlns="http://www.w3.org/2000/svg" viewBox="0 0 24 24" fill="currentColor" aria-hidden="true" data-slot="icon">
  <path d="M20.254 18H3.747a.492.492 0 0 1-.453-.686l1.843-4.3c.57-1.329.863-2.76.863-4.205C6 5.6 8.6 3 11.81 3h.383C15.398 3 18 5.6 18 8.809c0 1.446.294 2.876.863 4.205l1.843 4.3a.492.492 0 0 1-.452.686ZM9.156 19.167c-.21.219-.212.577.02.77a4.582 4.582 0 0 0 2.786 1.06 4.562 4.562 0 0 0 2.84-.89c.243-.177.26-.535.064-.766-.198-.232-.535-.248-.784-.079a3.514 3.514 0 0 1-2.089.615 3.53 3.53 0 0 1-2.05-.741c-.24-.184-.577-.188-.787.03Z"/>
</svg>
