<svg xmlns="http://www.w3.org/2000/svg" viewBox="0 0 24 24" fill="currentColor" aria-hidden="true" data-slot="icon">
  <path d="M16.78 4.257A6 6 0 0 1 18.538 8.5c0 2.1.27 3.751.648 5.032L9.171 3.534a6 6 0 0 1 7.61.723ZM4.888 15.105c.87-1.399 1.65-3.515 1.65-6.605a6 6 0 0 1 .259-1.743L17.537 17.5H5.928c-1.197 0-1.795 0-1.927-.098-.147-.11-.186-.179-.2-.361-.014-.165.353-.755 1.088-1.936Zm4.805 4.562c-.21.219-.211.577.021.77a4.582 4.582 0 0 0 2.785 1.06 4.562 4.562 0 0 0 2.84-.89c.243-.177.262-.535.064-.766-.197-.232-.535-.248-.783-.079a3.514 3.514 0 0 1-2.09.615 3.53 3.53 0 0 1-2.05-.741c-.239-.184-.577-.188-.787.03Z"/>
  <path d="M4.222 4.598a.75.75 0 0 1 1.06-1.06l14.699 14.697a.75.75 0 0 1-1.061 1.061L4.222 4.598Z"/>
</svg>
