<svg xmlns="http://www.w3.org/2000/svg" viewBox="0 0 24 24" fill="currentColor" aria-hidden="true" data-slot="icon">
  <path d="M20.345 17.711H3.922a.52.52 0 0 1-.478-.724l1.864-4.35a10.2 10.2 0 0 0 .826-4.022 5.904 5.904 0 0 1 5.903-5.904h.193a5.904 5.904 0 0 1 5.904 5.904c0 1.383.28 2.752.825 4.023l1.864 4.349a.52.52 0 0 1-.478.724ZM9.29 19.878c-.21.22-.212.577.02.77a4.582 4.582 0 0 0 2.785 1.061 4.562 4.562 0 0 0 2.84-.89c.243-.178.261-.535.064-.767-.197-.231-.535-.248-.784-.079a3.513 3.513 0 0 1-2.088.615 3.529 3.529 0 0 1-2.051-.74c-.239-.185-.577-.189-.787.03ZM21.2 7.69c.295.072.606-.106.656-.403a4.582 4.582 0 0 0-.473-2.943 4.562 4.562 0 0 0-2.19-2.015c-.277-.12-.595.042-.697.329-.102.286.053.587.324.718a3.514 3.514 0 0 1 1.576 1.501c.353.656.484 1.406.384 2.147-.04.298.126.593.42.666Zm-18.401 0c-.295.072-.606-.106-.656-.403a4.582 4.582 0 0 1 .473-2.943 4.562 4.562 0 0 1 2.19-2.015c.277-.12.595.042.697.329.102.286-.053.587-.324.718a3.514 3.514 0 0 0-1.576 1.501 3.53 3.53 0 0 0-.384 2.147c.04.298-.126.593-.42.666Z"/>
</svg>
