<svg xmlns="http://www.w3.org/2000/svg" viewBox="0 0 24 24" fill="currentColor" aria-hidden="true" data-slot="icon">
  <path d="M21 15h-2a1 1 0 0 0-1 1v2a1 1 0 0 0 1 1h2a1 1 0 0 0 1-1v-2a1 1 0 0 0-1-1ZM5 15H3a1 1 0 0 0-1 1v2a1 1 0 0 0 1 1h2a1 1 0 0 0 1-1v-2a1 1 0 0 0-1-1Z"/>
  <path d="M3.017 15.448a9 9 0 0 1 17.98.342l-1.383.032a7.617 7.617 0 0 0-15.216-.29l-1.381-.084ZM3 9a2 2 0 1 0 0-4 2 2 0 0 0 0 4Zm18 0a2 2 0 1 0 0-4 2 2 0 0 0 0 4Z"/>
  <path d="M13 5h-2a1 1 0 0 0-1 1v2a1 1 0 0 0 1 1h2a1 1 0 0 0 1-1V6a1 1 0 0 0-1-1Z"/>
  <path d="M4 6h16v1.5H4V6Z"/>
</svg>
