<svg xmlns="http://www.w3.org/2000/svg" viewBox="0 0 24 24" fill="currentColor" aria-hidden="true" data-slot="icon">
  <path d="M17.776 3.197a1.88 1.88 0 0 1 2.652 2.652l-9.624 10.88a1 1 0 0 1-1.456.044L6.85 14.277a1 1 0 0 1 .045-1.456l10.88-9.624Z"/>
  <path d="M6.336 20.857c1.35-.419 3.622-2.77 2.428-4.603-.564-.866-1.997-1.65-3.164-1.479-1.304.192-2.191 1.131-2.096 2.316.096 1.184 0 3.208-.404 4.184 1.618 0 2.832-.279 3.236-.418Z"/>
  <path d="m8.661 11.276.707-.707 3.732 3.706-1 1-3.439-3.999Z"/>
</svg>
