<svg xmlns="http://www.w3.org/2000/svg" viewBox="0 0 24 24" fill="currentColor" aria-hidden="true" data-slot="icon">
  <path d="M3 14.25h18v3a3 3 0 0 1-3 3H6a3 3 0 0 1-3-3v-3Zm0-7v7h1.5v-7.5a1 1 0 0 1 1-1h13a1 1 0 0 1 1 1v7.5H21v-7a3 3 0 0 0-3-3H6a3 3 0 0 0-3 3Z"/>
  <path d="M8.25 17.75h-1.5a.75.75 0 0 1 0-1.5h1.5a.75.75 0 0 1 0 1.5Zm10 0h-1.5a.75.75 0 0 1 0-1.5h1.5a.75.75 0 0 1 0 1.5Z"/>
  <path d="M8.749 2.379 8 4.25h8l-.749-1.871a1 1 0 0 0-.928-.629H9.677a1 1 0 0 0-.928.629ZM9 20.75a1.5 1.5 0 1 1-3 0 1.5 1.5 0 0 1 3 0Zm9 0a1.5 1.5 0 1 1-3 0 1.5 1.5 0 0 1 3 0Z"/>
</svg>
