<svg xmlns="http://www.w3.org/2000/svg" viewBox="0 0 25 24" fill="currentColor" aria-hidden="true" data-slot="icon">
  <path d="M3.305 10h18v9a3 3 0 0 1-3 3h-12a3 3 0 0 1-3-3v-9Zm0-3v3h1.5V6.5a1 1 0 0 1 1-1h13a1 1 0 0 1 1 1V10h1.5V7a3 3 0 0 0-3-3h-12a3 3 0 0 0-3 3Z"/>
  <path d="m12.577 14-.75.59a.541.541 0 1 1-.657-.86l2.054-1.519a.179.179 0 0 1 .286.144V17.5h.82a.5.5 0 1 1 0 1h-3.02a.505.505 0 0 1-.01-1.01l1.277-.024V14Z"/>
  <path d="M7.305 2.75a.75.75 0 1 1 1.5 0v3.5a.75.75 0 0 1-1.5 0v-3.5Zm9 0a.75.75 0 0 1 1.5 0v3.5a.75.75 0 0 1-1.5 0v-3.5Z"/>
</svg>
