<svg xmlns="http://www.w3.org/2000/svg" viewBox="0 0 25 24" fill="currentColor" aria-hidden="true" data-slot="icon">
  <path d="M3.305 10h18v9a3 3 0 0 1-3 3h-12a3 3 0 0 1-3-3v-9Zm0-3v3h1.5V6.5a1 1 0 0 1 1-1h13a1 1 0 0 1 1 1V10h1.5V7a3 3 0 0 0-3-3h-12a3 3 0 0 0-3 3Z"/>
  <path d="M11.032 18.727 8.805 16.5a.707.707 0 1 1 1-1l1.5 1.5 3.5-3.5a.707.707 0 0 1 1 1l-4.228 4.227a.386.386 0 0 1-.545 0Z"/>
  <path d="M7.305 2.75a.75.75 0 1 1 1.5 0v3.5a.75.75 0 0 1-1.5 0v-3.5Zm9 0a.75.75 0 0 1 1.5 0v3.5a.75.75 0 0 1-1.5 0v-3.5Z"/>
</svg>
