<svg xmlns="http://www.w3.org/2000/svg" viewBox="0 0 24 24" fill="currentColor" aria-hidden="true" data-slot="icon">
  <path d="m6.509 16.91 5.212-5.213a.394.394 0 0 1 .557 0l5.213 5.213a.884.884 0 0 1-1.25 1.25l-3.888-3.888a.5.5 0 0 0-.707 0L7.76 18.16a.884.884 0 0 1-.625.259c-.788 0-1.182-.953-.625-1.51Z"/>
  <path d="m6.509 10.91 5.212-5.213a.394.394 0 0 1 .557 0l5.213 5.213a.884.884 0 0 1-1.25 1.25l-3.888-3.888a.5.5 0 0 0-.707 0L7.76 12.16a.884.884 0 0 1-.625.258c-.788 0-1.182-.952-.625-1.508Z"/>
</svg>
