<svg xmlns="http://www.w3.org/2000/svg" viewBox="0 0 24 24" fill="currentColor" aria-hidden="true" data-slot="icon">
  <path d="M4 19V6a2 2 0 0 1 2-2h1a1 1 0 0 1 1 1 1 1 0 0 0 1 1h6a1 1 0 0 0 1-1 1 1 0 0 1 1-1h1a2 2 0 0 1 2 2v13a3 3 0 0 1-3 3H7a3 3 0 0 1-3-3Z"/>
  <path fill-rule="evenodd" d="M8 2a1 1 0 0 0-1 1v3a1 1 0 0 0 1 1h8a1 1 0 0 0 1-1V3a1 1 0 0 0-1-1H8Zm7.125 1.5h-6.25v2h6.25v-2Z" clip-rule="evenodd"/>
  <path fill-rule="evenodd" d="M8 2a1 1 0 0 0-1 1v3a1 1 0 0 0 1 1h8a1 1 0 0 0 1-1V3a1 1 0 0 0-1-1H8Zm7.125 1.5h-6.25v2h6.25v-2Z" clip-rule="evenodd"/>
</svg>
