<svg xmlns="http://www.w3.org/2000/svg" viewBox="0 0 24 24" fill="currentColor" aria-hidden="true" data-slot="icon">
  <path d="M21.064 13a9 9 0 1 1-18 0 9 9 0 0 1 18 0ZM5.413 3.59a.75.75 0 0 0-1.061-1.06L1.589 5.293a.75.75 0 0 0 1.06 1.06l2.764-2.762Z"/>
  <path d="M9.813 2a.75.75 0 0 0 0 1.5h4.5a.75.75 0 0 0 0-1.5h-4.5Zm8.776 1.59a.75.75 0 0 1 1.06-1.06l2.763 2.763a.75.75 0 1 1-1.06 1.06l-2.763-2.762Z"/>
  <path d="M13.063 13V8.75a.75.75 0 0 0-1.5 0v5.046c0 .128.062.248.167.323l2.588 1.849a.887.887 0 1 0 1.008-1.46L13.063 13Z"/>
  <path d="M13.063 2.75a.75.75 0 0 0-1.5 0v1.5a.75.75 0 1 0 1.5 0v-1.5Z"/>
</svg>
