<svg xmlns="http://www.w3.org/2000/svg" viewBox="0 0 24 24" fill="currentColor" aria-hidden="true" data-slot="icon">
  <path fill-rule="evenodd" d="M13.982 10.565v2.781a4 4 0 1 1 0 3.808v.3c0 1.268-2.57 2.296-5.741 2.296-3.17 0-5.741-1.028-5.741-2.296V6.546c0-1.268 2.57-2.296 5.74-2.296 3.171 0 5.742 1.028 5.742 2.296v4.019ZM8.24 8.843c1.878 0 3.545-.361 4.592-.919v2.87c-1.047.558-2.714.919-4.592.919-1.878 0-3.545-.36-4.593-.919v-2.87c1.047.558 2.715.919 4.593.919Zm0 4.018c1.878 0 3.545-.36 4.592-.918v2.296c-1.047.557-2.714.918-4.592.918-1.878 0-3.545-.36-4.593-.918v-2.296c1.047.558 2.715.918 4.593.918Zm0 3.445c1.878 0 3.545-.361 4.592-.919v2.296c-1.047.558-2.714.919-4.592.919-1.878 0-3.545-.361-4.593-.919v-2.296c1.047.558 2.715.919 4.593.919Z" clip-rule="evenodd"/>
  <path d="m17.457 13.267-1.724.69a.371.371 0 0 0 .276.69l.491-.197v2h-.6a.4.4 0 0 0 0 .8h2.2a.4.4 0 0 0 0-.8h-.6v-3.154a.031.031 0 0 0-.043-.03Z"/>
</svg>
