<svg xmlns="http://www.w3.org/2000/svg" viewBox="0 0 24 24" fill="currentColor" aria-hidden="true" data-slot="icon">
  <path d="M12.25 10.145v-7.29a.5.5 0 0 1 .745-.436l6.48 3.645a.5.5 0 0 1 0 .872l-6.48 3.645a.5.5 0 0 1-.745-.436Zm7.763 6.293L12.6 12.456a.5.5 0 0 1 .013-.887l7.413-3.707a.5.5 0 0 1 .724.447v7.689a.5.5 0 0 1-.737.44Zm-7.763 4.707v-7.29a.5.5 0 0 1 .745-.436l6.48 3.645a.5.5 0 0 1 0 .872l-6.48 3.645a.5.5 0 0 1-.745-.436Zm-1.757-7.691-6.028 3.617a.5.5 0 0 0 0 .858l6.028 3.617a.5.5 0 0 0 .757-.429v-7.234a.5.5 0 0 0-.757-.429Zm-.019-10.94L3.997 6.8a.5.5 0 0 0 .066.87l6.477 3.001a.5.5 0 0 0 .71-.454V2.93a.5.5 0 0 0-.776-.416ZM3.25 15.67V8.788a.5.5 0 0 1 .713-.452l6.882 3.238a.5.5 0 0 1 .02.894l-6.881 3.643a.5.5 0 0 1-.734-.441Z"/>
</svg>
