<svg xmlns="http://www.w3.org/2000/svg" viewBox="0 0 24 24" fill="currentColor" aria-hidden="true" data-slot="icon">
  <path d="M21 4.941c0 1.625-4.03 2.941-9 2.941s-9-1.316-9-2.94C3 3.316 7.03 2 12 2s9 1.317 9 2.941Zm-.18 6.471c-.834 1.342-4.466 2.353-8.82 2.353s-7.986-1.01-8.82-2.353c-.118.19-.18.387-.18.588 0 1.624 4.03 2.941 9 2.941s9-1.317 9-2.941c0-.201-.062-.398-.18-.588Z"/>
  <path d="M3 4.941c0-.325.269-.588.6-.588.331 0 .6.263.6.588V19.06a.594.594 0 0 1-.6.588.594.594 0 0 1-.6-.588V4.94Zm16.8 0c0-.325.269-.588.6-.588.331 0 .6.263.6.588V19.06a.594.594 0 0 1-.6.588.594.594 0 0 1-.6-.588V4.94Z"/>
  <path d="M20.82 18.47c-.834 1.343-4.466 2.354-8.82 2.354s-7.986-1.01-8.82-2.353c-.118.19-.18.386-.18.588C3 20.683 7.03 22 12 22s9-1.317 9-2.941c0-.202-.062-.398-.18-.588Z"/>
</svg>
