<svg xmlns="http://www.w3.org/2000/svg" viewBox="0 0 24 24" fill="currentColor" aria-hidden="true" data-slot="icon">
  <path d="M21 12a9 9 0 1 1-18 0 9 9 0 0 1 18 0Z"/>
  <path d="M15 12a3 3 0 1 1-6 0 3 3 0 0 1 6 0Zm3.335-.5c.367 0 .668-.299.631-.664a6.5 6.5 0 0 0-8.847-5.384c-.341.134-.468.539-.3.865.17.327.57.45.915.324a5.17 5.17 0 0 1 6.893 4.196c.047.364.34.663.708.663Zm-12.67 1c-.367 0-.669.299-.631.664a6.5 6.5 0 0 0 8.846 5.384c.342-.134.47-.539.3-.865-.168-.327-.569-.45-.914-.324a5.17 5.17 0 0 1-6.893-4.196c-.047-.364-.34-.663-.708-.663Z"/>
</svg>
