<svg xmlns="http://www.w3.org/2000/svg" viewBox="0 0 24 24" fill="currentColor" aria-hidden="true" data-slot="icon">
  <path d="M15.5 2.391h5.614c.351 0 .636.285.636.636v5.614a.75.75 0 0 1-1.5 0v-4.75H15.5a.75.75 0 0 1 0-1.5Zm0 19.218h5.614a.636.636 0 0 0 .636-.637V15.36a.75.75 0 0 0-1.5 0v4.75H15.5a.75.75 0 0 0 0 1.5Zm-7-19.218H2.886a.636.636 0 0 0-.636.636v5.614a.75.75 0 1 0 1.5 0v-4.75H8.5a.75.75 0 1 0 0-1.5Zm0 19.218H2.886a.636.636 0 0 1-.636-.637V15.36a.75.75 0 0 1 1.5 0v4.75H8.5a.75.75 0 0 1 0 1.5Z"/>
  <path d="M19.376 3.421a.75.75 0 0 1 1.061 1.061l-4.596 4.596a.75.75 0 0 1-1.06-1.06l4.595-4.597ZM4.624 20.578a.75.75 0 1 1-1.061-1.06l4.596-4.597a.75.75 0 1 1 1.06 1.061l-4.595 4.596Z"/>
</svg>
