<svg xmlns="http://www.w3.org/2000/svg" viewBox="0 0 24 24" fill="currentColor" aria-hidden="true" data-slot="icon">
  <path d="M4.526 4.165A.69.69 0 0 0 4.063 4a.687.687 0 0 0-.456.18.595.595 0 0 0-.194.425.589.589 0 0 0 .178.43l15.883 14.77a.704.704 0 0 0 .952.016.614.614 0 0 0 .146-.206.578.578 0 0 0-.163-.68L4.526 4.164Zm16.895 8.273a9.143 9.143 0 0 1-2.322 3.537l-2.735-2.543c.295-.768.35-1.598.157-2.394a4.232 4.232 0 0 0-1.244-2.1 4.742 4.742 0 0 0-2.259-1.158 4.965 4.965 0 0 0-2.575.146L8.258 5.894c1.188-.45 2.46-.68 3.743-.679 4.385 0 8.105 2.645 9.42 6.31.105.297.105.617 0 .913Z"/>
  <path d="M15.309 11.985c0 .147-.011.293-.033.434l-3.745-3.48a3.55 3.55 0 0 1 1.403.093 3.39 3.39 0 0 1 1.234.628c.358.288.646.646.843 1.047.196.4.298.837.298 1.278Zm-2.841 3.046L8.724 11.55c-.073.473-.026.955.136 1.409.163.453.436.865.8 1.203.363.337.806.592 1.294.743a3.546 3.546 0 0 0 1.515.126l-.001.001Z"/>
  <path d="M7.367 11.985c0-.508.095-.996.269-1.448L4.9 7.994a9.143 9.143 0 0 0-2.32 3.536 1.355 1.355 0 0 0 0 .914c1.313 3.665 5.033 6.31 9.42 6.31a10.56 10.56 0 0 0 3.742-.679l-2.185-2.032c-.7.232-1.449.304-2.184.21a4.84 4.84 0 0 1-2.043-.747 4.42 4.42 0 0 1-1.443-1.538 4.066 4.066 0 0 1-.52-1.983Z"/>
</svg>
