<svg xmlns="http://www.w3.org/2000/svg" viewBox="0 0 24 24" fill="currentColor" aria-hidden="true" data-slot="icon">
  <path d="M22 12c0 5.523-4.477 10-10 10S2 17.523 2 12 6.477 2 12 2s10 4.477 10 10Z"/>
  <path d="M11 9a2 2 0 1 1-4 0 2 2 0 0 1 4 0Zm6 0a2 2 0 1 1-4 0 2 2 0 0 1 4 0Zm0 5.114c0 .676-.13 1.087-.38 1.711a5.156 5.156 0 0 1-1.085 1.669 4.992 4.992 0 0 1-1.622 1.114 4.879 4.879 0 0 1-3.826 0 4.993 4.993 0 0 1-1.623-1.114 5.155 5.155 0 0 1-1.083-1.669A5.053 5.053 0 0 1 7 13.9l1.284.024c0 .517-.01.962.182 1.439.192.477.474.911.829 1.276a3.82 3.82 0 0 0 1.241.853 3.732 3.732 0 0 0 2.928 0 3.82 3.82 0 0 0 1.241-.853 3.96 3.96 0 0 0 .83-1.276c.191-.477.465-1.27.465-1.27l1 .021Z"/>
  <path d="M7 13.9c0-.473.373-1.286.833-1.286h8.334c.46 0 .833 1.027.833 1.5 0 .095.092 0 0 0L7.167 13.9c-.25 0-.167-.077-.167-.171v.171Z"/>
</svg>
