<svg xmlns="http://www.w3.org/2000/svg" viewBox="0 0 24 24" fill="currentColor" aria-hidden="true" data-slot="icon">
  <path d="M4.214 3.75H7.75a.75.75 0 0 0 0-1.5H3.045a.545.545 0 0 0-.545.545V8A.75.75 0 0 0 4 8V3.964c0-.118.096-.214.214-.214Zm0 16.5H7.75a.75.75 0 0 1 0 1.5H3.045a.545.545 0 0 1-.545-.546V16A.75.75 0 0 1 4 16v4.036c0 .118.096.214.214.214Zm15.572-16.5H16.25a.75.75 0 0 1 0-1.5h4.704c.302 0 .546.244.546.545V8A.75.75 0 0 1 20 8V3.964a.214.214 0 0 0-.214-.214Zm0 16.5H16.25a.75.75 0 0 0 0 1.5h4.704a.545.545 0 0 0 .546-.546V16a.75.75 0 0 0-1.5 0v4.036a.214.214 0 0 1-.214.214ZM13.5 11.861V7.5a.75.75 0 0 0-1.5 0v3.806a.944.944 0 0 1-.944.944.556.556 0 0 0-.556.556V13c0 .414.336.75.75.75h.361a1.889 1.889 0 0 0 1.889-1.889ZM16 7.5a.75.75 0 0 1 1.5 0V9A.75.75 0 0 1 16 9V7.5Zm-9 0a.75.75 0 0 1 1.5 0V9A.75.75 0 0 1 7 9V7.5Zm8.249 7.374c.293.101.452.424.31.7a4 4 0 0 1-7.072.089c-.148-.273.002-.6.293-.709.291-.108.611.043.774.308a2.876 2.876 0 0 0 4.929-.062c.156-.268.472-.428.766-.326Z"/>
</svg>
