<svg xmlns="http://www.w3.org/2000/svg" viewBox="0 0 24 24" fill="currentColor" aria-hidden="true" data-slot="icon">
  <path d="M2 6.75h17a3 3 0 0 1 3 3v8a3 3 0 0 1-3 3H5a3 3 0 0 1-3-3v-11Zm2-1v1H2v-2.5a1 1 0 0 1 1-1h7.42a1 1 0 0 1 .868.504L13 6.75h-2L9.855 5.164a1 1 0 0 0-.811-.414H5a1 1 0 0 0-1 1Z"/>
  <path fill-rule="evenodd" d="M15.16 16.203a4 4 0 1 0-.707.707l1.315 1.315a.5.5 0 1 0 .707-.707l-1.315-1.315Zm-3.16.531a2.984 2.984 0 1 1 0-5.968 2.984 2.984 0 0 1 0 5.968Z" clip-rule="evenodd"/>
</svg>
