<svg xmlns="http://www.w3.org/2000/svg" viewBox="0 0 24 24" fill="currentColor" aria-hidden="true" data-slot="icon">
  <path d="M2 6.75h17a3 3 0 0 1 3 3v8a3 3 0 0 1-3 3H5a3 3 0 0 1-3-3v-11Zm2-1v1H2v-2.5a1 1 0 0 1 1-1h7.42a1 1 0 0 1 .868.504L13 6.75h-2L9.855 5.164a1 1 0 0 0-.811-.414H5a1 1 0 0 0-1 1Z"/>
  <path d="M14.955 11.28a.75.75 0 0 0-1.06 0l-1.768 1.768-1.768-1.768a.75.75 0 0 0-1.06 1.061l1.767 1.768-1.768 1.768a.75.75 0 0 0 1.06 1.06l1.768-1.768 1.768 1.768a.75.75 0 0 0 1.06-1.06l-1.767-1.768 1.768-1.768a.75.75 0 0 0 0-1.06Z"/>
</svg>
