<svg xmlns="http://www.w3.org/2000/svg" viewBox="0 0 24 24" fill="currentColor" aria-hidden="true" data-slot="icon">
  <path d="M10 15.297a4 4 0 1 1-8 0 4 4 0 0 1 8 0Zm12 0a4 4 0 1 1-8 0 4 4 0 0 1 8 0Z"/>
  <path d="m2.686 9.123-.593 5.336c-.05.447.3.838.75.838H4l.781-6.64A2.58 2.58 0 0 1 6.837 6.43a.645.645 0 0 0 .499-.789l-.064-.258a.898.898 0 0 0-1.273-.585l-.456.228a5.226 5.226 0 0 0-2.857 4.097Zm18.299.081.876 5.258a.717.717 0 0 1-.707.835H20.5L19.409 9.48a3.772 3.772 0 0 0-2.514-2.884l-.159-.052a.776.776 0 1 1 .518-1.463l.486.182a5.106 5.106 0 0 1 3.245 3.942Zm-7.195 6.861c-1.365-.353-2.726-.201-3.618.021-.328.082-.672-.156-.672-.494 0-.18.102-.348.268-.42 1.756-.753 3.697-.43 4.517-.007a.422.422 0 0 1 .215.385c0 .358-.363.605-.71.515Z"/>
</svg>
