<svg xmlns="http://www.w3.org/2000/svg" viewBox="0 0 24 24" fill="currentColor" aria-hidden="true" data-slot="icon">
  <path d="M22 12c0 5.523-4.477 10-10 10S2 17.523 2 12 6.477 2 12 2s10 4.477 10 10Z"/>
  <path fill-rule="evenodd" d="M12 2h-1v.2c-1.317.535-2.446 2.105-3.166 4.267A9.05 9.05 0 0 1 5.5 4.5L4.402 5.502a10 10 0 0 0 3.036 2.397A18.784 18.784 0 0 0 7 12H2v1.5h5.056c.069.913.199 1.786.382 2.601a10 10 0 0 0-3.036 2.397l1.098.94a8.556 8.556 0 0 1 2.333-1.91c.72 2.165 1.849 3.737 3.167 4.272v.2h1.5v-.05c1.53-.303 2.858-1.988 3.667-4.421a8.551 8.551 0 0 1 2.37 1.953l1.105-.932a10.003 10.003 0 0 0-3.08-2.45c.183-.814.313-1.687.382-2.6H22V12h-5c0-1.461-.157-2.85-.438-4.1a10.001 10.001 0 0 0 3.08-2.45l-1.104-.932a8.552 8.552 0 0 1-2.37 1.953c-.81-2.433-2.137-4.118-3.668-4.422V2H12Zm-1 1.318c-.907.584-1.69 1.923-2.228 3.604A8.564 8.564 0 0 0 11 7.496V3.318Zm-2.603 5.01A17.44 17.44 0 0 0 8 12h3V8.95a9.998 9.998 0 0 1-2.603-.622Zm-.33 5.172c.065.742.178 1.474.33 2.172A9.997 9.997 0 0 1 11 15.05V13.5H8.067Zm.705 3.578c.538 1.68 1.32 3.02 2.228 3.604v-4.178a8.565 8.565 0 0 0-2.228.574ZM12.5 20.92c1.118-.353 2.093-1.86 2.728-3.844a8.555 8.555 0 0 0-2.728-.617v4.461Zm3.103-5.25c.152-.697.265-1.429.33-2.171H12.5v1.512a9.999 9.999 0 0 1 3.103.66ZM16 12a17.44 17.44 0 0 0-.397-3.672 10 10 0 0 1-3.103.66V12H16Zm-.772-5.077a8.557 8.557 0 0 1-2.728.617V3.08c1.118.353 2.093 1.86 2.728 3.844Z" clip-rule="evenodd"/>
</svg>
