<svg xmlns="http://www.w3.org/2000/svg" viewBox="0 0 24 24" fill="currentColor" aria-hidden="true" data-slot="icon">
  <path fill-rule="evenodd" d="M22 12c0 5.523-4.477 10-10 10S2 17.523 2 12 6.477 2 12 2c1.243 0 2.433.227 3.531.641 1.705-1.2 4.23-.665 5.207 1.618.36.84.267 1.814-.052 2.782A9.954 9.954 0 0 1 22 12ZM12 3.444a8.55 8.55 0 0 1 2.477.364 4.196 4.196 0 0 0-.24.487c-1.252 3.017 3.293 7.69 3.293 7.69s1.373-1.444 2.384-3.242a8.556 8.556 0 0 1-9.001 11.745c.633-.253 1.087-.924 1.087-1.71v-.054a2 2 0 0 1 .464-1.28l.508-.611a2 2 0 0 0-.544-3.017l-.902-.516a2 2 0 0 1-.797-.842l-1.068-2.137a2 2 0 0 0-2.118-1.078l-2.955.492c-.359.06-.686.215-.948.436A8.56 8.56 0 0 1 12 3.444Z" clip-rule="evenodd"/>
  <path d="M19 5.5a1.5 1.5 0 1 1-3 0 1.5 1.5 0 0 1 3 0Z"/>
</svg>
