<svg xmlns="http://www.w3.org/2000/svg" viewBox="0 0 24 24" fill="currentColor" aria-hidden="true" data-slot="icon">
  <path d="M21.146 15.48v3.02a3 3 0 0 1-3 3h-13l10.368-9.896a1 1 0 0 1 1.315-.058l3.942 3.154a1 1 0 0 1 .375.78ZM10.646 9a2.5 2.5 0 1 1-5 0 2.5 2.5 0 0 1 5 0Z"/>
  <path d="M5.185 2.5h7.712a.75.75 0 0 1 0 1.5H5.01a.864.864 0 0 0-.864.864V19a1 1 0 0 0 1 1h13.25a.75.75 0 0 1 0 1.5H5.646a3 3 0 0 1-3-3V5.038A2.538 2.538 0 0 1 5.185 2.5Z"/>
  <path d="M16.374 9.227 14.147 7a.707.707 0 1 1 1-1l1.5 1.5 3.5-3.5a.707.707 0 0 1 1 1l-4.228 4.227a.386.386 0 0 1-.545 0Z"/>
</svg>
