<svg xmlns="http://www.w3.org/2000/svg" viewBox="0 0 24 24" fill="currentColor" aria-hidden="true" data-slot="icon">
  <path d="M11.293 13.707 4.5 20.5h15l-6.793-6.793a1 1 0 0 0-1.414 0ZM10 8.5a2.5 2.5 0 1 1-5 0 2.5 2.5 0 0 1 5 0Z"/>
  <path fill-rule="evenodd" d="M5 3a3 3 0 0 0-3 3v12a3 3 0 0 0 3 3h14a3 3 0 0 0 3-3V6a3 3 0 0 0-3-3H5Zm-.204 1.5a1 1 0 0 0-1 1v13a1 1 0 0 0 1 1h14.537a1 1 0 0 0 1-1v-13a1 1 0 0 0-1-1H4.796Z" clip-rule="evenodd"/>
  <path d="M17.185 11.815 14 15l4.692 5.5C20 20 21 18.074 21 16.5V15l-2.308-3.078a1 1 0 0 0-1.507-.107Z"/>
</svg>
