<svg xmlns="http://www.w3.org/2000/svg" viewBox="0 0 24 24" fill="currentColor" aria-hidden="true" data-slot="icon">
  <path d="m11.553 16.776-9.182-4.59a.67.67 0 1 1 .6-1.2l8.73 4.364a.67.67 0 0 0 .599 0l8.73-4.365a.67.67 0 0 1 .6 1.2l-9.183 4.591a1 1 0 0 1-.894 0Z"/>
  <path d="m11.553 21.776-9.182-4.59a.67.67 0 1 1 .6-1.2l8.73 4.364a.67.67 0 0 0 .599 0l8.73-4.365a.67.67 0 0 1 .6 1.2l-9.183 4.591a1 1 0 0 1-.894 0ZM2.894 6.553l8.659-4.33a1 1 0 0 1 .894 0l8.659 4.33a.5.5 0 0 1 0 .894l-8.659 4.33a1 1 0 0 1-.894 0l-8.659-4.33a.5.5 0 0 1 0-.894Z"/>
</svg>
