<svg xmlns="http://www.w3.org/2000/svg" viewBox="0 0 24 24" fill="currentColor" aria-hidden="true" data-slot="icon">
  <path d="M17.82 13.713a.478.478 0 0 1 .407-.042c1.584.568 2.75 1.34 3.34 2.213.617.912.573 1.89-.124 2.79-.698.9-2.014 1.678-3.757 2.22-1.743.542-3.824.821-5.943.797-2.118-.024-4.165-.351-5.844-.933-1.68-.582-2.904-1.389-3.498-2.304-.594-.916-.527-1.892.193-2.79.69-.86 1.945-1.604 3.596-2.134a.467.467 0 0 1 .4.057c.335.223.261.74-.11.894-.97.4-1.716.901-2.167 1.463-.588.733-.643 1.531-.158 2.28.486.747 1.487 1.407 2.86 1.882 1.371.476 3.044.743 4.775.763 1.732.02 3.432-.208 4.857-.651 1.425-.444 2.5-1.079 3.07-1.815.57-.736.606-1.534.102-2.28-.376-.556-1.038-1.062-1.924-1.478-.377-.176-.431-.719-.074-.932Z"/>
  <path d="M12.04 17.947S4.906 10.614 6.872 5.879c1.966-4.735 8.184-4.77 10.203-.057 2.018 4.713-5.035 12.125-5.035 12.125Z"/>
  <path d="M15 7.692a3 3 0 1 1-6 0 3 3 0 0 1 6 0Zm-4.474 0a1.474 1.474 0 1 0 2.948 0 1.474 1.474 0 0 0-2.948 0Z"/>
</svg>
