<svg xmlns="http://www.w3.org/2000/svg" viewBox="0 0 24 24" fill="currentColor" aria-hidden="true" data-slot="icon">
  <path d="m7.102 4.63 3.034 2.698a.67.67 0 0 1-.865 1.025L6.954 6.5 4.638 8.353a.67.67 0 0 1-.865-1.025L6.807 4.63a.221.221 0 0 1 .295 0Zm0 14.74 3.034-2.698a.67.67 0 0 0-.865-1.025L6.954 17.5l-2.316-1.853a.67.67 0 0 0-.865 1.025l3.034 2.697c.084.075.21.075.295 0Z"/>
  <path d="M6.186 6.75a.75.75 0 1 1 1.5 0v10.5a.75.75 0 0 1-1.5 0V6.75Zm6.268-.5a.75.75 0 0 1 .75-.75h6.5a.75.75 0 0 1 0 1.5h-6.5a.75.75 0 0 1-.75-.75Zm0 4a.75.75 0 0 1 .75-.75h6.5a.75.75 0 0 1 0 1.5h-6.5a.75.75 0 0 1-.75-.75Zm0 4a.75.75 0 0 1 .75-.75h6.5a.75.75 0 0 1 0 1.5h-6.5a.75.75 0 0 1-.75-.75Zm0 4a.75.75 0 0 1 .75-.75h6.5a.75.75 0 0 1 0 1.5h-6.5a.75.75 0 0 1-.75-.75Z"/>
</svg>
