<svg xmlns="http://www.w3.org/2000/svg" viewBox="0 0 24 24" fill="currentColor" aria-hidden="true" data-slot="icon">
  <path d="M8.5 20H4.75a.75.75 0 0 0 0 1.5h4.705a.545.545 0 0 0 .545-.546V16.25a.75.75 0 0 0-1.5 0V20Z"/>
  <path d="M9.788 3.202c-.129-.419-.575-.657-.982-.495a10 10 0 0 0-.509 18.367c.398.184.857-.029 1.009-.44.152-.411-.06-.865-.455-1.055a8.412 8.412 0 0 1 .425-15.348c.405-.169.642-.61.512-1.029ZM15.5 4h3.75a.75.75 0 0 0 0-1.5h-4.704a.545.545 0 0 0-.546.545V7.75a.75.75 0 0 0 1.5 0V4Z"/>
  <path d="M14.211 20.798c.13.419.576.657.983.495a10 10 0 0 0 .509-18.367c-.398-.184-.857.029-1.009.44-.152.411.06.865.455 1.055a8.413 8.413 0 0 1-.425 15.348c-.405.169-.642.61-.513 1.029Z"/>
</svg>
