<svg xmlns="http://www.w3.org/2000/svg" viewBox="0 0 24 24" fill="currentColor" aria-hidden="true" data-slot="icon">
  <path d="M10.49 3.947a2 2 0 0 1 3.02 0l.327.377a2 2 0 0 0 1.823.664l.494-.078a2 2 0 0 1 2.313 1.94l.009.5a2 2 0 0 0 .97 1.68l.428.258a2 2 0 0 1 .525 2.973l-.315.389a2 2 0 0 0-.337 1.91l.163.473a2 2 0 0 1-1.51 2.615l-.49.095a2 2 0 0 0-1.487 1.247l-.179.467a2 2 0 0 1-2.837 1.033l-.437-.243a2 2 0 0 0-1.94 0l-.438.243a2 2 0 0 1-2.837-1.033l-.179-.467a2 2 0 0 0-1.486-1.247l-.491-.095a2 2 0 0 1-1.51-2.615l.163-.473a2 2 0 0 0-.337-1.91l-.314-.389a2 2 0 0 1 .524-2.973l.428-.257a2 2 0 0 0 .97-1.68l.01-.5A2 2 0 0 1 7.844 4.91l.494.078a2 2 0 0 0 1.823-.664l.328-.377Z"/>
  <path d="M11 9.21a1 1 0 1 1-2 0 1 1 0 0 1 2 0Zm5 5a1 1 0 1 1-2 0 1 1 0 0 1 2 0Zm-1.193-5.859a.75.75 0 0 1 1.061 1.06l-6.01 6.011a.75.75 0 1 1-1.061-1.06l6.01-6.01Z"/>
</svg>
