<svg xmlns="http://www.w3.org/2000/svg" viewBox="0 0 24 24" fill="currentColor" aria-hidden="true" data-slot="icon">
  <path d="m13 5.167 1.5 1.5a.707.707 0 0 0 1-1l-2.7-2.7a.453.453 0 0 0-.619-.022L9.05 5.685a.684.684 0 1 0 .933.998L11.5 5.167v4.25a.75.75 0 0 0 1.5 0v-4.25Z"/>
  <path fill-rule="evenodd" d="M7 12.167a4.5 4.5 0 0 0 0 9h10a4.5 4.5 0 1 0 0-9H7Zm0 1a3.5 3.5 0 1 0 0 7h10a3.5 3.5 0 1 0 0-7H7Z" clip-rule="evenodd"/>
  <path d="M6 16.417a.75.75 0 0 1 1.5 0v.5a.75.75 0 1 1-1.5 0v-.5Zm5.5 0a.75.75 0 0 1 .75-.75h5.5a.75.75 0 0 1 0 1.5h-5.5a.75.75 0 0 1-.75-.75Z"/>
</svg>
