<svg xmlns="http://www.w3.org/2000/svg" viewBox="0 0 24 24" fill="currentColor" aria-hidden="true" data-slot="icon">
  <path d="M11.542 8.044a.5.5 0 0 1 .916 0l.911 2.077a.5.5 0 0 0 .396.295l2.202.275a.5.5 0 0 1 .286.854l-1.66 1.616a.5.5 0 0 0-.143.45l.436 2.306a.5.5 0 0 1-.745.524l-1.887-1.11a.5.5 0 0 0-.508 0L9.86 16.44a.5.5 0 0 1-.745-.524l.436-2.305a.5.5 0 0 0-.143-.451l-1.66-1.615a.5.5 0 0 1 .286-.855l2.202-.275a.5.5 0 0 0 .396-.295l.911-2.077ZM12.5 4.5v-2a.5.5 0 0 0-1 0v2a.5.5 0 0 0 1 0Zm0 17v-2a.5.5 0 0 0-1 0v2a.5.5 0 0 0 1 0ZM6.475 6.768 5.06 5.354a.5.5 0 0 0-.707.707l1.414 1.414a.5.5 0 1 0 .707-.707ZM4.5 12h-2a.5.5 0 0 0 0 1h2a.5.5 0 0 0 0-1Zm17 0h-2a.5.5 0 0 0 0 1h2a.5.5 0 0 0 0-1ZM5.768 18.354l-1.415 1.414a.5.5 0 0 0 .708.707l1.414-1.414a.5.5 0 0 0-.707-.707Zm12.292 0 1.415 1.414a.5.5 0 1 1-.707.707l-1.414-1.414a.5.5 0 1 1 .707-.707Zm0-10.879 1.415-1.414a.5.5 0 1 0-.707-.707l-1.414 1.414a.5.5 0 1 0 .707.707Z"/>
</svg>
