<svg xmlns="http://www.w3.org/2000/svg" viewBox="0 0 24 24" fill="currentColor" aria-hidden="true" data-slot="icon">
  <path d="M11.568 3.741a.5.5 0 0 1 .864 0l2.034 3.491a.5.5 0 0 0 .43.248l4.04.017a.5.5 0 0 1 .432.748l-2.006 3.507a.5.5 0 0 0 0 .496l2.006 3.507a.5.5 0 0 1-.432.748l-4.04.017a.5.5 0 0 0-.43.248l-2.034 3.49a.5.5 0 0 1-.864 0l-2.034-3.49a.5.5 0 0 0-.43-.248l-4.04-.017a.5.5 0 0 1-.432-.748l2.006-3.507a.5.5 0 0 0 0-.496L4.632 8.245a.5.5 0 0 1 .432-.748l4.04-.017a.5.5 0 0 0 .43-.248l2.034-3.49Z"/>
</svg>
