<svg xmlns="http://www.w3.org/2000/svg" viewBox="0 0 24 24" fill="currentColor" aria-hidden="true" data-slot="icon">
  <path d="M4.701 9.723a.75.75 0 0 1-.388-1.449l2.415-.647a.75.75 0 1 1 .388 1.449L4.7 9.723Z"/>
  <path d="M7.115 5.541a.75.75 0 0 0-1.449.389l.647 2.414a.75.75 0 0 0 1.45-.388l-.648-2.415Zm-.158 12.145a.75.75 0 0 1-1.5 0v-2.5a.75.75 0 0 1 1.5 0v2.5Z"/>
  <path d="M3.543 14.272a.75.75 0 0 0 0 1.5h2.5a.75.75 0 0 0 0-1.5h-2.5Zm10.987 5.426a.75.75 0 1 1-1.06 1.06l-1.768-1.767a.75.75 0 0 1 1.06-1.06l1.768 1.767Z"/>
  <path d="M9.702 19.698a.75.75 0 1 0 1.06 1.06l1.768-1.767a.75.75 0 0 0-1.06-1.06l-1.768 1.767Zm.311-15.396a.75.75 0 1 1 1.06-1.06l1.768 1.767a.75.75 0 1 1-1.06 1.06l-1.768-1.767Z"/>
  <path d="M14.841 4.302a.75.75 0 1 0-1.06-1.06l-1.768 1.767a.75.75 0 0 0 1.06 1.06l1.768-1.767Zm3.203 3.043.75 1.299-12.124 7-.75-1.3 12.124-7Zm1.665 5.093a.75.75 0 1 1 .75 1.298l-2.165 1.25a.75.75 0 0 1-.75-1.299l2.165-1.25Z"/>
  <path d="M18.459 17.101a.75.75 0 0 0 1.299-.75l-1.25-2.165a.75.75 0 0 0-1.3.75l1.25 2.165ZM17.043 5.772a.75.75 0 0 1 1.5 0v2.5a.75.75 0 0 1-1.5 0v-2.5Z"/>
  <path d="M20.457 9.186a.75.75 0 0 0 0-1.5h-2.5a.75.75 0 0 0 0 1.5h2.5ZM11.482 4.71h1.5v14h-1.5v-14Z"/>
  <path d="m19.044 14.345-.75 1.299-12.124-7 .75-1.3 12.124 7Z"/>
</svg>
