<svg xmlns="http://www.w3.org/2000/svg" viewBox="0 0 24 24" fill="currentColor" aria-hidden="true" data-slot="icon">
  <path d="M6 8.25a2 2 0 0 1 2-2h8a2 2 0 0 1 2 2v8a2 2 0 0 1-2 2H8a2 2 0 0 1-2-2v-8Z"/>
  <path d="M12.333 12.78V9.916a.667.667 0 1 0-1.333 0v3.335a.4.4 0 0 0 .203.348l2.425 1.376a.668.668 0 1 0 .642-1.171l-1.937-1.026Z"/>
  <path d="M8.793 3.975 8 6.75H7l.652-2.934A2 2 0 0 1 9.604 2.25h4.792a2 2 0 0 1 1.952 1.566L17 6.75h-1l-.793-2.775a1 1 0 0 0-.961-.725H9.754a1 1 0 0 0-.961.725Zm0 16.05L8 17.25H7l.652 2.934a2 2 0 0 0 1.952 1.566h4.792a2 2 0 0 0 1.952-1.566L17 17.25h-1l-.793 2.775a1 1 0 0 1-.961.725H9.754a1 1 0 0 1-.961-.725Z"/>
</svg>
