<svg xmlns="http://www.w3.org/2000/svg" viewBox="0 0 24 24" fill="currentColor" aria-hidden="true" data-slot="icon">
  <path d="M3.473 16.16a.668.668 0 0 1 .737-.966l2.493.567c.316.072.645.059.954-.038l1.996-.624a7.48 7.48 0 0 1 4.644.06l1.189.405c.587.2 1.22.226 1.821.076l2.345-.586a.768.768 0 1 1 .356 1.493l-2.68.61c-.616.14-1.26.105-1.858-.099l-1.128-.384a7.622 7.622 0 0 0-4.733-.06l-.824.256-1.645.294a3.995 3.995 0 0 1-2.238-.245l-1.097-.457a.668.668 0 0 1-.332-.302Zm0-4a.668.668 0 0 1 .737-.966l2.493.567c.316.072.645.059.954-.038l1.996-.624a7.48 7.48 0 0 1 4.644.06l1.189.405c.587.2 1.22.226 1.821.076l2.345-.586a.768.768 0 1 1 .356 1.493l-2.68.61c-.616.14-1.26.105-1.858-.099l-1.128-.384a7.622 7.622 0 0 0-4.733-.06l-.824.256-1.645.294a3.995 3.995 0 0 1-2.238-.245l-1.097-.457a.668.668 0 0 1-.332-.302Zm0-4a.668.668 0 0 1 .737-.966l2.493.567c.316.072.645.059.954-.038l1.996-.624a7.48 7.48 0 0 1 4.644.06l1.189.405c.587.2 1.22.227 1.821.076l2.345-.586a.768.768 0 1 1 .356 1.493l-2.68.61c-.616.14-1.26.105-1.858-.099l-1.128-.384a7.622 7.622 0 0 0-4.733-.06l-.824.257-1.645.293a3.994 3.994 0 0 1-2.238-.245l-1.097-.457a.668.668 0 0 1-.332-.302Z"/>
</svg>
