<svg xmlns="http://www.w3.org/2000/svg" viewBox="0 0 24 24" fill="currentColor" aria-hidden="true" data-slot="icon">
  <path d="M18 3H6a3 3 0 0 0-3 3v8a3 3 0 0 0 3 3h1.5a3 3 0 0 1 2.4 1.2L12 21l2.1-2.8a3 3 0 0 1 2.4-1.2H18a3 3 0 0 0 3-3V6a3 3 0 0 0-3-3Z"/>
  <path d="M14.955 7.53a.75.75 0 0 0-1.06 0l-1.768 1.768-1.768-1.768a.75.75 0 1 0-1.061 1.06l1.768 1.768-1.768 1.768a.75.75 0 1 0 1.06 1.061l1.768-1.768 1.768 1.768a.75.75 0 1 0 1.06-1.06l-1.767-1.769 1.768-1.767a.75.75 0 0 0 0-1.06Z"/>
</svg>
