<svg xmlns="http://www.w3.org/2000/svg" viewBox="0 0 24 24" fill="currentColor" aria-hidden="true" data-slot="icon">
  <path d="M10.172 8.464h5.082c.156 0 .282.126.282.282v5.082a.707.707 0 1 1-1.415 0v-3.492a.457.457 0 0 0-.457-.457h-3.492a.707.707 0 1 1 0-1.415Z"/>
  <path d="M4.924 18.006a.75.75 0 1 0 1.06 1.06l8.133-8.131a.75.75 0 0 0-1.061-1.061l-8.132 8.132Z"/>
  <path d="M8.392 20.565a.669.669 0 0 0 .385.902 10 10 0 1 0-6.282-6.359.67.67 0 0 0 .897.397c.361-.147.532-.559.415-.93a8.588 8.588 0 1 1 5.52 5.586c-.37-.121-.784.044-.935.404Z"/>
</svg>
