<svg xmlns="http://www.w3.org/2000/svg" viewBox="0 0 24 24" fill="currentColor" aria-hidden="true" data-slot="icon">
  <path d="m11.351 16.294-3.195 3.55a.28.28 0 0 1-.407.01l-3.583-3.583a.707.707 0 1 1 1-1l2.792 2.793 2.28-2.735a.737.737 0 1 1 1.113.965Zm8.5-4.001-3.195 3.55a.28.28 0 0 1-.407.011l-3.583-3.583a.707.707 0 1 1 1-1l2.792 2.792 2.28-2.734a.737.737 0 1 1 1.113.964Z"/>
  <path d="M7.227 4.813a.75.75 0 1 1 1.5 0v12.5a.75.75 0 0 1-1.5 0v-12.5Zm8.5 0a.75.75 0 0 1 1.5 0v8.5a.75.75 0 0 1-1.5 0v-8.5Z"/>
</svg>
