<svg xmlns="http://www.w3.org/2000/svg" viewBox="0 0 24 24" fill="currentColor" aria-hidden="true" data-slot="icon">
  <path d="M8.464 10.172v5.082c0 .156.126.282.282.282h5.082a.707.707 0 1 0 0-1.415h-3.492a.457.457 0 0 1-.457-.457v-3.492a.707.707 0 1 0-1.415 0Z"/>
  <path d="M18.006 4.924a.75.75 0 1 1 1.06 1.06l-8.131 8.133a.75.75 0 1 1-1.061-1.061l8.132-8.132Z"/>
  <path d="M20.565 8.392a.669.669 0 0 1 .902.385 10 10 0 1 1-6.359-6.282.67.67 0 0 1 .397.897c-.147.361-.559.532-.93.415a8.588 8.588 0 1 0 5.586 5.52c-.121-.37.044-.784.404-.935Z"/>
</svg>
