<svg xmlns="http://www.w3.org/2000/svg" viewBox="0 0 24 24" fill="currentColor" aria-hidden="true" data-slot="icon">
  <path d="m10.793 15.793-3.594-3.594a.281.281 0 0 1 0-.398l3.594-3.594a.707.707 0 0 1 1 1l-2.47 2.47a.457.457 0 0 0 0 .646l2.47 2.47a.707.707 0 0 1-1 1Z"/>
  <path d="M21.25 12.757a.75.75 0 1 0 0-1.5H9.75a.75.75 0 0 0 0 1.5h11.5Z"/>
  <path d="M20.608 8.495a.669.669 0 0 0 .364-.91 10 10 0 1 0-.053 8.938.669.669 0 0 0-.354-.915c-.36-.151-.771.02-.951.365a8.588 8.588 0 1 1 .047-7.854c.176.348.585.523.947.376Z"/>
</svg>
