<svg xmlns="http://www.w3.org/2000/svg" viewBox="0 0 24 24" fill="currentColor" aria-hidden="true" data-slot="icon">
  <path d="M9.943 2.636a2.518 2.518 0 0 1 4.113 0 2.518 2.518 0 0 0 2.204 1.061 2.518 2.518 0 0 1 2.564 3.216 2.518 2.518 0 0 0 .544 2.384 2.518 2.518 0 0 1-.915 4.01 2.518 2.518 0 0 0-1.525 1.912 2.518 2.518 0 0 1-3.706 1.785 2.519 2.519 0 0 0-2.445 0 2.518 2.518 0 0 1-3.706-1.785 2.518 2.518 0 0 0-1.525-1.911 2.518 2.518 0 0 1-.915-4.01 2.52 2.52 0 0 0 .544-2.385A2.518 2.518 0 0 1 7.74 3.697a2.518 2.518 0 0 0 2.203-1.06Z"/>
  <path d="M6.545 21.9 7 13.725l1.5 2v4.5l3.287-1.409a.5.5 0 0 1 .42.013L15 20.225v-4.5l1.5-1 .445 7.133a.5.5 0 0 1-.722.479l-4.01-2.005a.5.5 0 0 0-.43-.008l-4.531 2.06a.5.5 0 0 1-.707-.484Z"/>
</svg>
