<svg xmlns="http://www.w3.org/2000/svg" viewBox="0 0 24 24" fill="currentColor" aria-hidden="true" data-slot="icon">
  <path d="M2 19.587v-7.712a.75.75 0 0 1 1.5 0v7.167c0 .874.709 1.583 1.583 1.583H18.5a2 2 0 0 0 2-2V5.208c0-.874-.709-1.583-1.583-1.583H11.75a.75.75 0 0 1 0-1.5h7.712A2.538 2.538 0 0 1 22 4.663v14.462a3 3 0 0 1-3 3H4.538A2.538 2.538 0 0 1 2 19.587Z"/>
  <path d="M7 12.875a.75.75 0 0 1 1.5 0v4.5a.75.75 0 0 1-1.5 0v-4.5Zm4-6a.75.75 0 0 1 1.5 0v10.5a.75.75 0 0 1-1.5 0v-10.5Zm4 4a.75.75 0 0 1 1.5 0v6.5a.75.75 0 0 1-1.5 0v-6.5Zm-12-6a.75.75 0 0 1 .75-.75h4.5a.75.75 0 0 1 0 1.5h-4.5a.75.75 0 0 1-.75-.75Z"/>
  <path d="M6 7.875a.75.75 0 0 1-.75-.75v-4.5a.75.75 0 0 1 1.5 0v4.5a.75.75 0 0 1-.75.75Z"/>
</svg>
