<svg xmlns="http://www.w3.org/2000/svg" viewBox="0 0 24 24" fill="currentColor" aria-hidden="true" data-slot="icon">
  <path d="M19.26 19H4.74a.483.483 0 0 1-.442-.677l1.678-3.817a8.176 8.176 0 0 0 .691-3.29A5.216 5.216 0 0 1 11.883 6h.235a5.216 5.216 0 0 1 5.216 5.216 8.19 8.19 0 0 0 .69 3.29l1.679 3.817a.483.483 0 0 1-.443.677Z"/>
  <path d="M9 6v1h1.5V6a1.5 1.5 0 0 1 3 0v1H15V6a3 3 0 0 0-6 0Zm6.355 11.95c.273.078.434.364.322.624a4 4 0 0 1-7.338.037c-.114-.26.045-.547.317-.627.272-.08.554.079.68.333a2.972 2.972 0 0 0 5.342-.027c.124-.255.404-.417.677-.34Z"/>
</svg>
