<svg xmlns="http://www.w3.org/2000/svg" viewBox="0 0 24 24" fill="currentColor" aria-hidden="true" data-slot="icon">
  <path fill-rule="evenodd" d="M9.165 20.458a.5.5 0 0 0 .765.424l6.557-4.098a.5.5 0 0 0 0-.848L9.165 11.36v9.098Zm.8-1.116a.2.2 0 0 0 .303.172l5.008-2.982a.2.2 0 0 0 0-.344l-5.008-2.981a.2.2 0 0 0-.303.172v5.963Z" clip-rule="evenodd"/>
  <path d="M9.165 3.876V8.86a.5.5 0 1 0 1 0V4.9c0-.199.24-.298.381-.158l4.62 4.62-1.214 1.213a.655.655 0 1 0 .966.883l1.747-2.097-6.074-6.074a.835.835 0 0 0-1.426.59ZM3.399 8.825a.5.5 0 1 1 .5-.866l16.703 9.643a.5.5 0 1 1-.5.866L3.399 8.825Zm1.699 7.295a.5.5 0 1 1-.5-.866L9.23 12.58a.5.5 0 0 1 .5.866L5.098 16.12Z"/>
</svg>
