<svg xmlns="http://www.w3.org/2000/svg" viewBox="0 0 24 24" fill="currentColor" aria-hidden="true" data-slot="icon">
  <path fill-rule="evenodd" d="M15.073 4.5H8.088v8.036h6.986c2.314 0 4.19-1.8 4.19-4.018 0-2.22-1.876-4.018-4.19-4.018Zm-.279 1.607h-5.03v5.357h5.03c1.543 0 2.794-1.199 2.794-2.678 0-1.48-1.25-2.679-2.794-2.679Z" clip-rule="evenodd"/>
  <path fill-rule="evenodd" d="M17.03 10.929H8.087V19.5h8.941c2.47 0 4.471-1.919 4.471-4.286 0-2.367-2.002-4.285-4.47-4.285Zm0 1.607H9.764v5.357h7.264c1.544 0 2.794-1.2 2.794-2.679 0-1.479-1.25-2.678-2.794-2.678Z" clip-rule="evenodd"/>
  <path d="M4.735 4.5h1.677v15H4.735v-15Z"/>
  <path d="M2.5 5.304c0-.444.375-.804.838-.804h5.03c.463 0 .838.36.838.804 0 .443-.375.803-.838.803h-5.03c-.463 0-.838-.36-.838-.803Zm0 13.392c0-.443.375-.803.838-.803h5.03c.463 0 .838.36.838.803 0 .444-.375.804-.838.804h-5.03c-.463 0-.838-.36-.838-.804Z"/>
</svg>
