<svg xmlns="http://www.w3.org/2000/svg" viewBox="0 0 24 24" fill="currentColor" aria-hidden="true" data-slot="icon">
  <path d="M16 3.18H8a3 3 0 0 0-3 3v14.14a.5.5 0 0 0 .748.433l6.004-3.43a.5.5 0 0 1 .496 0l6.004 3.43A.5.5 0 0 0 19 20.32V6.181a3 3 0 0 0-3-3Z"/>
  <path d="M14.955 8.71a.75.75 0 0 0-1.06 0l-1.768 1.768-1.768-1.767a.75.75 0 1 0-1.06 1.06l1.767 1.768-1.768 1.768a.75.75 0 1 0 1.06 1.06l1.768-1.767 1.768 1.768a.749.749 0 1 0 1.06-1.06l-1.767-1.769 1.768-1.768a.75.75 0 0 0 0-1.06Z"/>
</svg>
