<svg xmlns="http://www.w3.org/2000/svg" viewBox="0 0 25 24" fill="currentColor" aria-hidden="true" data-slot="icon">
  <path d="M21.805 5.442V12a.75.75 0 0 1-1.5 0V5.477a.727.727 0 0 0-.728-.727H5.305a1 1 0 0 0-1 1v14.227c0 .427.346.773.772.773h6.978a.75.75 0 0 1 0 1.5H5.112a2.308 2.308 0 0 1-2.307-2.308V6.25a3 3 0 0 1 3-3h13.807c1.211 0 2.193.982 2.193 2.192Z"/>
  <path d="m16.733 19.179-.928-.929a.707.707 0 0 0-1 1l1.772 1.773a.322.322 0 0 0 .455 0l4.273-4.273a.707.707 0 0 0-1-1l-3.429 3.429a.101.101 0 0 1-.143 0ZM3.305 8.75h18v1.5h-18v-1.5Zm4-6.25a.75.75 0 1 1 1.5 0V6a.75.75 0 0 1-1.5 0V2.5Zm8 0a.75.75 0 0 1 1.5 0V6a.75.75 0 0 1-1.5 0V2.5Z"/>
</svg>
