<svg xmlns="http://www.w3.org/2000/svg" viewBox="0 0 24 24" fill="currentColor" aria-hidden="true" data-slot="icon">
  <path d="M4 8.66V8.5a.75.75 0 0 0-1.5 0v1.523c0 .125.102.227.227.227H6v-1.5H4.09A.09.09 0 0 1 4 8.66Zm16 0V8.5a.75.75 0 0 1 1.5 0v1.523a.227.227 0 0 1-.227.227H18v-1.5h1.91c.05 0 .09-.04.09-.09ZM2 13.25v5a3 3 0 0 0 3 3h1.5a1.5 1.5 0 0 0 1.5-1.5 1.5 1.5 0 0 1 1.5-1.5h5a1.5 1.5 0 0 1 1.5 1.5 1.5 1.5 0 0 0 1.5 1.5H19a3 3 0 0 0 3-3v-5a3 3 0 0 0-3-3H5a3 3 0 0 0-3 3Z"/>
  <path d="M8 13.75a1.5 1.5 0 1 1-3 0 1.5 1.5 0 0 1 3 0Zm11 0a1.5 1.5 0 1 1-3 0 1.5 1.5 0 0 1 3 0Z"/>
  <path d="M4.5 5.75v5H6v-5a1 1 0 0 1 1-1h10a1 1 0 0 1 1 1v5h1.5v-5a3 3 0 0 0-3-3h-9a3 3 0 0 0-3 3Z"/>
</svg>
