<svg xmlns="http://www.w3.org/2000/svg" viewBox="0 0 24 24" fill="currentColor" aria-hidden="true" data-slot="icon">
  <path d="m6.509 7.09 5.212 5.213a.394.394 0 0 0 .557 0l5.213-5.213c.557-.556.162-1.508-.625-1.508a.884.884 0 0 0-.625.258l-3.888 3.888a.5.5 0 0 1-.707 0L7.76 5.84a.884.884 0 0 0-.625-.258c-.788 0-1.182.952-.625 1.508Z"/>
  <path d="m6.509 13.09 5.212 5.213a.394.394 0 0 0 .557 0l5.213-5.213a.884.884 0 0 0-1.25-1.25l-3.888 3.888a.5.5 0 0 1-.707 0L7.76 11.84a.884.884 0 0 0-.625-.258c-.788 0-1.182.952-.625 1.508Z"/>
</svg>
