<svg xmlns="http://www.w3.org/2000/svg" viewBox="0 0 24 24" fill="currentColor" aria-hidden="true" data-slot="icon">
  <path d="m6.51 8.491 5.212-5.213a.394.394 0 0 1 .557 0l5.212 5.213c.557.557.163 1.509-.625 1.509a.884.884 0 0 1-.625-.259l-3.887-3.887a.5.5 0 0 0-.707 0L7.759 9.74a.884.884 0 0 1-.625.259c-.787 0-1.182-.952-.625-1.509Zm0 7.018 5.212 5.213a.394.394 0 0 0 .557 0l5.212-5.213c.557-.557.163-1.509-.625-1.509a.884.884 0 0 0-.625.259l-3.887 3.887a.5.5 0 0 1-.707 0L7.759 14.26a.884.884 0 0 0-.625-.26c-.787 0-1.182.952-.625 1.509Z"/>
</svg>
