<svg xmlns="http://www.w3.org/2000/svg" viewBox="0 0 24 24" fill="currentColor" aria-hidden="true" data-slot="icon">
  <path d="M8.492 17.491 3.28 12.278a.394.394 0 0 1 0-.556l5.213-5.213c.557-.557 1.509-.163 1.509.625 0 .234-.093.46-.259.625l-3.887 3.887a.5.5 0 0 0 0 .708l3.887 3.887c.166.166.259.39.259.625 0 .788-.952 1.182-1.509.625Zm7.018 0 5.213-5.213a.394.394 0 0 0 0-.556L15.51 6.509c-.557-.557-1.51-.163-1.51.625 0 .234.093.46.259.625l3.887 3.887a.5.5 0 0 1 0 .708L14.26 16.24a.884.884 0 0 0-.259.625c0 .788.952 1.182 1.509.625Z"/>
</svg>
