<svg xmlns="http://www.w3.org/2000/svg" viewBox="0 0 24 24" fill="currentColor" aria-hidden="true" data-slot="icon">
  <path d="M3.332 9.869a.75.75 0 1 1 0-1.5h1a.75.75 0 0 1 0 1.5h-1Zm11.384-6.574a.75.75 0 1 0-1.06-1.06l-.708.707a.75.75 0 1 0 1.06 1.06l.708-.707Zm-6.298-.84a.75.75 0 0 1 1.5 0v1a.75.75 0 0 1-1.5 0v-1Zm8.909 19.84c2.26 0 4.09-1.73 4.09-3.863 0-2.134-1.83-3.864-4.09-3.864a.082.082 0 0 1-.08-.066c-.418-2.16-2.421-3.797-4.829-3.797s-4.41 1.637-4.829 3.797a.082.082 0 0 1-.08.066c-2.26 0-4.091 1.73-4.091 3.864s1.832 3.864 4.09 3.864h9.82Zm-13.379-17a.75.75 0 0 1 1.061-1.06l.707.707a.75.75 0 0 1-1.06 1.06l-.708-.707Zm11.199 3.607c.383-.154.573-.593.364-.95a5 5 0 0 0-9.285 2.042c-.041.411.316.73.728.709.412-.02.721-.375.788-.783a3.505 3.505 0 0 1 6.361-1.398c.232.342.661.534 1.044.38Zm2.536-2.524a.75.75 0 0 0-.75-1.299l-.866.5a.75.75 0 1 0 .75 1.3l.866-.5Z"/>
</svg>
