<svg xmlns="http://www.w3.org/2000/svg" viewBox="0 0 25 24" fill="currentColor" aria-hidden="true" data-slot="icon">
  <path d="M11.05 6c0-.552.45-1.006.999-.945a8.926 8.926 0 0 1 2.063.478c.97.352 1.853.867 2.596 1.517a7.017 7.017 0 0 1 1.734 2.271c.402.85.609 1.76.609 2.679 0 .92-.207 1.83-.61 2.679a7.017 7.017 0 0 1-1.733 2.27 8.156 8.156 0 0 1-2.596 1.518c-.662.24-1.355.4-2.063.478-.55.06-.998-.393-.998-.945V6Z"/>
  <path d="M22.05 12c0 5.523-4.476 10-10 10-5.522 0-10-4.477-10-10s4.478-10 10-10c5.524 0 10 4.477 10 10ZM3.342 12a8.71 8.71 0 1 0 17.42 0 8.71 8.71 0 0 0-17.42 0Z"/>
</svg>
