<svg xmlns="http://www.w3.org/2000/svg" viewBox="0 0 24 24" fill="currentColor" aria-hidden="true" data-slot="icon">
  <path fill-rule="evenodd" d="M12 2.25A9.75 9.75 0 0 0 2.25 12 9.75 9.75 0 0 0 12 21.75 9.75 9.75 0 0 0 21.75 12 9.75 9.75 0 0 0 12 2.25ZM9 7.5A.75.75 0 0 0 9 9h1.5c.98 0 1.813.626 2.122 1.5H9A.75.75 0 1 0 9 12h3.622a2.251 2.251 0 0 1-2.122 1.5H9a.75.75 0 0 0-.53 1.28l3 3a.75.75 0 1 0 1.06-1.06l-1.73-1.732A3.752 3.752 0 0 0 14.175 12H15a.75.75 0 1 0 0-1.5h-.825A3.734 3.734 0 0 0 13.5 9H15a.75.75 0 1 0 0-1.5H9Z" clip-rule="evenodd"/>
</svg>
