<svg xmlns="http://www.w3.org/2000/svg" viewBox="0 0 24 24" fill="currentColor" aria-hidden="true" data-slot="icon">
  <path d="M4 19V5a3 3 0 0 1 3-3h5.757a3 3 0 0 1 2.122.879L19.12 7.12A3 3 0 0 1 20 9.243V19a3 3 0 0 1-3 3H7a3 3 0 0 1-3-3Z"/>
  <path fill-rule="evenodd" d="M14 9a1 1 0 0 1-1-1V2h1.4v.4l5.2 5.2h.4V9h-6Zm3.6-1.4h-3.2V4.4l3.2 3.2ZM10 10a1 1 0 0 0-1 1v2.085A1.5 1.5 0 0 0 8 14.5V17a1.5 1.5 0 0 0 1.5 1.5H14a1.5 1.5 0 0 0 1.5-1.5v-2.5a1.5 1.5 0 0 0-1-1.415V10.75a.75.75 0 0 0-.866-.741A1.006 1.006 0 0 0 13.5 10H10Zm.5 1v2H13v-2h-2.5Zm3.5 3.5V17H9.5v-2.5H14Z" clip-rule="evenodd"/>
</svg>
