<svg xmlns="http://www.w3.org/2000/svg" viewBox="0 0 24 24" fill="currentColor" aria-hidden="true" data-slot="icon">
  <path d="M5 9.25V4.5a.5.5 0 0 0-1 0v4.75a2.75 2.75 0 1 0 5.5 0v-4.5a1.75 1.75 0 1 0-3.5 0V9.5a.5.5 0 0 0 1 0V4.75a.75.75 0 0 1 1.5 0v4.5a1.75 1.75 0 1 1-3.5 0Z"/>
  <path d="M20 19V5a3 3 0 0 0-3-3h-5a1 1 0 0 0-1 1v7a3 3 0 0 1-3 3H5a1 1 0 0 0-1 1v5a3 3 0 0 0 3 3h10a3 3 0 0 0 3-3Z"/>
  <path d="M8 16.75a.75.75 0 0 1 .75-.75h8.5a.75.75 0 0 1 0 1.5h-8.5a.75.75 0 0 1-.75-.75Zm6-8a.75.75 0 0 1 .75-.75h2.5a.75.75 0 0 1 0 1.5h-2.5a.75.75 0 0 1-.75-.75Zm-2 4a.75.75 0 0 1 .75-.75h4.5a.75.75 0 0 1 0 1.5h-4.5a.75.75 0 0 1-.75-.75Z"/>
</svg>
