<svg xmlns="http://www.w3.org/2000/svg" viewBox="0 0 24 24" fill="currentColor" aria-hidden="true" data-slot="icon">
  <path d="M3.473 5v14a3 3 0 0 0 3 3h4a1 1 0 0 0 1-1v-6a3 3 0 0 1 3-3h4a1 1 0 0 0 1-1V5a3 3 0 0 0-3-3h-10a3 3 0 0 0-3 3Z"/>
  <path d="M15.473 7.25a.75.75 0 0 1-.75.75h-8.5a.75.75 0 1 1 0-1.5h8.5a.75.75 0 0 1 .75.75Zm-6 8a.75.75 0 0 1-.75.75h-2.5a.75.75 0 0 1 0-1.5h2.5a.75.75 0 0 1 .75.75Zm2-4a.75.75 0 0 1-.75.75h-4.5a.75.75 0 0 1 0-1.5h4.5a.75.75 0 0 1 .75.75Z"/>
  <path d="M16.93 17.036a.1.1 0 0 0 .142 0l.534-.535a1.712 1.712 0 0 1 2.422 2.422l-2.956 2.956a.1.1 0 0 1-.142 0l-2.956-2.956a1.712 1.712 0 0 1 2.421-2.421l.535.534Z"/>
</svg>
