<svg xmlns="http://www.w3.org/2000/svg" viewBox="0 0 24 24" fill="currentColor" aria-hidden="true" data-slot="icon">
  <path d="M4 19V5a3 3 0 0 1 3-3h5.757a3 3 0 0 1 2.122.879L19.12 7.12A3 3 0 0 1 20 9.243V19a3 3 0 0 1-3 3H7a3 3 0 0 1-3-3Z"/>
  <path d="M14 9h6V7.6h-5.6V2H13v6a1 1 0 0 0 1 1Zm-7-.25A.75.75 0 0 1 7.75 8h2.5a.75.75 0 0 1 0 1.5h-2.5A.75.75 0 0 1 7 8.75Zm0 4a.75.75 0 0 1 .75-.75h8.5a.75.75 0 0 1 0 1.5h-8.5a.75.75 0 0 1-.75-.75Zm0 4a.75.75 0 0 1 .75-.75h8.5a.75.75 0 0 1 0 1.5h-8.5a.75.75 0 0 1-.75-.75Z"/>
</svg>
