<svg xmlns="http://www.w3.org/2000/svg" viewBox="0 0 24 24" fill="currentColor" aria-hidden="true" data-slot="icon">
  <path d="M8 3.5h8v17H8v-17Z"/>
  <path fill-rule="evenodd" d="M16 8.5h5v-2a3 3 0 0 0-3-3h-2v5Zm1-1h3v-1a2 2 0 0 0-2-2h-1v3Zm-9 1H3v-2a3 3 0 0 1 3-3h2v5Zm-1-1H4v-1a2 2 0 0 1 2-2h1v3Zm9 8h5v2a3 3 0 0 1-3 3h-2v-5Zm1 1h3v1a2 2 0 0 1-2 2h-1v-3Zm-9-1H3v2a3 3 0 0 0 3 3h2v-5Zm-1 1H4v1a2 2 0 0 0 2 2h1v-3Z" clip-rule="evenodd"/>
  <path fill-rule="evenodd" d="M16 12.5h5v-5h-5v5Zm1-1h3v-3h-3v3Zm-9 1H3v-5h5v5Zm-1-1H4v-3h3v3Z" clip-rule="evenodd"/>
  <path fill-rule="evenodd" d="M16 16.5h5v-5h-5v5Zm1-1h3v-3h-3v3Zm-9 1H3v-5h5v5Zm-1-1H4v-3h3v3Z" clip-rule="evenodd"/>
</svg>
