<svg xmlns="http://www.w3.org/2000/svg" viewBox="0 0 24 24" fill="currentColor" aria-hidden="true" data-slot="icon">
  <path d="m4.054 12.953 4.317-5.18 7.677 7.677a.5.5 0 0 1 .03.674l-3.615 4.339c-.32.384-.942.113-.88-.382l.718-5.746a.5.5 0 0 0-.496-.562H4.438a.5.5 0 0 1-.384-.82Zm8.931-9.491L9.85 5.902a.5.5 0 0 0-.022.77l2.788 2.44a.5.5 0 0 0 .828-.341l.348-4.879a.5.5 0 0 0-.806-.43Zm6.577 6.311h-5.068a.5.5 0 0 0-.372.835l3.258 3.62a.5.5 0 0 0 .819-.111l1.81-3.62a.5.5 0 0 0-.447-.724Z"/>
  <path d="M4.901 5.364a.75.75 0 1 1 1.06-1.06l13.082 13.08a.75.75 0 0 1-1.06 1.061L4.9 5.364Z"/>
</svg>
