<svg xmlns="http://www.w3.org/2000/svg" viewBox="0 0 24 24" fill="currentColor" aria-hidden="true" data-slot="icon">
  <path d="M21.278 12c.399 0 .725-.324.696-.721a10 10 0 1 0-9.809 10.72.683.683 0 0 0 .657-.757c-.035-.398-.386-.688-.785-.686a8.556 8.556 0 1 1 8.489-9.277c.033.397.354.721.752.721Z"/>
  <path d="m14.61 13.957 5.985 2.464a.5.5 0 0 1-.07.948l-2.234.558a.5.5 0 0 0-.364.364l-.558 2.234a.5.5 0 0 1-.948.07l-2.464-5.985a.5.5 0 0 1 .653-.653Zm-4.343-8.043-.793-1.02c-.862-1.107-2.414-1.51-3.53-.658-3.656 2.79-3.91 6.966-3.411 9.88.162.943 1.257 1.291 2.023.717.285-.214.641-.311.996-.272l.736.082A2.893 2.893 0 0 0 9.5 11.768c0-.503.131-.998.381-1.435l.622-1.089a3 3 0 0 0-.236-3.33Zm6.248 1.163.5-.896c.543-.971 1.796-1.31 2.517-.462C21.244 7.729 22 10.829 22 12.417l-2.909-.303a2 2 0 0 1-1.582-1.095l-1.036-2.073a2 2 0 0 1 .042-1.87Z"/>
</svg>
