<svg xmlns="http://www.w3.org/2000/svg" viewBox="0 0 24 25" fill="currentColor" aria-hidden="true" data-slot="icon">
  <path d="M3.5 16.485a2.652 2.652 0 0 1 2.656-2.647 2.652 2.652 0 0 1 2.657 2.647v2.118a2.652 2.652 0 0 1-2.657 2.647A2.652 2.652 0 0 1 3.5 18.603v-2.118Zm11.688 0a2.652 2.652 0 0 1 2.656-2.647 2.652 2.652 0 0 1 2.656 2.647v2.118a2.652 2.652 0 0 1-2.656 2.647 2.652 2.652 0 0 1-2.657-2.647v-2.118Z"/>
  <path d="M3.5 11.72v4.327h1.594v-4.396c0-3.8 3.092-6.401 6.906-6.401 3.814 0 6.906 2.6 6.906 6.402v4.304l1.594.382V11.72c0-4.679-3.806-7.971-8.5-7.971s-8.5 3.292-8.5 7.97Z"/>
</svg>
