<svg xmlns="http://www.w3.org/2000/svg" viewBox="0 0 24 24" fill="currentColor" aria-hidden="true" data-slot="icon">
  <path d="M21.25 15.48v3.02a3 3 0 0 1-3 3h-13l10.368-9.896a1 1 0 0 1 1.315-.058l3.942 3.154a1 1 0 0 1 .375.78ZM10.75 9a2.5 2.5 0 1 1-5 0 2.5 2.5 0 0 1 5 0Z"/>
  <path d="M5.288 2.5H13A.75.75 0 0 1 13 4H5.114a.864.864 0 0 0-.864.864V19a1 1 0 0 0 1 1H18.5a.75.75 0 0 1 0 1.5H5.75a3 3 0 0 1-3-3V5.038A2.538 2.538 0 0 1 5.288 2.5Z"/>
  <path d="m15.831 5.353 4.314.032a.62.62 0 0 1 .605.63.62.62 0 0 1-.61.632h-4.309l1.442 1.764a.674.674 0 0 1-.202 1.02.625.625 0 0 1-.777-.17l-2.48-3.078a.294.294 0 0 1 0-.366l2.48-3.079a.625.625 0 0 1 .777-.168c.37.192.47.692.202 1.019l-1.442 1.764Z"/>
</svg>
