<svg xmlns="http://www.w3.org/2000/svg" viewBox="0 0 24 24" fill="currentColor" aria-hidden="true" data-slot="icon">
  <path d="M17.019 14.65a6.001 6.001 0 0 1-1.994.35c-1.142.005-2.337.242-3.128 1.066l-.602.627a1 1 0 0 1-.721.307H10a1 1 0 0 0-1 1 1 1 0 0 1-1 1h-.5a.5.5 0 0 0-.5.5A1.5 1.5 0 0 1 5.5 21H4a1 1 0 0 1-1-1v-1.757a3 3 0 0 1 .879-2.122l4.648-4.648c.306-.306.497-.708.542-1.138.018-.176.01-.354-.015-.53a6 6 0 1 1 7.965 4.845Z"/>
  <path d="M17.423 9.652c.286 0 .522-.234.485-.518a4 4 0 0 0-2.24-3.09c-.258-.124-.553.027-.642.3-.09.272.062.56.314.696a2.962 2.962 0 0 1 1.519 2.096c.05.282.277.516.564.516Z"/>
</svg>
