<svg xmlns="http://www.w3.org/2000/svg" viewBox="0 0 24 24" fill="currentColor" aria-hidden="true" data-slot="icon">
  <path d="M11.263 1.599a.75.75 0 0 1 1.5 0v4.5a.75.75 0 0 1-1.5 0v-4.5Zm0 20.803a.75.75 0 0 0 1.5 0v-4.5a.75.75 0 1 0-1.5 0v4.5Zm7.449-18.023a.75.75 0 0 1 1.061 1.06l-3.182 3.183a.75.75 0 0 1-1.06-1.061l3.181-3.182Zm0 15.243a.75.75 0 0 0 1.061-1.061l-3.182-3.182a.75.75 0 1 0-1.06 1.06l3.181 3.183ZM5.591 4.379a.75.75 0 0 0-1.06 1.06l3.181 3.183A.75.75 0 1 0 8.773 7.56L5.591 4.379Zm0 15.243a.75.75 0 0 1-1.06-1.061l3.181-3.182a.75.75 0 0 1 1.061 1.06l-3.182 3.183Zm16.659-8.523a.75.75 0 1 1 0 1.5h-4.5a.75.75 0 0 1 0-1.5h4.5Zm-16 0a.75.75 0 0 1 0 1.5h-4.5a.75.75 0 0 1 0-1.5h4.5Z"/>
</svg>
