<svg xmlns="http://www.w3.org/2000/svg" viewBox="0 0 24 24" fill="currentColor" aria-hidden="true" data-slot="icon">
  <path d="M10.5 15.25V3.75a.75.75 0 0 1 1.5 0v11.5a.75.75 0 0 1-1.5 0Z"/>
  <path d="M17.82 13.02a.478.478 0 0 1 .407-.041c1.584.567 2.75 1.339 3.34 2.213.617.912.573 1.889-.124 2.79-.698.9-2.014 1.677-3.757 2.22-1.743.542-3.824.821-5.943.796-2.118-.024-4.165-.35-5.844-.933-1.68-.581-2.904-1.388-3.498-2.304-.594-.915-.527-1.892.193-2.789.69-.86 1.945-1.604 3.596-2.134a.467.467 0 0 1 .4.057c.335.222.261.74-.11.893-.97.4-1.716.902-2.167 1.463-.588.734-.643 1.532-.158 2.28.486.748 1.487 1.407 2.86 1.883 1.371.475 3.044.742 4.775.762 1.732.02 3.432-.208 4.857-.65 1.425-.444 2.5-1.08 3.07-1.815.57-.736.606-1.535.102-2.28-.376-.557-1.038-1.063-1.924-1.478-.377-.176-.431-.72-.074-.933Zm-.559-6.475L11.5 3v7.5l5.736-3.089a.5.5 0 0 0 .025-.866Z"/>
</svg>
