<svg xmlns="http://www.w3.org/2000/svg" viewBox="0 0 24 24" fill="currentColor" aria-hidden="true" data-slot="icon">
  <path d="M2 3.75a1.5 1.5 0 0 1 1.5-1.5h4.75a.75.75 0 0 1 0 1.5H4.654c-.637 0-1.154.517-1.154 1.154V8A.75.75 0 0 1 2 8V3.75Zm0 16.5a1.5 1.5 0 0 0 1.5 1.5h4.75a.75.75 0 0 0 0-1.5H4.654A1.154 1.154 0 0 1 3.5 19.096V16A.75.75 0 0 0 2 16v4.25Zm20-16.5a1.5 1.5 0 0 0-1.5-1.5h-4.75a.75.75 0 0 0 0 1.5h3.596c.637 0 1.154.517 1.154 1.154V8A.75.75 0 0 0 22 8V3.75Zm0 16.5a1.5 1.5 0 0 1-1.5 1.5h-4.75a.75.75 0 0 1 0-1.5h3.596c.637 0 1.154-.517 1.154-1.154V16a.75.75 0 0 1 1.5 0v4.25Z"/>
</svg>
