<svg xmlns="http://www.w3.org/2000/svg" viewBox="0 0 24 24" fill="currentColor" aria-hidden="true" data-slot="icon">
  <path d="M12.616 14.75h1.257a.5.5 0 0 0 .354-.854L9.08 8.75v2.464a3.536 3.536 0 0 0 3.536 3.536Zm-.536-12h-.791c-1.22 0-2.209.989-2.209 2.209 0 .185.078.362.215.488l4.693 4.302a.652.652 0 0 0 1.093-.48V5.75a3 3 0 0 0-3-3Z"/>
  <path d="M19.451 9.75c.348 0 .632.282.605.629a8 8 0 0 1-15.95 0 .592.592 0 0 1 .604-.629c.347 0 .626.282.658.628a6.742 6.742 0 0 0 13.425 0c.032-.346.31-.628.658-.628Z"/>
  <path d="M11.08 16.75h1.5v3h-1.5v-3Zm-4 3.75a.75.75 0 0 1 .75-.75h7.5a.75.75 0 0 1 0 1.5h-7.5a.75.75 0 0 1-.75-.75ZM4.163 4.54a.75.75 0 0 1 1.06-1.061l14.469 14.468a.75.75 0 1 1-1.06 1.06L4.162 4.54Z"/>
</svg>
