<svg xmlns="http://www.w3.org/2000/svg" viewBox="0 0 24 24" fill="currentColor" aria-hidden="true" data-slot="icon">
  <path d="m13.73 19.735.586.586a1 1 0 0 0 1.414 0l4.586-4.586a1 1 0 0 0 0-1.414l-.586-.586a1 1 0 0 0-1.414 0L13.73 18.32a1 1 0 0 0 0 1.414Zm-.707-8.707a2 2 0 1 1-4 0 2 2 0 0 1 4 0Z"/>
  <path fill-rule="evenodd" d="M17.773 7.78a2 2 0 0 0-1.492-1.552L4.628 3.415A1 1 0 0 0 3.423 4.63l2.814 11.254a2 2 0 0 0 1.425 1.447l6.36 1.697 5-5-1.249-6.248Zm-1.75.248-11-3 3 10.5 5 1.5 4-4-1-5Z" clip-rule="evenodd"/>
  <path d="M4.553 5.619a.75.75 0 0 1 1.06-1.061l4.597 4.596a.75.75 0 1 1-1.06 1.06L4.552 5.62Z"/>
</svg>
