<svg xmlns="http://www.w3.org/2000/svg" viewBox="0 0 24 24" fill="currentColor" aria-hidden="true" data-slot="icon">
  <path d="m8.138 4.998-.616-.616a2.338 2.338 0 0 0-3.306 0l-.79.79A2.706 2.706 0 0 0 2.7 7.685a17.14 17.14 0 0 0 11.49 12.526l1.304.417a3 3 0 0 0 3.172-.881l.62-.708a2.38 2.38 0 0 0-.243-3.376l-.509-.436a1.657 1.657 0 0 0-2.25.087 1.657 1.657 0 0 1-2.024.249l-1.517-.91a12.999 12.999 0 0 1-3.962-3.693L7.707 9.426a1.558 1.558 0 0 1 .303-2.11c.725-.58.785-1.662.128-2.318Zm12.352 6.871c.354.095.72-.115.782-.476a6.998 6.998 0 0 0-8.659-7.94c-.354.091-.531.475-.406.818.124.344.504.518.86.434a5.675 5.675 0 0 1 6.917 6.344c-.053.362.153.725.507.82Z"/>
  <path d="M17.456 11.573c.357.096.73-.116.772-.484a4.5 4.5 0 0 0-5.362-4.918c-.363.074-.543.463-.416.811.126.348.511.52.878.47a3.16 3.16 0 0 1 3.584 3.287c-.018.37.186.739.544.834Z"/>
</svg>
