<svg xmlns="http://www.w3.org/2000/svg" viewBox="0 0 24 24" fill="currentColor" aria-hidden="true" data-slot="icon">
  <path d="M8.75 2.75h-5a1 1 0 0 0-1 1v5a1 1 0 0 0 1 1h5a1 1 0 0 0 1-1v-5a1 1 0 0 0-1-1Zm11 0h-5a1 1 0 0 0-1 1v5a1 1 0 0 0 1 1h5a1 1 0 0 0 1-1v-5a1 1 0 0 0-1-1Zm-11 11h-5a1 1 0 0 0-1 1v5a1 1 0 0 0 1 1h5a1 1 0 0 0 1-1v-5a1 1 0 0 0-1-1Zm9.742 3.534a1 1 0 1 1-2 0 1 1 0 0 1 2 0ZM13.75 12.75a1 1 0 1 1-2 0 1 1 0 0 1 2 0Z"/>
  <path d="M7.25 6.5a.75.75 0 1 1-1.5 0 .75.75 0 0 1 1.5 0Zm0 11a.75.75 0 1 1-1.5 0 .75.75 0 0 1 1.5 0Zm11-11a.75.75 0 1 1-1.5 0 .75.75 0 0 1 1.5 0Z"/>
  <path d="M20 12.75a.75.75 0 0 1 0 1.5h-3.5a.75.75 0 0 1 0-1.5H20Zm-7.25 3.75a.75.75 0 0 1 1.5 0V20a.75.75 0 0 1-1.5 0v-3.5Zm7 0a.75.75 0 0 1 1.5 0v3.75a1 1 0 0 1-1 1H16.5a.75.75 0 0 1 0-1.5h3.25V16.5Z"/>
</svg>
