<svg xmlns="http://www.w3.org/2000/svg" viewBox="0 0 24 24" fill="currentColor" aria-hidden="true" data-slot="icon">
  <path d="M4 8.5V4.75a.75.75 0 0 0-1.5 0v4.705c0 .3.244.545.545.545H7.75a.75.75 0 1 0 0-1.5H4Z"/>
  <path d="M20.798 9.788c.419-.129.657-.575.495-.982a10 10 0 0 0-18.367-.509c-.184.398.029.857.44 1.009.411.152.865-.06 1.055-.455a8.412 8.412 0 0 1 15.348.425c.169.405.61.642 1.029.512ZM20 15.5v3.75a.75.75 0 0 0 1.5 0v-4.704a.545.545 0 0 0-.545-.546H16.25a.75.75 0 0 0 0 1.5H20Z"/>
  <path d="M3.203 14.211c-.42.13-.658.576-.496.983a10 10 0 0 0 18.367.509c.184-.398-.029-.857-.44-1.009-.411-.152-.864.06-1.055.455a8.414 8.414 0 0 1-15.348-.425c-.168-.405-.61-.642-1.028-.513Z"/>
</svg>
