<svg xmlns="http://www.w3.org/2000/svg" viewBox="0 0 24 24" fill="currentColor" aria-hidden="true" data-slot="icon">
  <path d="M2.5 8v2.25a.75.75 0 0 0 1.5 0v-1.5A2.25 2.25 0 0 1 6.25 6.5H20.5V5h-15a3 3 0 0 0-3 3Zm19 8v-2.25a.75.75 0 0 0-1.5 0v1.5a2.25 2.25 0 0 1-2.25 2.25H3.5V19h15a3 3 0 0 0 3-3Z"/>
  <path d="m19.53 5.709-2.596-2.493a.577.577 0 1 1 .799-.833l3.36 3.225a.543.543 0 0 1 0 .783l-3.36 3.225a.577.577 0 1 1-.8-.833l2.597-2.492a.403.403 0 0 0 0-.582Zm-15.06 12 2.596-2.493a.577.577 0 0 0-.799-.833l-3.36 3.225a.543.543 0 0 0 0 .783l3.36 3.225a.577.577 0 1 0 .8-.833L4.47 18.291a.403.403 0 0 1 0-.582Z"/>
</svg>
