<svg xmlns="http://www.w3.org/2000/svg" viewBox="0 0 24 24" fill="currentColor" aria-hidden="true" data-slot="icon">
  <path d="M6 11.75a1 1 0 1 1-2 0 1 1 0 0 1 2 0Zm5 0a1 1 0 1 1-2 0 1 1 0 0 1 2 0Zm5 0a1 1 0 1 1-2 0 1 1 0 0 1 2 0Zm5 0a1 1 0 1 1-2 0 1 1 0 0 1 2 0Zm-16.786-8H7.75a.75.75 0 0 0 0-1.5H3.045a.545.545 0 0 0-.545.545V8A.75.75 0 0 0 4 8V3.964c0-.118.096-.214.214-.214Zm0 16.5H7.75a.75.75 0 0 1 0 1.5H3.045a.545.545 0 0 1-.545-.546V16A.75.75 0 0 1 4 16v4.036c0 .118.096.214.214.214Zm15.572-16.5H16.25a.75.75 0 0 1 0-1.5h4.704c.302 0 .546.244.546.545V8A.75.75 0 0 1 20 8V3.964a.214.214 0 0 0-.214-.214Zm0 16.5H16.25a.75.75 0 0 0 0 1.5h4.704a.545.545 0 0 0 .546-.546V16a.75.75 0 0 0-1.5 0v4.036a.214.214 0 0 1-.214.214Z"/>
</svg>
