<svg xmlns="http://www.w3.org/2000/svg" viewBox="0 0 24 24" fill="currentColor" aria-hidden="true" data-slot="icon">
  <path d="M20.07 15H5.654a1 1 0 0 1-.998-.938l-.437-7A1 1 0 0 1 5.217 6h15.63a1 1 0 0 1 .994 1.11l-.777 7a1 1 0 0 1-.994.89Zm-1.918 5.5a1.5 1.5 0 1 1-3 0 1.5 1.5 0 0 1 3 0Zm-9 0a1.5 1.5 0 1 1-3 0 1.5 1.5 0 0 1 3 0Z"/>
  <path d="M3.525 4h-.373a1 1 0 0 1 0-2h1.345c.37 0 .676.285.702.653l.947 13.254a.1.1 0 0 0 .1.093h12.656a.75.75 0 1 1 0 1.5H5.581a1 1 0 0 1-.997-.926L3.662 4.127A.137.137 0 0 0 3.525 4Z"/>
</svg>
