<svg xmlns="http://www.w3.org/2000/svg" viewBox="0 0 24 24" fill="currentColor" aria-hidden="true" data-slot="icon">
  <path d="m13.194 6.687 1.456-3.64a.5.5 0 0 1 .929 0l1.456 3.64a.5.5 0 0 0 .278.278l3.64 1.456a.5.5 0 0 1 0 .929l-3.64 1.456a.5.5 0 0 0-.278.279l-1.456 3.64a.5.5 0 0 1-.929 0l-1.456-3.64a.5.5 0 0 0-.279-.279L9.275 9.35a.5.5 0 0 1 0-.929l3.64-1.456a.5.5 0 0 0 .279-.278Zm-8.005 9.05.978-1.957a.5.5 0 0 1 .895 0l.978 1.957a.5.5 0 0 0 .223.223l1.957.978a.5.5 0 0 1 0 .895l-1.957.978a.5.5 0 0 0-.223.224l-.978 1.956a.5.5 0 0 1-.895 0l-.978-1.956a.5.5 0 0 0-.224-.224l-1.956-.978a.5.5 0 0 1 0-.895l1.956-.978a.5.5 0 0 0 .224-.223Z"/>
</svg>
