<svg xmlns="http://www.w3.org/2000/svg" viewBox="0 0 24 24" fill="currentColor" aria-hidden="true" data-slot="icon">
  <path d="M20.646 13a9 9 0 1 1-18 0 9 9 0 0 1 18 0Z"/>
  <path d="M9.396 2a.75.75 0 0 0 0 1.5h4.5a.75.75 0 0 0 0-1.5h-4.5Z"/>
  <path d="M12.646 11.5h-3.25a.75.75 0 0 1 0-1.5h4.219a1.032 1.032 0 0 1 .68 1.808L10.645 15h3.25a.75.75 0 0 1 0 1.5H9.678a1.032 1.032 0 0 1-.68-1.808l3.649-3.192Z"/>
  <path d="m18.646 4-2 2 1 1 2-2 .5.5a.707.707 0 0 0 1-1l-2-2a.707.707 0 0 0-1 1l.5.5Z"/>
</svg>
