<svg xmlns="http://www.w3.org/2000/svg" viewBox="0 0 24 24" fill="currentColor" aria-hidden="true" data-slot="icon">
  <path d="M21 7.508a.75.75 0 0 0-.75-.75H5.75a.75.75 0 0 0 0 1.5h14.5a.75.75 0 0 0 .75-.75Zm-18 9a.75.75 0 0 1 .75-.75h14.5a.75.75 0 0 1 0 1.5H3.75a.75.75 0 0 1-.75-.75Z"/>
  <path d="M6.793 3.707 3.199 7.301a.281.281 0 0 0 0 .398l3.594 3.594a.707.707 0 1 0 1-1L5 7.5l2.793-2.793a.707.707 0 1 0-1-1Zm10.414 9 3.594 3.594c.11.11.11.288 0 .398l-3.594 3.594a.707.707 0 1 1-1-1L19 16.5l-2.793-2.793a.707.707 0 0 1 1-1Z"/>
</svg>
