<svg xmlns="http://www.w3.org/2000/svg" viewBox="0 0 24 24" fill="currentColor" aria-hidden="true" data-slot="icon">
  <path d="M7.508 3a.75.75 0 0 0-.75.75v14.5a.75.75 0 0 0 1.5 0V3.75a.75.75 0 0 0-.75-.75Zm9 18a.75.75 0 0 1-.75-.75V5.75a.75.75 0 0 1 1.5 0v14.5a.75.75 0 0 1-.75.75Z"/>
  <path d="M3.707 17.207 7.3 20.801c.11.11.287.11.397 0l3.594-3.594a.707.707 0 0 0-1-1L7.5 19l-2.792-2.793a.707.707 0 0 0-1 1Zm9-10.414L16.3 3.199a.28.28 0 0 1 .397 0l3.594 3.594a.707.707 0 0 1-1 1L16.5 5l-2.792 2.793a.707.707 0 0 1-1-1Z"/>
</svg>
