<svg xmlns="http://www.w3.org/2000/svg" viewBox="0 0 24 24" fill="currentColor" aria-hidden="true" data-slot="icon">
  <path d="M20.5 13.25h-17v5a3 3 0 0 0 3 3h11a3 3 0 0 0 3-3v-5Z"/>
  <path d="M10 16.75a1.5 1.5 0 1 1-3 0 1.5 1.5 0 0 1 3 0Zm7 0a1.5 1.5 0 1 1-3 0 1.5 1.5 0 0 1 3 0Z"/>
  <path d="M5 8.25v5H3.5v-5.5a2 2 0 0 1 2-2h13a2 2 0 0 1 2 2v5.5H19v-5a1 1 0 0 0-1-1H6a1 1 0 0 0-1 1Z"/>
  <path d="M10 16.75a1.5 1.5 0 1 1-3 0 1.5 1.5 0 0 1 3 0Zm7 0a1.5 1.5 0 1 1-3 0 1.5 1.5 0 0 1 3 0Z"/>
  <path d="m7.96 3.27-1.182.591a.754.754 0 1 1-.618-1.375l1.79-.716a.28.28 0 0 1 .104-.02h7.868c.054 0 .107.013.156.037l1.554.777a.672.672 0 0 1-.601 1.201l-1.002-.5a.136.136 0 0 0-.061-.015H8.045a.19.19 0 0 0-.085.02Z"/>
  <path d="m11 6.25-1-3h1.5l1 3H11Z"/>
  <path d="m13.5 6.25 1-3H13l-1 3h1.5ZM4.985 21.28l.83-1.66a.67.67 0 0 1 1.2.6l-.83 1.66a.67.67 0 0 1-1.2-.6Zm14.03 0-.83-1.66a.67.67 0 0 0-1.2.6l.83 1.66a.67.67 0 0 0 1.2-.6Z"/>
</svg>
