<svg xmlns="http://www.w3.org/2000/svg" viewBox="0 0 24 24" fill="currentColor" aria-hidden="true" data-slot="icon">
  <path d="M21 17.75a2.5 2.5 0 1 1-5 0 2.5 2.5 0 0 1 5 0Zm-11-.5a3 3 0 1 1-6 0 3 3 0 0 1 6 0Z"/>
  <path d="M4 16.25h.5v1.5a3 3 0 0 1-3-3v-8a3 3 0 0 1 3-3h7a3 3 0 0 1 3 3v11H9v-1.5h4v-10a1 1 0 0 0-1-1H4a1 1 0 0 0-1 1v9a1 1 0 0 0 1 1Zm12.086-8H14.5v-1.5h2.586a1 1 0 0 1 .707.293l4.414 4.414a1 1 0 0 1 .293.707v5.586h-8v-1.5H21v-3.086a1 1 0 0 0-.293-.707l-3.914-3.914a1 1 0 0 0-.707-.293Z"/>
</svg>
