<svg xmlns="http://www.w3.org/2000/svg" viewBox="0 0 24 24" fill="currentColor" aria-hidden="true" data-slot="icon">
  <path d="M5.25 9h13.5A2.25 2.25 0 0 1 21 11.25V19a3 3 0 0 1-3 3H6a3 3 0 0 1-3-3v-7.75A2.25 2.25 0 0 1 5.25 9Z"/>
  <path fill-rule="evenodd" d="M6 2a1 1 0 0 0-1 1v7a1 1 0 0 0 1 1h12a1 1 0 0 0 1-1V3a1 1 0 0 0-1-1H6Zm1 1.5a.5.5 0 0 0-.5.5v5a.5.5 0 0 0 .5.5h10a.5.5 0 0 0 .5-.5V4a.5.5 0 0 0-.5-.5H7Z" clip-rule="evenodd"/>
  <path d="M9 5.75a.75.75 0 0 1 1.5 0v1.5a.75.75 0 0 1-1.5 0v-1.5Zm5 0a.75.75 0 0 1 1.5 0v1.5a.75.75 0 0 1-1.5 0v-1.5Z"/>
</svg>
