<svg xmlns="http://www.w3.org/2000/svg" width="24" height="24" fill="none" viewBox="0 0 24 24">
  <path fill="#000" d="m12.071 21.96-.537.523.543.558.538-.564-.544-.517ZM5.49 6.589l.693.287-.693-.287Zm12.995-.072.69-.295-.69.295Zm-5.719.485a.75.75 0 0 0-1.5 0h1.5Zm-1.5 6a.75.75 0 0 0 1.5 0h-1.5Zm-2.25-3.75a.75.75 0 1 0 0 1.5v-1.5Zm6 1.5a.75.75 0 0 0 0-1.5v1.5ZM12.071 21.96l.538-.523v-.001c-.002 0-.003-.002-.005-.004l-.017-.018a17.953 17.953 0 0 1-.347-.373c-.237-.26-.576-.64-.974-1.117a36.294 36.294 0 0 1-2.791-3.79c-.96-1.513-1.82-3.178-2.293-4.808-.474-1.634-.536-3.158 0-4.45l-1.385-.575c-.716 1.724-.582 3.629-.056 5.442.527 1.818 1.467 3.618 2.467 5.194a37.78 37.78 0 0 0 2.908 3.95 37.295 37.295 0 0 0 1.388 1.565l.021.022.006.006.002.002.538-.522ZM6.182 6.876c2.25-5.417 9.303-5.456 11.612-.064l1.38-.59c-2.833-6.613-11.62-6.564-14.378.08l1.385.574Zm11.612-.064c.55 1.286.505 2.81.05 4.45-.455 1.634-1.298 3.31-2.24 4.833a36.29 36.29 0 0 1-2.75 3.82 35.91 35.91 0 0 1-1.304 1.504l-.017.019a.125.125 0 0 1-.004.004h-.001l.543.518.544.516.002-.002.006-.006.021-.023a16.781 16.781 0 0 0 .368-.404c.247-.276.594-.676 1.003-1.175a37.79 37.79 0 0 0 2.864-3.982c.982-1.587 1.903-3.397 2.41-5.22.506-1.82.619-3.726-.116-5.442l-1.379.59Zm-6.529.19v3h1.5v-3h-1.5Zm0 3v3h1.5v-3h-1.5Zm.75-.75h-3v1.5h3v-1.5Zm0 1.5h3v-1.5h-3v1.5Z"/>
</svg>
