<svg xmlns="http://www.w3.org/2000/svg" width="24" height="24" fill="none" viewBox="0 0 24 24">
  <path fill="#000" d="M19.53 2.47a.75.75 0 1 0-1.06 1.06l1.06-1.06Zm1.94 4.06a.75.75 0 1 0 1.06-1.06l-1.06 1.06Zm-15.94-3a.75.75 0 0 0-1.06-1.06l1.06 1.06ZM1.47 5.47a.75.75 0 0 0 1.06 1.06L1.47 5.47Zm5.06 14.06a.75.75 0 1 0-1.06-1.06l1.06 1.06Zm-3.06.94a.75.75 0 1 0 1.06 1.06l-1.06-1.06Zm15.06-2a.75.75 0 1 0-1.06 1.06l1.06-1.06Zm.94 3.06a.75.75 0 1 0 1.06-1.06l-1.06 1.06Zm-9.94-9.06a.75.75 0 0 0-1.06 1.06l1.06-1.06ZM11 15l-.53.53a.75.75 0 0 0 1.06 0L11 15Zm4.53-3.47a.75.75 0 1 0-1.06-1.06l1.06 1.06Zm2.94-8 3 3 1.06-1.06-3-3-1.06 1.06Zm-14-1.06-3 3 1.06 1.06 3-3-1.06-1.06Zm1 16-2 2 1.06 1.06 2-2-1.06-1.06Zm12 1.06 2 2 1.06-1.06-2-2-1.06 1.06Zm-9-6 2 2 1.06-1.06-2-2-1.06 1.06Zm3.06 2 4-4-1.06-1.06-4 4 1.06 1.06ZM19.25 13A7.25 7.25 0 0 1 12 20.25v1.5A8.75 8.75 0 0 0 20.75 13h-1.5ZM12 20.25A7.25 7.25 0 0 1 4.75 13h-1.5A8.75 8.75 0 0 0 12 21.75v-1.5ZM4.75 13A7.25 7.25 0 0 1 12 5.75v-1.5A8.75 8.75 0 0 0 3.25 13h1.5ZM12 5.75A7.25 7.25 0 0 1 19.25 13h1.5A8.75 8.75 0 0 0 12 4.25v1.5Z"/>
</svg>
