<svg xmlns="http://www.w3.org/2000/svg" width="24" height="24" fill="none" viewBox="0 0 24 24">
  <path fill="#000" d="M12.75 9a.75.75 0 0 0-1.5 0h1.5ZM12 13h-.75c0 .199.079.39.22.53L12 13Zm1.47 2.53a.75.75 0 1 0 1.06-1.06l-1.06 1.06Zm6.06-13.06a.75.75 0 1 0-1.06 1.06l1.06-1.06Zm1.94 4.06a.75.75 0 1 0 1.06-1.06l-1.06 1.06Zm-15.94-3a.75.75 0 0 0-1.06-1.06l1.06 1.06ZM1.47 5.47a.75.75 0 0 0 1.06 1.06L1.47 5.47Zm5.06 14.06a.75.75 0 1 0-1.06-1.06l1.06 1.06Zm-3.06.94a.75.75 0 1 0 1.06 1.06l-1.06-1.06Zm15.06-2a.75.75 0 1 0-1.06 1.06l1.06-1.06Zm.94 3.06a.75.75 0 1 0 1.06-1.06l-1.06 1.06ZM19.25 13A7.25 7.25 0 0 1 12 20.25v1.5A8.75 8.75 0 0 0 20.75 13h-1.5ZM12 20.25A7.25 7.25 0 0 1 4.75 13h-1.5A8.75 8.75 0 0 0 12 21.75v-1.5ZM4.75 13A7.25 7.25 0 0 1 12 5.75v-1.5A8.75 8.75 0 0 0 3.25 13h1.5ZM12 5.75A7.25 7.25 0 0 1 19.25 13h1.5A8.75 8.75 0 0 0 12 4.25v1.5ZM11.25 9v4h1.5V9h-1.5Zm.22 4.53 2 2 1.06-1.06-2-2-1.06 1.06Zm7-10 3 3 1.06-1.06-3-3-1.06 1.06Zm-14-1.06-3 3 1.06 1.06 3-3-1.06-1.06Zm1 16-2 2 1.06 1.06 2-2-1.06-1.06Zm12 1.06 2 2 1.06-1.06-2-2-1.06 1.06Z"/>
</svg>
