<svg xmlns="http://www.w3.org/2000/svg" width="24" height="24" fill="none" viewBox="0 0 24 24">
  <path fill="#000" d="M13 9.75a.75.75 0 0 0-1.5 0H13Zm-.75 3h-.75c0 .199.079.39.22.53l.53-.53Zm1.47 2.53a.75.75 0 1 0 1.06-1.06l-1.06 1.06ZM7.25 3.5a.75.75 0 0 0 0-1.5v1.5ZM1.5 7.75a.75.75 0 0 0 1.5 0H1.5ZM16.25 2a.75.75 0 0 0 0 1.5V2ZM21 7.75a.75.75 0 0 0 1.5 0H21ZM7.28 19.28a.75.75 0 1 0-1.06-1.06l1.06 1.06Zm-3.56 1.44a.75.75 0 1 0 1.06 1.06l-1.06-1.06Zm15.116-2.438a.75.75 0 0 0-1.172.936l1.172-.936Zm.828 3.436a.75.75 0 0 0 1.172-.936l-1.172.936ZM19.5 12.75A7.25 7.25 0 0 1 12.25 20v1.5A8.75 8.75 0 0 0 21 12.75h-1.5ZM12.25 20A7.25 7.25 0 0 1 5 12.75H3.5a8.75 8.75 0 0 0 8.75 8.75V20ZM5 12.75a7.25 7.25 0 0 1 7.25-7.25V4a8.75 8.75 0 0 0-8.75 8.75H5Zm7.25-7.25a7.25 7.25 0 0 1 7.25 7.25H21A8.75 8.75 0 0 0 12.25 4v1.5Zm-.75 4.25v3H13v-3h-1.5Zm.22 3.53 2 2 1.06-1.06-2-2-1.06 1.06ZM7.25 2A5.75 5.75 0 0 0 1.5 7.75H3A4.25 4.25 0 0 1 7.25 3.5V2Zm9 1.5c1.184 0 2.387.484 3.29 1.278C20.443 5.57 21 6.627 21 7.75h1.5c0-1.638-.812-3.082-1.97-4.099C19.376 2.636 17.828 2 16.25 2v1.5ZM6.22 18.22l-2.5 2.5 1.06 1.06 2.5-2.5-1.06-1.06Zm11.444.998 2 2.5 1.172-.936-2-2.5-1.172.936Z"/>
</svg>
