<svg xmlns="http://www.w3.org/2000/svg" width="24" height="24" fill="none" viewBox="0 0 24 24">
  <path fill="#000" d="M7.47 11.47a.75.75 0 1 0 1.06 1.06l-1.06-1.06ZM12 8l.53-.53a.75.75 0 0 0-1.06 0L12 8Zm3.47 4.53a.75.75 0 1 0 1.06-1.06l-1.06 1.06ZM11.25 16a.75.75 0 0 0 1.5 0h-1.5ZM6 3.75h12v-1.5H6v1.5ZM20.25 6v12h1.5V6h-1.5ZM18 20.25H6v1.5h12v-1.5ZM3.75 18V6h-1.5v12h1.5ZM6 20.25A2.25 2.25 0 0 1 3.75 18h-1.5A3.75 3.75 0 0 0 6 21.75v-1.5ZM20.25 18A2.25 2.25 0 0 1 18 20.25v1.5A3.75 3.75 0 0 0 21.75 18h-1.5ZM18 3.75A2.25 2.25 0 0 1 20.25 6h1.5A3.75 3.75 0 0 0 18 2.25v1.5ZM6 2.25A3.75 3.75 0 0 0 2.25 6h1.5A2.25 2.25 0 0 1 6 3.75v-1.5Zm2.53 10.28 4-4-1.06-1.06-4 4 1.06 1.06Zm2.94-4 4 4 1.06-1.06-4-4-1.06 1.06ZM11.25 8v8h1.5V8h-1.5Z"/>
</svg>
