<svg xmlns="http://www.w3.org/2000/svg" width="24" height="24" fill="none" viewBox="0 0 24 24">
  <path fill="#000" d="M16.76 19.931a.75.75 0 0 0 .772 1.286l-.772-1.286Zm1.202-15.96.448-.601-.448.602Zm-6.115-1.97.012.75-.012-.75ZM2.816 15.956l.689-.297-.69.297Zm3.936 5.426a.75.75 0 0 0 .732-1.31l-.732 1.31ZM11.25 22a.75.75 0 0 0 1.5 0h-1.5ZM12 8l.53-.53a.75.75 0 0 0-1.06 0L12 8Zm-4.53 3.47a.75.75 0 1 0 1.06 1.06l-1.06-1.06Zm8 1.06a.75.75 0 1 0 1.06-1.06l-1.06 1.06Zm2.062 8.687a10.75 10.75 0 0 0 4.466-5.268l-1.395-.551a9.25 9.25 0 0 1-3.843 4.533l.772 1.286Zm4.466-5.268c.87-2.2.988-4.624.34-6.898l-1.443.411a9.25 9.25 0 0 1-.292 5.936l1.395.55Zm.34-6.898A10.75 10.75 0 0 0 18.41 3.37l-.895 1.204a9.25 9.25 0 0 1 3.38 4.888l1.442-.411ZM18.41 3.37a10.75 10.75 0 0 0-6.574-2.119l.023 1.5a9.25 9.25 0 0 1 5.656 1.823l.895-1.204Zm-6.574-2.12A10.75 10.75 0 0 0 5.33 3.57l.93 1.176a9.25 9.25 0 0 1 5.6-1.996l-.023-1.5ZM5.33 3.57a10.75 10.75 0 0 0-3.753 5.798l1.455.367a9.25 9.25 0 0 1 3.229-4.99L5.33 3.57ZM1.577 9.368a10.75 10.75 0 0 0 .55 6.885l1.378-.594a9.25 9.25 0 0 1-.473-5.924l-1.455-.367Zm.55 6.885a10.75 10.75 0 0 0 4.625 5.129l.732-1.31a9.25 9.25 0 0 1-3.98-4.413l-1.377.594ZM12.75 22V8h-1.5v14h1.5ZM11.47 7.47l-4 4 1.06 1.06 4-4-1.06-1.06Zm0 1.06 4 4 1.06-1.06-4-4-1.06 1.06Z"/>
</svg>
