<svg xmlns="http://www.w3.org/2000/svg" width="24" height="24" fill="none" viewBox="0 0 24 24">
  <path fill="#000" d="M3 14v-.75a.75.75 0 0 0-.75.75H3Zm18 0h.75a.75.75 0 0 0-.75-.75V14ZM8 4l-.67-.335A.75.75 0 0 0 8 4.75V4Zm1-2v-.75a.75.75 0 0 0-.67.415L9 2Zm6 0 .67-.335A.75.75 0 0 0 15 1.25V2Zm1 2v.75a.75.75 0 0 0 .67-1.085L16 4ZM7 16.25a.75.75 0 0 0 0 1.5v-1.5Zm2 1.5a.75.75 0 0 0 0-1.5v1.5Zm6-1.5a.75.75 0 0 0 0 1.5v-1.5Zm2 1.5a.75.75 0 0 0 0-1.5v1.5Zm-11-13h12v-1.5H6v1.5ZM20.25 7v10h1.5V7h-1.5ZM18 19.25H6v1.5h12v-1.5ZM3.75 17V7h-1.5v10h1.5ZM6 19.25A2.25 2.25 0 0 1 3.75 17h-1.5A3.75 3.75 0 0 0 6 20.75v-1.5ZM20.25 17A2.25 2.25 0 0 1 18 19.25v1.5A3.75 3.75 0 0 0 21.75 17h-1.5ZM18 4.75A2.25 2.25 0 0 1 20.25 7h1.5A3.75 3.75 0 0 0 18 3.25v1.5ZM6 3.25A3.75 3.75 0 0 0 2.25 7h1.5A2.25 2.25 0 0 1 6 4.75v-1.5Zm-3 11.5h18v-1.5H3v1.5ZM20.25 14v3h1.5v-3h-1.5Zm-16.5 3v-3h-1.5v3h1.5Zm4.5 4.5a.25.25 0 0 1 .25-.25v1.5c.69 0 1.25-.56 1.25-1.25h-1.5Zm.25-.25a.25.25 0 0 1 .25.25h-1.5c0 .69.56 1.25 1.25 1.25v-1.5Zm.25.25a.25.25 0 0 1-.25.25v-1.5c-.69 0-1.25.56-1.25 1.25h1.5Zm-.25.25a.25.25 0 0 1-.25-.25h1.5c0-.69-.56-1.25-1.25-1.25v1.5Zm6.75-.25a.25.25 0 0 1 .25-.25v1.5c.69 0 1.25-.56 1.25-1.25h-1.5Zm.25-.25a.25.25 0 0 1 .25.25h-1.5c0 .69.56 1.25 1.25 1.25v-1.5Zm.25.25a.25.25 0 0 1-.25.25v-1.5c-.69 0-1.25.56-1.25 1.25h1.5Zm-.25.25a.25.25 0 0 1-.25-.25h1.5c0-.69-.56-1.25-1.25-1.25v1.5ZM8.67 4.335l1-2-1.34-.67-1 2 1.34.67ZM9 2.75h6v-1.5H9v1.5Zm5.33-.415 1 2 1.34-.67-1-2-1.34.67ZM16 3.25H8v1.5h8v-1.5Zm-9 14.5h2v-1.5H7v1.5Zm8 0h2v-1.5h-2v1.5Z"/>
</svg>
