<svg xmlns="http://www.w3.org/2000/svg" width="24" height="24" fill="none" viewBox="0 0 24 24">
  <path fill="#000" d="M3 12v-.75h-.75V12H3Zm18 0h.75v-.75H21V12ZM5 22h-.75c0 .414.336.75.75.75V22Zm3.5 0v.75a.75.75 0 0 0 .75-.75H8.5Zm7 0h-.75c0 .414.336.75.75.75V22Zm3.5 0v.75a.75.75 0 0 0 .75-.75H19ZM6 14.75a.75.75 0 0 0 0 1.5v-1.5Zm2 1.5a.75.75 0 0 0 0-1.5v1.5Zm8-1.5a.75.75 0 0 0 0 1.5v-1.5Zm2 1.5a.75.75 0 0 0 0-1.5v1.5Zm-15-3.5h18v-1.5H3v1.5Zm3-10h12v-1.5H6v1.5ZM20.25 5v12h1.5V5h-1.5ZM18 19.25H6v1.5h12v-1.5ZM3.75 17V5h-1.5v12h1.5ZM6 19.25A2.25 2.25 0 0 1 3.75 17h-1.5A3.75 3.75 0 0 0 6 20.75v-1.5ZM20.25 17A2.25 2.25 0 0 1 18 19.25v1.5A3.75 3.75 0 0 0 21.75 17h-1.5ZM18 2.75A2.25 2.25 0 0 1 20.25 5h1.5A3.75 3.75 0 0 0 18 1.25v1.5ZM6 1.25A3.75 3.75 0 0 0 2.25 5h1.5A2.25 2.25 0 0 1 6 2.75v-1.5ZM4.25 20v2h1.5v-2h-1.5ZM5 22.75h3.5v-1.5H5v1.5ZM9.25 22v-2h-1.5v2h1.5Zm5.5-2v2h1.5v-2h-1.5Zm.75 2.75H19v-1.5h-3.5v1.5Zm4.25-.75v-2h-1.5v2h1.5ZM6 16.25h2v-1.5H6v1.5Zm10 0h2v-1.5h-2v1.5ZM20.25 12v4h1.5v-4h-1.5Zm-16.5 4v-4h-1.5v4h1.5ZM3 6.25h18v-1.5H3v1.5Z"/>
</svg>
