<svg xmlns="http://www.w3.org/2000/svg" width="24" height="24" fill="none" viewBox="0 0 24 24">
  <path fill="#000" d="M9.53 15.47a.75.75 0 0 0-1.06 1.06l1.06-1.06ZM11 18l-.53.53a.75.75 0 0 0 1.06 0L11 18Zm4.53-3.47a.75.75 0 1 0-1.06-1.06l1.06 1.06ZM21 10v.75h.75V10H21ZM3 10h-.75v.75H3V10Zm5.75-8a.75.75 0 0 0-1.5 0h1.5Zm-1.5 4a.75.75 0 0 0 1.5 0h-1.5Zm9.5-4a.75.75 0 0 0-1.5 0h1.5Zm-1.5 4a.75.75 0 0 0 1.5 0h-1.5ZM8.47 16.53l2 2 1.06-1.06-2-2-1.06 1.06Zm3.06 2 4-4-1.06-1.06-4 4 1.06 1.06ZM6 4.75h12v-1.5H6v1.5ZM20.25 7v12h1.5V7h-1.5ZM18 21.25H6v1.5h12v-1.5ZM3.75 19V7h-1.5v12h1.5ZM6 21.25A2.25 2.25 0 0 1 3.75 19h-1.5A3.75 3.75 0 0 0 6 22.75v-1.5ZM20.25 19A2.25 2.25 0 0 1 18 21.25v1.5A3.75 3.75 0 0 0 21.75 19h-1.5ZM18 4.75A2.25 2.25 0 0 1 20.25 7h1.5A3.75 3.75 0 0 0 18 3.25v1.5ZM6 3.25A3.75 3.75 0 0 0 2.25 7h1.5A2.25 2.25 0 0 1 6 4.75v-1.5ZM20.25 7v3h1.5V7h-1.5ZM21 9.25H3v1.5h18v-1.5ZM3.75 10V7h-1.5v3h1.5Zm3.5-8v4h1.5V2h-1.5Zm8 0v4h1.5V2h-1.5Z"/>
</svg>
