<svg xmlns="http://www.w3.org/2000/svg" width="24" height="24" fill="none" viewBox="0 0 24 24">
  <path fill="#000" d="M20 10v-.75h-.75V10H20Zm0 4h-.75v.75H20V14Zm-7.924-4.52a.75.75 0 0 0-1.152-.96l1.152.96ZM9 12l-.576-.48A.75.75 0 0 0 9 12.75V12Zm4 0 .53.53a.75.75 0 0 0-.53-1.28V12Zm-3.53 2.47a.75.75 0 1 0 1.06 1.06l-1.06-1.06ZM4 7.75h14v-1.5H4v1.5ZM19.25 9v6h1.5V9h-1.5ZM18 16.25H4v1.5h14v-1.5ZM2.75 15V9h-1.5v6h1.5ZM4 16.25c-.69 0-1.25-.56-1.25-1.25h-1.5A2.75 2.75 0 0 0 4 17.75v-1.5ZM19.25 15c0 .69-.56 1.25-1.25 1.25v1.5A2.75 2.75 0 0 0 20.75 15h-1.5ZM18 7.75c.69 0 1.25.56 1.25 1.25h1.5A2.75 2.75 0 0 0 18 6.25v1.5ZM4 6.25A2.75 2.75 0 0 0 1.25 9h1.5c0-.69.56-1.25 1.25-1.25v-1.5Zm16 4.5h1v-1.5h-1v1.5Zm1.25.25v2h1.5v-2h-1.5ZM21 13.25h-1v1.5h1v-1.5Zm-.25.75v-4h-1.5v4h1.5Zm.5-1a.25.25 0 0 1-.25.25v1.5A1.75 1.75 0 0 0 22.75 13h-1.5ZM21 10.75a.25.25 0 0 1 .25.25h1.5A1.75 1.75 0 0 0 21 9.25v1.5ZM10.924 8.52l-2.5 3 1.152.96 2.5-3-1.152-.96ZM9 12.75h4v-1.5H9v1.5Zm3.47-1.28-3 3 1.06 1.06 3-3-1.06-1.06Z"/>
</svg>
