<svg xmlns="http://www.w3.org/2000/svg" width="24" height="24" fill="none" viewBox="0 0 24 24">
  <path fill="#000" d="M20.25 12a.75.75 0 0 0 1.5 0h-1.5Zm-6.97 9.666a.75.75 0 0 0-.198-1.487l.197 1.487Zm2.32-6.816a.75.75 0 0 0 0 1.5v-1.5Zm4.5.75.53.53a.75.75 0 0 0-.53-1.28v.75Zm-4.5 4.5-.53-.53a.75.75 0 0 0 .53 1.28v-.75Zm4.5.75a.75.75 0 0 0 0-1.5v1.5ZM11.85 6.6a.75.75 0 0 0-1.5 0h1.5ZM11.1 12h-.75c0 .284.16.544.415.67L11.1 12Zm3.265 2.47a.75.75 0 1 0 .67-1.34l-.67 1.34ZM21.75 12a9.75 9.75 0 0 0-1.733-5.55l-1.234.854A8.25 8.25 0 0 1 20.25 12h1.5Zm-1.733-5.55a9.75 9.75 0 0 0-4.584-3.576l-.528 1.404a8.25 8.25 0 0 1 3.878 3.026l1.234-.853Zm-4.584-3.576a9.75 9.75 0 0 0-5.804-.331l.364 1.455a8.25 8.25 0 0 1 4.912.28l.528-1.404Zm-5.804-.331a9.75 9.75 0 0 0-4.962 3.03l1.128.99a8.25 8.25 0 0 1 4.198-2.565L9.63 2.543Zm-4.962 3.03a9.75 9.75 0 0 0-2.354 5.317l1.49.17a8.25 8.25 0 0 1 1.992-4.498l-1.128-.988ZM2.313 10.89a9.75 9.75 0 0 0 1.09 5.71l1.323-.707a8.25 8.25 0 0 1-.922-4.832l-1.49-.171Zm1.09 5.71a9.75 9.75 0 0 0 4.147 4.075l.685-1.334a8.25 8.25 0 0 1-3.509-3.448l-1.322.707Zm4.147 4.075a9.75 9.75 0 0 0 5.73.99l-.198-1.486a8.25 8.25 0 0 1-4.847-.838l-.685 1.334Zm8.05-4.325h4.5v-1.5h-4.5v1.5Zm3.97-1.28-4.5 4.5 1.06 1.06 4.5-4.5-1.06-1.06Zm-3.97 5.78h4.5v-1.5h-4.5v1.5ZM10.35 6.6V12h1.5V6.6h-1.5Zm.415 6.07 3.6 1.8.67-1.34-3.6-1.8-.67 1.34Z"/>
</svg>
