<svg xmlns="http://www.w3.org/2000/svg" width="24" height="24" fill="none" viewBox="0 0 24 24">
  <path fill="#000" d="M11.25 4a.75.75 0 0 0 1.5 0h-1.5Zm5.72 1.97a.75.75 0 0 0 1.06 1.06l-1.06-1.06Zm2.56-.44a.75.75 0 0 0-1.06-1.06l1.06 1.06Zm.47 5.72a.75.75 0 0 0 0 1.5v-1.5Zm-1.97 5.72a.75.75 0 1 0-1.06 1.06l1.06-1.06Zm.44 2.56a.75.75 0 1 0 1.06-1.06l-1.06 1.06Zm-5.72.47a.75.75 0 0 0-1.5 0h1.5Zm-5.72-1.97a.75.75 0 1 0-1.06-1.06l1.06 1.06Zm-2.56.44a.75.75 0 1 0 1.06 1.06l-1.06-1.06ZM4 12.75a.75.75 0 0 0 0-1.5v1.5Zm1.97-5.72a.75.75 0 0 0 1.06-1.06L5.97 7.03Zm-.44-2.56a.75.75 0 0 0-1.06 1.06l1.06-1.06ZM12 8l.703-.26a.75.75 0 0 0-1.406 0L12 8Zm1.08 2.92-.703.26a.75.75 0 0 0 .443.443l.26-.703ZM16 12l.26.703a.75.75 0 0 0 0-1.406L16 12Zm-2.92 1.08-.26-.703a.75.75 0 0 0-.443.443l.703.26ZM12 16l-.703.26a.75.75 0 0 0 1.406 0L12 16Zm-1.08-2.92.703-.26a.75.75 0 0 0-.443-.443l-.26.703ZM8 12l-.26-.703a.75.75 0 0 0 0 1.406L8 12Zm2.92-1.08.26.703a.75.75 0 0 0 .443-.443l-.703-.26ZM12.75 4V2h-1.5v2h1.5Zm8.5 8A9.25 9.25 0 0 1 12 21.25v1.5c5.937 0 10.75-4.813 10.75-10.75h-1.5ZM12 21.25A9.25 9.25 0 0 1 2.75 12h-1.5c0 5.937 4.813 10.75 10.75 10.75v-1.5ZM2.75 12A9.25 9.25 0 0 1 12 2.75v-1.5C6.063 1.25 1.25 6.063 1.25 12h1.5ZM12 2.75A9.25 9.25 0 0 1 21.25 12h1.5c0-5.937-4.813-10.75-10.75-10.75v1.5Zm6.03 4.28 1.5-1.5-1.06-1.06-1.5 1.5 1.06 1.06ZM20 12.75h2v-1.5h-2v1.5Zm-3.03 5.28 1.5 1.5 1.06-1.06-1.5-1.5-1.06 1.06ZM11.25 20v2h1.5v-2h-1.5Zm-5.28-3.03-1.5 1.5 1.06 1.06 1.5-1.5-1.06-1.06ZM4 11.25H2v1.5h2v-1.5Zm3.03-5.28-1.5-1.5-1.06 1.06 1.5 1.5 1.06-1.06Zm4.267 2.29 1.08 2.92 1.407-.52-1.08-2.92-1.407.52Zm1.523 3.363 2.92 1.08.52-1.406-2.92-1.08-.52 1.406Zm2.92-.326-2.92 1.08.52 1.407 2.92-1.08-.52-1.407Zm-3.363 1.523-1.08 2.92 1.406.52 1.08-2.92-1.406-.52Zm.326 2.92-1.08-2.92-1.407.52 1.08 2.92 1.407-.52Zm-1.523-3.363-2.92-1.08-.52 1.406 2.92 1.08.52-1.406Zm-2.92.326 2.92-1.08-.52-1.407-2.92 1.08.52 1.407Zm3.363-1.523 1.08-2.92-1.406-.52-1.08 2.92 1.406.52Z"/>
</svg>
