<svg xmlns="http://www.w3.org/2000/svg" width="24" height="24" fill="none" viewBox="0 0 24 24">
  <path fill="#000" d="M17 8a1 1 0 1 1-2 0 1 1 0 0 1 2 0Zm-4 4a1 1 0 1 1-2 0 1 1 0 0 1 2 0Zm-4 4a1 1 0 1 1-2 0 1 1 0 0 1 2 0Z"/>
  <path stroke="#000" stroke-width="1.5" d="M3 5a2 2 0 0 1 2-2h14a2 2 0 0 1 2 2v14a2 2 0 0 1-2 2H5a2 2 0 0 1-2-2V5Z"/>
  <path stroke="#000" stroke-width="1.5" d="M17 8a1 1 0 1 1-2 0 1 1 0 0 1 2 0Zm-4 4a1 1 0 1 1-2 0 1 1 0 0 1 2 0Zm-4 4a1 1 0 1 1-2 0 1 1 0 0 1 2 0Z"/>
</svg>
