<svg xmlns="http://www.w3.org/2000/svg" width="24" height="24" fill="none" viewBox="0 0 24 24">
  <path fill="#000" d="M12 18v-.75.75Zm-9-6-.67-.336a.75.75 0 0 0 0 .672L3 12Zm18 0 .67.336a.75.75 0 0 0 0-.672L21 12Zm-9-6v-.75V6Zm0 11.25c-3.511 0-6.636-2.204-8.33-5.586l-1.34.672C4.228 16.128 7.82 18.75 12 18.75v-1.5Zm8.33-5.586c-1.694 3.382-4.818 5.586-8.33 5.586v1.5c4.18 0 7.771-2.622 9.67-6.414l-1.34-.672ZM12 6.75c3.511 0 6.636 2.204 8.33 5.586l1.34-.672C19.772 7.872 16.18 5.25 12 5.25v1.5Zm-8.33 5.586C5.365 8.954 8.49 6.75 12 6.75v-1.5c-4.18 0-7.771 2.622-9.67 6.414l1.34.672ZM14.25 12A2.25 2.25 0 0 1 12 14.25v1.5A3.75 3.75 0 0 0 15.75 12h-1.5ZM12 14.25A2.25 2.25 0 0 1 9.75 12h-1.5A3.75 3.75 0 0 0 12 15.75v-1.5ZM9.75 12A2.25 2.25 0 0 1 12 9.75v-1.5A3.75 3.75 0 0 0 8.25 12h1.5ZM12 9.75A2.25 2.25 0 0 1 14.25 12h1.5A3.75 3.75 0 0 0 12 8.25v1.5Z"/>
</svg>
