<svg xmlns="http://www.w3.org/2000/svg" width="24" height="24" fill="none" viewBox="0 0 24 24">
  <path fill="#000" d="M17 14h.75a.75.75 0 0 0-.75-.75V14ZM7 14v-.75a.75.75 0 0 0-.75.75H7Zm14.25-2A9.25 9.25 0 0 1 12 21.25v1.5c5.937 0 10.75-4.813 10.75-10.75h-1.5ZM12 21.25A9.25 9.25 0 0 1 2.75 12h-1.5c0 5.937 4.813 10.75 10.75 10.75v-1.5ZM2.75 12A9.25 9.25 0 0 1 12 2.75v-1.5C6.063 1.25 1.25 6.063 1.25 12h1.5ZM12 2.75A9.25 9.25 0 0 1 21.25 12h1.5c0-5.937-4.813-10.75-10.75-10.75v1.5ZM9.25 9a.25.25 0 0 1-.25.25v1.5A1.75 1.75 0 0 0 10.75 9h-1.5ZM9 9.25A.25.25 0 0 1 8.75 9h-1.5c0 .966.784 1.75 1.75 1.75v-1.5ZM8.75 9A.25.25 0 0 1 9 8.75v-1.5A1.75 1.75 0 0 0 7.25 9h1.5ZM9 8.75a.25.25 0 0 1 .25.25h1.5A1.75 1.75 0 0 0 9 7.25v1.5Zm6.25.25a.25.25 0 0 1-.25.25v1.5A1.75 1.75 0 0 0 16.75 9h-1.5Zm-.25.25a.25.25 0 0 1-.25-.25h-1.5c0 .966.784 1.75 1.75 1.75v-1.5ZM14.75 9a.25.25 0 0 1 .25-.25v-1.5A1.75 1.75 0 0 0 13.25 9h1.5Zm.25-.25a.25.25 0 0 1 .25.25h1.5A1.75 1.75 0 0 0 15 7.25v1.5ZM16.25 14c0 .558-.11 1.11-.323 1.626l1.385.574a5.75 5.75 0 0 0 .438-2.2h-1.5Zm-.323 1.626a4.25 4.25 0 0 1-.922 1.38l1.06 1.06a5.751 5.751 0 0 0 1.247-1.866l-1.386-.574Zm-.922 1.38a4.25 4.25 0 0 1-1.379.92l.574 1.386a5.751 5.751 0 0 0 1.866-1.246l-1.06-1.06Zm-1.379.92A4.25 4.25 0 0 1 12 18.25v1.5a5.75 5.75 0 0 0 2.2-.438l-.574-1.386ZM12 18.25a4.25 4.25 0 0 1-1.626-.323L9.8 19.312a5.75 5.75 0 0 0 2.2.438v-1.5Zm-1.626-.323a4.25 4.25 0 0 1-1.38-.922l-1.06 1.06A5.751 5.751 0 0 0 9.8 19.313l.574-1.386Zm-1.38-.922a4.25 4.25 0 0 1-.92-1.379l-1.386.574a5.75 5.75 0 0 0 1.246 1.866l1.06-1.06Zm-.92-1.379A4.25 4.25 0 0 1 7.75 14h-1.5c0 .755.149 1.503.438 2.2l1.386-.574ZM7 14.75h10v-1.5H7v1.5Z"/>
</svg>
