<svg xmlns="http://www.w3.org/2000/svg" width="24" height="24" fill="none" viewBox="0 0 24 24">
  <path fill="#000" d="M3 11.25h-.75v1.5H3v-1.5Zm18.5 1.5h.75v-1.5h-.75v1.5Zm-.25-.75A9.25 9.25 0 0 1 12 21.25v1.5c5.937 0 10.75-4.813 10.75-10.75h-1.5ZM12 21.25A9.25 9.25 0 0 1 2.75 12h-1.5c0 5.937 4.813 10.75 10.75 10.75v-1.5ZM2.75 12A9.25 9.25 0 0 1 12 2.75v-1.5C6.063 1.25 1.25 6.063 1.25 12h1.5ZM12 2.75A9.25 9.25 0 0 1 21.25 12h1.5c0-5.937-4.813-10.75-10.75-10.75v1.5ZM4.97 19.988A9.228 9.228 0 0 1 12 16.75v-1.5c-3.27 0-6.199 1.46-8.17 3.762l1.14.976ZM12 16.75a9.227 9.227 0 0 1 7.03 3.238l1.14-.976A10.728 10.728 0 0 0 12 15.25v1.5Zm0-9.5a9.22 9.22 0 0 1-6.606-2.775l-1.07 1.05A10.72 10.72 0 0 0 12 8.75v-1.5Zm6.606-2.775A9.22 9.22 0 0 1 12 7.25v1.5a10.72 10.72 0 0 0 7.677-3.225l-1.071-1.05ZM16.25 12c0 2.67-.543 5.05-1.385 6.736C14 20.466 12.944 21.25 12 21.25v1.5c1.818 0 3.262-1.454 4.206-3.343.968-1.935 1.544-4.554 1.544-7.407h-1.5ZM12 21.25c-.944 0-2-.784-2.865-2.514C8.293 17.05 7.75 14.67 7.75 12h-1.5c0 2.853.577 5.472 1.544 7.407.944 1.889 2.388 3.343 4.206 3.343v-1.5ZM7.75 12c0-2.67.543-5.05 1.385-6.736C10 3.534 11.056 2.75 12 2.75v-1.5c-1.818 0-3.262 1.454-4.206 3.344C6.827 6.528 6.25 9.147 6.25 12h1.5ZM12 2.75c.944 0 2 .784 2.865 2.514C15.707 6.95 16.25 9.33 16.25 12h1.5c0-2.853-.576-5.472-1.544-7.406C15.262 2.704 13.818 1.25 12 1.25v1.5Zm-9 10h9v-1.5H3v1.5Zm9 0h.026v-1.5H12v1.5Zm.026 0H21.5v-1.5h-9.474v1.5Zm.75-.752-.026-10-1.5.004.026 10 1.5-.004ZM11.25 2v10h1.5V2h-1.5Zm0 10v10h1.5V12h-1.5Z"/>
</svg>
