<svg xmlns="http://www.w3.org/2000/svg" width="24" height="24" fill="none" viewBox="0 0 24 24">
  <path fill="#000" d="m10.658 3.553.336.67-.336-.67ZM2 7.882l-.335-.67a.75.75 0 0 0 0 1.34L2 7.883Zm8.658 4.33.336-.672-.336.671ZM22 7.881l.335.67a.75.75 0 0 0 0-1.34l-.335.67Zm-8.658-4.33.335-.67-.335.67Zm-.895 17.106-.335-.67.335.67Zm7-3.5.336.671-.336-.67Zm-7.894 3.5.335-.67-.335.67Zm-7-3.5.335-.67-.335.67Zm7.833-9.92a.75.75 0 0 0-.772 1.287l.772-1.286ZM17 10.883h.75v-.425l-.364-.218-.386.643Zm-.75 3a.75.75 0 0 0 1.5 0h-1.5Zm-5.927-11-8.658 4.33.67 1.34 8.659-4.328-.671-1.342Zm-8.658 5.67 8.658 4.33.67-1.342-8.658-4.329-.67 1.342Zm12.012 4.33 8.658-4.33-.67-1.34-8.659 4.328.671 1.342Zm8.658-5.67-8.658-4.33-.67 1.342 8.658 4.329.67-1.342Zm-12.012 5.67a3.75 3.75 0 0 0 3.354 0l-.67-1.342a2.25 2.25 0 0 1-2.013 0l-.671 1.342Zm.67-8.658a2.25 2.25 0 0 1 2.013 0l.671-1.342a3.75 3.75 0 0 0-3.354 0l.67 1.342Zm1.79 17.105 7-3.5-.671-1.341-7 3.5.67 1.341Zm7.967-5.065V8.882h-1.5v7.382h1.5Zm-8.862 3.724-7-3.5-.67 1.341 7 3.5.67-1.341ZM4.75 16.264V8.882h-1.5v7.382h1.5Zm.138.224a.25.25 0 0 1-.138-.224h-1.5c0 .663.374 1.269.967 1.565l.671-1.341Zm14.895 1.341a1.75 1.75 0 0 0 .967-1.565h-1.5a.25.25 0 0 1-.138.224l.67 1.341Zm-7.671 2.159a.25.25 0 0 1-.224 0l-.67 1.341a1.75 1.75 0 0 0 1.565 0l-.671-1.341Zm-.498-11.463 5 3 .772-1.286-5-3-.772 1.286Zm4.636 2.357v3h1.5v-3h-1.5Z"/>
</svg>
