<svg xmlns="http://www.w3.org/2000/svg" width="24" height="24" fill="none" viewBox="0 0 24 24">
  <path fill="#000" d="M20 21.5v.75a.75.75 0 0 0 .685-1.055L20 21.5Zm-16 0-.685-.305A.75.75 0 0 0 4 22.25v-.75Zm14.792-2.718-.686.304.686-.304Zm-13.584 0 .686.304-.686-.304ZM5 2.75h14v-1.5H5v1.5ZM21.25 5v14h1.5V5h-1.5ZM19 21.25H5v1.5h14v-1.5ZM2.75 19V5h-1.5v14h1.5ZM5 21.25A2.25 2.25 0 0 1 2.75 19h-1.5A3.75 3.75 0 0 0 5 22.75v-1.5ZM21.25 19A2.25 2.25 0 0 1 19 21.25v1.5A3.75 3.75 0 0 0 22.75 19h-1.5ZM19 2.75A2.25 2.25 0 0 1 21.25 5h1.5A3.75 3.75 0 0 0 19 1.25v1.5ZM5 1.25A3.75 3.75 0 0 0 1.25 5h1.5A2.25 2.25 0 0 1 5 2.75v-1.5Zm2.95 16.5h8.1v-1.5h-8.1v1.5Zm10.157 1.336 1.208 2.719 1.37-.61-1.208-2.718-1.37.61ZM20 20.75H4v1.5h16v-1.5ZM4.685 21.805l1.209-2.719-1.371-.609-1.208 2.718 1.37.61ZM16.05 17.75c.89 0 1.695.524 2.056 1.336l1.371-.609a3.75 3.75 0 0 0-3.427-2.227v1.5Zm-8.1-1.5a3.75 3.75 0 0 0-3.427 2.227l1.37.61A2.25 2.25 0 0 1 7.95 17.75v-1.5ZM15.25 9A3.25 3.25 0 0 1 12 12.25v1.5A4.75 4.75 0 0 0 16.75 9h-1.5ZM12 12.25A3.25 3.25 0 0 1 8.75 9h-1.5A4.75 4.75 0 0 0 12 13.75v-1.5ZM8.75 9A3.25 3.25 0 0 1 12 5.75v-1.5A4.75 4.75 0 0 0 7.25 9h1.5ZM12 5.75A3.25 3.25 0 0 1 15.25 9h1.5A4.75 4.75 0 0 0 12 4.25v1.5Z"/>
</svg>
