<svg xmlns="http://www.w3.org/2000/svg" width="24" height="24" fill="none" viewBox="0 0 24 24">
  <path fill="#000" d="M8 10a.5.5 0 1 1-1 0 .5.5 0 0 1 1 0Zm5 0a.5.5 0 1 1-1 0 .5.5 0 0 1 1 0Zm4 0a.5.5 0 1 1-1 0 .5.5 0 0 1 1 0Z"/>
  <path stroke="#000" stroke-linecap="round" stroke-linejoin="round" stroke-width="1.5" d="M8 10a.5.5 0 1 1-1 0 .5.5 0 0 1 1 0Zm5 0a.5.5 0 1 1-1 0 .5.5 0 0 1 1 0Zm4 0a.5.5 0 1 1-1 0 .5.5 0 0 1 1 0Z"/>
  <path stroke="#000" stroke-linecap="round" stroke-linejoin="round" stroke-width="1.5" d="M18 2.5H6a3 3 0 0 0-3 3v10a2 2 0 0 0 2 2 2 2 0 0 1 2 2v2l4.178-3.343a3 3 0 0 1 1.874-.657H18a3 3 0 0 0 3-3v-9a3 3 0 0 0-3-3Z"/>
</svg>
