<svg xmlns="http://www.w3.org/2000/svg" width="24" height="24" fill="none" viewBox="0 0 24 24">
  <path fill="#000" d="M14.25 10a.75.75 0 0 0 1.5 0h-1.5Zm-6-5.5a.75.75 0 0 0 1.5 0h-1.5Zm11.5 5a.75.75 0 0 0-1.5 0h1.5Zm-14 0a.75.75 0 0 0-1.5 0h1.5ZM8 21.25a.75.75 0 0 0 0 1.5v-1.5Zm8 1.5a.75.75 0 0 0 0-1.5v1.5ZM2.53 1.47a.75.75 0 0 0-1.06 1.06l1.06-1.06Zm18.94 21.06a.75.75 0 1 0 1.06-1.06l-1.06 1.06Zm-8.177-8.28h-.757v1.5h.757v-1.5ZM9.75 11.464V9h-1.5v2.464h1.5Zm2.786 2.786a2.785 2.785 0 0 1-2.786-2.786h-1.5a4.286 4.286 0 0 0 4.286 4.286v-1.5Zm1.434-.28a.957.957 0 0 1-.677.28v1.5c.652 0 1.277-.259 1.737-.72l-1.06-1.06ZM11.5 2.75h.5v-1.5h-.5v1.5ZM14.25 5v5h1.5V5h-1.5ZM12 2.75A2.25 2.25 0 0 1 14.25 5h1.5A3.75 3.75 0 0 0 12 1.25v1.5Zm-.5-1.5A3.25 3.25 0 0 0 8.25 4.5h1.5c0-.966.784-1.75 1.75-1.75v-1.5Zm6.75 8.25V12h1.5V9.5h-1.5ZM5.75 12V9.5h-1.5V12h1.5Zm5.5 7v3h1.5v-3h-1.5Zm.75 2.25H8v1.5h4v-1.5Zm0 1.5h4v-1.5h-4v1.5ZM4.25 12A7.75 7.75 0 0 0 12 19.75v-1.5A6.25 6.25 0 0 1 5.75 12h-1.5Zm14 0A6.25 6.25 0 0 1 12 18.25v1.5A7.75 7.75 0 0 0 19.75 12h-1.5ZM1.47 2.53l20 20 1.06-1.06-20-20-1.06 1.06Z"/>
</svg>
