<svg xmlns="http://www.w3.org/2000/svg" width="24" height="24" fill="none" viewBox="0 0 24 24">
  <path fill="#000" d="M7 12.5a.5.5 0 1 1-1 0 .5.5 0 0 1 1 0Zm6 0a.5.5 0 1 1-1 0 .5.5 0 0 1 1 0Zm6 0a.5.5 0 1 1-1 0 .5.5 0 0 1 1 0Z"/>
  <path stroke="#000" stroke-width="1.5" d="M2 10a3 3 0 0 1 3-3h14a3 3 0 0 1 3 3v4a3 3 0 0 1-3 3H5a3 3 0 0 1-3-3v-4Z"/>
  <path stroke="#000" stroke-width="1.5" d="M7 12.5a.5.5 0 1 1-1 0 .5.5 0 0 1 1 0Zm6 0a.5.5 0 1 1-1 0 .5.5 0 0 1 1 0Zm6 0a.5.5 0 1 1-1 0 .5.5 0 0 1 1 0Z"/>
</svg>
