<svg xmlns="http://www.w3.org/2000/svg" width="24" height="24" fill="none" viewBox="0 0 24 24">
  <path fill="#000" d="M21.292 14.953a.75.75 0 1 0-1.43-.454l1.43.454ZM9.507 4.136a.75.75 0 0 0-.453-1.43l.453 1.43ZM12 3v-.75a.75.75 0 0 0-.75.75H12Zm9 9v.75a.75.75 0 0 0 .75-.75H21Zm-9 0h-.75c0 .414.336.75.75.75V12Zm7.863 2.499a8.25 8.25 0 0 1-2.234 3.533l1.023 1.096a9.75 9.75 0 0 0 2.64-4.175l-1.43-.454Zm-2.234 3.533a8.25 8.25 0 0 1-3.679 1.984l.355 1.458a9.75 9.75 0 0 0 4.347-2.346l-1.023-1.096Zm-3.679 1.984a8.25 8.25 0 0 1-4.179-.073l-.405 1.444a9.75 9.75 0 0 0 4.939.087l-.355-1.458Zm-4.179-.073a8.25 8.25 0 0 1-3.607-2.112l-1.06 1.06a9.751 9.751 0 0 0 4.262 2.497l.405-1.445Zm-3.607-2.112a8.25 8.25 0 0 1-2.109-3.608l-1.444.404a9.75 9.75 0 0 0 2.492 4.265l1.061-1.06Zm-2.109-3.608a8.25 8.25 0 0 1-.07-4.18l-1.457-.355a9.75 9.75 0 0 0 .083 4.939l1.444-.404Zm-.07-4.18a8.25 8.25 0 0 1 1.988-3.676L4.877 5.342a9.75 9.75 0 0 0-2.349 4.346l1.457.356Zm1.988-3.676a8.25 8.25 0 0 1 3.534-2.231l-.453-1.43a9.75 9.75 0 0 0-4.177 2.636l1.096 1.025ZM12 3.75a8.25 8.25 0 0 1 3.157.628l.574-1.386A9.75 9.75 0 0 0 12 2.25v1.5Zm3.157.628a8.25 8.25 0 0 1 2.677 1.788l1.06-1.06a9.75 9.75 0 0 0-3.163-2.114l-.574 1.386Zm2.677 1.788a8.25 8.25 0 0 1 1.788 2.677l1.386-.574a9.75 9.75 0 0 0-2.114-3.163l-1.06 1.06Zm1.788 2.677A8.25 8.25 0 0 1 20.25 12h1.5a9.75 9.75 0 0 0-.742-3.731l-1.386.574ZM21 11.25h-9v1.5h9v-1.5Zm-8.25.75V3h-1.5v9h1.5Z"/>
</svg>
