<svg xmlns="http://www.w3.org/2000/svg" width="24" height="24" fill="none" viewBox="0 0 24 24">
  <path fill="#000" d="M17.059 20.5a.5.5 0 1 1-1 0 .5.5 0 0 1 1 0Zm-9 0a.5.5 0 1 1-1 0 .5.5 0 0 1 1 0Z"/>
  <path stroke="#000" stroke-linecap="round" stroke-width="1.5" d="M2.059 3h1.06a1 1 0 0 1 .998.938L4.247 6m14.812 13H5.998A1 1 0 0 1 5 18.062L4.809 15m0 0h15.355a1 1 0 0 0 .993-.89l.778-7A1 1 0 0 0 20.941 6H4.246m.563 9-.563-9M17.06 20.5a.5.5 0 1 1-1 0 .5.5 0 0 1 1 0Zm-9 0a.5.5 0 1 1-1 0 .5.5 0 0 1 1 0Z"/>
</svg>
