<svg xmlns="http://www.w3.org/2000/svg" fill="none" viewBox="0 0 24 24" stroke-width="1.5" stroke="currentColor" aria-hidden="true" data-slot="icon">
  <path d="M9 9.5a.5.5 0 1 1-1 0 .5.5 0 0 1 1 0Zm4 0a.5.5 0 1 1-1 0 .5.5 0 0 1 1 0Zm4 0a.5.5 0 1 1-1 0 .5.5 0 0 1 1 0Z"/>
  <path d="m14.1 18.2.6.45-.6-.45ZM12 21l-.6.45a.75.75 0 0 0 1.2 0L12 21Zm-2.1-2.8.6-.45-.6.45ZM6 3.75h12v-1.5H6v1.5ZM20.25 6v8h1.5V6h-1.5ZM18 16.25h-1.5v1.5H18v-1.5Zm-4.5 1.5-2.1 2.8 1.2.9 2.1-2.8-1.2-.9Zm-.9 2.8-2.1-2.8-1.2.9 2.1 2.8 1.2-.9Zm-5.1-4.3H6v1.5h1.5v-1.5ZM3.75 14V6h-1.5v8h1.5ZM6 16.25A2.25 2.25 0 0 1 3.75 14h-1.5A3.75 3.75 0 0 0 6 17.75v-1.5Zm10.5 0a3.75 3.75 0 0 0-3 1.5l1.2.9a2.25 2.25 0 0 1 1.8-.9v-1.5ZM20.25 14A2.25 2.25 0 0 1 18 16.25v1.5A3.75 3.75 0 0 0 21.75 14h-1.5ZM18 3.75A2.25 2.25 0 0 1 20.25 6h1.5A3.75 3.75 0 0 0 18 2.25v1.5Zm-7.5 14a3.75 3.75 0 0 0-3-1.5v1.5a2.25 2.25 0 0 1 1.8.9l1.2-.9ZM6 2.25A3.75 3.75 0 0 0 2.25 6h1.5A2.25 2.25 0 0 1 6 3.75v-1.5ZM8.25 9.5a.25.25 0 0 1 .25-.25v1.5c.69 0 1.25-.56 1.25-1.25h-1.5Zm.25-.25a.25.25 0 0 1 .25.25h-1.5c0 .69.56 1.25 1.25 1.25v-1.5Zm.25.25a.25.25 0 0 1-.25.25v-1.5c-.69 0-1.25.56-1.25 1.25h1.5Zm-.25.25a.25.25 0 0 1-.25-.25h1.5c0-.69-.56-1.25-1.25-1.25v1.5Zm3.75-.25a.25.25 0 0 1 .25-.25v1.5c.69 0 1.25-.56 1.25-1.25h-1.5Zm.25-.25a.25.25 0 0 1 .25.25h-1.5c0 .69.56 1.25 1.25 1.25v-1.5Zm.25.25a.25.25 0 0 1-.25.25v-1.5c-.69 0-1.25.56-1.25 1.25h1.5Zm-.25.25a.25.25 0 0 1-.25-.25h1.5c0-.69-.56-1.25-1.25-1.25v1.5Zm3.75-.25a.25.25 0 0 1 .25-.25v1.5c.69 0 1.25-.56 1.25-1.25h-1.5Zm.25-.25a.25.25 0 0 1 .25.25h-1.5c0 .69.56 1.25 1.25 1.25v-1.5Zm.25.25a.25.25 0 0 1-.25.25v-1.5c-.69 0-1.25.56-1.25 1.25h1.5Zm-.25.25a.25.25 0 0 1-.25-.25h1.5c0-.69-.56-1.25-1.25-1.25v1.5Z"/>
</svg>
