<svg xmlns="http://www.w3.org/2000/svg" fill="none" viewBox="0 0 24 24" stroke-width="1.5" stroke="currentColor" aria-hidden="true" data-slot="icon">
  <path d="M20.996 14.155a.75.75 0 1 0 1.458.349l-1.458-.35ZM16.809 3.232l.36-.657-.36.657Zm-12 1.82-.54-.522.54.521Zm-2.742 5.79-.745-.088.745.087Zm1.335 6.265-.645.383.645-.383Zm11.459 5.255a.75.75 0 0 0-.4-1.445l.4 1.445Zm3.609-2.832a.75.75 0 1 0 1.06-1.06l-1.06 1.06ZM9 9v-.75a.75.75 0 0 0-.75.75H9Zm-.75 6a.75.75 0 0 0 1.5 0h-1.5ZM15 9.75a.75.75 0 0 0 0-1.5v1.5Zm7.454 4.754a10.75 10.75 0 0 0-.625-6.858l-1.372.607a9.25 9.25 0 0 1 .539 5.902l1.458.349Zm-.625-6.858a10.75 10.75 0 0 0-4.66-5.071l-.72 1.315a9.25 9.25 0 0 1 4.008 4.363l1.372-.607Zm-4.66-5.071a10.75 10.75 0 0 0-6.78-1.204l.225 1.483a9.25 9.25 0 0 1 5.834 1.036l.721-1.315ZM10.39 1.37a10.75 10.75 0 0 0-6.12 3.16l1.08 1.041a9.25 9.25 0 0 1 5.265-2.718L10.39 1.37ZM4.27 4.53a10.75 10.75 0 0 0-2.947 6.223l1.49.174a9.25 9.25 0 0 1 2.536-5.356L4.27 4.53Zm-2.947 6.223a10.75 10.75 0 0 0 1.435 6.736l1.29-.766a9.25 9.25 0 0 1-1.235-5.796l-1.49-.174Zm1.435 6.736a10.75 10.75 0 0 0 5.228 4.482l.56-1.391a9.25 9.25 0 0 1-4.498-3.857l-1.29.766Zm5.228 4.482a10.75 10.75 0 0 0 6.876.39l-.4-1.445a9.25 9.25 0 0 1-5.915-.336l-.56 1.391ZM19.53 18.47l-10-10-1.06 1.06 10 10 1.06-1.06ZM8.25 9v6h1.5V9h-1.5Zm.75.75h6v-1.5H9v1.5Z"/>
</svg>
