<svg xmlns="http://www.w3.org/2000/svg" fill="none" viewBox="0 0 24 24" stroke-width="1.5" stroke="currentColor" aria-hidden="true" data-slot="icon">
  <path d="M17.144 14.571v-.75a.75.75 0 0 0-.75.75h.75Zm3.428 0h.75a.75.75 0 0 0-.75-.75v.75Zm0 3.429v.75a.75.75 0 0 0 .75-.75h-.75Zm-3.428 0h-.75c0 .414.336.75.75.75V18ZM3.429 14.571v-.75a.75.75 0 0 0-.75.75h.75Zm3.429 0h.75a.75.75 0 0 0-.75-.75v.75Zm0 3.429v.75a.75.75 0 0 0 .75-.75h-.75Zm-3.429 0h-.75c0 .414.336.75.75.75V18Zm6.857-9.536a.75.75 0 0 0 0-1.5v1.5Zm3.43-1.5a.75.75 0 0 0 0 1.5v-1.5Zm-6.574 2.47-.515-.545.515.545Zm9.66-.054-.51.55.51-.55ZM10.287 6v-.75a.75.75 0 0 0-.75.75h.75Zm3.428 0h.75a.75.75 0 0 0-.75-.75V6Zm0 3.429v.75a.75.75 0 0 0 .75-.75h-.75Zm-3.428 0h-.75c0 .414.335.75.75.75v-.75Zm6.857 5.892h3.428v-1.5h-3.428v1.5Zm2.678-.75V18h1.5v-3.429h-1.5Zm.75 2.679h-3.428v1.5h3.428v-1.5Zm-2.678.75v-3.429h-1.5V18h1.5ZM3.429 15.321h3.429v-1.5H3.429v1.5Zm2.679-.75V18h1.5v-3.429h-1.5Zm.75 2.679H3.429v1.5h3.429v-1.5ZM4.179 18v-3.429h-1.5V18h1.5ZM5.251 7.714a.964.964 0 0 1-.964.965v1.5A2.464 2.464 0 0 0 6.75 7.714h-1.5Zm-.964-.964c.532 0 .964.432.964.964h1.5A2.464 2.464 0 0 0 4.287 5.25v1.5Zm-.965.964c0-.532.432-.964.965-.964v-1.5a2.464 2.464 0 0 0-2.465 2.464h1.5Zm.965.965a.964.964 0 0 1-.965-.965h-1.5a2.464 2.464 0 0 0 2.465 2.465v-1.5Zm16.392-.965a.964.964 0 0 1-.964.965v1.5a2.464 2.464 0 0 0 2.464-2.465h-1.5Zm-.964-.964c.533 0 .964.432.964.964h1.5a2.464 2.464 0 0 0-2.464-2.464v1.5Zm-.964.964c0-.532.432-.964.964-.964v-1.5a2.464 2.464 0 0 0-2.464 2.464h1.5Zm.964.965a.964.964 0 0 1-.964-.965h-1.5a2.464 2.464 0 0 0 2.464 2.465v-1.5ZM6.001 8.464h4.272v-1.5H6.001v1.5Zm4.272 0h.014v-1.5h-.014v1.5Zm3.442 0h.014v-1.5h-.014v1.5Zm.014 0H18v-1.5h-4.273v1.5Zm-8.038 5.72a6.322 6.322 0 0 1 1.966-4.205l-1.03-1.09a7.821 7.821 0 0 0-2.433 5.203l1.497.092Zm1.966-4.205a6.321 6.321 0 0 1 2.8-1.537l-.367-1.455a7.821 7.821 0 0 0-3.463 1.902l1.03 1.09Zm5.888-1.537a6.321 6.321 0 0 1 2.748 1.488l1.017-1.1a7.82 7.82 0 0 0-3.4-1.842l-.366 1.455Zm2.748 1.488a6.322 6.322 0 0 1 2.013 4.183l1.496-.109a7.821 7.821 0 0 0-2.49-5.175l-1.02 1.101Zm-6.006-3.18h3.428v-1.5h-3.428v1.5ZM12.965 6v3.429h1.5V6h-1.5Zm.75 2.679h-3.428v1.5h3.428v-1.5Zm-2.678.75V6h-1.5v3.429h1.5Z"/>
</svg>
