<svg xmlns="http://www.w3.org/2000/svg" fill="none" viewBox="0 0 24 24" stroke-width="1.5" stroke="currentColor" aria-hidden="true" data-slot="icon">
  <path d="M8 7a1 1 0 1 1-2 0 1 1 0 0 1 2 0Zm10 0a1 1 0 1 1-2 0 1 1 0 0 1 2 0Zm0 10a1 1 0 1 1-2 0 1 1 0 0 1 2 0ZM8 17a1 1 0 1 1-2 0 1 1 0 0 1 2 0Zm5-5a1 1 0 1 1-2 0 1 1 0 0 1 2 0Z"/>
  <path d="M3 5a2 2 0 0 1 2-2h14a2 2 0 0 1 2 2v14a2 2 0 0 1-2 2H5a2 2 0 0 1-2-2V5Z"/>
  <path d="M8 7a1 1 0 1 1-2 0 1 1 0 0 1 2 0Zm10 0a1 1 0 1 1-2 0 1 1 0 0 1 2 0Zm0 10a1 1 0 1 1-2 0 1 1 0 0 1 2 0ZM8 17a1 1 0 1 1-2 0 1 1 0 0 1 2 0Zm5-5a1 1 0 1 1-2 0 1 1 0 0 1 2 0Z"/>
</svg>
