<svg xmlns="http://www.w3.org/2000/svg" fill="none" viewBox="0 0 24 24" stroke-width="1.5" stroke="currentColor" aria-hidden="true" data-slot="icon">
  <path d="M3.53 2.47a.75.75 0 0 0-1.06 1.06l1.06-1.06Zm16.94 19.06a.75.75 0 1 0 1.06-1.06l-1.06 1.06ZM8 8l.53-.53-.58-.581-.526.63L8 8Zm-5 6-.576-.48A.75.75 0 0 0 3 14.75V14Zm9 0 .744.093A.75.75 0 0 0 12 13.25V14Zm-1 8-.744-.093a.75.75 0 0 0 1.32.573L11 22Zm5-6 .576.48a.75.75 0 0 0-.046-1.01L16 16ZM9.924 4.52a.75.75 0 1 0 1.152.96l-1.152-.96ZM13 2l.746.075a.75.75 0 0 0-1.322-.555L13 2Zm-1.246 4.925a.75.75 0 0 0 1.492.15l-1.492-.15ZM15.5 9.25a.75.75 0 0 0 0 1.5v-1.5ZM21 10l.576.48A.75.75 0 0 0 21 9.25V10Zm-3.076 2.52a.75.75 0 0 0 1.152.96l-1.152-.96ZM2.47 3.53l18 18 1.06-1.06-18-18-1.06 1.06Zm4.954 3.99-5 6 1.152.96 5-6-1.152-.96ZM3 14.75h9v-1.5H3v1.5Zm8.256-.843-1 8 1.488.186 1-8-1.488-.186Zm.32 8.573 5-6-1.152-.96-5 6 1.152.96Zm4.954-7.01-8-8-1.06 1.06 8 8 1.06-1.06Zm-5.454-9.99 2.5-3-1.152-.96-2.5 3 1.152.96Zm1.178-3.555-.5 5 1.492.15.5-5-1.492-.15ZM15.5 10.75H21v-1.5h-5.5v1.5Zm4.924-1.23-2.5 3 1.152.96 2.5-3-1.152-.96Z"/>
</svg>
