<svg xmlns="http://www.w3.org/2000/svg" fill="none" viewBox="0 0 24 24" stroke-width="1.5" stroke="currentColor" aria-hidden="true" data-slot="icon">
  <path d="M4.76 18.433a.75.75 0 1 0-1.02 1.1l1.02-1.1Zm2.796 2.2.257-.705-.257.705Zm7.878-.373-.322-.678.322.678Zm3.22-2.412.56.5-.56-.5Zm2.037-3.468.71.245-.71-.245Zm.538-3.987.748-.048-.748.048ZM20.183 6.51l.672-.334-.009-.017-.009-.017-.654.368ZM4.78 19.78a.75.75 0 1 0-1.06-1.06l1.06 1.06Zm-2.56.44a.75.75 0 1 0 1.06 1.06l-1.06-1.06Zm15.5-16.5a.75.75 0 0 0 1.06 1.06l-1.06-1.06Zm2.56-.44a.75.75 0 0 0-1.06-1.06l1.06 1.06ZM3.74 19.534c1.134 1.049 2.362 1.367 3.56 1.803l.513-1.409c-1.348-.491-2.2-.705-3.054-1.495l-1.018 1.1Zm3.56 1.803a10.95 10.95 0 0 0 4.268.65l-.07-1.498a9.45 9.45 0 0 1-3.685-.56l-.514 1.409Zm4.268.65a10.95 10.95 0 0 0 4.189-1.05l-.645-1.355a9.451 9.451 0 0 1-3.615.907l.071 1.499Zm4.189-1.05a10.95 10.95 0 0 0 3.456-2.589l-1.118-1a9.45 9.45 0 0 1-2.983 2.235l.645 1.354Zm3.456-2.589a10.951 10.951 0 0 0 2.187-3.723l-1.418-.49a9.452 9.452 0 0 1-1.887 3.214l1.118 1Zm2.187-3.723a10.95 10.95 0 0 0 .577-4.28l-1.497.097a9.45 9.45 0 0 1-.498 3.693l1.418.49Zm.577-4.28a10.95 10.95 0 0 0-1.122-4.17l-1.343.668a9.45 9.45 0 0 1 .968 3.599l1.497-.097Zm-1.14-4.204c-.303-.539-.518-.938-.79-1.3-.283-.38-.614-.704-1.14-1.159l-.98 1.136c.498.43.733.672.92.92.197.265.353.552.683 1.139l1.307-.736ZM3.72 18.72l-1.5 1.5 1.06 1.06 1.5-1.5-1.06-1.06ZM18.78 4.78l1.5-1.5-1.06-1.06-1.5 1.5 1.06 1.06Zm-1.28 5.97a6.75 6.75 0 0 1-6.75 6.75V19A8.25 8.25 0 0 0 19 10.75h-1.5Zm-6.75 6.75A6.75 6.75 0 0 1 4 10.75H2.5A8.25 8.25 0 0 0 10.75 19v-1.5ZM4 10.75A6.75 6.75 0 0 1 10.75 4V2.5a8.25 8.25 0 0 0-8.25 8.25H4ZM10.75 4a6.75 6.75 0 0 1 6.75 6.75H19a8.25 8.25 0 0 0-8.25-8.25V4Z"/>
</svg>
