<svg xmlns="http://www.w3.org/2000/svg" fill="none" viewBox="0 0 24 24" stroke-width="1.5" stroke="currentColor" aria-hidden="true" data-slot="icon">
  <path d="M20.47 15.53a.75.75 0 1 0 1.06-1.06l-1.06 1.06ZM16 10l.53-.53a.75.75 0 0 0-1.06 0L16 10ZM5.47 19.47a.75.75 0 1 0 1.06 1.06l-1.06-1.06ZM21.25 12A9.25 9.25 0 0 1 12 21.25v1.5c5.937 0 10.75-4.813 10.75-10.75h-1.5ZM12 21.25A9.25 9.25 0 0 1 2.75 12h-1.5c0 5.937 4.813 10.75 10.75 10.75v-1.5ZM2.75 12A9.25 9.25 0 0 1 12 2.75v-1.5C6.063 1.25 1.25 6.063 1.25 12h1.5ZM12 2.75A9.25 9.25 0 0 1 21.25 12h1.5c0-5.937-4.813-10.75-10.75-10.75v1.5Zm9.53 11.72-5-5-1.06 1.06 5 5 1.06-1.06Zm-6.06-5-10 10 1.06 1.06 10-10-1.06-1.06Zm-5.22-.97a1.75 1.75 0 0 1-1.75 1.75v1.5a3.25 3.25 0 0 0 3.25-3.25h-1.5ZM8.5 10.25A1.75 1.75 0 0 1 6.75 8.5h-1.5a3.25 3.25 0 0 0 3.25 3.25v-1.5ZM6.75 8.5c0-.966.784-1.75 1.75-1.75v-1.5A3.25 3.25 0 0 0 5.25 8.5h1.5ZM8.5 6.75c.966 0 1.75.784 1.75 1.75h1.5A3.25 3.25 0 0 0 8.5 5.25v1.5Z"/>
</svg>
