<svg xmlns="http://www.w3.org/2000/svg" fill="none" viewBox="0 0 24 24" stroke-width="1.5" stroke="currentColor" aria-hidden="true" data-slot="icon">
  <path d="M4.33 5.65a.75.75 0 1 0 1.06 1.06L4.33 5.65Zm14 1.06a.75.75 0 0 0 1.06-1.06l-1.06 1.06Zm1.88 14.026v-.75.75Zm-.833 0v.75-.75Zm-2.813-3.495-.165.731.165-.731Zm-1.313-.296.165-.732-.165.732Zm-6.71.264.222.716-.222-.716Zm-1.059.328-.222-.717.222.717Zm-2.767 3.32.057.748-.057-.748Zm-.628.048-.057-.748.057.748ZM1.53 18.69l.748-.05-.748.05Zm-.07-1.04-.748.05.749-.05Zm1.51-2.768.363.656-.363-.656Zm.397-.22-.364-.656.364.656Zm19.183 2.72h.75-.75Zm0 1.016h.75-.75Zm-1.369-3.432.386-.643-.386.643Zm-3.385 4.003-.745-.083.745.083ZM6.83 8.649A.75.75 0 1 0 7.89 9.71L6.83 8.65Zm9 1.061a.75.75 0 0 0 1.06-1.06l-1.06 1.06Zm-10.44-3c1.083-1.082 3.046-2.387 5.366-2.765 2.274-.37 4.947.138 7.574 2.765l1.06-1.06c-2.972-2.973-6.132-3.632-8.875-3.186-2.697.44-4.933 1.934-6.185 3.185L5.39 6.71Zm14.82 13.276h-.833v1.5h.834v-1.5Zm-3.48-3.476-1.313-.296-.33 1.463 1.313.296.33-1.463Zm-8.41-.017-1.059.328.445 1.433 1.058-.328-.444-1.433ZM4.657 20.11l-.627.048.115 1.496.627-.048-.115-1.496Zm-2.38-1.469-.069-1.04-1.497.1.07 1.04 1.496-.1Zm1.055-3.102.397-.22-.727-1.312-.396.22.726 1.312ZM21.8 17.382v1.016h1.5v-1.016h-1.5ZM3.73 15.318a17.089 17.089 0 0 1 17.066.291l.77-1.286a18.589 18.589 0 0 0-18.563-.317l.727 1.312Zm17.066.291a2.067 2.067 0 0 1 1.004 1.773h1.5a3.567 3.567 0 0 0-1.733-3.06l-.771 1.287ZM2.207 17.6a2.19 2.19 0 0 1 1.124-2.061l-.726-1.313A3.69 3.69 0 0 0 .71 17.7l1.497-.1Zm1.822 2.558a1.63 1.63 0 0 1-1.753-1.517l-1.496.1a3.13 3.13 0 0 0 3.364 2.913l-.115-1.496Zm1.505-.996a.95.95 0 0 1-.878.948l.115 1.496a2.45 2.45 0 0 0 2.263-2.444h-1.5Zm9.88-2.948a13.75 13.75 0 0 0-7.096.28l.444 1.432a12.25 12.25 0 0 1 6.323-.249l.33-1.463Zm-8.155.607a2.45 2.45 0 0 0-1.725 2.341h1.5a.95.95 0 0 1 .67-.908L7.26 16.82Zm11.28 2.232a2.341 2.341 0 0 0-1.811-2.543l-.33 1.463a.841.841 0 0 1 .65.914l1.492.166Zm.837.934a.841.841 0 0 1-.836-.934l-1.491-.166a2.341 2.341 0 0 0 2.327 2.6v-1.5Zm.834 1.5a3.088 3.088 0 0 0 3.088-3.088h-1.5c0 .877-.711 1.588-1.588 1.588v1.5ZM7.89 9.71c.665-.665 1.878-1.47 3.303-1.703 1.377-.224 3.01.076 4.636 1.703l1.06-1.06c-1.972-1.973-4.09-2.424-5.937-2.123-1.801.293-3.288 1.287-4.123 2.122L7.89 9.71Z"/>
</svg>
