<svg xmlns="http://www.w3.org/2000/svg" fill="none" viewBox="0 0 24 24" stroke-width="1.5" stroke="currentColor" aria-hidden="true" data-slot="icon">
  <path d="M10 8.71a.5.5 0 1 1-1 0 .5.5 0 0 1 1 0Zm6 6a.5.5 0 1 1-1 0 .5.5 0 0 1 1 0Z"/>
  <path stroke-linecap="round" d="m16 8.21-7 7M8.339 4.987l-.494-.078a2 2 0 0 0-2.313 1.94l-.008.5a2 2 0 0 1-.97 1.68l-.43.258a2 2 0 0 0-.523 2.973l.314.389a2 2 0 0 1 .337 1.91l-.163.473a2 2 0 0 0 1.51 2.615l.49.095a2 2 0 0 1 1.487 1.247l.179.467a2 2 0 0 0 2.837 1.033l.438-.243a2 2 0 0 1 1.94 0l.437.243a2 2 0 0 0 2.837-1.033l.18-.467a2 2 0 0 1 1.485-1.247l.491-.095a2 2 0 0 0 1.51-2.615l-.163-.473a2 2 0 0 1 .337-1.91l.315-.389a2 2 0 0 0-.525-2.973l-.428-.257a2 2 0 0 1-.97-1.68l-.009-.5a2 2 0 0 0-2.313-1.941l-.494.078a2 2 0 0 1-1.823-.664l-.328-.377a2 2 0 0 0-3.02 0l-.327.377a2 2 0 0 1-1.823.664Zm1.66 3.721a.5.5 0 1 1-1 0 .5.5 0 0 1 1 0Zm6 6a.5.5 0 1 1-1 0 .5.5 0 0 1 1 0Z"/>
</svg>
