<svg xmlns="http://www.w3.org/2000/svg" fill="none" viewBox="0 0 24 24" stroke-width="1.5" stroke="currentColor" aria-hidden="true" data-slot="icon">
  <path d="M4 12v-.75a.75.75 0 0 0-.75.75H4Zm16 0h.75a.75.75 0 0 0-.75-.75V12ZM8 1.25a.75.75 0 0 0 0 1.5v-1.5Zm8 1.5a.75.75 0 0 0 0-1.5v1.5ZM11.25 5a.75.75 0 0 0 1.5 0h-1.5Zm6.58 17.335a.75.75 0 1 0 1.34-.67l-1.34.67Zm-13-.67a.75.75 0 1 0 1.34.67l-1.34-.67ZM9 21.25a.75.75 0 0 0 0 1.5v-1.5Zm6 1.5a.75.75 0 0 0 0-1.5v1.5Zm-8-17h10v-1.5H7v1.5ZM19.25 8v8h1.5V8h-1.5ZM17 18.25H7v1.5h10v-1.5ZM4.75 16V8h-1.5v8h1.5ZM7 18.25A2.25 2.25 0 0 1 4.75 16h-1.5A3.75 3.75 0 0 0 7 19.75v-1.5ZM19.25 16A2.25 2.25 0 0 1 17 18.25v1.5A3.75 3.75 0 0 0 20.75 16h-1.5ZM17 5.75A2.25 2.25 0 0 1 19.25 8h1.5A3.75 3.75 0 0 0 17 4.25v1.5ZM7 4.25A3.75 3.75 0 0 0 3.25 8h1.5A2.25 2.25 0 0 1 7 5.75v-1.5Zm-3 8.5h16v-1.5H4v1.5ZM19.25 12v4h1.5v-4h-1.5Zm-14.5 4v-4h-1.5v4h1.5ZM8 2.75h4v-1.5H8v1.5Zm4 0h4v-1.5h-4v1.5ZM11.25 2v3h1.5V2h-1.5Zm7.92 19.665-1.5-3-1.34.67 1.5 3 1.34-.67Zm-13 .67 1.5-3-1.34-.67-1.5 3 1.34.67ZM9 22.75h6v-1.5H9v1.5ZM7.25 15.5a.25.25 0 0 1 .25-.25v1.5c.69 0 1.25-.56 1.25-1.25h-1.5Zm.25-.25a.25.25 0 0 1 .25.25h-1.5c0 .69.56 1.25 1.25 1.25v-1.5Zm.25.25a.25.25 0 0 1-.25.25v-1.5c-.69 0-1.25.56-1.25 1.25h1.5Zm-.25.25a.25.25 0 0 1-.25-.25h1.5c0-.69-.56-1.25-1.25-1.25v1.5Zm8.75-.25a.25.25 0 0 1 .25-.25v1.5c.69 0 1.25-.56 1.25-1.25h-1.5Zm.25-.25a.25.25 0 0 1 .25.25h-1.5c0 .69.56 1.25 1.25 1.25v-1.5Zm.25.25a.25.25 0 0 1-.25.25v-1.5c-.69 0-1.25.56-1.25 1.25h1.5Zm-.25.25a.25.25 0 0 1-.25-.25h1.5c0-.69-.56-1.25-1.25-1.25v1.5Z"/>
</svg>
