<svg xmlns="http://www.w3.org/2000/svg" fill="none" viewBox="0 0 24 24" stroke-width="1.5" stroke="currentColor" aria-hidden="true" data-slot="icon">
  <path d="M17.75 19a.75.75 0 0 0-1.5 0h1.5ZM11.674 2.75h.652v-1.5h-.652v1.5Zm10 8.5H2.326v1.5h19.348v-1.5Zm-19.348 0c.234 0 .424.19.424.424h-1.5c0 .594.482 1.076 1.076 1.076v-1.5Zm18.924.424c0-.234.19-.424.424-.424v1.5c.594 0 1.076-.482 1.076-1.076h-1.5ZM12.326 2.75a8.924 8.924 0 0 1 8.924 8.924h1.5c0-5.757-4.667-10.424-10.424-10.424v1.5Zm-.652-1.5C5.917 1.25 1.25 5.917 1.25 11.674h1.5a8.924 8.924 0 0 1 8.924-8.924v-1.5ZM11.25 12v7.5h1.5V12h-1.5Zm6.5 7.5V19h-1.5v.5h1.5Zm-3.25 3.25a3.25 3.25 0 0 0 3.25-3.25h-1.5a1.75 1.75 0 0 1-1.75 1.75v1.5Zm-3.25-3.25a3.25 3.25 0 0 0 3.25 3.25v-1.5a1.75 1.75 0 0 1-1.75-1.75h-1.5Z"/>
</svg>
