<svg xmlns="http://www.w3.org/2000/svg" fill="none" viewBox="0 0 24 24" stroke-width="1.5" stroke="currentColor" aria-hidden="true" data-slot="icon">
  <path d="M16 12.75a.75.75 0 0 0 0-1.5v1.5ZM8 12l-.53-.53a.75.75 0 0 0 0 1.06L8 12Zm4.53-3.47a.75.75 0 0 0-1.06-1.06l1.06 1.06Zm-1.06 8a.75.75 0 1 0 1.06-1.06l-1.06 1.06ZM21.25 12A9.25 9.25 0 0 1 12 21.25v1.5c5.937 0 10.75-4.813 10.75-10.75h-1.5ZM12 21.25A9.25 9.25 0 0 1 2.75 12h-1.5c0 5.937 4.813 10.75 10.75 10.75v-1.5ZM2.75 12A9.25 9.25 0 0 1 12 2.75v-1.5C6.063 1.25 1.25 6.063 1.25 12h1.5ZM12 2.75A9.25 9.25 0 0 1 21.25 12h1.5c0-5.937-4.813-10.75-10.75-10.75v1.5Zm4 8.5H8v1.5h8v-1.5Zm-7.47 1.28 4-4-1.06-1.06-4 4 1.06 1.06Zm-1.06 0 4 4 1.06-1.06-4-4-1.06 1.06Z"/>
</svg>
