<svg xmlns="http://www.w3.org/2000/svg" fill="none" viewBox="0 0 24 24" stroke-width="1.5" stroke="currentColor" aria-hidden="true" data-slot="icon">
  <path d="M8 11.25a.75.75 0 0 0 0 1.5v-1.5Zm8 .75.53.53a.75.75 0 0 0 0-1.06L16 12Zm-3.47-4.53a.75.75 0 1 0-1.06 1.06l1.06-1.06Zm-1.06 8a.75.75 0 1 0 1.06 1.06l-1.06-1.06ZM6 3.75h12v-1.5H6v1.5ZM20.25 6v12h1.5V6h-1.5ZM18 20.25H6v1.5h12v-1.5ZM3.75 18V6h-1.5v12h1.5ZM6 20.25A2.25 2.25 0 0 1 3.75 18h-1.5A3.75 3.75 0 0 0 6 21.75v-1.5ZM20.25 18A2.25 2.25 0 0 1 18 20.25v1.5A3.75 3.75 0 0 0 21.75 18h-1.5ZM18 3.75A2.25 2.25 0 0 1 20.25 6h1.5A3.75 3.75 0 0 0 18 2.25v1.5ZM6 2.25A3.75 3.75 0 0 0 2.25 6h1.5A2.25 2.25 0 0 1 6 3.75v-1.5Zm2 10.5h8v-1.5H8v1.5Zm8.53-1.28-4-4-1.06 1.06 4 4 1.06-1.06Zm-1.06 0-4 4 1.06 1.06 4-4-1.06-1.06Z"/>
</svg>
