<svg xmlns="http://www.w3.org/2000/svg" fill="none" viewBox="0 0 24 24" stroke-width="1.5" stroke="currentColor" aria-hidden="true" data-slot="icon">
  <path d="M5.53 4.47a.75.75 0 0 0-1.06 1.06l1.06-1.06ZM15 15v.75a.75.75 0 0 0 .75-.75H15Zm-6-.75a.75.75 0 0 0 0 1.5v-1.5ZM15.75 9a.75.75 0 0 0-1.5 0h1.5Zm-12.678.58a.75.75 0 0 0-1.448-.392l1.448.392Zm3.892 11.06.377-.649-.377.648ZM9.302 1.593a.75.75 0 0 0 .377 1.452l-.377-1.452ZM4.47 5.53l10 10 1.06-1.06-10-10-1.06 1.06ZM15 14.25H9v1.5h6v-1.5Zm.75.75V9h-1.5v6h1.5ZM1.624 9.188a10.75 10.75 0 0 0 .43 6.89l1.388-.569a9.25 9.25 0 0 1-.37-5.929l-1.448-.392Zm.43 6.89a10.75 10.75 0 0 0 4.532 5.21l.755-1.297a9.25 9.25 0 0 1-3.9-4.482l-1.387.57Zm4.532 5.21a10.75 10.75 0 0 0 6.765 1.377l-.188-1.488A9.25 9.25 0 0 1 7.34 19.99l-.755 1.296Zm6.765 1.377a10.75 10.75 0 0 0 6.208-3.022l-1.054-1.066a9.25 9.25 0 0 1-5.342 2.6l.188 1.488Zm6.208-3.022a10.75 10.75 0 0 0 3.09-6.174l-1.486-.205a9.25 9.25 0 0 1-2.658 5.313l1.054 1.066Zm3.09-6.174a10.75 10.75 0 0 0-1.303-6.78l-1.304.74a9.25 9.25 0 0 1 1.121 5.835l1.486.205Zm-1.303-6.78a10.75 10.75 0 0 0-5.158-4.59l-.584 1.382a9.25 9.25 0 0 1 4.438 3.949l1.304-.741Zm-5.158-4.59a10.75 10.75 0 0 0-6.886-.505l.377 1.452a9.25 9.25 0 0 1 5.925.435l.584-1.382Z"/>
</svg>
