<svg xmlns="http://www.w3.org/2000/svg" fill="none" viewBox="0 0 24 24" stroke-width="1.5" stroke="currentColor" aria-hidden="true" data-slot="icon">
  <path d="M6.75 10a.75.75 0 0 0-1.5 0h1.5Zm12 0a.75.75 0 0 0-1.5 0h1.5ZM5 5.75h14v-1.5H5v1.5ZM21.25 8v8h1.5V8h-1.5ZM19 18.25H5v1.5h14v-1.5ZM2.75 16V8h-1.5v8h1.5Zm2.5-6v4h1.5v-4h-1.5ZM5 18.25A2.25 2.25 0 0 1 2.75 16h-1.5A3.75 3.75 0 0 0 5 19.75v-1.5ZM21.25 16A2.25 2.25 0 0 1 19 18.25v1.5A3.75 3.75 0 0 0 22.75 16h-1.5ZM19 5.75A2.25 2.25 0 0 1 21.25 8h1.5A3.75 3.75 0 0 0 19 4.25v1.5ZM5 4.25A3.75 3.75 0 0 0 1.25 8h1.5A2.25 2.25 0 0 1 5 5.75v-1.5ZM17.25 10v4h1.5v-4h-1.5Zm-3 2A2.25 2.25 0 0 1 12 14.25v1.5A3.75 3.75 0 0 0 15.75 12h-1.5ZM12 14.25A2.25 2.25 0 0 1 9.75 12h-1.5A3.75 3.75 0 0 0 12 15.75v-1.5ZM9.75 12A2.25 2.25 0 0 1 12 9.75v-1.5A3.75 3.75 0 0 0 8.25 12h1.5ZM12 9.75A2.25 2.25 0 0 1 14.25 12h1.5A3.75 3.75 0 0 0 12 8.25v1.5Z"/>
</svg>
