<svg xmlns="http://www.w3.org/2000/svg" fill="none" viewBox="0 0 24 24" stroke-width="1.5" stroke="currentColor" aria-hidden="true" data-slot="icon">
  <path d="M20 10v-.75h-.75V10H20Zm0 4h-.75v.75H20V14ZM5 10v-.75a.75.75 0 0 0-.75.75H5Zm0 4h-.75c0 .414.336.75.75.75V14Zm7 0v.75a.75.75 0 0 0 .75-.75H12Zm0-4h.75a.75.75 0 0 0-.75-.75V10ZM4 7.75h14v-1.5H4v1.5ZM19.25 9v6h1.5V9h-1.5ZM18 16.25H4v1.5h14v-1.5ZM2.75 15V9h-1.5v6h1.5ZM4 16.25c-.69 0-1.25-.56-1.25-1.25h-1.5A2.75 2.75 0 0 0 4 17.75v-1.5ZM19.25 15c0 .69-.56 1.25-1.25 1.25v1.5A2.75 2.75 0 0 0 20.75 15h-1.5ZM18 7.75c.69 0 1.25.56 1.25 1.25h1.5A2.75 2.75 0 0 0 18 6.25v1.5ZM4 6.25A2.75 2.75 0 0 0 1.25 9h1.5c0-.69.56-1.25 1.25-1.25v-1.5Zm16 4.5h1v-1.5h-1v1.5Zm1.25.25v2h1.5v-2h-1.5ZM21 13.25h-1v1.5h1v-1.5Zm-.25.75v-4h-1.5v4h1.5Zm.5-1a.25.25 0 0 1-.25.25v1.5A1.75 1.75 0 0 0 22.75 13h-1.5ZM21 10.75a.25.25 0 0 1 .25.25h1.5A1.75 1.75 0 0 0 21 9.25v1.5ZM4.25 10v4h1.5v-4h-1.5ZM5 14.75h7v-1.5H5v1.5Zm7.75-.75v-4h-1.5v4h1.5ZM12 9.25H5v1.5h7v-1.5Z"/>
</svg>
