<svg xmlns="http://www.w3.org/2000/svg" fill="none" viewBox="0 0 24 24" stroke-width="1.5" stroke="currentColor" aria-hidden="true" data-slot="icon">
  <path d="M12.77 8.404a.75.75 0 0 0-1.499-.008l1.5.008Zm-.774 4.496-.75-.004a.75.75 0 0 0 .33.626l.42-.622Zm2.27 2.437a.75.75 0 1 0 .84-1.244l-.84 1.244ZM10.256 2.24a.75.75 0 1 0-.01 1.5l.01-1.5Zm3.59 1.52a.75.75 0 0 0 .01-1.5l-.01 1.5Zm5.033-.352a.75.75 0 1 0-1.066 1.055l1.066-1.055Zm.724 2.865a.75.75 0 1 0 1.066-1.055l-1.066 1.055ZM4.309 5.127a.75.75 0 0 0 1.054 1.066L4.31 5.127Zm2.864-.724A.75.75 0 1 0 6.12 3.337l1.054 1.066Zm12.173 8.538a7.35 7.35 0 0 1-7.391 7.309l-.008 1.5a8.85 8.85 0 0 0 8.899-8.8l-1.5-.009Zm-7.391 7.309a7.35 7.35 0 0 1-7.309-7.391l-1.5-.008a8.85 8.85 0 0 0 8.8 8.899l.009-1.5Zm-7.309-7.391a7.35 7.35 0 0 1 7.39-7.309l.01-1.5a8.85 8.85 0 0 0-8.9 8.8l1.5.009Zm7.39-7.309a7.35 7.35 0 0 1 7.31 7.391l1.5.008a8.85 8.85 0 0 0-8.8-8.899l-.01 1.5Zm-.765 2.846-.025 4.5 1.5.008.025-4.5-1.5-.008Zm.305 5.126 2.69 1.815.84-1.244-2.69-1.815-.84 1.244Zm1.215-8.718.01-1.8-1.5-.008-.01 1.8 1.5.008Zm-.736-2.554-1.8-.01-.008 1.5 1.8.01.008-1.5Zm-.008 1.5 1.8.01.008-1.5-1.8-.01-.008 1.5Zm5.766.713 1.79 1.81 1.066-1.055-1.79-1.81-1.066 1.055Zm-12.45 1.73 1.81-1.79L6.12 3.337l-1.81 1.79 1.054 1.066Z"/>
</svg>
