<svg xmlns="http://www.w3.org/2000/svg" fill="none" viewBox="0 0 24 24" stroke-width="1.5" stroke="currentColor" aria-hidden="true" data-slot="icon">
  <path d="m19.121 7.121.53-.53-.53.53ZM14.88 2.88l.53-.53-.53.53ZM14 8h-.75c0 .414.336.75.75.75V8Zm5.146-.854-.53.53.53-.53Zm-4.292-4.292.53-.53-.53.53Zm-2.829 8.596-.53.53.53.53.53-.53-.53-.53Zm.575-.575.53.53-.53-.53Zm-.575 5.175-.53.53.53.531.53-.53-.53-.53ZM9.15 13.175l.53-.53-.53.53Zm0-2.3.53.53-.53-.53Zm2.3 0-.53.53.53-.53ZM3.25 5v14h1.5V5h-1.5ZM7 22.75h10v-1.5H7v1.5ZM20.75 19V9.243h-1.5V19h1.5ZM19.652 6.591l-4.243-4.243-1.06 1.061 4.242 4.243 1.06-1.061ZM12.757 1.25H7v1.5h5.757v-1.5Zm2.652 1.098a3.75 3.75 0 0 0-2.652-1.098v1.5a2.25 2.25 0 0 1 1.591.659l1.061-1.06Zm5.341 6.895a3.75 3.75 0 0 0-1.098-2.652l-1.061 1.06c.422.423.659.995.659 1.592h1.5ZM17 22.75A3.75 3.75 0 0 0 20.75 19h-1.5A2.25 2.25 0 0 1 17 21.25v1.5ZM3.25 19A3.75 3.75 0 0 0 7 22.75v-1.5A2.25 2.25 0 0 1 4.75 19h-1.5Zm1.5-14A2.25 2.25 0 0 1 7 2.75v-1.5A3.75 3.75 0 0 0 3.25 5h1.5Zm8.5-1.793V8h1.5V3.207h-1.5ZM14 8.75h4.793v-1.5H14v1.5Zm5.677-2.134-4.293-4.293-1.06 1.06 4.292 4.294 1.06-1.06Zm-.884 2.134c1.114 0 1.671-1.346.884-2.134l-1.06 1.06a.25.25 0 0 1 .176-.426v1.5ZM14.75 3.207a.25.25 0 0 1-.427.177l1.06-1.06c-.787-.788-2.133-.23-2.133.883h1.5Zm-2.194 8.773.575-.575-1.061-1.06-.575.575 1.06 1.06Zm.575-.575a.876.876 0 0 1 1.239 0l1.06-1.06a2.376 2.376 0 0 0-3.36 0l1.06 1.06Zm1.239 0a.876.876 0 0 1 0 1.24l1.06 1.06a2.376 2.376 0 0 0 0-3.36l-1.06 1.06Zm0 1.24-2.875 2.875 1.06 1.06 2.876-2.874-1.061-1.061Zm-4.69 0a.876.876 0 0 1 0-1.24l-1.06-1.06a2.376 2.376 0 0 0 0 3.36l1.06-1.06Zm0-1.24a.876.876 0 0 1 1.24 0l1.06-1.06a2.376 2.376 0 0 0-3.36 0l1.06 1.06Zm1.24 0 .575.575 1.06-1.06-.575-.575-1.06 1.06Zm1.636 4.115L9.68 12.645l-1.06 1.06 2.875 2.876 1.06-1.061Z"/>
</svg>
