<svg xmlns="http://www.w3.org/2000/svg" fill="none" viewBox="0 0 24 24" stroke-width="1.5" stroke="currentColor" aria-hidden="true" data-slot="icon">
  <path d="M4 11.221v8a3 3 0 0 0 3 3h5m-8-11a2 2 0 0 1-2-2v-.5a2.5 2.5 0 0 1 2.5-2.5H12m-8 5h8m8 0v8a3 3 0 0 1-3 3h-5m8-11a2 2 0 0 0 2-2v-.5a2.5 2.5 0 0 0-2.5-2.5H12m8 5h-8m0 0v11m0-11v-5m0-.5-.697-2.085c-.64-1.919-3.11-2.437-4.47-.939a.105.105 0 0 0-.022.039c-.62 1.93 1.064 3.814 3.05 3.415L12 5.72Zm0 0 .994-2.333c.744-1.746 3.03-2.163 4.343-.793.012.012.02.027.025.043.531 1.825-.972 3.601-2.86 3.378L12 5.721Z"/>
</svg>
