<svg xmlns="http://www.w3.org/2000/svg" fill="none" viewBox="0 0 24 24" stroke-width="1.5" stroke="currentColor" aria-hidden="true" data-slot="icon">
  <path d="M6 10.5a.5.5 0 1 1-1 0 .5.5 0 0 1 1 0Zm4 0a.5.5 0 1 1-1 0 .5.5 0 0 1 1 0Zm4 0a.5.5 0 1 1-1 0 .5.5 0 0 1 1 0Zm4 0a.5.5 0 1 1-1 0 .5.5 0 0 1 1 0Zm-2 4a.5.5 0 1 1-1 0 .5.5 0 0 1 1 0Zm-4 0a.5.5 0 1 1-1 0 .5.5 0 0 1 1 0Zm-4 0a.5.5 0 1 1-1 0 .5.5 0 0 1 1 0Z"/>
  <path d="M2 9a3 3 0 0 1 3-3h14a3 3 0 0 1 3 3v6a3 3 0 0 1-3 3H5a3 3 0 0 1-3-3V9Z"/>
  <path d="M6 10.5a.5.5 0 1 1-1 0 .5.5 0 0 1 1 0Zm4 0a.5.5 0 1 1-1 0 .5.5 0 0 1 1 0Zm4 0a.5.5 0 1 1-1 0 .5.5 0 0 1 1 0Zm4 0a.5.5 0 1 1-1 0 .5.5 0 0 1 1 0Zm-2 4a.5.5 0 1 1-1 0 .5.5 0 0 1 1 0Zm-4 0a.5.5 0 1 1-1 0 .5.5 0 0 1 1 0Zm-4 0a.5.5 0 1 1-1 0 .5.5 0 0 1 1 0Z"/>
</svg>
