<svg xmlns="http://www.w3.org/2000/svg" fill="none" viewBox="0 0 24 24" stroke-width="1.5" stroke="currentColor" aria-hidden="true" data-slot="icon">
  <path d="M2.47 16.47a.75.75 0 1 0 1.06 1.06l-1.06-1.06ZM8 12l.53-.53a.75.75 0 0 0-1.06 0L8 12Zm3 3-.53.53a.75.75 0 0 0 1.06 0L11 15Zm6-6h.75a.75.75 0 0 0-.75-.75V9Zm-4-.75a.75.75 0 0 0 0 1.5v-1.5ZM16.25 13a.75.75 0 0 0 1.5 0h-1.5ZM6 3.75h12v-1.5H6v1.5ZM20.25 6v12h1.5V6h-1.5ZM18 20.25H6v1.5h12v-1.5ZM3.75 18V6h-1.5v12h1.5ZM6 20.25A2.25 2.25 0 0 1 3.75 18h-1.5A3.75 3.75 0 0 0 6 21.75v-1.5ZM20.25 18A2.25 2.25 0 0 1 18 20.25v1.5A3.75 3.75 0 0 0 21.75 18h-1.5ZM18 3.75A2.25 2.25 0 0 1 20.25 6h1.5A3.75 3.75 0 0 0 18 2.25v1.5ZM6 2.25A3.75 3.75 0 0 0 2.25 6h1.5A2.25 2.25 0 0 1 6 3.75v-1.5ZM3.53 17.53l5-5-1.06-1.06-5 5 1.06 1.06Zm3.94-5 3 3 1.06-1.06-3-3-1.06 1.06Zm4.06 3 6-6-1.06-1.06-6 6 1.06 1.06ZM17 8.25h-4v1.5h4v-1.5Zm-.75.75v4h1.5V9h-1.5Z"/>
</svg>
