<svg xmlns="http://www.w3.org/2000/svg" fill="none" viewBox="0 0 24 24" stroke-width="1.5" stroke="currentColor" aria-hidden="true" data-slot="icon">
  <path stroke-linecap="round" d="M18.116 12.926c1.655.576 2.867 1.37 3.466 2.273.599.902.553 1.866-.13 2.756-.682.89-1.968 1.66-3.676 2.205-1.708.543-3.751.833-5.844.826-2.092-.006-4.127-.308-5.818-.862-1.691-.554-2.954-1.333-3.61-2.227-.656-.894-.672-1.858-.047-2.756.626-.899 1.862-1.686 3.534-2.252M14 7.986a2 2 0 1 1-4 0 2 2 0 0 1 4 0Zm-1.96 9.255S5.55 10.57 7.339 6.262c1.788-4.307 7.445-4.338 9.28-.05 1.837 4.287-4.58 11.029-4.58 11.029Z"/>
</svg>
