<svg xmlns="http://www.w3.org/2000/svg" fill="none" viewBox="0 0 24 24" stroke-width="1.5" stroke="currentColor" aria-hidden="true" data-slot="icon">
  <path d="M5 12.5a.5.5 0 1 1-1 0 .5.5 0 0 1 1 0Zm5 0a.5.5 0 1 1-1 0 .5.5 0 0 1 1 0Zm5 0a.5.5 0 1 1-1 0 .5.5 0 0 1 1 0Zm5 0a.5.5 0 1 1-1 0 .5.5 0 0 1 1 0Z"/>
  <path stroke-linecap="round" d="M16 3h4a1 1 0 0 1 1 1v4m0 8v4a1 1 0 0 1-1 1h-4M3 16v4a1 1 0 0 0 1 1h4M8 3H4a1 1 0 0 0-1 1v4m2 4.5a.5.5 0 1 1-1 0 .5.5 0 0 1 1 0Zm5 0a.5.5 0 1 1-1 0 .5.5 0 0 1 1 0Zm5 0a.5.5 0 1 1-1 0 .5.5 0 0 1 1 0Zm5 0a.5.5 0 1 1-1 0 .5.5 0 0 1 1 0Z"/>
</svg>
