<svg xmlns="http://www.w3.org/2000/svg" fill="none" viewBox="0 0 24 24" stroke-width="1.5" stroke="currentColor" aria-hidden="true" data-slot="icon">
  <path d="M4 13h-.75c0 .414.336.75.75.75V13Zm16 0v.75a.75.75 0 0 0 .75-.75H20ZM5.33 21.665a.75.75 0 1 0 1.34.67l-1.34-.67Zm12 .67a.75.75 0 1 0 1.34-.67l-1.34.67ZM4.664 2.33a.75.75 0 0 0 .67 1.342l-.67-1.342Zm1.702-.012-.336-.671.336.67Zm10.17-.102-.28.696.28-.696Zm1.684 1.481a.75.75 0 0 0 .558-1.392l-.558 1.392ZM9.67 1.666a.75.75 0 0 0-1.342.67l1.342-.67Zm.658 4.67a.75.75 0 1 0 1.342-.67l-1.342.67Zm5.342-4a.75.75 0 1 0-1.342-.67l1.342.67Zm-3.342 3.33a.75.75 0 1 0 1.342.67l-1.342-.67ZM7 6.75h10v-1.5H7v1.5ZM19.25 9v8h1.5V9h-1.5ZM17 19.25H7v1.5h10v-1.5ZM4.75 17V9h-1.5v8h1.5ZM7 19.25A2.25 2.25 0 0 1 4.75 17h-1.5A3.75 3.75 0 0 0 7 20.75v-1.5ZM19.25 17A2.25 2.25 0 0 1 17 19.25v1.5A3.75 3.75 0 0 0 20.75 17h-1.5ZM17 6.75A2.25 2.25 0 0 1 19.25 9h1.5A3.75 3.75 0 0 0 17 5.25v1.5ZM7 5.25A3.75 3.75 0 0 0 3.25 9h1.5A2.25 2.25 0 0 1 7 6.75v-1.5Zm-3 8.5h16v-1.5H4v1.5ZM20.75 13V9h-1.5v4h1.5ZM3.25 9v4h1.5V9h-1.5Zm3.42 13.335 1-2-1.34-.67-1 2 1.34.67Zm12-.67-1-2-1.34.67 1 2 1.34-.67ZM5.336 3.67l1.367-.683-.67-1.342-1.367.683.67 1.342Zm2.373-.921h7.714v-1.5H7.708v1.5Zm8.55.16 1.963.786.558-1.392-1.964-.786-.557 1.393Zm-.836-.16c.287 0 .57.055.836.16l.557-1.392a3.75 3.75 0 0 0-1.393-.268v1.5Zm-8.72.238a2.25 2.25 0 0 1 1.006-.238v-1.5a3.75 3.75 0 0 0-1.677.396l.671 1.342Zm1.627-.653 2 4 1.342-.67-2-4-1.342.67Zm6-.67-2 4 1.342.67 2-4-1.342-.67ZM8.25 16.5a.25.25 0 0 1 .25-.25v1.5c.69 0 1.25-.56 1.25-1.25h-1.5Zm.25-.25a.25.25 0 0 1 .25.25h-1.5c0 .69.56 1.25 1.25 1.25v-1.5Zm.25.25a.25.25 0 0 1-.25.25v-1.5c-.69 0-1.25.56-1.25 1.25h1.5Zm-.25.25a.25.25 0 0 1-.25-.25h1.5c0-.69-.56-1.25-1.25-1.25v1.5Zm6.75-.25a.25.25 0 0 1 .25-.25v1.5c.69 0 1.25-.56 1.25-1.25h-1.5Zm.25-.25a.25.25 0 0 1 .25.25h-1.5c0 .69.56 1.25 1.25 1.25v-1.5Zm.25.25a.25.25 0 0 1-.25.25v-1.5c-.69 0-1.25.56-1.25 1.25h1.5Zm-.25.25a.25.25 0 0 1-.25-.25h1.5c0-.69-.56-1.25-1.25-1.25v1.5Z"/>
</svg>
