<svg xmlns="http://www.w3.org/2000/svg" fill="none" viewBox="0 0 24 24" stroke-width="1.5" stroke="currentColor" aria-hidden="true" data-slot="icon">
  <path d="M16 8v-.75a.75.75 0 0 0-.75.75H16Zm3 0 .53-.53a.75.75 0 0 0-.53-.22V8Zm3 3h.75a.75.75 0 0 0-.22-.53L22 11Zm0 5v.75a.75.75 0 0 0 .75-.75H22ZM5 3.75h8v-1.5H5v1.5ZM15.25 6v10h1.5V6h-1.5Zm.75 9.25H5v1.5h11v-1.5ZM2.75 13V6h-1.5v7h1.5ZM5 15.25A2.25 2.25 0 0 1 2.75 13h-1.5A3.75 3.75 0 0 0 5 16.75v-1.5Zm8-11.5A2.25 2.25 0 0 1 15.25 6h1.5A3.75 3.75 0 0 0 13 2.25v1.5Zm-8-1.5A3.75 3.75 0 0 0 1.25 6h1.5A2.25 2.25 0 0 1 5 3.75v-1.5Zm11 6.5h3v-1.5h-3v1.5Zm2.47-.22 3 3 1.06-1.06-3-3-1.06 1.06ZM21.25 11v5h1.5v-5h-1.5Zm.75 4.25h-6v1.5h6v-1.5Zm-5.25.75V8h-1.5v8h1.5Zm-8.5 2.5a1.75 1.75 0 0 1-1.75 1.75v1.5a3.25 3.25 0 0 0 3.25-3.25h-1.5ZM6.5 20.25a1.75 1.75 0 0 1-1.75-1.75h-1.5a3.25 3.25 0 0 0 3.25 3.25v-1.5ZM4.75 18.5c0-.966.784-1.75 1.75-1.75v-1.5a3.25 3.25 0 0 0-3.25 3.25h1.5Zm1.75-1.75c.966 0 1.75.784 1.75 1.75h1.5a3.25 3.25 0 0 0-3.25-3.25v1.5Zm12.75 1.75a1.75 1.75 0 0 1-1.75 1.75v1.5a3.25 3.25 0 0 0 3.25-3.25h-1.5Zm-1.75 1.75a1.75 1.75 0 0 1-1.75-1.75h-1.5a3.25 3.25 0 0 0 3.25 3.25v-1.5Zm-1.75-1.75c0-.966.784-1.75 1.75-1.75v-1.5a3.25 3.25 0 0 0-3.25 3.25h1.5Zm1.75-1.75c.966 0 1.75.784 1.75 1.75h1.5a3.25 3.25 0 0 0-3.25-3.25v1.5Z"/>
</svg>
