<svg xmlns="http://www.w3.org/2000/svg" fill="none" viewBox="0 0 24 24" stroke-width="1.5" stroke="currentColor" aria-hidden="true" data-slot="icon">
  <circle cx="13" cy="13" r="2" fill="color(display-p3 .9804 .5608 .5608)"/>
  <path fill="#000" d="M9.53 8.47a.75.75 0 0 0-1.06 1.06l1.06-1.06ZM15 15v.75a.75.75 0 0 0 .75-.75H15Zm.75-6a.75.75 0 0 0-1.5 0h1.5ZM9 14.25a.75.75 0 0 0 0 1.5v-1.5Zm-.53-4.72 6 6 1.06-1.06-6-6-1.06 1.06ZM15.75 15V9h-1.5v6h1.5Zm-.75-.75H9v1.5h6v-1.5ZM21.25 12A9.25 9.25 0 0 1 12 21.25v1.5c5.937 0 10.75-4.813 10.75-10.75h-1.5ZM12 21.25A9.25 9.25 0 0 1 2.75 12h-1.5c0 5.937 4.813 10.75 10.75 10.75v-1.5ZM2.75 12A9.25 9.25 0 0 1 12 2.75v-1.5C6.063 1.25 1.25 6.063 1.25 12h1.5ZM12 2.75A9.25 9.25 0 0 1 21.25 12h1.5c0-5.937-4.813-10.75-10.75-10.75v1.5Z"/>
</svg>
