<svg xmlns="http://www.w3.org/2000/svg" fill="none" viewBox="0 0 24 24" stroke-width="1.5" stroke="currentColor" aria-hidden="true" data-slot="icon">
  <circle cx="12" cy="14" r="2" fill="color(display-p3 .9804 .5608 .5608)"/>
  <path stroke-linecap="round" stroke-linejoin="round" d="M16 2.83c2.063.94 3.91 2.718 4.93 4.736a9.915 9.915 0 0 1 .855 6.53 9.947 9.947 0 0 1-3.427 5.633 10.027 10.027 0 0 1-6.21 2.27 10.029 10.029 0 0 1-6.276-2.087 9.95 9.95 0 0 1-3.593-5.53 9.914 9.914 0 0 1 .662-6.553 9.976 9.976 0 0 1 4.626-4.707M12 2v13.937m0 0-4-3.982m4 3.982 4-3.982"/>
</svg>
