<svg xmlns="http://www.w3.org/2000/svg" fill="none" viewBox="0 0 24 24" stroke-width="1.5" stroke="currentColor" aria-hidden="true" data-slot="icon">
  <path fill="color(display-p3 .9804 .5608 .5608)" d="M7.05 19a2 2 0 1 1-4 0 2 2 0 0 1 4 0Z"/>
  <path stroke-linecap="round" stroke-linejoin="round" d="m9.15 11.275 3 3m-5.249.002 2.497 2.496a1 1 0 0 0 1.456-.044l9.624-10.88a1.88 1.88 0 0 0-2.653-2.652L6.945 12.82a1 1 0 0 0-.044 1.456Zm1.913 1.977c1.194 1.833-1.08 4.184-2.428 4.603-.404.14-1.618.418-3.237.418.405-.976.5-3 .405-4.184-.095-1.185.792-2.124 2.095-2.316 1.168-.171 2.6.613 3.165 1.479Z"/>
</svg>
