<svg xmlns="http://www.w3.org/2000/svg" fill="none" viewBox="0 0 24 24" stroke-width="1.5" stroke="currentColor" aria-hidden="true" data-slot="icon">
  <path fill="color(display-p3 .9804 .5608 .5608)" d="M18.528 18.837a2 2 0 1 1-4 0 2 2 0 0 1 4 0Z"/>
  <path fill="#000" d="M21 10v.75h.75V10H21ZM3 10h-.75v.75H3V10Zm9 12.75a.75.75 0 0 0 0-1.5v1.5ZM20.25 13a.75.75 0 0 0 1.5 0h-1.5Zm-3.5-11a.75.75 0 0 0-1.5 0h1.5Zm-1.5 4a.75.75 0 0 0 1.5 0h-1.5Zm-6.5-4a.75.75 0 0 0-1.5 0h1.5Zm-1.5 4a.75.75 0 0 0 1.5 0h-1.5Zm7.78 12.47a.75.75 0 1 0-1.06 1.06l1.06-1.06ZM16.5 21l-.53.53a.75.75 0 0 0 1.06 0L16.5 21Zm5.03-3.97a.75.75 0 1 0-1.06-1.06l1.06 1.06ZM6 4.75h12v-1.5H6v1.5ZM20.25 7v3h1.5V7h-1.5ZM21 9.25H3v1.5h18v-1.5ZM3.75 10V7h-1.5v3h1.5ZM18 4.75A2.25 2.25 0 0 1 20.25 7h1.5A3.75 3.75 0 0 0 18 3.25v1.5ZM6 3.25A3.75 3.75 0 0 0 2.25 7h1.5A2.25 2.25 0 0 1 6 4.75v-1.5ZM3.75 19V7h-1.5v12h1.5ZM6 22.75h6v-1.5H6v1.5ZM20.25 7v6h1.5V7h-1.5Zm-18 12A3.75 3.75 0 0 0 6 22.75v-1.5A2.25 2.25 0 0 1 3.75 19h-1.5Zm13-17v4h1.5V2h-1.5Zm-8 0v4h1.5V2h-1.5Zm6.72 17.53 2 2 1.06-1.06-2-2-1.06 1.06Zm3.06 2 4.5-4.5-1.06-1.06-4.5 4.5 1.06 1.06Z"/>
</svg>
