<svg xmlns="http://www.w3.org/2000/svg" fill="none" viewBox="0 0 24 24" stroke-width="1.5" stroke="currentColor" aria-hidden="true" data-slot="icon">
  <path fill="color(display-p3 .9804 .5608 .5608)" d="M14.5 12.937a2 2 0 1 1-4 0 2 2 0 0 1 4 0Z"/>
  <path stroke-linecap="round" d="M5.173 10.254h-1.28M6.88 5.987 5.6 4.707m5.547 0V3m4.267 2.987 1.28-1.28m.854 4.694h1.707m-4.492-.013a3.84 3.84 0 0 0-7.448 1.546M16.617 21c1.928 0 3.491-1.476 3.491-3.297 0-1.822-1.563-3.298-3.491-3.298a.07.07 0 0 1-.069-.056c-.356-1.844-2.066-3.241-4.12-3.241-2.056 0-3.765 1.397-4.122 3.24a.07.07 0 0 1-.069.057c-1.928 0-3.491 1.477-3.491 3.298 0 1.82 1.563 3.297 3.491 3.297h8.38Z"/>
</svg>
