<svg xmlns="http://www.w3.org/2000/svg" fill="none" viewBox="0 0 24 24" stroke-width="1.5" stroke="currentColor" aria-hidden="true" data-slot="icon">
  <path fill="color(display-p3 .9804 .5608 .5608)" d="M10.286 12a2 2 0 1 1-4 0 2 2 0 0 1 4 0Zm11 0a2 2 0 1 1-4 0 2 2 0 0 1 4 0Z"/>
  <path stroke-linejoin="round" d="M2.536 16.881V7.12a1 1 0 0 1 1.636-.772l5.927 4.881a1 1 0 0 1 0 1.544l-5.927 4.881a1 1 0 0 1-1.636-.772Zm11 0V7.12a1 1 0 0 1 1.636-.772l5.927 4.881a1 1 0 0 1 0 1.544l-5.927 4.881a1 1 0 0 1-1.636-.772Z"/>
</svg>
