<svg xmlns="http://www.w3.org/2000/svg" fill="none" viewBox="0 0 24 24" stroke-width="1.5" stroke="currentColor" aria-hidden="true" data-slot="icon">
  <path fill="color(display-p3 .9804 .5608 .5608)" d="M14 16a2 2 0 1 1-4 0 2 2 0 0 1 4 0Z"/>
  <path fill="#000" d="m2.788 7.908.745.083-.745-.083Zm2.033-2.515-.237-.712.237.712Zm1.416.319a.75.75 0 1 0-.474-1.424l.474 1.424Zm14.975 2.196-.745.083.745-.083Zm-2.033-2.515-.237.712.237-.712Zm-.942-1.105a.75.75 0 0 0-.474 1.424l.474-1.424Zm-7.821 11.336c.277-.184 1.514-.644 3.306.072l.556-1.392c-2.208-.884-3.97-.41-4.694.072l.832 1.248ZM9.25 15A3.25 3.25 0 0 1 6 18.25v1.5A4.75 4.75 0 0 0 10.75 15h-1.5ZM6 18.25A3.25 3.25 0 0 1 2.75 15h-1.5A4.75 4.75 0 0 0 6 19.75v-1.5ZM2.75 15A3.25 3.25 0 0 1 6 11.75v-1.5A4.75 4.75 0 0 0 1.25 15h1.5ZM6 11.75A3.25 3.25 0 0 1 9.25 15h1.5A4.75 4.75 0 0 0 6 10.25v1.5ZM21.25 15A3.25 3.25 0 0 1 18 18.25v1.5A4.75 4.75 0 0 0 22.75 15h-1.5ZM18 18.25A3.25 3.25 0 0 1 14.75 15h-1.5A4.75 4.75 0 0 0 18 19.75v-1.5ZM14.75 15A3.25 3.25 0 0 1 18 11.75v-1.5A4.75 4.75 0 0 0 13.25 15h1.5ZM18 11.75A3.25 3.25 0 0 1 21.25 15h1.5A4.75 4.75 0 0 0 18 10.25v1.5ZM2.745 15.083l.788-7.092-1.49-.166-.788 7.092 1.49.166Zm2.313-8.978 1.18-.393-.475-1.424-1.18.393.475 1.424ZM3.533 7.99a2.25 2.25 0 0 1 1.525-1.886L4.584 4.68a3.75 3.75 0 0 0-2.541 3.144l1.49.166Zm19.212 6.926-.788-7.092-1.49.166.788 7.092 1.49-.166ZM19.416 4.681l-1.179-.393-.474 1.424 1.179.393.474-1.424Zm2.541 3.144a3.75 3.75 0 0 0-2.54-3.144l-.475 1.424a2.25 2.25 0 0 1 1.525 1.886l1.49-.166Zm-11.541 8.24c.277-.184 1.514-.643 3.306.073l.556-1.393c-2.208-.883-3.97-.41-4.694.073l.832 1.248Z"/>
</svg>
