<svg xmlns="http://www.w3.org/2000/svg" fill="none" viewBox="0 0 24 24" stroke-width="1.5" stroke="currentColor" aria-hidden="true" data-slot="icon">
  <path fill="color(display-p3 .9804 .5608 .5608)" d="M14 4a2 2 0 1 1-4 0 2 2 0 0 1 4 0Z"/>
  <path stroke-linecap="round" stroke-linejoin="round" d="M22 12.041c0 5.523-4.477 10-10 10s-10-4.477-10-10c0-5.522 4.477-10 10-10s10 4.478 10 10Z"/>
  <path stroke-linecap="round" stroke-linejoin="round" d="m6.058 9.682-.872-.61c-1.246-.873-1.675-2.58-.66-3.712C7.539 2 11.977 1.28 14.5 2.542l-.32 2.877a3 3 0 0 1-1.64 2.352l-2.13 1.066a2.78 2.78 0 0 0-.734.529 2.825 2.825 0 0 1-3.618.316Zm5.127 4.989.403-.806a1 1 0 0 1 1.266-.482l3.002 1.2a1 1 0 0 1 .46 1.484l-1.02 1.53a1 1 0 0 1-.831.445H12.72a1 1 0 0 1-.949-.684l-.641-1.923a1 1 0 0 1 .054-.764Z"/>
</svg>
