<svg xmlns="http://www.w3.org/2000/svg" fill="none" viewBox="0 0 24 24" stroke-width="1.5" stroke="currentColor" aria-hidden="true" data-slot="icon">
  <path fill="color(display-p3 .9804 .5608 .5608)" d="M11 20a2 2 0 1 1-4 0 2 2 0 0 1 4 0Z"/>
  <path fill="#000" d="M21.29 6.592a.75.75 0 0 0-1.296.755l1.297-.755Zm-6.086-3.27a.75.75 0 1 0 .52-1.406l-.52 1.407Zm2.326 8.662-.538.523.544.559.537-.565-.543-.517Zm-3.293-7.69.693.288-.693-.287Zm6.501-.035.69-.295-.69.295Zm-17.15 6.476-.123-.74.123.74Zm2.955-.492-.123-.74.123.74Zm2.118 1.078-.671.336.67-.336Zm1.068 2.137-.67.336.67-.336Zm.797.842-.372.652.372-.652Zm.902.516.372-.651-.372.651Zm.544 3.017.577.48-.576-.48Zm-.508.61-.577-.48.577.48ZM8.84 21.507l-.243.71.243-.71Zm-6.83-8.894.75-.05-.75.05Zm17.984-5.265a9.25 9.25 0 0 1 1.12 6.236l1.477.257a10.75 10.75 0 0 0-1.3-7.248l-1.297.755Zm1.12 6.236a9.25 9.25 0 0 1-3.158 5.494l.966 1.148a10.75 10.75 0 0 0 3.67-6.385l-1.479-.257Zm-3.158 5.494a9.25 9.25 0 0 1-5.952 2.173l.001 1.5a10.75 10.75 0 0 0 6.917-2.525l-.966-1.148Zm-5.952 2.173a9.25 9.25 0 0 1-5.954-2.167l-.965 1.148a10.75 10.75 0 0 0 6.92 2.519v-1.5ZM6.05 19.083a9.25 9.25 0 0 1-3.162-5.491l-1.478.258a10.75 10.75 0 0 0 3.675 6.381l.965-1.148Zm-3.162-5.491a9.25 9.25 0 0 1 1.113-6.238l-1.297-.753A10.75 10.75 0 0 0 1.41 13.85l1.478-.258Zm1.113-6.238a9.25 9.25 0 0 1 4.867-4.058L8.36 1.885a10.75 10.75 0 0 0-5.656 4.716l1.297.753Zm4.867-4.058a9.25 9.25 0 0 1 6.336.027l.52-1.407a10.75 10.75 0 0 0-7.364-.031l.508 1.411ZM17.25 5.5a.25.25 0 0 1 .25-.25v1.5c.69 0 1.25-.56 1.25-1.25h-1.5Zm.25-.25a.25.25 0 0 1 .25.25h-1.5c0 .69.56 1.25 1.25 1.25v-1.5Zm.25.25a.25.25 0 0 1-.25.25v-1.5c-.69 0-1.25.56-1.25 1.25h1.5Zm-.25.25a.25.25 0 0 1-.25-.25h1.5c0-.69-.56-1.25-1.25-1.25v1.5Zm.03 6.234.538-.523-.002-.001a17.786 17.786 0 0 1-2.019-2.59c-.47-.742-.88-1.542-1.103-2.31-.224-.772-.238-1.44-.014-1.978l-1.385-.575c-.403.97-.318 2.018-.042 2.97.277.957.767 1.89 1.277 2.695a19.275 19.275 0 0 0 2.207 2.83l.004.003v.002h.001l.538-.523Zm-2.6-7.402c.998-2.404 4.094-2.421 5.119-.028l1.378-.59C19.88.35 15.052.377 13.545 4.007l1.385.575Zm5.119-.028c.229.536.223 1.203.008 1.978-.215.77-.617 1.575-1.078 2.321a17.778 17.778 0 0 1-1.983 2.605l-.008.008-.001.001a286.364 286.364 0 0 1 1.087 1.034l.001-.002.003-.003a.752.752 0 0 0 .012-.012l.041-.045.15-.164c.126-.142.303-.346.511-.6.415-.507.958-1.218 1.462-2.033.501-.81.981-1.75 1.248-2.708.265-.956.34-2.004-.075-2.97l-1.378.59ZM3.712 11.475l2.954-.492-.246-1.48-2.955.492.247 1.48Zm4.278.182 1.068 2.137 1.342-.671-1.069-2.137-1.341.67Zm2.164 3.295.902.515.745-1.302-.903-.516-.744 1.303Zm1.242 2.4-.509.612 1.153.96.509-.61-1.153-.961Zm-1.146 2.372v.054h1.5v-.054h-1.5Zm-1.167 1.073c-2.74-.94-5.994-3.31-6.324-8.235l-1.496.1c.382 5.711 4.218 8.485 7.334 9.554l.486-1.419Zm1.167-1.019c0 .801-.645 1.198-1.167 1.019l-.486 1.419c1.725.591 3.153-.864 3.153-2.438h-1.5Zm.637-1.814a2.75 2.75 0 0 0-.637 1.76h1.5c0-.292.103-.576.29-.8l-1.152-.96Zm.17-2.497a1.25 1.25 0 0 1 .34 1.886l1.152.96a2.75 2.75 0 0 0-.748-4.148l-.745 1.302Zm-1.999-1.673a2.75 2.75 0 0 0 1.096 1.158l.744-1.303a1.25 1.25 0 0 1-.498-.526l-1.342.67Zm-2.392-2.811a1.25 1.25 0 0 1 1.324.674l1.341-.671A2.75 2.75 0 0 0 6.42 9.503l.246 1.48Zm-3.2-.988c-1.252.21-2.296 1.29-2.203 2.667l1.496-.1c-.033-.499.35-.986.953-1.087l-.247-1.48Z"/>
</svg>
