<svg xmlns="http://www.w3.org/2000/svg" fill="none" viewBox="0 0 24 24" stroke-width="1.5" stroke="currentColor" aria-hidden="true" data-slot="icon">
  <path fill="color(display-p3 .9804 .5608 .5608)" d="M14 17a2 2 0 1 1-4 0 2 2 0 0 1 4 0Z"/>
  <path fill="#000" d="m12 6.977-.544.516.544.573.544-.573L12 6.977Zm1.544-1.628L13 4.833l.544.516Zm6.177 0-.544.516.544-.516Zm0 6.511-.544-.516.544.516ZM12 20l-.544.516a.75.75 0 0 0 1.088 0L12 20Zm-7.72-8.14.543-.516-.544.516Zm6.176-6.511-.544.516.544-.516Zm2.088 2.144 1.544-1.628L13 4.833 11.456 6.46l1.088 1.033Zm1.544-1.628c1.41-1.486 3.679-1.486 5.089 0l1.088-1.032c-2.002-2.11-5.264-2.11-7.265 0l1.088 1.032Zm5.089 0c1.43 1.509 1.43 3.97 0 5.48l1.088 1.032c1.98-2.088 1.98-5.457 0-7.544l-1.088 1.032Zm0 5.48-7.721 8.139 1.088 1.032 7.72-8.14-1.087-1.032Zm-14.354 0c-1.43-1.51-1.43-3.971 0-5.48L3.735 4.832c-1.98 2.088-1.98 5.457 0 7.544l1.088-1.032Zm0-5.48c1.41-1.487 3.679-1.487 5.089 0L11 4.832c-2.001-2.11-5.264-2.11-7.265 0l1.088 1.033Zm5.089 0 1.544 1.628 1.088-1.033L11 4.832 9.912 5.865Zm2.632 13.619-7.72-8.14-1.089 1.032 7.72 8.14 1.09-1.032Z"/>
</svg>
