<svg xmlns="http://www.w3.org/2000/svg" fill="none" viewBox="0 0 24 24" stroke-width="1.5" stroke="currentColor" aria-hidden="true" data-slot="icon">
  <path fill="color(display-p3 .9804 .5608 .5608)" d="M14.645 11.14a2 2 0 1 1-4 0 2 2 0 0 1 4 0Z"/>
  <path fill="#000" d="m11.752 12.99.062-.748a.75.75 0 0 0-.812.748h.75Zm2.915-1.617.667.344-.667-.344Zm-1.84-4.257-.207.721.207-.72Zm-1.742.027-.228-.714.228.714Zm-1.433.99-.587-.467.587.467ZM8.262 9.69a.75.75 0 0 0 1.496.124L8.263 9.69Zm2.74 4.81a.75.75 0 1 0 1.5 0h-1.5ZM12.75 17a.75.75 0 0 0-1.5 0h1.5Zm-1.5.5a.75.75 0 0 0 1.5 0h-1.5Zm10-5.5A9.25 9.25 0 0 1 12 21.25v1.5c5.937 0 10.75-4.813 10.75-10.75h-1.5ZM12 21.25A9.25 9.25 0 0 1 2.75 12h-1.5c0 5.937 4.813 10.75 10.75 10.75v-1.5ZM2.75 12A9.25 9.25 0 0 1 12 2.75v-1.5C6.063 1.25 1.25 6.063 1.25 12h1.5ZM12 2.75A9.25 9.25 0 0 1 21.25 12h1.5c0-5.937-4.813-10.75-10.75-10.75v1.5Zm-.31 10.987a3.75 3.75 0 0 0 2.128-.457l-.727-1.312a2.25 2.25 0 0 1-1.277.274l-.124 1.495Zm2.128-.457a3.75 3.75 0 0 0 1.516-1.563L14 11.03c-.203.396-.52.722-.91.938l.728 1.312Zm1.516-1.563a3.75 3.75 0 0 0 .392-2.142l-1.49.17c.05.442-.032.89-.236 1.285l1.334.687Zm.392-2.142a3.75 3.75 0 0 0-.864-1.998l-1.145.97c.288.339.468.756.518 1.198l1.49-.17Zm-.864-1.998a3.75 3.75 0 0 0-1.829-1.182l-.413 1.442c.428.123.81.37 1.097.71l1.145-.97Zm-1.829-1.182a3.75 3.75 0 0 0-2.176.034l.457 1.428a2.25 2.25 0 0 1 1.306-.02l.414-1.442Zm-2.176.034a3.75 3.75 0 0 0-1.792 1.237l1.174.933a2.25 2.25 0 0 1 1.075-.742l-.457-1.428ZM9.065 7.666a3.75 3.75 0 0 0-.802 2.024l1.495.124a2.25 2.25 0 0 1 .481-1.215l-1.174-.933Zm1.937 5.324v1.51h1.5v-1.51h-1.5ZM11.25 17v.5h1.5V17h-1.5Z"/>
</svg>
