<svg xmlns="http://www.w3.org/2000/svg" fill="none" viewBox="0 0 24 24" stroke-width="1.5" stroke="currentColor" aria-hidden="true" data-slot="icon">
  <path fill="color(display-p3 .9804 .5608 .5608)" d="M22 16a2 2 0 1 1-4 0 2 2 0 0 1 4 0Z"/>
  <path fill="#000" d="M6 10.5a.5.5 0 1 1-1 0 .5.5 0 0 1 1 0Zm4 0a.5.5 0 1 1-1 0 .5.5 0 0 1 1 0Zm4 0a.5.5 0 1 1-1 0 .5.5 0 0 1 1 0Zm4 0a.5.5 0 1 1-1 0 .5.5 0 0 1 1 0Zm-2 4a.5.5 0 1 1-1 0 .5.5 0 0 1 1 0Zm-4 0a.5.5 0 1 1-1 0 .5.5 0 0 1 1 0Zm-4 0a.5.5 0 1 1-1 0 .5.5 0 0 1 1 0Z"/>
  <path d="M6 10.5a.5.5 0 1 1-1 0 .5.5 0 0 1 1 0Zm4 0a.5.5 0 1 1-1 0 .5.5 0 0 1 1 0Zm4 0a.5.5 0 1 1-1 0 .5.5 0 0 1 1 0Zm4 0a.5.5 0 1 1-1 0 .5.5 0 0 1 1 0Zm-2 4a.5.5 0 1 1-1 0 .5.5 0 0 1 1 0Zm-4 0a.5.5 0 1 1-1 0 .5.5 0 0 1 1 0Zm-4 0a.5.5 0 1 1-1 0 .5.5 0 0 1 1 0Z"/>
</svg>
