<svg xmlns="http://www.w3.org/2000/svg" fill="none" viewBox="0 0 24 24" stroke-width="1.5" stroke="currentColor" aria-hidden="true" data-slot="icon">
  <path fill="color(display-p3 .9804 .5608 .5608)" d="M10 11a2 2 0 1 1-4 0 2 2 0 0 1 4 0Z"/>
  <path fill="#000" d="M3.53 7.47a.75.75 0 0 0-1.06 1.06l1.06-1.06ZM8 13l-.53.53a.75.75 0 0 0 1.06 0L8 13Zm4-4 .53-.53a.75.75 0 0 0-1.06 0L12 9Zm5 5v.75h.75V14H17Zm.75-4a.75.75 0 0 0-1.5 0h1.5ZM13 13.25a.75.75 0 0 0 0 1.5v-1.5Zm-7-9.5h12v-1.5H6v1.5ZM20.25 6v12h1.5V6h-1.5ZM18 20.25H6v1.5h12v-1.5ZM3.75 18V6h-1.5v12h1.5ZM6 20.25A2.25 2.25 0 0 1 3.75 18h-1.5A3.75 3.75 0 0 0 6 21.75v-1.5ZM20.25 18A2.25 2.25 0 0 1 18 20.25v1.5A3.75 3.75 0 0 0 21.75 18h-1.5ZM18 3.75A2.25 2.25 0 0 1 20.25 6h1.5A3.75 3.75 0 0 0 18 2.25v1.5ZM6 2.25A3.75 3.75 0 0 0 2.25 6h1.5A2.25 2.25 0 0 1 6 3.75v-1.5ZM2.47 8.53l5 5 1.06-1.06-5-5-1.06 1.06Zm6.06 5 4-4-1.06-1.06-4 4 1.06 1.06Zm2.94-4 5 5 1.06-1.06-5-5-1.06 1.06Zm4.78.47v4h1.5v-4h-1.5Zm.75 3.25h-4v1.5h4v-1.5Z"/>
</svg>
