<svg xmlns="http://www.w3.org/2000/svg" fill="none" viewBox="0 0 24 24" stroke-width="1.5" stroke="currentColor" aria-hidden="true" data-slot="icon">
  <path fill="color(display-p3 .9804 .5608 .5608)" d="M22 18.956a2 2 0 1 1-4 0 2 2 0 0 1 4 0Z"/>
  <path fill="#000" d="M4.33 5.606a.75.75 0 0 0 1.06 1.06l-1.06-1.06Zm14 1.06a.75.75 0 1 0 1.06-1.06l-1.06 1.06Zm1.88 14.026v-.75.75Zm-.834 0v.75-.75Zm-2.813-3.495-.165.732.165-.732Zm-1.313-.296.165-.732-.165.732Zm-6.71.264.222.716-.222-.716Zm-1.059.328-.222-.716.222.716Zm-2.767 3.32.057.748-.057-.748Zm-.628.049-.057-.748.057.747Zm-2.558-2.216.748-.05-.748.05Zm-.07-1.04-.748.05.749-.05Zm1.51-2.768.363.656-.363-.656Zm.397-.22L3 13.962l.364.656Zm19.183 2.72h.75-.75Zm0 1.017h.75-.75Zm-1.369-3.433.386-.643-.386.643Zm-3.385 4.003-.745-.083.745.083ZM6.83 8.605a.75.75 0 0 0 1.06 1.061l-1.06-1.06Zm9 1.061a.75.75 0 1 0 1.06-1.06l-1.06 1.06Zm-10.44-3c1.083-1.081 3.046-2.387 5.366-2.765 2.273-.37 4.947.138 7.574 2.765l1.06-1.06c-2.972-2.973-6.132-3.632-8.875-3.185-2.697.439-4.933 1.933-6.185 3.185l1.06 1.06Zm14.82 13.276h-.833v1.5h.834v-1.5Zm-3.481-3.477-1.313-.296-.33 1.463 1.313.297.33-1.463Zm-8.41-.017-1.059.328.445 1.433 1.058-.328-.444-1.433Zm-3.662 3.617-.627.049.115 1.495.627-.048-.115-1.496Zm-2.38-1.469-.069-1.04-1.497.1.07 1.04 1.496-.1Zm1.055-3.102.397-.22-.727-1.312-.396.22.726 1.312Zm18.467 1.844v1.017h1.5v-1.017h-1.5Zm-18.07-2.064a17.089 17.089 0 0 1 17.066.292l.77-1.287a18.589 18.589 0 0 0-18.563-.317l.727 1.312Zm17.066.292a2.067 2.067 0 0 1 1.004 1.772h1.5a3.566 3.566 0 0 0-1.733-3.059l-.771 1.287Zm-18.587 1.99a2.19 2.19 0 0 1 1.124-2.062l-.726-1.312A3.69 3.69 0 0 0 .71 17.656l1.497-.1Zm1.822 2.558a1.63 1.63 0 0 1-1.753-1.518l-1.496.1a3.13 3.13 0 0 0 3.364 2.913l-.115-1.495Zm1.505-.997a.95.95 0 0 1-.878.948l.115 1.496a2.45 2.45 0 0 0 2.263-2.444h-1.5Zm9.88-2.948a13.75 13.75 0 0 0-7.096.28l.444 1.432a12.25 12.25 0 0 1 6.323-.248l.33-1.464Zm-8.155.607a2.45 2.45 0 0 0-1.725 2.341h1.5a.95.95 0 0 1 .67-.908l-.445-1.433Zm11.28 2.232a2.341 2.341 0 0 0-1.811-2.543l-.33 1.464a.842.842 0 0 1 .65.913l1.492.166Zm.837.934a.841.841 0 0 1-.836-.934l-1.491-.166a2.341 2.341 0 0 0 2.327 2.6v-1.5Zm.834 1.5a3.088 3.088 0 0 0 3.088-3.087h-1.5c0 .877-.711 1.587-1.588 1.587v1.5ZM7.89 9.666c.665-.665 1.878-1.47 3.303-1.702 1.377-.225 3.01.075 4.636 1.702l1.06-1.06c-1.972-1.973-4.09-2.423-5.937-2.123-1.801.293-3.288 1.288-4.123 2.123l1.06 1.06Z"/>
</svg>
