<svg xmlns="http://www.w3.org/2000/svg" fill="none" viewBox="0 0 24 24" stroke-width="1.5" stroke="currentColor" aria-hidden="true" data-slot="icon">
  <path fill="color(display-p3 .9804 .5608 .5608)" d="M20 17a2 2 0 1 1-4 0 2 2 0 0 1 4 0Z"/>
  <path fill="#000" d="m7.748 4.55-.53.53.53-.53Zm.543.543.53-.53-.53.53Zm10.36 10.193.488-.57-.488.57Zm.509.436-.488.57.488-.57Zm.242 3.375.564.494-.564-.494Zm-.517.591-.564-.494.564.494ZM3.647 5.795l-.592-.46.592.46Zm.809-1.04.592.46-.592-.46ZM7.93 9.467l-.585.468.585-.468Zm.47 1.788a.75.75 0 1 0 1.172-.937l-1.172.937ZM3.331 8.978l.671-.335-.67.335Zm.984 3.645a.75.75 0 1 0 1.342-.671l-1.342.67Zm10.061 2.998.386-.643-.386.643Zm-3.504-2.977a.75.75 0 0 0-.772 1.286l.772-1.286Zm4.641 7.854.279-.696-.279.696Zm-1.632-.653-.278.697.278-.697Zm-2.627-1.42-.43.615.43-.615Zm-3.338-3.252a.75.75 0 1 0-.86 1.228l.86-1.228Zm.25-7.83-.468-.586.469.585ZM21.493 3.84a.75.75 0 1 0-1.012-1.107l1.012 1.107ZM2.98 18.734a.75.75 0 1 0 1.012 1.107L2.98 18.734ZM7.218 5.08l.543.543 1.06-1.06-.543-.544-1.06 1.06Zm10.945 10.775.509.436.976-1.139-.509-.436-.976 1.14Zm.675 2.748-.517.591 1.128.988.517-.591-1.128-.988ZM4.238 6.255l.81-1.04-1.184-.921-.81 1.04 1.185.921Zm3.107 3.681 1.055 1.32 1.172-.937-1.056-1.32-1.171.937ZM2.66 9.314l1.654 3.309 1.342-.671-1.655-3.31-1.341.672Zm12.101 5.664-3.89-2.334-.772 1.286 3.89 2.335.772-1.287Zm1.03 4.824-1.632-.653-.557 1.393 1.632.652.557-1.392Zm-4.107-1.991-3.77-2.638-.86 1.228 3.77 2.639.86-1.23ZM3.055 5.334a3.75 3.75 0 0 0-.394 3.98l1.341-.671a2.25 2.25 0 0 1 .237-2.388l-1.184-.92Zm15.266 13.86a2.25 2.25 0 0 1-2.53.608l-.556 1.392a3.75 3.75 0 0 0 4.214-1.012l-1.128-.988Zm.35-2.903c.69.59.764 1.63.167 2.312l1.128.988a3.13 3.13 0 0 0-.318-4.439l-.976 1.14Zm-1.74-.389a.907.907 0 0 1 1.232-.047l.976-1.139a2.407 2.407 0 0 0-3.269.126l1.061 1.06Zm-1.06-1.06a.907.907 0 0 1-1.109.136l-.771 1.287a2.406 2.406 0 0 0 2.94-.363l-1.06-1.06ZM7.697 6.757a2.262 2.262 0 0 0-.353 3.18l1.171-.938a.762.762 0 0 1 .12-1.07l-.938-1.172Zm6.462 12.392a12.25 12.25 0 0 1-2.475-1.338l-.86 1.229c.865.605 1.797 1.11 2.778 1.502l.557-1.393ZM7.76 5.623a.762.762 0 0 1-.062 1.134l.937 1.171a2.262 2.262 0 0 0 .187-3.366L7.76 5.622Zm.518-1.604a2.95 2.95 0 0 0-4.414.275l1.184.92a1.45 1.45 0 0 1 2.17-.134l1.06-1.061ZM20.48 2.734l-17.5 16 1.012 1.107 17.5-16-1.012-1.107Z"/>
</svg>
