<svg xmlns="http://www.w3.org/2000/svg" fill="none" viewBox="0 0 24 24" stroke-width="1.5" stroke="currentColor" aria-hidden="true" data-slot="icon">
  <path fill="color(display-p3 .9804 .5608 .5608)" d="M16 9.732a2 2 0 1 1-4 0 2 2 0 0 1 4 0Z"/>
  <path fill="#000" d="m16.867 20.735-.655.366a.75.75 0 0 0 1.02.29l-.364-.656ZM12 12h-.75a.75.75 0 0 0 .095.365L12 12Zm9.25 0A9.25 9.25 0 0 1 12 21.25v1.5c5.937 0 10.75-4.813 10.75-10.75h-1.5ZM12 21.25A9.25 9.25 0 0 1 2.75 12h-1.5c0 5.937 4.813 10.75 10.75 10.75v-1.5ZM2.75 12A9.25 9.25 0 0 1 12 2.75v-1.5C6.063 1.25 1.25 6.063 1.25 12h1.5ZM12 2.75A9.25 9.25 0 0 1 21.25 12h1.5c0-5.937-4.813-10.75-10.75-10.75v1.5ZM21.25 12a9.25 9.25 0 0 1-1.275 4.686l1.294.76A10.75 10.75 0 0 0 22.75 12h-1.5Zm-1.275 4.686a9.25 9.25 0 0 1-3.473 3.394l.73 1.31a10.75 10.75 0 0 0 4.037-3.944l-1.294-.76Zm-2.452 3.684-4.868-8.735-1.31.73 4.867 8.736 1.31-.73ZM12 12.75h10v-1.5H12v1.5Zm0-10a9.25 9.25 0 0 1 3.54.704l.574-1.386A10.75 10.75 0 0 0 12 1.25v1.5Zm3.54.704a9.25 9.25 0 0 1 3 2.005l1.061-1.06a10.75 10.75 0 0 0-3.487-2.33l-.574 1.385Zm3 2.005a9.25 9.25 0 0 1 2.006 3.001l1.386-.574a10.75 10.75 0 0 0-2.33-3.487l-1.061 1.06Zm2.006 3.001A9.251 9.251 0 0 1 21.25 12h1.5c0-1.412-.278-2.81-.818-4.114l-1.386.574ZM12.75 12V2h-1.5v10h1.5Z"/>
</svg>
