<svg xmlns="http://www.w3.org/2000/svg" fill="none" viewBox="0 0 24 24" stroke-width="1.5" stroke="currentColor" aria-hidden="true" data-slot="icon">
  <circle cx="12" cy="11" r="2" fill="color(display-p3 .9804 .5608 .5608)"/>
  <path fill="#000" d="m12 7 .68-.314a.75.75 0 0 0-1.362 0L12 7Zm1.41 3.058-.68.315.175.38.417.05.088-.745Zm3.345.397.509.55a.75.75 0 0 0-.421-1.295l-.088.745Zm-2.473 2.287-.51-.551-.308.285.082.412.736-.146Zm.656 3.303-.366.654a.75.75 0 0 0 1.102-.8l-.736.146ZM12 14.4l.367-.654L12 13.54l-.366.206.366.654Zm-2.94 1.645-.735-.146a.75.75 0 0 0 1.102.8l-.367-.654Zm.657-3.303.736.146.081-.412-.308-.285-.51.55Zm-2.473-2.287-.088-.745a.75.75 0 0 0-.421 1.296l.51-.551Zm3.345-.397.088.745.417-.05.176-.38-.681-.315Zm.73-2.744 1.41 3.059 1.362-.629-1.41-3.058-1.363.628Zm2.003 3.49 3.344.396.177-1.49-3.345-.396-.176 1.49Zm2.924-.9-2.473 2.287 1.018 1.101 2.473-2.286-1.018-1.102Zm-2.7 2.984.657 3.303 1.471-.292-.656-3.303-1.472.292Zm1.759 2.503-2.94-1.645-.732 1.308 2.939 1.646.733-1.31Zm-3.672-1.645L8.694 15.39l.733 1.309 2.939-1.646-.733-1.308ZM9.796 16.19l.657-3.303-1.472-.293-.656 3.304 1.471.292Zm.43-4L7.753 9.904l-1.018 1.102 2.473 2.286 1.018-1.101Zm-2.894-.99 3.345-.397-.177-1.49-3.344.397.176 1.49Zm3.938-.827 1.41-3.059-1.362-.628-1.41 3.058 1.362.629Z"/>
  <path stroke-linecap="round" stroke-linejoin="round" d="M12 4V2M7 7 5 5m-3 7h2m1 7 1.5-1.5M12 20v2m7-3-1.5-1.5m0-11L19 5m1 7h2"/>
</svg>
