<svg xmlns="http://www.w3.org/2000/svg" fill="none" viewBox="0 0 24 24" stroke-width="1.5" stroke="currentColor" aria-hidden="true" data-slot="icon">
  <path fill="color(display-p3 .9804 .5608 .5608)" d="M15.063 11.5a2 2 0 1 1-4 0 2 2 0 0 1 4 0Z"/>
  <path fill="#000" d="M12.25 9a.75.75 0 0 0-1.5 0h1.5Zm-.75 3h-.75v.177l.08.158.67-.335Zm.33 2.335a.75.75 0 1 0 1.34-.67l-1.34.67ZM6.755 5.907a.75.75 0 0 0 1.488.186l-1.488-.186ZM7.78 3.752l.744.093-.744-.093Zm8.438 0-.744.093.744-.093Zm-.463 2.341a.75.75 0 1 0 1.488-.186l-1.488.186Zm1.988 12 .093-.744-1.488-.186-.093.744 1.488.186Zm-1.025 2.155-.744-.093.744.093Zm-8.975-2.341-.093-.744-1.488.186.093.744 1.488-.186ZM8 6.75h8v-1.5H8v1.5ZM17.25 8v8h1.5V8h-1.5ZM16 17.25H8v1.5h8v-1.5ZM6.75 16V8h-1.5v8h1.5ZM8 17.25c-.69 0-1.25-.56-1.25-1.25h-1.5A2.75 2.75 0 0 0 8 18.75v-1.5ZM17.25 16c0 .69-.56 1.25-1.25 1.25v1.5A2.75 2.75 0 0 0 18.75 16h-1.5ZM16 6.75c.69 0 1.25.56 1.25 1.25h1.5A2.75 2.75 0 0 0 16 5.25v1.5Zm-8-1.5A2.75 2.75 0 0 0 5.25 8h1.5c0-.69.56-1.25 1.25-1.25v-1.5ZM10.75 9v3h1.5V9h-1.5Zm.08 3.335 1 2 1.34-.67-1-2-1.34.67ZM8.243 6.093l.281-2.248-1.488-.186-.281 2.248 1.488.186ZM9.766 2.75h4.468v-1.5H9.766v1.5Zm5.709 1.095.28 2.248 1.49-.186-.282-2.248-1.488.186Zm-1.24-1.095c.63 0 1.162.47 1.24 1.095l1.488-.186a2.75 2.75 0 0 0-2.729-2.409v1.5Zm-5.71 1.095a1.25 1.25 0 0 1 1.24-1.095v-1.5a2.75 2.75 0 0 0-2.728 2.409l1.488.186Zm7.73 14.062-.28 2.248 1.488.186.281-2.248-1.488-.186Zm-1.52 3.343h-5.47v1.5h5.47v-1.5Zm-6.71-1.095-.28-2.248-1.49.186.282 2.248 1.488-.186Zm1.24 1.095a1.25 1.25 0 0 1-1.24-1.095l-1.488.186a2.75 2.75 0 0 0 2.729 2.409v-1.5Zm6.71-1.095a1.25 1.25 0 0 1-1.24 1.095v1.5a2.75 2.75 0 0 0 2.728-2.409l-1.488-.186Z"/>
</svg>
