<svg xmlns="http://www.w3.org/2000/svg" width="24" height="24" fill="none" viewBox="0 0 24 24">
  <path fill="color(display-p3 .9804 .5608 .5608)" d="M14 17.532a2 2 0 1 1-4 0 2 2 0 0 1 4 0Z"/>
  <path fill="#000" d="m12 7.26-.527.533.527.52.527-.52L12 7.259Zm1.544-1.527-.527-.533.527.533Zm6.177 0-.527.534.527-.534Zm0 6.105-.527-.533.527.533ZM12 19.468l-.527.534.527.521.527-.52-.527-.534Zm-7.72-7.63.526-.534-.527.534Zm6.176-6.105-.527.534.527-.534ZM9 11.22a.75.75 0 1 0 0 1.5v-1.5Zm1.125.75v.75a.75.75 0 0 0 .684-.442l-.684-.308Zm1.125-2.5.718-.216a.75.75 0 0 0-1.402-.092l.684.308Zm1.5 5-.718.215a.75.75 0 0 0 1.402.093l-.684-.308Zm1.125-2.5v-.75a.75.75 0 0 0-.684.442l.684.308Zm1.125.75a.75.75 0 0 0 0-1.5v1.5Zm-2.473-4.926 1.544-1.526L13.017 5.2l-1.544 1.526 1.054 1.067Zm1.544-1.526a3.654 3.654 0 0 1 5.123 0L20.248 5.2a5.154 5.154 0 0 0-7.231 0l1.054 1.067Zm5.123 0a3.531 3.531 0 0 1 0 5.038l1.054 1.066a5.031 5.031 0 0 0 0-7.171l-1.054 1.067Zm0 5.038-7.721 7.63 1.054 1.067 7.721-7.63-1.054-1.067Zm-14.388 0a3.531 3.531 0 0 1 0-5.038L3.752 5.2a5.031 5.031 0 0 0 0 7.171l1.054-1.067Zm0-5.038a3.654 3.654 0 0 1 5.123 0L10.983 5.2a5.154 5.154 0 0 0-7.231 0l1.054 1.066Zm5.123 0 1.544 1.526 1.054-1.067L10.983 5.2 9.93 6.266Zm2.598 12.668-7.72-7.63-1.055 1.066 7.72 7.631 1.055-1.067ZM9 12.72h1.125v-1.5H9v1.5Zm1.809-.442 1.125-2.5-1.368-.616-1.125 2.5 1.368.616Zm-.277-2.593 1.5 5 1.436-.43-1.5-5-1.436.43Zm2.902 5.093 1.125-2.5-1.368-.616-1.125 2.5 1.368.616Zm.441-2.058H15v-1.5h-1.125v1.5Z"/>
</svg>
