<svg xmlns="http://www.w3.org/2000/svg" width="24" height="24" fill="none" viewBox="0 0 24 24">
  <path fill="color(display-p3 .9804 .5608 .5608)" d="M14.438 19.25a2 2 0 1 1-4 0 2 2 0 0 1 4 0Z"/>
  <path fill="#000" d="M12.75 8.75a.75.75 0 0 0-1.5 0h1.5Zm-.75 4h-.75c0 .199.079.39.22.53l.53-.53Zm1.47 2.53a.75.75 0 1 0 1.06-1.06l-1.06 1.06Zm6.06-13.06a.75.75 0 1 0-1.06 1.06l1.06-1.06Zm1.94 4.06a.75.75 0 1 0 1.06-1.06l-1.06 1.06Zm-15.94-3a.75.75 0 0 0-1.06-1.06l1.06 1.06ZM1.47 5.22a.75.75 0 0 0 1.06 1.06L1.47 5.22Zm5.06 14.06a.75.75 0 1 0-1.06-1.06l1.06 1.06Zm-3.06.94a.75.75 0 1 0 1.06 1.06l-1.06-1.06Zm15.06-2a.75.75 0 1 0-1.06 1.06l1.06-1.06Zm.94 3.06a.75.75 0 1 0 1.06-1.06l-1.06 1.06Zm-.22-8.53A7.25 7.25 0 0 1 12 20v1.5a8.75 8.75 0 0 0 8.75-8.75h-1.5ZM12 20a7.25 7.25 0 0 1-7.25-7.25h-1.5A8.75 8.75 0 0 0 12 21.5V20Zm-7.25-7.25A7.25 7.25 0 0 1 12 5.5V4a8.75 8.75 0 0 0-8.75 8.75h1.5ZM12 5.5a7.25 7.25 0 0 1 7.25 7.25h1.5A8.75 8.75 0 0 0 12 4v1.5Zm-.75 3.25v4h1.5v-4h-1.5Zm.22 4.53 2 2 1.06-1.06-2-2-1.06 1.06Zm7-10 3 3 1.06-1.06-3-3-1.06 1.06Zm-14-1.06-3 3 1.06 1.06 3-3-1.06-1.06Zm1 16-2 2 1.06 1.06 2-2-1.06-1.06Zm12 1.06 2 2 1.06-1.06-2-2-1.06 1.06Z"/>
</svg>
