<svg xmlns="http://www.w3.org/2000/svg" width="24" height="24" fill="none" viewBox="0 0 24 24">
  <path fill="color(display-p3 .9804 .5608 .5608)" d="M14 19.375a2 2 0 1 1-4 0 2 2 0 0 1 4 0Z"/>
  <path fill="#000" d="M13 9.625a.75.75 0 0 0-1.5 0H13Zm-.75 3h-.75c0 .199.079.39.22.53l.53-.53Zm1.47 2.53a.75.75 0 1 0 1.06-1.06l-1.06 1.06ZM7.25 3.375a.75.75 0 0 0 0-1.5v1.5ZM1.5 7.625a.75.75 0 0 0 1.5 0H1.5Zm14.75-5.75a.75.75 0 0 0 0 1.5v-1.5ZM21 7.625a.75.75 0 0 0 1.5 0H21ZM7.28 19.155a.75.75 0 1 0-1.06-1.06l1.06 1.06Zm-3.56 1.44a.75.75 0 1 0 1.06 1.06l-1.06-1.06Zm15.116-2.438a.75.75 0 0 0-1.172.936l1.172-.936Zm.828 3.436a.75.75 0 0 0 1.172-.936l-1.172.936Zm-.164-8.968a7.25 7.25 0 0 1-7.25 7.25v1.5a8.75 8.75 0 0 0 8.75-8.75h-1.5Zm-7.25 7.25A7.25 7.25 0 0 1 5 12.625H3.5a8.75 8.75 0 0 0 8.75 8.75v-1.5ZM5 12.625a7.25 7.25 0 0 1 7.25-7.25v-1.5a8.75 8.75 0 0 0-8.75 8.75H5Zm7.25-7.25a7.25 7.25 0 0 1 7.25 7.25H21a8.75 8.75 0 0 0-8.75-8.75v1.5Zm-.75 4.25v3H13v-3h-1.5Zm.22 3.53 2 2 1.06-1.06-2-2-1.06 1.06ZM7.25 1.875a5.75 5.75 0 0 0-5.75 5.75H3a4.25 4.25 0 0 1 4.25-4.25v-1.5Zm9 1.5c1.184 0 2.387.484 3.29 1.278.902.792 1.46 1.849 1.46 2.972h1.5c0-1.638-.812-3.082-1.97-4.099-1.155-1.015-2.703-1.651-4.28-1.651v1.5ZM6.22 18.095l-2.5 2.5 1.06 1.06 2.5-2.5-1.06-1.06Zm11.444.998 2 2.5 1.172-.936-2-2.5-1.172.936Z"/>
</svg>
