<svg xmlns="http://www.w3.org/2000/svg" width="25" height="24" fill="none" viewBox="0 0 25 24">
  <path fill="color(display-p3 .9804 .5608 .5608)" d="M19 14.5a2 2 0 1 1-4 0 2 2 0 0 1 4 0Z"/>
  <path stroke="#000" stroke-linecap="round" stroke-linejoin="round" stroke-width="1.5" d="m4.5 13.588 1.552 5.82a2.262 2.262 0 0 0 4.448-.583V5.087m8.5 1h1.5a2 2 0 0 1 2 2v3a2 2 0 0 1-2 2H19m0-8.173v9.347a2 2 0 0 1-2.666 1.886l-4.73-1.67a6.83 6.83 0 0 0-2.274-.39H7a4.5 4.5 0 0 1 0-9h2.33a6.83 6.83 0 0 0 2.273-.389l4.731-1.67A2 2 0 0 1 19 4.914Z"/>
</svg>
