<svg xmlns="http://www.w3.org/2000/svg" width="24" height="24" fill="none" viewBox="0 0 24 24">
  <path fill="color(display-p3 .9804 .5608 .5608)" d="M18 14a2 2 0 1 1-4 0 2 2 0 0 1 4 0Z"/>
  <path stroke="#000" stroke-linecap="round" stroke-linejoin="round" stroke-width="1.5" d="M22 7.692v4M18 4.31v10.968a1 1 0 0 1-1.333.943l-5.834-2.059a1 1 0 0 0-1.333.943v4.587a1 1 0 0 1-1 1H6a1 1 0 0 1-1-1v-4.5a1.5 1.5 0 0 0-1.5-1.5 1.5 1.5 0 0 1-1.5-1.5v-4a3 3 0 0 1 3-3h6.584a6 6 0 0 0 2.683-.634l2.286-1.143A1 1 0 0 1 18 4.31Z"/>
</svg>
