<svg xmlns="http://www.w3.org/2000/svg" width="24" height="24" fill="none" viewBox="0 0 24 24">
  <circle cx="12" cy="13" r="2" fill="color(display-p3 .9804 .5608 .5608)"/>
  <path fill="#000" d="M12.75 8a.75.75 0 0 0-1.5 0h1.5ZM12 16l-.53.53a.75.75 0 0 0 1.06 0L12 16Zm-3.47-4.53a.75.75 0 0 0-1.06 1.06l1.06-1.06Zm8 1.06a.75.75 0 1 0-1.06-1.06l1.06 1.06Zm4.72-.53A9.25 9.25 0 0 1 12 21.25v1.5c5.937 0 10.75-4.813 10.75-10.75h-1.5ZM12 21.25A9.25 9.25 0 0 1 2.75 12h-1.5c0 5.937 4.813 10.75 10.75 10.75v-1.5ZM2.75 12A9.25 9.25 0 0 1 12 2.75v-1.5C6.063 1.25 1.25 6.063 1.25 12h1.5ZM12 2.75A9.25 9.25 0 0 1 21.25 12h1.5c0-5.937-4.813-10.75-10.75-10.75v1.5ZM11.25 8v8h1.5V8h-1.5Zm1.28 7.47-4-4-1.06 1.06 4 4 1.06-1.06Zm0 1.06 4-4-1.06-1.06-4 4 1.06 1.06Z"/>
</svg>
