<svg xmlns="http://www.w3.org/2000/svg" width="24" height="24" fill="none" viewBox="0 0 24 24">
  <circle cx="14" cy="12" r="2" fill="color(display-p3 .9804 .5608 .5608)"/>
  <path fill="#000" d="M2.709 6.593a.75.75 0 0 0 1.296.754L2.71 6.593Zm11.89-4.25.195-.723-.195.724ZM22 11.989h.75H22Zm-2.052 6.081.596.455-.596-.455ZM8.216 21.257l.284-.695-.284.694Zm-4.2-4.585a.75.75 0 1 0-1.294.757l1.294-.757ZM2 11.25a.75.75 0 0 0 0 1.5v-1.5ZM16 12l.53.53a.75.75 0 0 0 0-1.06L16 12Zm-3.47-4.53a.75.75 0 1 0-1.06 1.06l1.06-1.06Zm-1.06 8a.75.75 0 1 0 1.06 1.06l-1.06-1.06ZM4.005 7.347A9.25 9.25 0 0 1 8.48 3.446l-.57-1.387a10.75 10.75 0 0 0-5.201 4.534l1.296.754ZM8.48 3.446a9.25 9.25 0 0 1 5.924-.378l.39-1.448a10.75 10.75 0 0 0-6.885.439l.571 1.387Zm5.924-.378a9.25 9.25 0 0 1 4.934 3.3l1.19-.912a10.75 10.75 0 0 0-5.734-3.836l-.39 1.448Zm4.934 3.3a9.25 9.25 0 0 1 1.912 5.621l1.5-.002a10.75 10.75 0 0 0-2.221-6.531l-1.19.913Zm1.912 5.621a9.25 9.25 0 0 1-1.898 5.625l1.192.91a10.75 10.75 0 0 0 2.206-6.537l-1.5.002Zm-1.898 5.625a9.25 9.25 0 0 1-4.927 3.312l.394 1.448a10.75 10.75 0 0 0 5.725-3.85l-1.192-.91Zm-4.927 3.312a9.25 9.25 0 0 1-5.925-.364l-.568 1.389a10.75 10.75 0 0 0 6.887.423l-.394-1.448ZM8.5 20.562a9.25 9.25 0 0 1-4.484-3.89l-1.294.757a10.75 10.75 0 0 0 5.21 4.522l.568-1.389ZM2 12.75h14v-1.5H2v1.5Zm14.53-1.28-4-4-1.06 1.06 4 4 1.06-1.06Zm-1.06 0-4 4 1.06 1.06 4-4-1.06-1.06Z"/>
</svg>
