<svg xmlns="http://www.w3.org/2000/svg" width="24" height="24" fill="none" viewBox="0 0 24 24">
  <circle cx="13" cy="11" r="2" fill="color(display-p3 .9804 .5608 .5608)"/>
  <path fill="#000" d="M9.764 20.976A.75.75 0 1 0 9.4 22.43l.363-1.455Zm10.924-4.024-.652-.372.652.372ZM19.116 4.975l.534-.527-.534.527Zm-17.58 9.49a.75.75 0 0 0 1.46-.344l-1.46.343ZM4.47 18.47a.75.75 0 1 0 1.06 1.06l-1.06-1.06ZM15 9h.75a.75.75 0 0 0-.75-.75V9Zm-.75 6a.75.75 0 0 0 1.5 0h-1.5ZM9 8.25a.75.75 0 1 0 0 1.5v-1.5Zm.4 14.181a10.75 10.75 0 0 0 6.829-.548l-.59-1.379a9.25 9.25 0 0 1-5.875.472L9.4 22.43Zm6.829-.548a10.75 10.75 0 0 0 5.11-4.56l-1.303-.743a9.25 9.25 0 0 1-4.397 3.924l.59 1.38Zm5.11-4.56a10.75 10.75 0 0 0 1.32-6.722l-1.488.196a9.25 9.25 0 0 1-1.135 5.783l1.304.743Zm1.32-6.722a10.75 10.75 0 0 0-3.009-6.153l-1.067 1.054a9.25 9.25 0 0 1 2.588 5.295l1.488-.196ZM19.65 4.448a10.75 10.75 0 0 0-6.114-3.088l-.214 1.485a9.25 9.25 0 0 1 5.26 2.657l1.068-1.054ZM13.536 1.36a10.75 10.75 0 0 0-6.738 1.233l.726 1.312a9.25 9.25 0 0 1 5.798-1.06l.214-1.485ZM6.798 2.593a10.75 10.75 0 0 0-4.626 5.051l1.371.608a9.25 9.25 0 0 1 3.98-4.347l-.725-1.312ZM2.172 7.644a10.75 10.75 0 0 0-.636 6.82l1.46-.343a9.25 9.25 0 0 1 .547-5.869l-1.371-.608ZM5.53 19.53l10-10-1.06-1.06-10 10 1.06 1.06ZM14.25 9v6h1.5V9h-1.5Zm.75-.75H9v1.5h6v-1.5Z"/>
</svg>
