<svg xmlns="http://www.w3.org/2000/svg" width="24" height="24" fill="none" viewBox="0 0 24 24">
  <path fill="color(display-p3 .9804 .5608 .5608)" d="M14 7a2 2 0 1 1-4 0 2 2 0 0 1 4 0Z"/>
  <path stroke="#000" stroke-width="1.5" d="M15 18.5a3 3 0 0 1-6 0m-4.26 0h14.52a.483.483 0 0 0 .443-.677l-1.678-3.817a8.176 8.176 0 0 1-.691-3.29A5.216 5.216 0 0 0 12.118 5.5h-.235a5.216 5.216 0 0 0-5.216 5.216 8.176 8.176 0 0 1-.691 3.29l-1.678 3.817a.483.483 0 0 0 .442.677ZM14 4.5c0 1.105-.895 1-2 1-1.104 0-2 .105-2-1a2 2 0 1 1 4 0Z"/>
</svg>
