<svg xmlns="http://www.w3.org/2000/svg" width="24" height="24" fill="none" viewBox="0 0 24 24">
  <path fill="color(display-p3 .9804 .5608 .5608)" d="M14 4.724a2 2 0 1 1-4 0 2 2 0 0 1 4 0Z"/>
  <path stroke="#000" stroke-linecap="round" stroke-linejoin="round" stroke-width="1.5" d="M9 20.172c.834.833 3.1 2 5.5 0m-10.753-2h16.507a.492.492 0 0 0 .452-.686l-1.843-4.3A10.676 10.676 0 0 1 18 8.98c0-3.208-2.6-5.808-5.809-5.808h-.382A5.809 5.809 0 0 0 6 8.98a10.67 10.67 0 0 1-.863 4.206l-1.843 4.3a.492.492 0 0 0 .453.686Z"/>
</svg>
