<svg xmlns="http://www.w3.org/2000/svg" width="24" height="24" fill="none" viewBox="0 0 24 24">
  <path fill="color(display-p3 .9804 .5608 .5608)" d="M14 5a2 2 0 1 1-4 0 2 2 0 0 1 4 0Z"/>
  <path fill="#000" d="M10.2 3v-.75a.75.75 0 0 0-.75.75h.75Zm3.6 0h.75a.75.75 0 0 0-.75-.75V3Zm0 3.6v.75a.75.75 0 0 0 .75-.75h-.75Zm-3.6 0h-.75c0 .414.336.75.75.75V6.6ZM3 10.2v-.75a.75.75 0 0 0-.75.75H3Zm3.6 0h.75a.75.75 0 0 0-.75-.75v.75Zm0 3.6v.75a.75.75 0 0 0 .75-.75H6.6Zm-3.6 0h-.75c0 .414.336.75.75.75v-.75Zm14.4-3.6v-.75a.75.75 0 0 0-.75.75h.75Zm3.6 0h.75a.75.75 0 0 0-.75-.75v.75Zm0 3.6v.75a.75.75 0 0 0 .75-.75H21Zm-3.6 0h-.75c0 .414.336.75.75.75v-.75Zm-7.2 3.6v-.75a.75.75 0 0 0-.75.75h.75Zm3.6 0h.75a.75.75 0 0 0-.75-.75v.75Zm0 3.6v.75a.75.75 0 0 0 .75-.75h-.75Zm-3.6 0h-.75c0 .414.336.75.75.75V21Zm.153-2.764a6.45 6.45 0 0 1-2.932-1.693l-1.064 1.056a7.95 7.95 0 0 0 3.613 2.087l.383-1.45Zm-2.932-1.693a6.45 6.45 0 0 1-1.67-2.945l-1.453.372a7.95 7.95 0 0 0 2.059 3.63l1.064-1.057Zm-1.658-6.187A6.45 6.45 0 0 1 7.479 7.4L6.428 6.33a7.95 7.95 0 0 0-2.115 3.644l1.45.382ZM7.479 7.4a6.45 6.45 0 0 1 2.986-1.665l-.357-1.457a7.95 7.95 0 0 0-3.68 2.052L7.479 7.4Zm5.981-1.683a6.45 6.45 0 0 1 3.017 1.64l1.04-1.08a7.95 7.95 0 0 0-3.717-2.02l-.34 1.46Zm3.017 1.64a6.45 6.45 0 0 1 1.748 2.954l1.448-.393a7.95 7.95 0 0 0-2.155-3.641l-1.041 1.08Zm1.765 6.268a6.45 6.45 0 0 1-1.655 2.91l1.067 1.054a7.95 7.95 0 0 0 2.04-3.586l-1.452-.378Zm-1.655 2.91a6.45 6.45 0 0 1-2.89 1.688l.394 1.447a7.95 7.95 0 0 0 3.563-2.08l-1.067-1.055ZM10.2 3.75h3.6v-1.5h-3.6v1.5ZM13.05 3v3.6h1.5V3h-1.5Zm.75 2.85h-3.6v1.5h3.6v-1.5Zm-2.85.75V3h-1.5v3.6h1.5ZM3 10.95h3.6v-1.5H3v1.5Zm2.85-.75v3.6h1.5v-3.6h-1.5Zm.75 2.85H3v1.5h3.6v-1.5Zm-2.85.75v-3.6h-1.5v3.6h1.5Zm13.65-2.85H21v-1.5h-3.6v1.5Zm2.85-.75v3.6h1.5v-3.6h-1.5Zm.75 2.85h-3.6v1.5H21v-1.5Zm-2.85.75v-3.6h-1.5v3.6h1.5Zm-7.95 4.35h3.6v-1.5h-3.6v1.5Zm2.85-.75V21h1.5v-3.6h-1.5Zm.75 2.85h-3.6v1.5h3.6v-1.5Zm-2.85.75v-3.6h-1.5V21h1.5Z"/>
</svg>
