<svg xmlns="http://www.w3.org/2000/svg" width="24" height="24" fill="none" viewBox="0 0 24 24">
  <path fill="color(display-p3 .9804 .5608 .5608)" d="M15.938 9.5a2 2 0 1 1-4 0 2 2 0 0 1 4 0Z"/>
  <path fill="#000" d="M8 7v-.75a.75.75 0 0 0-.75.75H8Zm0 10h-.75c0 .414.336.75.75.75V17Zm6.5-5v.75V12ZM8 7.75h5.115v-1.5H8v1.5Zm5.115 3.5H8v1.5h5.115v-1.5ZM8.75 12V7h-1.5v5h1.5Zm6.115-2.5a1.75 1.75 0 0 1-1.75 1.75v1.5a3.25 3.25 0 0 0 3.25-3.25h-1.5Zm-1.75-1.75c.967 0 1.75.784 1.75 1.75h1.5a3.25 3.25 0 0 0-3.25-3.25v1.5ZM8 12.75h6.5v-1.5H8v1.5Zm6.5 3.5H8v1.5h6.5v-1.5ZM8.75 17v-5h-1.5v5h1.5Zm7.5-2.5a1.75 1.75 0 0 1-1.75 1.75v1.5a3.25 3.25 0 0 0 3.25-3.25h-1.5Zm-1.75-1.75c.966 0 1.75.784 1.75 1.75h1.5a3.25 3.25 0 0 0-3.25-3.25v1.5Zm-8.5-9h12v-1.5H6v1.5ZM20.25 6v12h1.5V6h-1.5ZM18 20.25H6v1.5h12v-1.5ZM3.75 18V6h-1.5v12h1.5ZM6 20.25A2.25 2.25 0 0 1 3.75 18h-1.5A3.75 3.75 0 0 0 6 21.75v-1.5ZM20.25 18A2.25 2.25 0 0 1 18 20.25v1.5A3.75 3.75 0 0 0 21.75 18h-1.5ZM18 3.75A2.25 2.25 0 0 1 20.25 6h1.5A3.75 3.75 0 0 0 18 2.25v1.5ZM6 2.25A3.75 3.75 0 0 0 2.25 6h1.5A2.25 2.25 0 0 1 6 3.75v-1.5Z"/>
</svg>
