<svg xmlns="http://www.w3.org/2000/svg" width="24" height="24" fill="none" viewBox="0 0 24 24">
  <path stroke="#000" stroke-width="1.5" d="M15.579 3H8.42C7.636 3 7 3.636 7 4.421s-.636 1.421-1.421 1.421H4.5a2.5 2.5 0 0 0-2.5 2.5V18a3 3 0 0 0 3 3h14a3 3 0 0 0 3-3V8.342a2.5 2.5 0 0 0-2.5-2.5h-1.079A1.421 1.421 0 0 1 17 4.422 1.42 1.42 0 0 0 15.579 3Z"/>
  <path stroke="#000" stroke-width="1.5" d="M16 12a4 4 0 1 1-8 0 4 4 0 0 1 8 0Z"/>
  <path fill="color(display-p3 .9804 .5608 .5608)" d="M14 12a2 2 0 1 1-4 0 2 2 0 0 1 4 0Z"/>
</svg>
