<svg xmlns="http://www.w3.org/2000/svg" width="24" height="24" fill="none" viewBox="0 0 24 24">
  <path fill="color(display-p3 .9804 .5608 .5608)" d="M14 16a2 2 0 1 1-4 0 2 2 0 0 1 4 0Z"/>
  <path fill="#000" d="M2.75 8a.75.75 0 0 0-1.5 0h1.5ZM2 9h-.75c0 .414.336.75.75.75V9Zm20.75-1a.75.75 0 0 0-1.5 0h1.5ZM22 9v.75a.75.75 0 0 0 .75-.75H22Zm-3-.75a.75.75 0 0 0 0 1.5v-1.5ZM5.75 10V6h-1.5v4h1.5ZM8 3.75h8v-1.5H8v1.5ZM18.25 6v4h1.5V6h-1.5ZM19 9.25H5v1.5h14v-1.5Zm-3-5.5A2.25 2.25 0 0 1 18.25 6h1.5A3.75 3.75 0 0 0 16 2.25v1.5ZM5.75 6A2.25 2.25 0 0 1 8 3.75v-1.5A3.75 3.75 0 0 0 4.25 6h1.5Zm-3 12v-5h-1.5v5h1.5Zm18.5-5v5h1.5v-5h-1.5ZM19 20.25h-1.5v1.5H19v-1.5Zm-4.5-3h-5v1.5h5v-1.5Zm-8 3H5v1.5h1.5v-1.5Zm.75-.75a.75.75 0 0 1-.75.75v1.5a2.25 2.25 0 0 0 2.25-2.25h-1.5Zm2.25-2.25a2.25 2.25 0 0 0-2.25 2.25h1.5a.75.75 0 0 1 .75-.75v-1.5Zm7.25 2.25a2.25 2.25 0 0 0-2.25-2.25v1.5a.75.75 0 0 1 .75.75h1.5Zm.75.75a.75.75 0 0 1-.75-.75h-1.5a2.25 2.25 0 0 0 2.25 2.25v-1.5ZM21.25 18A2.25 2.25 0 0 1 19 20.25v1.5A3.75 3.75 0 0 0 22.75 18h-1.5ZM19 10.75A2.25 2.25 0 0 1 21.25 13h1.5A3.75 3.75 0 0 0 19 9.25v1.5ZM2.75 13A2.25 2.25 0 0 1 5 10.75v-1.5A3.75 3.75 0 0 0 1.25 13h1.5Zm-1.5 5A3.75 3.75 0 0 0 5 21.75v-1.5A2.25 2.25 0 0 1 2.75 18h-1.5Zm0-10v1h1.5V8h-1.5ZM2 9.75h3v-1.5H2v1.5ZM21.25 8v1h1.5V8h-1.5Zm.75.25h-3v1.5h3v-1.5ZM6.25 14a.25.25 0 0 1-.25.25v1.5A1.75 1.75 0 0 0 7.75 14h-1.5Zm-.25.25a.25.25 0 0 1-.25-.25h-1.5c0 .966.784 1.75 1.75 1.75v-1.5ZM5.75 14a.25.25 0 0 1 .25-.25v-1.5A1.75 1.75 0 0 0 4.25 14h1.5Zm.25-.25a.25.25 0 0 1 .25.25h1.5A1.75 1.75 0 0 0 6 12.25v1.5Zm12.25.25a.25.25 0 0 1-.25.25v1.5A1.75 1.75 0 0 0 19.75 14h-1.5Zm-.25.25a.25.25 0 0 1-.25-.25h-1.5c0 .966.784 1.75 1.75 1.75v-1.5Zm-.25-.25a.25.25 0 0 1 .25-.25v-1.5A1.75 1.75 0 0 0 16.25 14h1.5Zm.25-.25a.25.25 0 0 1 .25.25h1.5A1.75 1.75 0 0 0 18 12.25v1.5Z"/>
</svg>
