<svg xmlns="http://www.w3.org/2000/svg" width="24" height="24" fill="none" viewBox="0 0 24 24">
  <circle cx="19" cy="5" r="2" fill="color(display-p3 .9804 .5608 .5608)"/>
  <rect width="18" height="18" x="3" y="3" stroke="#000" stroke-width="1.5" rx="2"/>
  <path fill="#000" stroke="#000" stroke-width=".5" d="M9 8a1 1 0 1 1-2 0 1 1 0 0 1 2 0Zm0 4a1 1 0 1 1-2 0 1 1 0 0 1 2 0Zm0 4a1 1 0 1 1-2 0 1 1 0 0 1 2 0Zm8 0a1 1 0 1 1-2 0 1 1 0 0 1 2 0Zm0-4a1 1 0 1 1-2 0 1 1 0 0 1 2 0Zm0-4a1 1 0 1 1-2 0 1 1 0 0 1 2 0Z"/>
</svg>
