<svg xmlns="http://www.w3.org/2000/svg" width="24" height="24" fill="none" viewBox="0 0 24 24">
  <path fill="color(display-p3 .9804 .5608 .5608)" d="M21 12a2 2 0 1 1-4 0 2 2 0 0 1 4 0Z"/>
  <path fill="#000" d="m3 12-.696-.279a.75.75 0 0 0 .025.615L3 12Zm18 0 .67.336a.75.75 0 0 0 .02-.632L21 12ZM7.48 7.576a.75.75 0 1 0-.96-1.152l.96 1.152Zm2.92-2.32a.75.75 0 0 0 .2 1.487l-.2-1.486Zm3.44 9.114-.46-.592.46.592ZM4.513 3.454a.75.75 0 1 0-1.028 1.092l1.028-1.092Zm15.972 17.092a.75.75 0 1 0 1.028-1.092l-1.028 1.092ZM12 17.25c-3.511 0-6.636-2.204-8.33-5.586l-1.34.672C4.228 16.128 7.82 18.75 12 18.75v-1.5Zm8.33-5.586c-.862 1.72-2.098 3.14-3.566 4.116l.831 1.249c1.701-1.132 3.106-2.758 4.076-4.693l-1.342-.672Zm-3.566 4.116c-1.41.939-3.036 1.47-4.764 1.47v1.5c2.044 0 3.956-.63 5.595-1.721l-.83-1.249ZM3.696 12.278c.285-.712 1.475-2.778 3.784-4.702l-.96-1.152C4.029 8.5 2.685 10.767 2.304 11.72l1.392.557Zm17.993-.574c-1.065-2.486-4.812-7.311-11.288-6.447l.198 1.486c5.524-.736 8.777 3.372 9.712 5.552l1.378-.59Zm-7.701 1.35a2.25 2.25 0 0 1-.184.29l1.203.897c.114-.153.216-.315.306-.485l-1.325-.702Zm-.184.29a2.25 2.25 0 0 1-.425.434l.92 1.184c.268-.207.506-.45.708-.72l-1.203-.897Zm-.425.434a2.25 2.25 0 0 1-.852.41l.352 1.457c.517-.124 1-.357 1.42-.683l-.92-1.184Zm-.852.41a2.25 2.25 0 0 1-.945.023l-.278 1.474a3.751 3.751 0 0 0 1.575-.04l-.352-1.458Zm-.945.023a2.25 2.25 0 0 1-.871-.367l-.86 1.23c.436.304.93.512 1.453.61l.278-1.473Zm-.871-.367a2.252 2.252 0 0 1-.644-.693l-1.289.768c.272.457.638.85 1.073 1.154l.86-1.229Zm-.644-.693a2.25 2.25 0 0 1-.302-.895l-1.49.17a3.75 3.75 0 0 0 .503 1.493l1.289-.768Zm-.302-.895a2.25 2.25 0 0 1 .092-.941l-1.429-.457a3.75 3.75 0 0 0-.154 1.568l1.49-.17Zm.092-.941a2.25 2.25 0 0 1 .47-.82L9.214 9.49a3.75 3.75 0 0 0-.785 1.367l1.429.457ZM3.486 4.546l10.405 9.793 1.028-1.092L4.514 3.454 3.486 4.546Zm10.405 9.793 2.775 2.612 1.028-1.093-2.775-2.611-1.028 1.092Zm2.775 2.612 3.82 3.595 1.028-1.092-3.82-3.596-1.028 1.093Z"/>
</svg>
