<svg xmlns="http://www.w3.org/2000/svg" width="24" height="24" fill="none" viewBox="0 0 24 24">
  <path fill="color(display-p3 .9804 .5608 .5608)" d="M13.938 20.25a2 2 0 1 1-4 0 2 2 0 0 1 4 0Z"/>
  <path fill="#000" d="M10 8.75a1 1 0 1 1-2 0 1 1 0 0 1 2 0Zm6 0a1 1 0 1 1-2 0 1 1 0 0 1 2 0Z"/>
  <path stroke="#000" stroke-linecap="round" stroke-width="1.5" d="M8 15.75c1.167-1.5 4.4-3.6 8 0m6-4c0 5.523-4.477 10-10 10s-10-4.477-10-10 4.477-10 10-10 10 4.477 10 10Zm-12-3a1 1 0 1 1-2 0 1 1 0 0 1 2 0Zm6 0a1 1 0 1 1-2 0 1 1 0 0 1 2 0Z"/>
</svg>
