<svg xmlns="http://www.w3.org/2000/svg" width="24" height="24" fill="none" viewBox="0 0 24 24">
  <path fill="color(display-p3 .9804 .5608 .5608)" d="M18.5 14.5a2 2 0 1 1-4 0 2 2 0 0 1 4 0Z"/>
  <path fill="#000" d="M17.17 5.223a.41.41 0 0 1-.205-.054C15.258 4.278 13.783 3.9 12.014 3.9c-1.76 0-3.432.423-4.952 1.269a.447.447 0 0 1-.64-.522.467.467 0 0 1 .213-.271A11.055 11.055 0 0 1 12.014 3c1.893 0 3.547.423 5.36 1.368a.453.453 0 0 1 .22.264.44.44 0 0 1-.033.339.442.442 0 0 1-.391.252ZM4.448 9.948a.46.46 0 0 1-.258-.081.45.45 0 0 1-.107-.63c.88-1.26 2-2.25 3.334-2.943 2.792-1.456 6.366-1.467 9.166-.009a9.261 9.261 0 0 1 3.334 2.925.452.452 0 0 1-.442.708.44.44 0 0 1-.287-.186 8.374 8.374 0 0 0-3.014-2.646c-2.551-1.323-5.814-1.323-8.357.009a8.473 8.473 0 0 0-3.022 2.663.392.392 0 0 1-.347.19Zm5.556 10.864a.418.418 0 0 1-.311-.135c-.773-.784-1.193-1.29-1.787-2.377-.615-1.107-.933-2.457-.933-3.906 0-2.673 2.258-4.851 5.032-4.851s5.033 2.178 5.033 4.851a.426.426 0 0 1-.125.315.446.446 0 0 1-.319.131.455.455 0 0 1-.319-.131.434.434 0 0 1-.125-.315c0-2.178-1.859-3.951-4.143-3.951-2.285 0-4.145 1.773-4.145 3.951 0 1.296.284 2.493.826 3.465.57 1.035.962 1.476 1.645 2.178a.469.469 0 0 1 0 .637.485.485 0 0 1-.329.139Zm6.375-1.665c-1.058 0-1.992-.27-2.756-.8a4.882 4.882 0 0 1-1.552-1.725 4.744 4.744 0 0 1-.563-2.226.426.426 0 0 1 .123-.319.445.445 0 0 1 .321-.133.454.454 0 0 1 .321.133.434.434 0 0 1 .124.319c.001.63.159 1.25.46 1.808.3.558.733 1.036 1.264 1.395.631.433 1.37.638 2.259.638.31-.005.618-.035.923-.09a.443.443 0 0 1 .515.369.438.438 0 0 1-.072.334.459.459 0 0 1-.292.188 6.002 6.002 0 0 1-1.075.108v.002ZM14.592 21a.512.512 0 0 1-.116-.018c-1.414-.396-2.338-.927-3.307-1.89a6.607 6.607 0 0 1-1.93-4.698c0-1.458 1.227-2.646 2.738-2.646 1.512 0 2.739 1.188 2.739 2.646 0 .963.827 1.746 1.849 1.746s1.85-.783 1.85-1.746c0-3.393-2.89-6.147-6.446-6.147-2.525 0-4.837 1.422-5.877 3.627-.346.729-.524 1.584-.524 2.52 0 .702.062 1.809.595 3.249a.44.44 0 0 1-.43.604.445.445 0 0 1-.309-.143.422.422 0 0 1-.087-.148 10.134 10.134 0 0 1-.65-3.562c0-1.08.205-2.063.605-2.916 1.183-2.512 3.805-4.14 6.677-4.14 4.045 0 7.334 3.159 7.334 7.047 0 1.458-1.227 2.646-2.738 2.646-1.512 0-2.738-1.188-2.738-2.646 0-.963-.827-1.748-1.85-1.748-1.021 0-1.848.784-1.848 1.746a5.71 5.71 0 0 0 1.662 4.06c.846.845 1.654 1.312 2.907 1.665.24.063.374.314.312.549a.425.425 0 0 1-.148.243.444.444 0 0 1-.27.1Z"/>
</svg>
