<svg xmlns="http://www.w3.org/2000/svg" width="24" height="24" fill="none" viewBox="0 0 24 24">
  <path fill="color(display-p3 .9804 .5608 .5608)" d="M14 13a2 2 0 1 1-4 0 2 2 0 0 1 4 0Z"/>
  <path fill="#000" d="m5.77 16.385.509-.55a.75.75 0 0 0-1.04.02l.53.53Zm2.692 1.343-.257.705.257-.705Zm10.698-5.093.71.245-.71-.245Zm-.413-6.41.671-.334-.008-.018-.01-.016-.653.368Zm-1.44-1.84-.53-.53a.75.75 0 0 0 .04 1.097l.49-.567ZM3.855 17.239a.75.75 0 0 0 1.061 1.06l-1.06-1.06ZM19.223 3.53a.75.75 0 1 0-1.06-1.06l1.06 1.06Zm-6.242 14.7a.75.75 0 0 0-1.5 0h1.5Zm-5.365 2.02a.75.75 0 0 0 0 1.5v-1.5Zm9.23 1.5a.75.75 0 0 0 0-1.5v1.5ZM5.26 16.935c.95.878 1.984 1.148 2.945 1.498l.514-1.41c-1.112-.405-1.77-.569-2.44-1.189L5.26 16.935Zm2.945 1.498c1.13.412 2.33.595 3.531.538l-.07-1.499a7.558 7.558 0 0 1-2.947-.449l-.514 1.41Zm3.531.538a9.058 9.058 0 0 0 3.465-.87l-.645-1.354a7.557 7.557 0 0 1-2.89.725l.07 1.499Zm3.465-.87a9.055 9.055 0 0 0 2.86-2.14l-1.119-1a7.56 7.56 0 0 1-2.386 1.786l.645 1.354Zm2.86-2.14a9.056 9.056 0 0 0 1.808-3.081l-1.418-.49a7.56 7.56 0 0 1-1.509 2.57l1.118 1Zm1.808-3.081a9.056 9.056 0 0 0 .478-3.54l-1.497.097a7.559 7.559 0 0 1-.399 2.953l1.418.49Zm.478-3.54a9.058 9.058 0 0 0-.929-3.45l-1.343.668c.447.899.71 1.877.775 2.879l1.497-.097ZM19.4 5.857c-.244-.435-.425-.77-.652-1.075-.24-.32-.52-.593-.95-.965l-.98 1.135c.404.35.586.538.728.728.154.206.276.43.547.912l1.307-.735ZM5.24 15.854 3.853 17.24l1.061 1.06L6.3 16.916l-1.061-1.06ZM17.837 4.915l1.385-1.385-1.06-1.06-1.386 1.384 1.061 1.061ZM11.481 18.23V21h1.5v-2.77h-1.5Zm.75 2.019H7.616v1.5h4.615v-1.5Zm0 1.5h4.615v-1.5h-4.615v1.5Zm3.865-11.827a4.788 4.788 0 0 1-4.788 4.788v1.5a6.288 6.288 0 0 0 6.288-6.288h-1.5Zm-4.788 4.788a4.788 4.788 0 0 1-4.789-4.788h-1.5a6.288 6.288 0 0 0 6.289 6.289v-1.5ZM6.519 9.923a4.788 4.788 0 0 1 4.789-4.788v-1.5a6.288 6.288 0 0 0-6.289 6.288h1.5Zm4.789-4.788a4.788 4.788 0 0 1 4.788 4.788h1.5a6.288 6.288 0 0 0-6.288-6.288v1.5Z"/>
</svg>
