<svg xmlns="http://www.w3.org/2000/svg" width="24" height="24" fill="none" viewBox="0 0 24 24">
  <path fill="color(display-p3 .9804 .5608 .5608)" d="M12 11a2 2 0 1 1-4 0 2 2 0 0 1 4 0Z"/>
  <path fill="#000" d="M7.53 10.47a.75.75 0 0 0-1.06 1.06l1.06-1.06ZM10 14l-.53.53a.75.75 0 0 0 1.06 0L10 14Zm3.5-3.5.53-.53a.75.75 0 0 0-1.06 0l.53.53Zm2.97 4.03a.75.75 0 1 0 1.06-1.06l-1.06 1.06ZM21.25 12A9.25 9.25 0 0 1 12 21.25v1.5c5.937 0 10.75-4.813 10.75-10.75h-1.5ZM12 21.25A9.25 9.25 0 0 1 2.75 12h-1.5c0 5.937 4.813 10.75 10.75 10.75v-1.5ZM2.75 12A9.25 9.25 0 0 1 12 2.75v-1.5C6.063 1.25 1.25 6.063 1.25 12h1.5ZM12 2.75A9.25 9.25 0 0 1 21.25 12h1.5c0-5.937-4.813-10.75-10.75-10.75v1.5Zm-5.53 8.78 3 3 1.06-1.06-3-3-1.06 1.06Zm4.06 3 3.5-3.5-1.06-1.06-3.5 3.5 1.06 1.06Zm2.44-3.5 3.5 3.5 1.06-1.06-3.5-3.5-1.06 1.06Z"/>
</svg>
