<svg xmlns="http://www.w3.org/2000/svg" width="24" height="24" fill="none" viewBox="0 0 24 24">
  <path fill="color(display-p3 .9804 .5608 .5608)" d="M14 10a2 2 0 1 1-4 0 2 2 0 0 1 4 0Z"/>
  <path fill="#000" d="M3.75 3a.75.75 0 0 0-1.5 0h1.5ZM21 21.75a.75.75 0 0 0 0-1.5v1.5ZM7.53 6.47a.75.75 0 0 0-1.06 1.06l1.06-1.06ZM12 12l-.53.53a.75.75 0 0 0 1.06 0L12 12Zm3-3 .53-.53a.75.75 0 0 0-1.06 0L15 9Zm6 6v.75h.75V15H21Zm.75-4a.75.75 0 0 0-1.5 0h1.5ZM17 14.25a.75.75 0 0 0 0 1.5v-1.5ZM2.25 3v15h1.5V3h-1.5ZM6 21.75h15v-1.5H6v1.5ZM2.25 18A3.75 3.75 0 0 0 6 21.75v-1.5A2.25 2.25 0 0 1 3.75 18h-1.5ZM6.47 7.53l5 5 1.06-1.06-5-5-1.06 1.06Zm6.06 5 3-3-1.06-1.06-3 3 1.06 1.06Zm1.94-3 6 6 1.06-1.06-6-6-1.06 1.06ZM20.25 11v4h1.5v-4h-1.5Zm.75 3.25h-4v1.5h4v-1.5Z"/>
</svg>
