<svg xmlns="http://www.w3.org/2000/svg" width="24" height="24" fill="none" viewBox="0 0 24 24">
  <path fill="color(display-p3 .9804 .5608 .5608)" d="M19.629 17.966a2 2 0 1 1-4 0 2 2 0 0 1 4 0Z"/>
  <path fill="#000" d="M13.418 1.98a.75.75 0 0 0-.1 1.497l.1-1.497Zm7.202 8.799a.75.75 0 0 0 1.496-.1l-1.496.1ZM7.52 4.882l-.53.53.53-.53Zm.185 5.044-.614.43.614-.43ZM8.78 11.46l-.614.43.614-.43Zm3.962 3.692-.386.643.386-.643Zm1.517.91.386-.643-.386.643Zm4.274-.336-.488.57.488-.57Zm.509.436.488-.569-.488.57Zm.242 3.376.565.494-.565-.494Zm-.62.708-.564-.494.565.494Zm-3.171.882.228-.715-.228.715Zm-1.304-.418.229-.714-.23.714ZM3.425 5.672l-.53-.53.53.53Zm.79-.79-.53-.53.53.53ZM2.699 8.186l-.731.166.731-.166Zm5.31-.37L7.54 7.23l.469.586Zm5.465-1.83a.75.75 0 0 0-.212 1.485l.212-1.485Zm3.152 4.849a.75.75 0 1 0 1.484-.212l-1.484.212Zm-3.308-7.358c1.13.075 2.884.536 4.387 1.664 1.478 1.109 2.73 2.873 2.915 5.638l1.496-.1c-.215-3.236-1.712-5.388-3.51-6.738-1.772-1.33-3.817-1.87-5.188-1.96l-.1 1.496ZM6.991 5.412l.616.616 1.06-1.06-.616-.616-1.06 1.06Zm.1 4.944 1.075 1.535 1.229-.86L8.32 9.496l-1.228.86Zm5.265 5.44 1.517.91.772-1.286-1.517-.91-.772 1.286Zm5.69.5.508.437.976-1.139-.509-.436-.976 1.139Zm.674 2.749-.62.708 1.13.988.619-.708-1.13-.988Zm-2.999 1.37-1.303-.418-.458 1.429 1.304.417.457-1.429ZM3.955 6.202l.79-.79-1.06-1.061-.79.79 1.06 1.06Zm10.463 13.794A16.39 16.39 0 0 1 3.43 8.02l-1.463.333A17.89 17.89 0 0 0 13.96 21.426l.457-1.429ZM3.43 8.02a1.956 1.956 0 0 1 .524-1.816l-1.06-1.061a3.456 3.456 0 0 0-.927 3.21L3.43 8.02ZM18.1 19.753a2.25 2.25 0 0 1-2.38.661l-.457 1.429a3.75 3.75 0 0 0 3.965-1.102l-1.129-.988Zm.453-3.02c.689.59.763 1.63.166 2.312l1.129.988a3.13 3.13 0 0 0-.319-4.439l-.976 1.139Zm-1.74-.389a.907.907 0 0 1 1.231-.047l.976-1.139a2.407 2.407 0 0 0-3.268.126l1.06 1.06Zm-8.648-4.453a13.752 13.752 0 0 0 4.19 3.905l.772-1.286a12.25 12.25 0 0 1-3.733-3.48l-1.229.86Zm5.707 4.815c.947.569 2.16.42 2.94-.362l-1.06-1.06a.907.907 0 0 1-1.108.136l-.772 1.286ZM7.54 7.23a2.308 2.308 0 0 0-.448 3.126l1.228-.86a.808.808 0 0 1 .158-1.094L7.54 7.23Zm.067-1.202c.34.34.31.902-.067 1.202l.938 1.172a2.308 2.308 0 0 0 .19-3.434l-1.06 1.06Zm.444-1.676a3.088 3.088 0 0 0-4.366 0l1.06 1.06c.62-.62 1.626-.62 2.246 0l1.06-1.06Zm5.211 3.12c.999.142 3.03 1.03 3.364 3.363l1.484-.212c-.466-3.268-3.301-4.446-4.636-4.637l-.212 1.485Z"/>
</svg>
