<svg xmlns="http://www.w3.org/2000/svg" width="24" height="24" fill="none" viewBox="0 0 24 24">
  <path fill="color(display-p3 .9804 .5608 .5608)" d="M6.213 12a2 2 0 1 1-4 0 2 2 0 0 1 4 0Z"/>
  <path stroke="#000" stroke-linecap="round" stroke-linejoin="round" stroke-width="1.5" d="M16.138 7.5c1.166 1.5 2.8 5.4 0 9m3-12c2 2.167 4.8 8.2 0 15m-16.5-11V15a1 1 0 0 0 1 1h2.616a1 1 0 0 1 .669.257l3.046 2.74c.643.58 1.669.123 1.669-.742V5.58a1 1 0 0 0-1.625-.781L6.912 7.28a1 1 0 0 1-.625.22h-2.65a1 1 0 0 0-1 1Z"/>
</svg>
