<svg xmlns="http://www.w3.org/2000/svg" width="24" height="24" fill="none" viewBox="0 0 24 24">
  <path fill="#000" d="m12 7.29 1.544-1.526a4.404 4.404 0 0 1 6.177 0 4.281 4.281 0 0 1 0 6.105L12 19.5l-7.72-7.631a4.281 4.281 0 0 1 0-6.105 4.404 4.404 0 0 1 6.176 0L12 7.291Z"/>
  <path fill="#fff" d="M9.5 11.5H8.495a.495.495 0 1 0 .01.99l1.605-.035a.103.103 0 0 0 .099-.08l.649-2.872 1.056 5.543a.559.559 0 0 0 1.07.096L14 12.5h.5a.5.5 0 0 0 0-1h-.948a.072.072 0 0 0-.069.05L12.5 14.5l-.899-5.393a.726.726 0 0 0-1.415-.075L9.5 11.5Z"/>
</svg>
