<svg xmlns="http://www.w3.org/2000/svg" width="25" height="24" fill="none" viewBox="0 0 25 24">
  <path fill="#000" d="M21.368 12.155a9 9 0 1 1-18 0 9 9 0 0 1 18 0Z"/>
  <path fill="#000" d="m17.368 19.655.846-.657.523-.484 1.791 1.74a.75.75 0 1 1-1.06 1.06l-2.1-1.66Zm-10.432-.324-.568-.468-.553-.54-1.916 1.931a.75.75 0 1 0 1.06 1.06l1.977-1.983ZM5.717 3.746a.75.75 0 1 0-1.06-1.06L1.893 5.447a.75.75 0 1 0 1.061 1.06l2.763-2.762Zm13.176 0a.75.75 0 0 1 1.061-1.06l2.763 2.762a.75.75 0 1 1-1.06 1.06l-2.764-2.762Z"/>
  <path fill="#fff" d="M8.368 11.905a.75.75 0 0 1 .75-.75h6.5a.75.75 0 1 1 0 1.5h-6.5a.75.75 0 0 1-.75-.75Z"/>
</svg>
