<svg xmlns="http://www.w3.org/2000/svg" width="24" height="24" fill="none" viewBox="0 0 24 24">
  <path fill="#000" d="M21.063 12.155a9 9 0 1 1-18 0 9 9 0 0 1 18 0Z"/>
  <path fill="#000" d="m17.29 19.482.627-.491.59-.555 1.715 1.818a.75.75 0 0 1-1.06 1.06l-1.872-1.832Zm-10.65-.144-.577-.475-.546-.531-1.924 1.922a.75.75 0 0 0 1.06 1.061l1.987-1.977ZM5.412 3.746a.75.75 0 0 0-1.061-1.06L1.588 5.447a.75.75 0 0 0 1.06 1.06l2.764-2.762Zm13.176 0a.75.75 0 0 1 1.06-1.06l2.763 2.762a.75.75 0 1 1-1.06 1.06l-2.763-2.762Z"/>
  <path fill="#fff" d="m10.79 14.882-2.228-2.227a.707.707 0 0 1 1-1l1.5 1.5 3.5-3.5a.707.707 0 1 1 1 1l-4.227 4.227a.386.386 0 0 1-.545 0Z"/>
</svg>
