<svg xmlns="http://www.w3.org/2000/svg" width="24" height="24" fill="none" viewBox="0 0 24 24">
  <path fill="#000" d="M21.063 12.155a9 9 0 1 1-18 0 9 9 0 0 1 18 0Z"/>
  <path fill="#fff" d="M12.563 12.562V8.905a.75.75 0 0 0-1.5 0v4.152a.28.28 0 0 0 .06.174l1.442 1.802a.713.713 0 0 0 1.127-.872l-1.074-1.432a.278.278 0 0 1-.056-.167Z"/>
  <path fill="#000" d="m17.063 19.215 1.06-1.06 2.1 2.1a.75.75 0 0 1-1.061 1.06l-2.1-2.1Zm-10.121-.188-1.06-1.06-2.289 2.287a.75.75 0 0 0 1.06 1.061l2.289-2.288ZM5.412 3.746a.75.75 0 0 0-1.061-1.06L1.588 5.447a.75.75 0 0 0 1.06 1.06l2.764-2.762Zm13.176 0a.75.75 0 0 1 1.06-1.06l2.763 2.762a.75.75 0 1 1-1.06 1.06l-2.763-2.762Z"/>
</svg>
