<svg xmlns="http://www.w3.org/2000/svg" width="25" height="24" fill="none" viewBox="0 0 25 24">
  <path fill="#000" d="M21.368 12.155a9 9 0 1 1-18 0 9 9 0 0 1 18 0Z"/>
  <path fill="#000" d="m17.612 19.47.606-.475.53-.493 1.78 1.752a.75.75 0 1 1-1.06 1.06l-1.856-1.844Zm-10.744-.19-.5-.417-.56-.547-1.91 1.938a.75.75 0 1 0 1.061 1.06l1.91-2.035ZM5.717 3.746a.75.75 0 1 0-1.06-1.06L1.893 5.447a.75.75 0 1 0 1.061 1.06l2.763-2.762Zm13.176 0a.75.75 0 0 1 1.061-1.06l2.763 2.762a.75.75 0 1 1-1.06 1.06l-2.764-2.762Z"/>
  <path fill="#fff" d="M11.618 15.155a.75.75 0 1 0 1.5 0v-2.5h2.5a.75.75 0 1 0 0-1.5h-2.5v-2.5a.75.75 0 1 0-1.5 0v2.5h-2.5a.75.75 0 1 0 0 1.5h2.5v2.5Z"/>
</svg>
