<svg xmlns="http://www.w3.org/2000/svg" width="24" height="24" fill="none" viewBox="0 0 24 24">
  <path fill="#000" d="m14.38 12.353 2.698-3.034a.67.67 0 0 1 1.025.865L16.25 12.5l1.853 2.316a.671.671 0 0 1-1.025.865l-2.697-3.034a.221.221 0 0 1 0-.294Zm-4.76 0L6.921 9.319a.67.67 0 0 0-1.025.865L7.75 12.5l-1.853 2.316a.671.671 0 0 0 1.025.865l2.697-3.034a.221.221 0 0 0 0-.294Z"/>
  <path fill="#000" d="M15.75 12.673a.75.75 0 0 1 .75-.75H21a.75.75 0 0 1 0 1.5h-4.5a.75.75 0 0 1-.75-.75Zm-7.5 0a.75.75 0 0 0-.75-.75H3a.75.75 0 0 0 0 1.5h4.5a.75.75 0 0 0 .75-.75Zm3-8.923a.75.75 0 0 1 1.5 0v16.5a.75.75 0 0 1-1.5 0V3.75Z"/>
</svg>
