<svg xmlns="http://www.w3.org/2000/svg" width="24" height="24" fill="none" viewBox="0 0 24 24">
  <path fill="#000" d="M18.5 14.26V4.915a2 2 0 0 0-2.666-1.886l-4.73 1.67a6.83 6.83 0 0 1-2.274.39H6.5a4.5 4.5 0 0 0 0 9h2.33a6.83 6.83 0 0 1 2.273.389l4.731 1.67A2 2 0 0 0 18.5 14.26Z"/>
  <path fill="#000" d="M4.469 18.698 3 12.088h1.5l1.235 6.174A1.649 1.649 0 0 0 9 17.94v-4.851h1.5v4.948a3.052 3.052 0 0 1-6.031.662ZM18.5 7.087v-1.5H20a2 2 0 0 1 2 2v4a2 2 0 0 1-2 2h-1.5v-1.5h1a1 1 0 0 0 1-1v-3a1 1 0 0 0-1-1h-1Z"/>
</svg>
