<svg xmlns="http://www.w3.org/2000/svg" width="24" height="24" fill="none" viewBox="0 0 24 24">
  <path fill="#000" d="m8.207 13.207 3.594 3.594c.11.11.288.11.398 0l3.594-3.594a.707.707 0 1 0-1-1l-2.47 2.47a.457.457 0 0 1-.646 0l-2.47-2.47a.707.707 0 0 0-1 1Z"/>
  <path fill="#000" d="M11.243 2.75a.75.75 0 0 1 1.5 0v11.5a.75.75 0 0 1-1.5 0V2.75Z"/>
  <path fill="#000" d="M15.505 3.392a.669.669 0 0 1 .91-.365 10 10 0 1 1-8.938.054.669.669 0 0 1 .915.354c.151.36-.02.771-.365.951a8.588 8.588 0 1 0 7.854-.047c-.348-.176-.523-.586-.376-.947Z"/>
</svg>
