<svg xmlns="http://www.w3.org/2000/svg" width="24" height="24" fill="none" viewBox="0 0 24 24">
  <path fill="#000" d="M13.828 8.464H8.746a.281.281 0 0 0-.282.282v5.082a.707.707 0 1 0 1.415 0v-3.492c0-.253.204-.457.457-.457h3.492a.707.707 0 1 0 0-1.415Z"/>
  <path fill="#000" d="M19.076 18.006a.75.75 0 1 1-1.06 1.06l-8.133-8.131a.75.75 0 0 1 1.061-1.061l8.132 8.132Z"/>
  <path fill="#000" d="M15.608 20.565a.669.669 0 0 1-.386.902 10 10 0 1 1 6.283-6.359.669.669 0 0 1-.897.397c-.361-.147-.532-.559-.415-.93a8.588 8.588 0 1 0-5.52 5.586c.37-.121.784.044.935.404Z"/>
</svg>
