<svg xmlns="http://www.w3.org/2000/svg" width="24" height="24" fill="none" viewBox="0 0 24 24">
  <path fill="#000" d="m7.707 11.352-3.55-3.195a.28.28 0 0 1-.01-.407L7.73 4.166a.707.707 0 0 1 1 1L5.937 7.959l2.735 2.279a.737.737 0 1 1-.965 1.114Zm4 8.5-3.55-3.195a.28.28 0 0 1-.01-.407l3.583-3.584a.707.707 0 0 1 1 1l-2.793 2.793 2.735 2.279a.737.737 0 1 1-.965 1.114Z"/>
  <path fill="#000" d="M19.188 7.227a.75.75 0 0 1 0 1.5h-12.5a.75.75 0 0 1 0-1.5h12.5Zm0 8.5a.75.75 0 1 1 0 1.5h-8.5a.75.75 0 0 1 0-1.5h8.5Z"/>
</svg>
