<svg xmlns="http://www.w3.org/2000/svg" width="24" height="24" fill="none" viewBox="0 0 24 24">
  <path fill="#000" d="M15.536 10.172v5.082a.281.281 0 0 1-.282.282h-5.082a.707.707 0 1 1 0-1.415h3.492a.457.457 0 0 0 .457-.457v-3.492a.707.707 0 1 1 1.415 0Z"/>
  <path fill="#000" d="M5.994 4.924a.75.75 0 1 0-1.06 1.06l8.131 8.133a.75.75 0 0 0 1.061-1.061L5.994 4.924Z"/>
  <path fill="#000" d="M3.435 8.392a.669.669 0 0 0-.902.385 10 10 0 1 0 6.359-6.282.669.669 0 0 0-.397.897c.147.361.559.532.93.415a8.588 8.588 0 1 1-5.586 5.52c.121-.37-.044-.784-.404-.935Z"/>
</svg>
