<svg xmlns="http://www.w3.org/2000/svg" width="24" height="24" fill="none" viewBox="0 0 24 24">
  <path fill="#000" d="m19.09 11.5-3.487-3.488a.884.884 0 1 1 1.25-1.25l4.894 4.895a.553.553 0 0 1 .048.728l-3.975 5.167a.857.857 0 0 1-1.365-1.037L19.09 13H9.84a.75.75 0 0 1 0-1.5h9.25Z"/>
  <path fill="#000" d="M4.377 2H9.34a.75.75 0 0 1 0 1.5H4.674c-.598 0-1.083.485-1.083 1.083v14.834c0 .598.485 1.083 1.083 1.083h4.667a.75.75 0 0 1 0 1.5H4.377a2.286 2.286 0 0 1-2.286-2.286V4.286A2.286 2.286 0 0 1 4.377 2Z"/>
</svg>
