<svg xmlns="http://www.w3.org/2000/svg" width="24" height="24" fill="none" viewBox="0 0 24 24">
  <path fill="#000" d="m16.488 16.672-3.944 3.944c-.3.3-.787.3-1.088 0l-3.944-3.944a.884.884 0 0 1 1.25-1.25L12 18.659l3.238-3.237a.884.884 0 0 1 1.25 1.25ZM4.5 7.41v2a.75.75 0 0 1-1.5 0V6.66a3.5 3.5 0 0 1 3.5-3.5h11a3.5 3.5 0 0 1 3.5 3.5v2.75a.75.75 0 0 1-1.5 0v-2a2.75 2.75 0 0 0-2.75-2.75h-9.5A2.75 2.75 0 0 0 4.5 7.41Z"/>
  <path fill="#000" d="M11.314 18.41a.75.75 0 0 0 1.5 0v-8.5a.75.75 0 0 0-1.5 0v8.5Z"/>
</svg>
