<svg xmlns="http://www.w3.org/2000/svg" width="24" height="24" fill="none" viewBox="0 0 24 24">
  <path fill="#000" d="m16.488 7.328-3.944-3.944a.77.77 0 0 0-1.088 0L7.512 7.328a.884.884 0 1 0 1.25 1.25L12 5.341l3.238 3.237a.884.884 0 0 0 1.25-1.25ZM4.5 16.59v-2a.75.75 0 0 0-1.5 0v2.75a3.5 3.5 0 0 0 3.5 3.5h11a3.5 3.5 0 0 0 3.5-3.5v-2.75a.75.75 0 0 0-1.5 0v2a2.75 2.75 0 0 1-2.75 2.75h-9.5a2.75 2.75 0 0 1-2.75-2.75Z"/>
  <path fill="#000" d="M11.314 5.59a.75.75 0 0 1 1.5 0v8.5a.75.75 0 1 1-1.5 0v-8.5Z"/>
</svg>
