<svg xmlns="http://www.w3.org/2000/svg" width="24" height="24" fill="none" viewBox="0 0 24 24">
  <path fill="#000" d="m16.294 11.352 3.55-3.195a.28.28 0 0 0 .01-.407l-3.583-3.584a.707.707 0 1 0-1 1l2.793 2.793-2.735 2.279a.737.737 0 1 0 .965 1.114Zm-4.001 8.5 3.55-3.195a.28.28 0 0 0 .011-.407l-3.583-3.584a.707.707 0 0 0-1 1l2.792 2.793-2.734 2.279a.737.737 0 1 0 .964 1.114Z"/>
  <path fill="#000" d="M4.813 7.227a.75.75 0 1 0 0 1.5h12.5a.75.75 0 0 0 0-1.5h-12.5Zm0 8.5a.75.75 0 1 0 0 1.5h8.5a.75.75 0 0 0 0-1.5h-8.5Z"/>
</svg>
