<svg xmlns="http://www.w3.org/2000/svg" width="24" height="24" fill="none" viewBox="0 0 24 24">
  <path fill="#000" d="M17.497 16.49c0 3.043-2.418 5.51-5.4 5.51-2.983 0-5.4-2.467-5.4-5.51 0-3.043 2.417-5.51 5.4-5.51 2.982 0 5.4 2.467 5.4 5.51Z"/>
  <path fill="#000" d="m5.35 2.918 1.524-.442 5.203 6.788 1.823 2.379-1.277 1.037L5.35 2.918Z"/>
  <path fill="#000" d="M18.85 2.918 17.5 2l-5.423 7.264-1.777 2.379 1.35.766 7.2-9.49Z"/>
  <path fill="#000" d="M20 3.354C20 2.606 19.406 2 18.673 2v6.428H20V3.354Zm-16 0C4 2.606 4.594 2 5.327 2v6.428H4V3.354Z"/>
  <path fill="#000" d="m4 8.428 1.15-.918 3.15 5.567-1.15 1.32L4 8.429Zm16 0-1.15-.918-3.15 5.567 1.15 1.32L20 8.429Zm-.003-5.05c0-.761-.604-1.378-1.35-1.378H5.35C4.604 2 4 2.617 4 3.378h15.997Z"/>
</svg>
