<svg xmlns="http://www.w3.org/2000/svg" width="24" height="24" fill="none" viewBox="0 0 24 24">
  <path fill="#000" d="M18 16.25a6 6 0 1 1-12 0 6 6 0 0 1 12 0Zm-10.893 0a4.893 4.893 0 1 0 9.787 0 4.893 4.893 0 0 0-9.787 0Z"/>
  <path fill="#000" d="m11.723 14.536-1.23.948a.51.51 0 0 1-.621-.806l1.81-1.397a.15.15 0 0 1 .091-.031h.56a.5.5 0 0 1 .5.5v4.5H14a.5.5 0 1 1 0 1h-3.444a.5.5 0 1 1 0-1h1.167v-3.714ZM9 11.25l-1 1-5.963-8.945a1 1 0 0 1 .832-1.555h5.013a1 1 0 0 1 .895.553L12 8.75l3.224-6.447a1 1 0 0 1 .894-.553h5.014a1 1 0 0 1 .832 1.555L16 12.25l-1-1H9Z"/>
</svg>
