<svg xmlns="http://www.w3.org/2000/svg" width="24" height="24" fill="none" viewBox="0 0 24 24">
  <path fill="#000" d="m5.53 3.833-.026 3.654a.517.517 0 0 1-1.033-.004v-3.65L3.026 5.055a.542.542 0 1 1-.696-.83l2.52-2.1a.234.234 0 0 1 .3 0l2.52 2.1a.542.542 0 1 1-.696.83L5.53 3.833ZM2 19.462V11.75a.75.75 0 0 1 1.5 0v7.167c0 .874.709 1.583 1.583 1.583H18.5a2 2 0 0 0 2-2V5.083c0-.874-.709-1.583-1.583-1.583H11.75a.75.75 0 0 1 0-1.5h7.712A2.538 2.538 0 0 1 22 4.538V19a3 3 0 0 1-3 3H4.538A2.538 2.538 0 0 1 2 19.462Z"/>
  <path fill="#000" d="M7 12.75a.75.75 0 0 1 1.5 0v4.5a.75.75 0 0 1-1.5 0v-4.5Zm4-6a.75.75 0 0 1 1.5 0v10.5a.75.75 0 0 1-1.5 0V6.75Zm4 4a.75.75 0 0 1 1.5 0v6.5a.75.75 0 0 1-1.5 0v-6.5Z"/>
</svg>
