<svg xmlns="http://www.w3.org/2000/svg" width="24" height="24" fill="none" viewBox="0 0 24 24">
  <path fill="#000" d="M18 22H6a3 3 0 1 1 0-6h12a3 3 0 1 1 0 6Z"/>
  <path fill="#000" d="M3 19v-1.558a3 3 0 0 1 1.126-2.343l2.748-2.198A3 3 0 0 0 8 10.558V5.75a.75.75 0 0 1 1.5 0v4.903a3 3 0 0 1-1.007 2.242l-2.486 2.21A3 3 0 0 0 5 17.347V18a3 3 0 0 0 3 3h8a3 3 0 0 0 3-3v-.558a3 3 0 0 0-1.126-2.343l-2.748-2.198A3 3 0 0 1 14 10.558V5.75a.75.75 0 0 1 1.5 0v4.722a3 3 0 0 0 1.235 2.427l3.03 2.203A3 3 0 0 1 21 17.527V19a3 3 0 0 1-3 3H6a3 3 0 0 1-3-3Z"/>
  <path fill="#000" d="M7 5V3a1 1 0 0 1 1-1h8a1 1 0 0 1 1 1v2a1 1 0 0 1-1 1H8a1 1 0 0 1-1-1Z"/>
</svg>
