<svg xmlns="http://www.w3.org/2000/svg" width="24" height="24" fill="none" viewBox="0 0 24 24">
  <path fill="#000" fill-rule="evenodd" d="M18.95 17.475a1 1 0 0 0 0-1.715l-8.57-5.142v10.234a1 1 0 0 0 1.514.857l7.056-4.234Zm-1.33-.423a.5.5 0 0 0 0-.868l-5.492-3.139a.5.5 0 0 0-.748.434v6.277a.5.5 0 0 0 .748.434l5.492-3.138Z" clip-rule="evenodd"/>
  <path fill="#000" fill-rule="evenodd" d="M18.95 8.24a1 1 0 0 0 0-1.715L11.894 2.29a1 1 0 0 0-1.514.858v10.233l8.57-5.142Zm-1.33-.424a.5.5 0 0 0 0-.868L12.128 3.81a.5.5 0 0 0-.748.434v6.277a.5.5 0 0 0 .748.434l5.492-3.139Z" clip-rule="evenodd"/>
  <path fill="#000" d="M4.813 8.498a.5.5 0 0 1 .5-.866l6.062 3.5a.5.5 0 0 1-.5.866l-6.062-3.5Z"/>
  <path fill="#000" d="M5.313 15.998a.5.5 0 0 1-.5-.866l6.062-3.5a.5.5 0 0 1 .5.866l-6.062 3.5Z"/>
</svg>
