<svg xmlns="http://www.w3.org/2000/svg" width="24" height="24" fill="none" viewBox="0 0 24 24">
  <path fill="#000" fill-rule="evenodd" d="M13.86 16.445c.478-.315.478-1.077 0-1.392l-6.34-4.175v8.309c0 .63.628 1.02 1.121.696l5.219-3.438Zm-.984-.343c.248-.156.248-.55 0-.705l-4.062-2.548c-.247-.155-.554.04-.554.352v5.096c0 .312.307.508.554.353l4.062-2.548Z" clip-rule="evenodd"/>
  <path fill="#000" fill-rule="evenodd" d="M13.86 8.947c.478-.315.478-1.077 0-1.392L8.64 4.117c-.493-.325-1.12.065-1.12.696v8.31l6.339-4.176Zm-.984-.344c.248-.156.248-.549 0-.705L8.814 5.35c-.247-.155-.554.04-.554.353v5.096c0 .312.307.507.554.352l4.062-2.548Z" clip-rule="evenodd"/>
  <path fill="#000" d="M3.404 9.157a.428.428 0 0 1-.136-.555c.102-.194.329-.26.505-.148l4.484 2.841c.177.113.237.36.135.555-.102.194-.328.26-.505.149L3.404 9.157Z"/>
  <path fill="#000" d="M3.773 15.246c-.176.112-.403.046-.505-.148a.428.428 0 0 1 .136-.555l4.483-2.841c.177-.113.403-.046.505.148a.428.428 0 0 1-.135.555l-4.484 2.841Zm13.702 2.708a.441.441 0 0 0 .637.108 7 7 0 0 0-.37-11.271.441.441 0 0 0-.628.15.494.494 0 0 0 .153.65 6.072 6.072 0 0 1 .318 9.703.494.494 0 0 0-.11.66Z"/>
  <path fill="#000" d="M15.529 15.627a.411.411 0 0 0 .607.072 4.5 4.5 0 0 0-.51-7.043c-.203-.138-.474-.056-.59.16-.118.214-.036.482.163.624a3.61 3.61 0 0 1 .402 5.544c-.177.17-.22.446-.072.643Z"/>
</svg>
