<svg xmlns="http://www.w3.org/2000/svg" width="24" height="24" fill="none" viewBox="0 0 24 24">
  <path fill="#000" d="M3 6a3 3 0 0 1 3-3h12a3 3 0 0 1 3 3v12a3 3 0 0 1-3 3H6a3 3 0 0 1-3-3V6Z"/>
  <path fill="#fff" fill-rule="evenodd" d="M12.646 8H9v3.714h3.5c1.208 0 2.333.227 2.333-1.571 0-1.184-.98-2.143-2.187-2.143Zm-.146.857H9.875v2.857H12.5c.805 0 1.458-.64 1.458-1.428 0-.79-.653-1.429-1.458-1.429Z" clip-rule="evenodd"/>
  <path fill="#fff" fill-rule="evenodd" d="M13.667 11.714H9v4.572h4.667C14.955 16.286 16 15.262 16 14s-1.045-2.286-2.333-2.286Zm0 .857H9.875v2.858h3.792c.805 0 1.458-.64 1.458-1.429s-.653-1.429-1.458-1.429Z" clip-rule="evenodd"/>
</svg>
