<svg xmlns="http://www.w3.org/2000/svg" width="24" height="24" fill="none" viewBox="0 0 24 24">
  <path fill="#000" d="M3.5 6a3 3 0 0 1 3-3h11a3 3 0 0 1 3 3v12a3 3 0 0 1-3 3h-11a3 3 0 0 1-3-3V6Z"/>
  <path fill="#fff" d="M3.5 6h2.25a.75.75 0 0 1 0 1.5H3.5V6Zm0 3h2.25a.75.75 0 0 1 0 1.5H3.5V9Zm0 3h2.25a.75.75 0 0 1 0 1.5H3.5V12Zm4-9H9v18H7.5V3Zm3 12.75a.75.75 0 0 1 .75-.75h6.5a.75.75 0 0 1 0 1.5h-6.5a.75.75 0 0 1-.75-.75Zm0-6a.75.75 0 0 1 .75-.75h6.5a.75.75 0 0 1 0 1.5h-6.5a.75.75 0 0 1-.75-.75Zm0-3a.75.75 0 0 1 .75-.75h6.5a.75.75 0 0 1 0 1.5h-6.5a.75.75 0 0 1-.75-.75Z"/>
</svg>
