<svg xmlns="http://www.w3.org/2000/svg" width="24" height="24" fill="none" viewBox="0 0 24 24">
  <path fill="#000" d="M3 10h18v9a3 3 0 0 1-3 3H6a3 3 0 0 1-3-3v-9Zm0-3v3h1.5V6.5a1 1 0 0 1 1-1h13a1 1 0 0 1 1 1V10H21V7a3 3 0 0 0-3-3H6a3 3 0 0 0-3 3Z"/>
  <path fill="#fff" d="M13 14a1 1 0 1 1-2 0 1 1 0 0 1 2 0Zm5 0a1 1 0 1 1-2 0 1 1 0 0 1 2 0ZM8 18a1 1 0 1 1-2 0 1 1 0 0 1 2 0Zm5 0a1 1 0 1 1-2 0 1 1 0 0 1 2 0Zm5 0a1 1 0 1 1-2 0 1 1 0 0 1 2 0Z"/>
  <path fill="#000" d="M7 2.75a.75.75 0 0 1 1.5 0v3.5a.75.75 0 0 1-1.5 0v-3.5Zm9 0a.75.75 0 0 1 1.5 0v3.5a.75.75 0 0 1-1.5 0v-3.5Z"/>
</svg>
