<svg xmlns="http://www.w3.org/2000/svg" width="24" height="24" fill="none" viewBox="0 0 24 24">
  <path fill="#000" d="M20.83 20.83 5.256 5.256A.879.879 0 0 0 4.636 5 2.636 2.636 0 0 0 2 7.636V18a3 3 0 0 0 3 3h15.759a.1.1 0 0 0 .07-.17ZM15.5 3H8.757C7.787 3 7 3.787 7 4.757c0 .156.062.305.172.415l14.657 14.657a.1.1 0 0 0 .171-.07V8a3 3 0 0 0-3-3h-1.5a.5.5 0 0 1-.5-.5A1.5 1.5 0 0 0 15.5 3Z"/>
  <path fill="#fff" d="M16.828 14.829a3.997 3.997 0 0 0 0-5.657 4 4 0 0 0-5.656 0l.803.803a2.864 2.864 0 0 1 4.05 4.05l.803.803Zm-6.648-3.824c-.274-.153-.624-.057-.738.235a4 4 0 0 0 5.273 5.136c.29-.12.377-.474.216-.743-.16-.27-.509-.351-.805-.247a2.862 2.862 0 0 1-3.789-2.29 2.863 2.863 0 0 1 .11-1.293c.097-.298.006-.644-.267-.798Z"/>
</svg>
