<svg xmlns="http://www.w3.org/2000/svg" width="24" height="24" fill="none" viewBox="0 0 24 24">
  <path fill="#000" d="M2.011 16.75v-4.692A2.308 2.308 0 0 1 4.32 9.75h15.384a2.308 2.308 0 0 1 2.308 2.308v4.692a3 3 0 0 1-3 3h-2a1 1 0 0 1-1-1 1 1 0 0 0-1-1h-6a1 1 0 0 0-1 1 1 1 0 0 1-1 1h-2a3 3 0 0 1-3-3Z"/>
  <path fill="#fff" d="M7.511 13.75h-2a1 1 0 1 1 0-2h2a1 1 0 1 1 0 2Zm11 0h-2a1 1 0 1 1 0-2h2a1 1 0 1 1 0 2Z"/>
  <path fill="#000" d="M5.018 5.532 3.011 10.75h2L6.76 6.379a1 1 0 0 1 .928-.629h9.146a1 1 0 0 1 .929.629l1.748 4.371h1.5l-1.566-5.088a2 2 0 0 0-1.911-1.412H6.884a2 2 0 0 0-1.866 1.282ZM3.511 9.45 2.466 8.356a.657.657 0 1 0-.99.858L3.01 10.75l.5-1.3Z"/>
  <path fill="#000" d="m20.511 9.25 1-1a.707.707 0 0 1 1 1l-1.5 1.5-.5-1.5Z"/>
</svg>
