<svg xmlns="http://www.w3.org/2000/svg" width="24" height="24" fill="none" viewBox="0 0 24 24">
  <path fill="#000" d="m7.09 6.509 5.214 5.213a.394.394 0 0 1 0 .556L7.09 17.491c-.557.557-1.509.163-1.509-.625 0-.234.093-.46.259-.625l3.887-3.887a.5.5 0 0 0 0-.707L5.841 7.758a.884.884 0 0 1-.259-.625c0-.788.952-1.182 1.509-.625Z"/>
  <path fill="#000" d="m13.09 6.509 5.214 5.213a.394.394 0 0 1 0 .556l-5.213 5.213c-.557.557-1.509.163-1.509-.625 0-.234.093-.46.259-.625l3.888-3.887a.5.5 0 0 0 0-.707L11.84 7.758a.884.884 0 0 1-.259-.625c0-.788.952-1.182 1.509-.625Z"/>
</svg>
