<svg xmlns="http://www.w3.org/2000/svg" width="24" height="24" fill="none" viewBox="0 0 24 24">
  <path fill="#000" d="m16.91 6.509-5.213 5.213a.394.394 0 0 0 0 .556l5.213 5.213c.557.557 1.509.163 1.509-.625a.884.884 0 0 0-.259-.625l-3.887-3.887a.5.5 0 0 1 0-.707l3.887-3.888a.884.884 0 0 0 .259-.625c0-.788-.952-1.182-1.509-.625Z"/>
  <path fill="#000" d="m10.91 6.509-5.213 5.213a.394.394 0 0 0 0 .556l5.213 5.213c.557.557 1.509.163 1.509-.625a.884.884 0 0 0-.259-.625l-3.888-3.887a.5.5 0 0 1 0-.707l3.888-3.888a.884.884 0 0 0 .259-.625c0-.788-.952-1.182-1.509-.625Z"/>
</svg>
