<svg xmlns="http://www.w3.org/2000/svg" width="24" height="24" fill="none" viewBox="0 0 24 24">
  <path fill="#000" d="M2 6v12a3 3 0 0 0 3 3h14a3 3 0 0 0 3-3V6a3 3 0 0 0-3-3H5a3 3 0 0 0-3 3Z"/>
  <path fill="#fff" d="M6.023 18.028a1.006 1.006 0 1 1-2.011-.022 1.006 1.006 0 0 1 2.01.022Zm5.876.842a.502.502 0 0 0 .546-.497 7 7 0 0 0-8.903-6.665.502.502 0 0 0-.323.664.572.572 0 0 0 .69.34 5.934 5.934 0 0 1 7.47 5.591.572.572 0 0 0 .52.567Z"/>
  <path fill="#fff" d="M8.858 19.09c.273.019.512-.188.5-.461a4.538 4.538 0 0 0-5.621-4.208c-.265.065-.397.352-.303.609.094.257.378.385.645.327a3.546 3.546 0 0 1 4.284 3.207c.02.272.223.509.495.527Z"/>
</svg>
