<svg xmlns="http://www.w3.org/2000/svg" width="24" height="24" fill="none" viewBox="0 0 24 24">
  <path fill="#000" d="M4 19V6a2 2 0 0 1 2-2h1a1 1 0 0 1 1 1 1 1 0 0 0 1 1h6a1 1 0 0 0 1-1 1 1 0 0 1 1-1h1a2 2 0 0 1 2 2v13a3 3 0 0 1-3 3H7a3 3 0 0 1-3-3Z"/>
  <path fill="#fff" d="M10.5 15.25V12.5a.5.5 0 0 0-1 0v2.75a2.75 2.75 0 1 0 5.5 0v-4.5a1.75 1.75 0 1 0-3.5 0v4.75a.5.5 0 0 0 1 0v-4.75a.75.75 0 0 1 1.5 0v4.5a1.75 1.75 0 1 1-3.5 0Z"/>
  <path fill="#000" fill-rule="evenodd" d="M8 2a1 1 0 0 0-1 1v3a1 1 0 0 0 1 1h8a1 1 0 0 0 1-1V3a1 1 0 0 0-1-1H8Zm7.125 1.5h-6.25v2h6.25v-2Z" clip-rule="evenodd"/>
</svg>
