<svg xmlns="http://www.w3.org/2000/svg" width="24" height="24" fill="none" viewBox="0 0 24 24">
  <path fill="#000" d="M12.514 11V6.75a.75.75 0 0 0-1.5 0v5.046c0 .128.062.248.166.323l2.588 1.849a.887.887 0 1 0 1.008-1.46L12.514 11Z"/>
  <path fill="#000" d="M21.256 12c.418 0 .76-.34.729-.757a10 10 0 1 0-8.74 10.68c.416-.05.68-.453.598-.864-.083-.41-.482-.672-.899-.626a8.485 8.485 0 1 1 7.52-9.19c.038.417.373.757.792.757Z"/>
  <path fill="#000" d="M19.514 16h-3.25a.75.75 0 0 1 0-1.5h4.218a1.032 1.032 0 0 1 .68 1.808L17.513 19.5h3.25a.75.75 0 0 1 0 1.5h-4.218a1.032 1.032 0 0 1-.68-1.808L19.514 16Z"/>
</svg>
