<svg xmlns="http://www.w3.org/2000/svg" width="24" height="24" fill="none" viewBox="0 0 24 24">
  <path fill="#000" d="M6.625 17.18a.75.75 0 0 1 1.299.75l-1.25 2.165a.75.75 0 0 1-1.299-.75l1.25-2.165Zm10 0a.75.75 0 0 1 1.299.75l-1.25 2.165a.75.75 0 0 1-1.299-.75l1.25-2.165Zm-5 0a.75.75 0 0 1 1.299.75l-1.25 2.165a.75.75 0 0 1-1.299-.75l1.25-2.165Zm5.285-2.059c2.258 0 4.09-1.73 4.09-3.864 0-2.133-1.832-3.863-4.09-3.863a.082.082 0 0 1-.081-.066C16.41 5.168 14.408 3.53 12 3.53S7.59 5.168 7.171 7.328a.082.082 0 0 1-.08.066C4.83 7.394 3 9.124 3 11.258c0 2.133 1.832 3.863 4.09 3.863h9.82Z"/>
</svg>
