<svg xmlns="http://www.w3.org/2000/svg" width="24" height="24" fill="none" viewBox="0 0 24 24">
  <path fill="#000" d="M3 6a3 3 0 0 1 3-3h12a3 3 0 0 1 3 3v12a3 3 0 0 1-3 3H6a3 3 0 0 1-3-3V6Z"/>
  <path fill="#fff" d="m16.03 11.71-2.596-2.494a.577.577 0 1 1 .799-.832l3.36 3.224a.543.543 0 0 1 0 .784l-3.36 3.224a.577.577 0 1 1-.8-.832l2.597-2.493a.403.403 0 0 0 0-.582Zm-8.06 0 2.596-2.494a.577.577 0 1 0-.799-.832l-3.36 3.224a.543.543 0 0 0 0 .784l3.36 3.224a.577.577 0 1 0 .8-.832L7.97 12.29a.403.403 0 0 1 0-.582Z"/>
</svg>
