<svg xmlns="http://www.w3.org/2000/svg" width="24" height="24" fill="none" viewBox="0 0 24 24">
  <path fill="#000" d="M22 12c0 5.523-4.477 10-10 10S2 17.523 2 12 6.477 2 12 2s10 4.477 10 10Z"/>
  <path fill="#fff" d="m8.707 11.293 2.586-2.586a1 1 0 0 1 1.414 0l2.586 2.586a1 1 0 0 1 0 1.414l-2.586 2.586a1 1 0 0 1-1.414 0l-2.586-2.586a1 1 0 0 1 0-1.414ZM11 3.25a.75.75 0 0 1 1.5 0v1.5a.75.75 0 0 1-1.5 0v-1.5Zm0 15.5a.75.75 0 0 1 1.5 0v2a.75.75 0 0 1-1.5 0v-2Zm6.75-13.31a.75.75 0 0 1 1.06 1.06l-1.06 1.06a.75.75 0 1 1-1.06-1.06l1.06-1.06Zm-12 0A.75.75 0 1 0 4.69 6.5l1.06 1.06A.75.75 0 0 0 6.81 6.5L5.75 5.44Zm14.75 5.31a.75.75 0 0 1 0 1.5H19a.75.75 0 0 1 0-1.5h1.5Zm-16 0a.75.75 0 0 1 0 1.5H3a.75.75 0 0 1 0-1.5h1.5Zm1.25 5.69a.75.75 0 0 1 1.06 1.06l-1.06 1.06a.75.75 0 1 1-1.06-1.06l1.06-1.06Zm12 0a.75.75 0 0 0-1.06 1.06l1.06 1.06a.75.75 0 1 0 1.06-1.06l-1.06-1.06Z"/>
</svg>
