<svg xmlns="http://www.w3.org/2000/svg" width="24" height="24" fill="none" viewBox="0 0 24 24">
  <path fill="#000" d="m3.754 8.094 7.5 4.412a.5.5 0 0 1 .246.43v8.84a.5.5 0 0 1-.754.431l-7.5-4.411A.5.5 0 0 1 3 17.365v-8.84a.5.5 0 0 1 .754-.431Zm16.493 0-7.5 4.412a.5.5 0 0 0-.247.43v8.84a.5.5 0 0 0 .754.431l7.5-4.411a.5.5 0 0 0 .246-.431v-8.84a.5.5 0 0 0-.753-.431Zm-16.46-1.88 7.97-4.428a.5.5 0 0 1 .486 0l7.97 4.428a.5.5 0 0 1 0 .874l-7.97 4.428a.5.5 0 0 1-.486 0l-7.97-4.428a.5.5 0 0 1 0-.874Z"/>
</svg>
