<svg xmlns="http://www.w3.org/2000/svg" width="24" height="24" fill="none" viewBox="0 0 24 24">
  <path fill="#000" d="m10.866 16.034-3.058.764a.5.5 0 0 1-.606-.606l.764-3.058a.5.5 0 0 1 .132-.232L17.5 3.5a2.121 2.121 0 1 1 3 3l-9.402 9.402a.5.5 0 0 1-.232.132Z"/>
  <path fill="#000" d="M4.308 2h6.942a.75.75 0 0 1 0 1.5H4.917c-.783 0-1.417.634-1.417 1.417V18.5a2 2 0 0 0 2 2h13.583c.783 0 1.417-.634 1.417-1.417V12.75a.75.75 0 0 1 1.5 0v6.942A2.308 2.308 0 0 1 19.692 22H5a3 3 0 0 1-3-3V4.308A2.308 2.308 0 0 1 4.308 2Z"/>
</svg>
