<svg xmlns="http://www.w3.org/2000/svg" width="24" height="24" fill="none" viewBox="0 0 24 24">
  <path fill="#000" d="M22 12c0 5.523-4.477 10-10 10S2 17.523 2 12 6.477 2 12 2s10 4.477 10 10Z"/>
  <path fill="#fff" d="M17 9a2 2 0 1 1-4 0 2 2 0 0 1 4 0Zm-1.07 4.935c.307.151.436.526.248.812a4.999 4.999 0 0 1-8.306.073c-.194-.282-.07-.659.234-.816.304-.156.674-.033.879.242a3.76 3.76 0 0 0 6.07-.054c.2-.278.567-.408.875-.257ZM7 8.75A.75.75 0 0 1 7.75 8h2.5a.75.75 0 0 1 0 1.5h-2.5A.75.75 0 0 1 7 8.75Z"/>
</svg>
