<svg xmlns="http://www.w3.org/2000/svg" width="24" height="24" fill="none" viewBox="0 0 24 24">
  <path fill="#000" d="M22 12c0 5.523-4.477 10-10 10S2 17.523 2 12 6.477 2 12 2s10 4.477 10 10Z"/>
  <path fill="#fff" d="M6.13 8.167c-.175.219-.177.577.017.77.659.655 1.472 1.03 2.321 1.06.849.032 1.678-.283 2.367-.89.202-.177.217-.535.053-.766-.165-.232-.446-.248-.653-.079-.514.42-1.12.637-1.74.615-.621-.023-1.217-.284-1.71-.741-.199-.184-.48-.188-.655.03Zm7 0c-.175.219-.177.577.017.77.659.655 1.472 1.03 2.321 1.06.849.032 1.678-.283 2.367-.89.202-.177.217-.535.053-.766-.165-.232-.446-.248-.653-.079-.514.42-1.12.637-1.74.615-.621-.023-1.217-.284-1.71-.741-.199-.184-.48-.188-.655.03Zm2.8 5.768c.307.151.436.526.248.812a4.999 4.999 0 0 1-8.306.073c-.194-.282-.07-.659.234-.816.304-.156.674-.033.879.242a3.76 3.76 0 0 0 6.07-.054c.2-.278.567-.408.875-.257Z"/>
</svg>
