<svg xmlns="http://www.w3.org/2000/svg" width="24" height="24" fill="none" viewBox="0 0 24 24">
  <path fill="#000" d="M3.999 19V5a3 3 0 0 1 3-3h5.757c.796 0 1.68-.064 2.243.499l4.5 4.5c.563.563.5 1.447.5 2.243v9.757a3 3 0 0 1-3 3h-10a3 3 0 0 1-3-3Z"/>
  <path fill="#fff" d="M13.999 9h6l-.002-.501-.042-.5-.094-.4H14.4V2H13v6a1 1 0 0 0 1 1Zm-7 5.75a.75.75 0 0 1 1.5 0v3.5a.75.75 0 0 1-1.5 0v-3.5Zm4-4a.75.75 0 0 1 1.5 0v7.5a.75.75 0 0 1-1.5 0v-7.5Zm4 2a.75.75 0 0 1 1.5 0v5.5a.75.75 0 0 1-1.5 0v-5.5Z"/>
</svg>
