<svg xmlns="http://www.w3.org/2000/svg" width="24" height="24" fill="none" viewBox="0 0 24 24">
  <path fill="#000" d="M19.5 5v6a1 1 0 0 1-1 1h-4a3 3 0 0 0-3 3v6a1 1 0 0 1-1 1h-4a3 3 0 0 1-3-3V5a3 3 0 0 1 3-3h10a3 3 0 0 1 3 3Z"/>
  <path fill="#fff" d="M15.5 6.25a.75.75 0 0 1-.75.75h-8.5a.75.75 0 0 1 0-1.5h8.5a.75.75 0 0 1 .75.75Zm-6 8a.75.75 0 0 1-.75.75h-2.5a.75.75 0 0 1 0-1.5h2.5a.75.75 0 0 1 .75.75Zm2-4a.75.75 0 0 1-.75.75h-4.5a.75.75 0 0 1 0-1.5h4.5a.75.75 0 0 1 .75.75Z"/>
  <path fill="#000" fill-rule="evenodd" d="M18.98 18.688a3 3 0 1 0-.693.721l1.36 1.359a.5.5 0 0 0 .707-.707l-1.373-1.373Zm-2.48.298a1.986 1.986 0 1 1 0-3.972 1.986 1.986 0 0 1 0 3.972Z" clip-rule="evenodd"/>
</svg>
