<svg xmlns="http://www.w3.org/2000/svg" width="24" height="24" fill="none" viewBox="0 0 24 24">
  <path fill="#000" d="M3.998 19.001v-14a3 3 0 0 1 3-3h5.757c.796 0 1.68-.063 2.243.5l4.5 4.5c.563.563.5 1.447.5 2.243V19a3 3 0 0 1-3 3h-10a3 3 0 0 1-3-3Z"/>
  <path fill="#fff" d="M13.998 9.001h6v-1.4h-5.6v-5.6h-1.4v6a1 1 0 0 0 1 1Zm.955 2.53a.75.75 0 0 0-1.06 0l-1.77 1.769-1.767-1.768a.75.75 0 0 0-1.06 1.061l1.767 1.768-1.768 1.768a.75.75 0 0 0 1.06 1.06l1.768-1.767 1.768 1.767a.75.75 0 0 0 1.061-1.06l-1.768-1.768 1.768-1.768a.75.75 0 0 0 0-1.06Z"/>
</svg>
