<svg xmlns="http://www.w3.org/2000/svg" width="24" height="24" fill="none" viewBox="0 0 24 24">
  <path fill="#000" d="M20 7v9a3 3 0 0 1-3 3 2 2 0 0 1-2 2H7a3 3 0 0 1-3-3V8a3 3 0 0 1 3-3 2 2 0 0 1 2-2h7l4 4Z"/>
  <path fill="#fff" d="M16 6V3h-1v4a1 1 0 0 0 1 1h4V7h-3a1 1 0 0 1-1-1ZM6.5 18.5V5h1v13a.5.5 0 0 0 .5.5h9v1H7.5a1 1 0 0 1-1-1Z"/>
  <path fill="#fff" d="M10 10.75a.75.75 0 0 1 .75-.75h4.5a.75.75 0 0 1 0 1.5h-4.5a.75.75 0 0 1-.75-.75Zm0 3a.75.75 0 0 1 .75-.75h4.5a.75.75 0 0 1 0 1.5h-4.5a.75.75 0 0 1-.75-.75Z"/>
</svg>
