<svg xmlns="http://www.w3.org/2000/svg" width="24" height="24" fill="none" viewBox="0 0 24 24">
  <path fill="#fff" d="m12.025 11.45.575-.575a1.627 1.627 0 0 1 2.3 2.3l-2.875 2.875-2.875-2.875a1.626 1.626 0 0 1 2.3-2.3l.575.575Z"/>
  <path fill="#000" d="M4 19V5a3 3 0 0 1 3-3h5.757a3 3 0 0 1 2.122.879L19.12 7.12A3 3 0 0 1 20 9.243V19a3 3 0 0 1-3 3H7a3 3 0 0 1-3-3Z"/>
  <path fill="#fff" d="M14 9h6V7.6h-5.6V2H13v6a1 1 0 0 0 1 1Z"/>
  <path fill="#fff" d="M14.4 4.251V2.32L20 7.6h-2.066L14.4 4.251Zm-2.943 7.785a.1.1 0 0 0 .142 0l.535-.534a1.712 1.712 0 0 1 2.421 2.42l-2.956 2.957a.1.1 0 0 1-.142 0l-2.956-2.956a1.712 1.712 0 0 1 2.422-2.421l.534.534Z"/>
</svg>
