<svg xmlns="http://www.w3.org/2000/svg" width="24" height="24" fill="none" viewBox="0 0 24 24">
  <path fill="#000" d="M19 14.75v4.75a.5.5 0 0 0 1 0v-4.75a2.75 2.75 0 1 0-5.5 0v4.5a1.75 1.75 0 1 0 3.5 0V14.5a.5.5 0 0 0-1 0v4.75a.75.75 0 0 1-1.5 0v-4.5a1.75 1.75 0 1 1 3.5 0Z"/>
  <path fill="#000" d="M4 5v14a3 3 0 0 0 3 3h5a1 1 0 0 0 1-1v-7a3 3 0 0 1 3-3h3a1 1 0 0 0 1-1V5a3 3 0 0 0-3-3H7a3 3 0 0 0-3 3Z"/>
  <path fill="#fff" d="M16 7.25a.75.75 0 0 1-.75.75h-8.5a.75.75 0 0 1 0-1.5h8.5a.75.75 0 0 1 .75.75Zm-6 8a.75.75 0 0 1-.75.75h-2.5a.75.75 0 0 1 0-1.5h2.5a.75.75 0 0 1 .75.75Zm2-4a.75.75 0 0 1-.75.75h-4.5a.75.75 0 0 1 0-1.5h4.5a.75.75 0 0 1 .75.75Z"/>
</svg>
