<svg xmlns="http://www.w3.org/2000/svg" width="24" height="24" fill="none" viewBox="0 0 24 24">
  <path fill="#000" d="M5.514 10.2a.519.519 0 0 1-.409-.194.492.492 0 0 1-.036-.555C5.718 8.38 7.692 5.875 12 5.875c1.867 0 3.504.486 4.864 1.443 1.12.786 1.747 1.675 2.046 2.103a.491.491 0 0 1-.135.693.527.527 0 0 1-.715-.133c-.54-.77-2.19-3.114-6.06-3.114-3.779 0-5.487 2.157-6.043 3.082a.503.503 0 0 1-.444.251Z"/>
  <path fill="#000" d="M14.171 20a.517.517 0 0 1-.127-.014c-3.126-.767-4.293-3.861-4.34-3.99l-.007-.028c-.026-.09-.653-2.211.31-3.454.44-.566 1.112-.857 1.998-.857.824 0 1.419.254 1.827.779.337.428.471.957.602 1.466.273 1.061.47 1.618 1.608 1.675.5.025.828-.264 1.014-.51.503-.672.59-1.767.211-2.734-.487-1.247-2.217-3.6-5.266-3.6-1.302 0-2.499.415-3.458 1.193a5.486 5.486 0 0 0-1.726 2.492c-.562 1.743.175 4.482.182 4.507a.49.49 0 0 1-.186.526.502.502 0 0 1-.18.082.523.523 0 0 1-.63-.353c-.034-.125-.821-3.047-.172-5.06a6.419 6.419 0 0 1 6.17-4.383c1.518 0 2.95.51 4.147 1.475.926.75 1.683 1.757 2.079 2.764.503 1.286.368 2.729-.343 3.672-.474.628-1.15.957-1.897.921-1.947-.096-2.297-1.443-2.552-2.425-.263-1.007-.43-1.493-1.434-1.493-.55 0-.937.15-1.178.461-.328.425-.353 1.09-.317 1.571.024.336.082.669.172.993.08.2 1.123 2.734 3.621 3.347a.506.506 0 0 1 .313.225.493.493 0 0 1 .057.378.512.512 0 0 1-.498.374Z"/>
  <path fill="#000" d="M10.16 19.771a.527.527 0 0 1-.376-.157c-1.25-1.3-1.958-2.753-2.224-4.571v-.01c-.15-1.203.069-2.907 1.141-4.078.791-.864 1.904-1.304 3.3-1.304 1.652 0 2.95.761 3.76 2.197a6.054 6.054 0 0 1 .707 2.125.5.5 0 0 1-.46.546.517.517 0 0 1-.374-.107.508.508 0 0 1-.19-.336 5.098 5.098 0 0 0-.602-1.776c-.627-1.096-1.582-1.654-2.844-1.654-1.09 0-1.944.325-2.53.967-.847.925-1.01 2.35-.895 3.293.234 1.607.857 2.886 1.959 4.028a.492.492 0 0 1 .091.547.523.523 0 0 1-.463.29Z"/>
  <path fill="#000" d="M15.922 18.34c-1.094 0-2.024-.3-2.768-.897-1.495-1.193-1.663-3.136-1.67-3.218a.506.506 0 0 1 .121-.37.516.516 0 0 1 .903.291c.004.029.154 1.618 1.306 2.534.682.539 1.593.753 2.717.628a.515.515 0 0 1 .569.44.493.493 0 0 1-.263.493.505.505 0 0 1-.19.056c-.24.028-.483.042-.725.042Zm.864-13.247C16.36 4.818 14.846 4 12 4c-2.986 0-4.503.904-4.839 1.133a.39.39 0 0 0-.062.047.496.496 0 0 0-.179.375.498.498 0 0 0 .32.46.527.527 0 0 0 .494-.058c.015-.01 1.32-.96 4.268-.96 2.946 0 4.259.946 4.273.953.09.066.199.1.31.1a.512.512 0 0 0 .474-.304.494.494 0 0 0-.273-.653Z"/>
</svg>
