<svg xmlns="http://www.w3.org/2000/svg" width="24" height="24" fill="none" viewBox="0 0 24 24">
  <path fill="#000" d="M2 6.75h17a3 3 0 0 1 3 3v8a3 3 0 0 1-3 3H5a3 3 0 0 1-3-3v-11Zm2-1v1H2v-2.5a1 1 0 0 1 1-1h7.42a1 1 0 0 1 .868.504L13 6.75h-2L9.855 5.164a1 1 0 0 0-.811-.414H5a1 1 0 0 0-1 1Z"/>
  <path fill="#fff" fill-rule="evenodd" d="M12 17.75a4 4 0 1 0 0-8 4 4 0 0 0 0 8Zm0-1.089a2.911 2.911 0 0 1-1.853-5.157l2.871 4.974a2.89 2.89 0 0 1-1.018.183Zm1.881-.689a2.911 2.911 0 0 0-2.865-4.963l2.865 4.963Z" clip-rule="evenodd"/>
</svg>
