<svg xmlns="http://www.w3.org/2000/svg" width="24" height="24" fill="none" viewBox="0 0 24 24">
  <path fill="#000" d="M2 6.75h17a3 3 0 0 1 3 3v8a3 3 0 0 1-3 3H5a3 3 0 0 1-3-3v-11Zm2-1v1H2v-2.5a1 1 0 0 1 1-1h7.42a1 1 0 0 1 .868.504L13 6.75h-2L9.855 5.164a1 1 0 0 0-.811-.414H5a1 1 0 0 0-1 1Z"/>
  <path fill="#fff" fill-rule="evenodd" d="M10 9.75a1 1 0 0 0-1 1v2a1 1 0 0 0-1 1v3a1 1 0 0 0 1 1h5a1 1 0 0 0 1-1v-3a1 1 0 0 0-1-1v-2a1 1 0 0 0-1-1h-3Zm0 1v2h3v-2h-3Zm4 3v3H9v-3h5Z" clip-rule="evenodd"/>
</svg>
