<svg xmlns="http://www.w3.org/2000/svg" width="24" height="24" fill="none" viewBox="0 0 24 24">
  <path fill="#000" d="M16.53 5H7.47a4 4 0 0 0-3.96 3.434L2.453 15.82A2.787 2.787 0 0 0 5.214 19H6.5A1.5 1.5 0 0 0 8 17.5 1.5 1.5 0 0 1 9.5 16h5a1.5 1.5 0 0 1 1.5 1.5 1.5 1.5 0 0 0 1.5 1.5h1.287a2.787 2.787 0 0 0 2.759-3.18L20.49 8.433A4 4 0 0 0 16.53 5Z"/>
  <path fill="#fff" d="M18 10a1 1 0 1 1-2 0 1 1 0 0 1 2 0Zm-2 2a1 1 0 1 1-2 0 1 1 0 0 1 2 0Zm-8 1.5a.5.5 0 1 0 1 0V12h1.5a.5.5 0 1 0 0-1H9V9.5a.5.5 0 1 0-1 0V11H6.5a.5.5 0 1 0 0 1H8v1.5Z"/>
</svg>
