<svg xmlns="http://www.w3.org/2000/svg" width="24" height="24" fill="none" viewBox="0 0 24 24">
  <path fill="#000" d="M22 12c0 5.523-4.477 10-10 10S2 17.523 2 12 6.477 2 12 2s10 4.477 10 10Z"/>
  <path fill="#fff" fill-rule="evenodd" d="M16.38 16.826C15.53 19.911 13.886 22 12 22c-1.89 0-3.535-2.097-4.385-5.192-.932.565-1.767 1.332-2.462 2.192L4 17.887a10.609 10.609 0 0 1 3.259-2.702C7.091 14.185 7 13.113 7 12c0-1.461.157-2.85.438-4.1a10.001 10.001 0 0 1-3.036-2.398L5.5 4.5c.66.771 1.45 1.46 2.334 1.967C8.73 3.774 10.262 2 12 2c1.74 0 3.271 1.776 4.167 4.471a8.552 8.552 0 0 0 2.37-1.953l1.105.932a10.002 10.002 0 0 1-3.08 2.449A18.83 18.83 0 0 1 17 12c0 1.122-.092 2.2-.263 3.208A10.62 10.62 0 0 1 20 17.945l-1.16 1.035a9.118 9.118 0 0 0-2.46-2.154Zm-.938-.484C14.745 18.986 13.464 21 12 21c-1.468 0-2.751-2.023-3.447-4.677a8.555 8.555 0 0 1 3.454-.717 8.554 8.554 0 0 1 3.435.736Zm.335-1.589c.145-.896.223-1.828.223-2.753a17.44 17.44 0 0 0-.397-3.672 10 10 0 0 1-7.206 0A17.438 17.438 0 0 0 8 12c0 .919.078 1.845.22 2.736A9.988 9.988 0 0 1 12.013 14c1.29.005 2.565.26 3.764.753Zm-7.005-7.83a8.557 8.557 0 0 0 6.456 0C14.5 4.649 13.325 3 12 3c-1.325 0-2.5 1.65-3.228 3.923Z" clip-rule="evenodd"/>
</svg>
