<svg xmlns="http://www.w3.org/2000/svg" width="24" height="24" fill="none" viewBox="0 0 24 24">
  <path fill="#000" d="M22 12c0 5.523-4.477 10-10 10S2 17.523 2 12 6.477 2 12 2s10 4.477 10 10Z"/>
  <path fill="#fff" fill-rule="evenodd" d="M16.685 15.5c-.71 3.797-2.54 6.5-4.685 6.5-2.146 0-3.976-2.703-4.685-6.5H3.098a.75.75 0 1 1 0-1.5H7.1a19.83 19.83 0 0 1 .058-4.5H3.54a.75.75 0 1 1 0-1.5h3.875C8.188 4.468 9.95 2 12 2s3.812 2.468 4.584 6h3.834a.75.75 0 1 1 0 1.5h-3.575c.102.8.157 1.637.157 2.5 0 .685-.034 1.354-.1 2h3.985a.75.75 0 1 1 0 1.5h-4.2Zm-1.045 0C15.009 18.547 13.616 21 12 21s-3.009-2.453-3.64-5.5h7.28Zm.242-1.5c.077-.66.118-1.332.118-2 0-.838-.065-1.682-.184-2.5H8.184C8.064 10.318 8 11.162 8 12c0 .668.041 1.34.118 2h7.764Zm-7.41-6h7.056C14.854 5.189 13.527 3 12 3c-1.527 0-2.854 2.189-3.528 5Z" clip-rule="evenodd"/>
</svg>
