<svg xmlns="http://www.w3.org/2000/svg" width="24" height="24" fill="none" viewBox="0 0 24 24">
  <path fill="#000" d="M22 12c0 5.523-4.477 10-10 10S2 17.523 2 12 6.477 2 12 2s10 4.477 10 10ZM3.444 12a8.556 8.556 0 1 0 17.112 0 8.556 8.556 0 0 0-17.112 0Z"/>
  <path fill="#000" d="M8 6.495v-2.75c5.63-2.189 9.588.37 11.684 2.944.719.883.007 2.056-1.131 2.056-.858 0-1.553.696-1.553 1.553v.447a2 2 0 0 1-2 2h-.5a2 2 0 0 1-2-2 2 2 0 0 0-2-2h-.25A2.25 2.25 0 0 1 8 6.495ZM18 16h3l-2.5 3.417L15 21v-2a3 3 0 0 1 3-3ZM7 13.745v-.557a2.443 2.443 0 0 0-2.443-2.443c-1.393 0-2.53 1.174-2.264 2.542.913 4.721 3.657 6.83 6.077 7.599 1.429.454 2.63-.811 2.63-2.31v-.83a2 2 0 0 0-2-2 2 2 0 0 1-2-2Z"/>
</svg>
