<svg xmlns="http://www.w3.org/2000/svg" width="24" height="24" fill="none" viewBox="0 0 24 24">
  <path fill="#000" d="M22 12c0 5.523-4.477 10-10 10S2 17.523 2 12 6.477 2 12 2s10 4.477 10 10Z"/>
  <path fill="#fff" fill-rule="evenodd" d="M8.285 15.715C8.875 19.398 10.316 22 12 22c1.684 0 3.125-2.602 3.715-6.285C19.398 15.125 22 13.684 22 12c0-1.684-2.602-3.125-6.285-3.715C15.125 4.602 13.684 2 12 2c-1.684 0-3.125 2.602-3.715 6.285C4.602 8.875 2 10.316 2 12c0 1.684 2.602 3.125 6.285 3.715Zm7.533-.72A24.16 24.16 0 0 0 16 12a24.16 24.16 0 0 0-.182-2.994c2.72.556 4.583 1.688 4.583 2.994 0 1.306-1.863 2.438-4.583 2.994Zm-.654.12c.152-.965.236-2.016.236-3.115 0-1.1-.084-2.15-.236-3.114A19.817 19.817 0 0 0 12 8.639c-1.12 0-2.188.088-3.164.247A20.117 20.117 0 0 0 8.6 12c0 1.1.084 2.15.236 3.114.976.159 2.045.246 3.164.246 1.12 0 2.188-.087 3.164-.246Zm-6.203.697c.958.122 1.98.188 3.039.188 1.06 0 2.08-.066 3.04-.188-.56 2.78-1.71 4.687-3.04 4.687s-2.48-1.907-3.04-4.687Zm-.779-.818C5.462 14.438 3.6 13.306 3.6 12c0-1.306 1.862-2.438 4.583-2.994A24.156 24.156 0 0 0 8 12c0 1.043.064 2.049.182 2.994Zm.779-6.806A24.142 24.142 0 0 1 12 8c1.06 0 2.08.066 3.04.188-.56-2.78-1.71-4.687-3.04-4.687S9.52 5.408 8.96 8.188Z" clip-rule="evenodd"/>
</svg>
