<svg xmlns="http://www.w3.org/2000/svg" width="24" height="24" fill="none" viewBox="0 0 24 24">
  <path fill="#000" d="M10.768 18.25h2v3h-2v-3Zm7-9a7 7 0 1 1-14 0 7 7 0 0 1 14 0Z"/>
  <path fill="#000" d="M5.768 21a.75.75 0 0 1 .75-.75h10.5a.75.75 0 0 1 0 1.5h-10.5a.75.75 0 0 1-.75-.75ZM18.803 3.298A10 10 0 0 1 3.956 16.57l.793-.853a.309.309 0 0 1 .428-.02A8.535 8.535 0 0 0 17.8 4.415a.308.308 0 0 1 .067-.423l.936-.693Z"/>
  <path fill="#000" d="m4.225 16.293.947.947-.94.94a.67.67 0 0 1-.948-.947l.94-.94ZM19.502 4.44l-.737-1.119 1.11-.732a.67.67 0 0 1 .738 1.118l-1.11.732Z"/>
</svg>
