<svg xmlns="http://www.w3.org/2000/svg" width="24" height="24" fill="none" viewBox="0 0 24 24">
  <path fill="#000" d="M22 12c0 5.523-4.477 10-10 10S2 17.523 2 12 6.477 2 12 2s10 4.477 10 10ZM3.444 12a8.556 8.556 0 1 0 17.112 0 8.556 8.556 0 0 0-17.112 0Z"/>
  <path fill="#000" d="m6.314 11.107-1.091-.754C3.959 9.481 3.528 7.76 4.547 6.61c3.228-3.635 8.044-4.423 10.774-3.077L14.97 6.66a3 3 0 0 1-1.654 2.355l-2.38 1.174c-.288.143-.552.33-.78.555l-.03.03a3 3 0 0 1-3.811.333Zm5.447 5.265.47-.928a1 1 0 0 1 1.26-.478l3.35 1.322a1 1 0 0 1 .461 1.49l-1.148 1.699a1 1 0 0 1-.828.44H13.36a1 1 0 0 1-.947-.68l-.707-2.093a1 1 0 0 1 .055-.772Z"/>
</svg>
