<svg xmlns="http://www.w3.org/2000/svg" width="24" height="24" fill="none" viewBox="0 0 24 24">
  <path fill="#000" d="M11.797 3.346 4.028 6.8a.5.5 0 0 0 0 .914l7.769 3.453a.5.5 0 0 0 .406 0l7.769-3.453a.5.5 0 0 0 0-.914l-7.769-3.453a.5.5 0 0 0-.406 0Z"/>
  <path fill="#000" d="M3 15.947V9.565a.5.5 0 0 1 .724-.447l8.052 4.026a.5.5 0 0 0 .448 0L16 11.256v2a1 1 0 1 0 2 0v-3l2.276-1.138a.5.5 0 0 1 .724.447v6.382a.5.5 0 0 1-.276.447l-8.5 4.25a.5.5 0 0 1-.448 0l-8.5-4.25A.5.5 0 0 1 3 15.947Z"/>
</svg>
