<svg xmlns="http://www.w3.org/2000/svg" width="24" height="24" fill="none" viewBox="0 0 24 24">
  <path fill="#000" d="M19 12a7 7 0 1 1-14 0 7 7 0 0 1 14 0Z"/>
  <path fill="#fff" d="M12.333 12.53V9.666a.667.667 0 1 0-1.333 0v3.335a.4.4 0 0 0 .203.348l2.425 1.376a.668.668 0 1 0 .642-1.171l-1.937-1.026Z"/>
  <path fill="#000" d="M8.793 4.225 8 7 6.5 8l.932-3.728A3 3 0 0 1 10.342 2h3.316a3 3 0 0 1 2.91 2.272L17.5 8 16 7l-.793-2.775a1 1 0 0 0-.961-.725H9.754a1 1 0 0 0-.961.725Zm0 15.55L8 17l-1.5-1 .932 3.728A3 3 0 0 0 10.342 22h3.316a3 3 0 0 0 2.91-2.272L17.5 16 16 17l-.793 2.775a1 1 0 0 1-.961.725H9.754a1 1 0 0 1-.961-.725Z"/>
</svg>
