<svg xmlns="http://www.w3.org/2000/svg" width="24" height="24" fill="none" viewBox="0 0 24 24">
  <path fill="#000" d="M5.997 18.62v3.595h12V18.62a3 3 0 0 0-1.08-2.305l-4.92-4.1-4.92 4.1a3 3 0 0 0-1.08 2.305Z"/>
  <path fill="#000" d="M5.997 6.636V2.214h2V6.97a1 1 0 0 0 .344.755l3.656 3.175v2.316L7.03 8.9a3 3 0 0 1-1.033-2.265Zm12 0V2.214h-2V6.97a1 1 0 0 1-.344.755L11.997 10.9v2.316L16.964 8.9a3 3 0 0 0 1.033-2.265ZM4 22.033a.75.75 0 0 1 .747-.753l14.5-.06a.75.75 0 1 1 .006 1.5l-14.5.06A.75.75 0 0 1 4 22.032Z"/>
  <path fill="#000" d="M4 1.984a.701.701 0 0 1 .698-.704l14.598-.06a.701.701 0 1 1 .006 1.402l-14.598.06A.701.701 0 0 1 4 1.984Z"/>
</svg>
