<svg xmlns="http://www.w3.org/2000/svg" width="24" height="24" fill="none" viewBox="0 0 24 24">
  <path fill="#000" d="m8.447 10.514-2.044 3.747a.5.5 0 0 0 .44.739h10.274a.5.5 0 0 0 .429-.757l-3.261-5.435a1 1 0 0 0-1.671-.067L11 11l-1.075-.807a1 1 0 0 0-1.478.322Z"/>
  <path fill="#000" fill-rule="evenodd" d="M5 2a3 3 0 0 0-3 3v14a3 3 0 0 0 3 3h14a3 3 0 0 0 3-3V5a3 3 0 0 0-3-3H5Zm.796 1.667a2 2 0 0 0-2 2v12.666a2 2 0 0 0 2 2h12.537a2 2 0 0 0 2-2V5.667a2 2 0 0 0-2-2H5.796Z" clip-rule="evenodd"/>
</svg>
