<svg xmlns="http://www.w3.org/2000/svg" width="24" height="24" fill="none" viewBox="0 0 24 24">
  <path fill="#000" d="M21 15.48v3.02a3 3 0 0 1-3 3H5l10.368-9.896a1 1 0 0 1 1.315-.058l3.942 3.154a1 1 0 0 1 .375.78ZM10.5 9a2.5 2.5 0 1 1-5 0 2.5 2.5 0 0 1 5 0Z"/>
  <path fill="#000" d="M5.038 2.5h7.712a.75.75 0 0 1 0 1.5H4.864A.864.864 0 0 0 4 4.864V19a1 1 0 0 0 1 1h13.25a.75.75 0 0 1 0 1.5H5.5a3 3 0 0 1-3-3V5.038A2.538 2.538 0 0 1 5.038 2.5Zm12.315 2.081.032 4.314a.62.62 0 0 0 .63.605.62.62 0 0 0 .632-.61V4.581l1.764 1.442a.674.674 0 0 0 1.02-.202.625.625 0 0 0-.17-.777l-3.078-2.48a.294.294 0 0 0-.366 0l-3.079 2.48a.625.625 0 0 0-.168.777c.192.37.692.47 1.019.202l1.764-1.442Z"/>
</svg>
