<svg xmlns="http://www.w3.org/2000/svg" width="24" height="24" fill="none" viewBox="0 0 24 24">
  <path fill="#000" d="M21.25 15.48v3.02a3 3 0 0 1-3 3h-13l10.368-9.896a1 1 0 0 1 1.315-.058l3.942 3.154a1 1 0 0 1 .375.78ZM10.75 9a2.5 2.5 0 1 1-5 0 2.5 2.5 0 0 1 5 0Z"/>
  <path fill="#000" d="M5.288 2.5H13A.75.75 0 0 1 13 4H5.114a.864.864 0 0 0-.864.864V19a1 1 0 0 0 1 1H18.5a.75.75 0 0 1 0 1.5H5.75a3 3 0 0 1-3-3V5.038A2.538 2.538 0 0 1 5.288 2.5ZM16.28 8.273a.75.75 0 0 1 0-1.06l3.182-3.183a.75.75 0 0 1 1.06 1.06l-3.181 3.183a.75.75 0 0 1-1.06 0Z"/>
  <path fill="#000" d="M20.523 8.273a.75.75 0 0 1-1.06 0L16.28 5.09a.75.75 0 1 1 1.06-1.06l3.183 3.181a.75.75 0 0 1 0 1.06Z"/>
</svg>
