<svg xmlns="http://www.w3.org/2000/svg" width="24" height="24" fill="none" viewBox="0 0 24 24">
  <path fill="#000" d="M8.75 10a1 1 0 0 1 1-1h4a1 1 0 0 1 1 1v4a1 1 0 0 1-1 1h-4a1 1 0 0 1-1-1v-4Zm11-7.5H15.5a.75.75 0 0 0 0 1.5h3.796c.25 0 .454.204.454.455V8.75a.75.75 0 0 0 1.5 0V4a1.5 1.5 0 0 0-1.5-1.5Zm0 19H15.5a.75.75 0 0 1 0-1.5h3.796a.455.455 0 0 0 .454-.454V15.25a.75.75 0 0 1 1.5 0V20a1.5 1.5 0 0 1-1.5 1.5Zm-15.5-19H8.5a.75.75 0 0 1 0 1.5H4.705a.455.455 0 0 0-.455.455V8.75a.75.75 0 0 1-1.5 0V4a1.5 1.5 0 0 1 1.5-1.5Zm0 19H8.5a.75.75 0 0 0 0-1.5H4.705a.455.455 0 0 1-.455-.454V15.25a.75.75 0 0 0-1.5 0V20a1.5 1.5 0 0 0 1.5 1.5Z"/>
</svg>
