<svg xmlns="http://www.w3.org/2000/svg" width="24" height="24" fill="none" viewBox="0 0 24 24">
  <path fill="#000" d="M2.75 3a.75.75 0 0 0 0 1.5h18.5a.75.75 0 0 0 0-1.5H2.75Zm0 16.5a.75.75 0 0 0 0 1.5h18.5a.75.75 0 0 0 0-1.5H2.75Zm8.542-12.14a.643.643 0 0 1 .58-.36h.008c.192 0 .373.087.492.235a.604.604 0 0 1 .072.641l-4.24 8.769a.638.638 0 0 1-.842.295.617.617 0 0 1-.3-.829l4.23-8.75Z"/>
  <path fill="#000" d="M12.715 7.373A.667.667 0 0 0 12.114 7h-.037a.6.6 0 0 0-.493.255.578.578 0 0 0-.046.583l4.257 8.807a.64.64 0 0 0 .844.295.617.617 0 0 0 .3-.829l-4.224-8.738Z"/>
  <path fill="#000" d="M8.808 13.427c0-.344.284-.622.633-.622h5.486c.35 0 .633.278.633.622a.627.627 0 0 1-.633.622H9.441a.627.627 0 0 1-.633-.622Z"/>
</svg>
