<svg xmlns="http://www.w3.org/2000/svg" width="24" height="24" fill="none" viewBox="0 0 24 24">
  <path fill="#000" d="M2.5 2.75a.75.75 0 0 1 1.5 0v18.5a.75.75 0 0 1-1.5 0V2.75Zm17.5 0a.75.75 0 0 1 1.5 0v18.5a.75.75 0 0 1-1.5 0V2.75Zm-9.058 2.684A.76.76 0 0 1 11.63 5h.01a.74.74 0 0 1 .668 1.056L7.285 16.63a.75.75 0 1 1-1.355-.643l5.012-10.553Z"/>
  <path fill="#000" d="M12.629 5.45a.789.789 0 0 0-.713-.45h-.043a.707.707 0 0 0-.639 1.01l5.045 10.62a.75.75 0 0 0 1.355-.643L12.629 5.45Z"/>
  <path fill="#000" d="M8 12.75a.75.75 0 0 1 .75-.75h6.5a.75.75 0 0 1 0 1.5h-6.5a.75.75 0 0 1-.75-.75Z"/>
</svg>
