<svg xmlns="http://www.w3.org/2000/svg" width="24" height="24" fill="none" viewBox="0 0 24 24">
  <path fill="#000" d="M17.372 12.452a5.433 5.433 0 0 1-3.637 5.12 5.47 5.47 0 0 1-1.818.309 5.47 5.47 0 0 1-1.818-.309 5.433 5.433 0 0 1-3.636-5.12c0-2.998 2.442-5.428 5.454-5.428 3.013 0 5.455 2.43 5.455 5.428Zm-6.364-7.916V3.179a.68.68 0 0 1 .682-.679.68.68 0 0 1 .682.679v1.357a.68.68 0 0 1-.682.678.68.68 0 0 1-.682-.678Zm6.846 1.213.964-.96a.684.684 0 0 1 .964 0 .676.676 0 0 1 0 .96l-.964.96a.684.684 0 0 1-.964 0 .676.676 0 0 1 0-.96Zm-11.708 0-.964-.96a.684.684 0 0 0-.965 0 .676.676 0 0 0 0 .96l.965.96a.684.684 0 0 0 .964 0 .676.676 0 0 0 0-.96Zm13.808 5.655h1.364a.68.68 0 0 1 .682.678.68.68 0 0 1-.682.679h-1.364a.68.68 0 0 1-.681-.679.68.68 0 0 1 .681-.678Zm-17.272 0h1.363a.68.68 0 0 1 .682.678.68.68 0 0 1-.682.679H2.682A.68.68 0 0 1 2 12.082a.68.68 0 0 1 .682-.678Z"/>
  <path fill="#000" fill-rule="evenodd" d="M14.645 12.452H9.19v6.334a2.72 2.72 0 0 0 2.727 2.714 2.72 2.72 0 0 0 2.728-2.714v-6.334Zm-.91.905H10.1v5.429c0 1 .814 1.81 1.818 1.81s1.818-.81 1.818-1.81v-5.429Z" clip-rule="evenodd"/>
</svg>
