<svg xmlns="http://www.w3.org/2000/svg" width="24" height="24" fill="none" viewBox="0 0 24 24">
  <path fill="#000" d="M13.03 3.192 9.963 6.259a1.031 1.031 0 1 0 1.458 1.458l3.168-3.167a3.437 3.437 0 1 1 4.86 4.861l-3.167 3.168a1.031 1.031 0 1 0 1.459 1.458l3.067-3.067a5.369 5.369 0 0 0 0-7.593l-.185-.185a5.369 5.369 0 0 0-7.593 0Zm-9.8 9.8 3.19-3.19a1.031 1.031 0 0 1 1.458 1.458l-3.347 3.347a3.437 3.437 0 1 0 4.862 4.861l3.347-3.346a1.031 1.031 0 0 1 1.458 1.458l-3.19 3.19a5.5 5.5 0 1 1-7.778-7.778Z"/>
  <path fill="#000" d="M15.24 7.102a1 1 0 1 1 1.414 1.415l-9.192 9.192a1 1 0 1 1-1.414-1.414l9.192-9.193Z"/>
</svg>
