<svg xmlns="http://www.w3.org/2000/svg" width="24" height="24" fill="none" viewBox="0 0 24 24">
  <path fill="#000" d="M15.742 13.033a.433.433 0 0 1 .401-.129c2.023.415 3.684 1.121 4.717 2.01 1.073.921 1.402 1.983.93 3.002-.47 1.02-1.712 1.934-3.513 2.587-1.801.654-4.05 1.006-6.364.997-2.313-.01-4.548-.379-6.324-1.046-1.775-.668-2.982-1.591-3.413-2.614-.432-1.023-.062-2.082 1.046-2.996 1.067-.88 2.754-1.572 4.792-1.971a.43.43 0 0 1 .402.136c.228.254.09.662-.242.742-1.41.336-2.577.852-3.348 1.487-.905.747-1.207 1.612-.855 2.448.353.836 1.34 1.591 2.79 2.136 1.451.546 3.278.848 5.168.855 1.89.008 3.729-.28 5.2-.814 1.472-.534 2.487-1.281 2.872-2.114.385-.833.116-1.7-.76-2.454-.742-.638-1.88-1.161-3.267-1.508-.336-.085-.47-.502-.232-.754ZM15 5.5a3 3 0 1 1-6 0 3 3 0 0 1 6 0Z"/>
  <path fill="#000" d="M11.305 8.25a.75.75 0 0 1 1.5 0v8.5a.75.75 0 0 1-1.5 0v-8.5Z"/>
</svg>
