<svg xmlns="http://www.w3.org/2000/svg" width="24" height="24" fill="none" viewBox="0 0 24 24">
  <path fill="#000" d="M21 12a9 9 0 1 1-18 0 9 9 0 0 1 18 0Z"/>
  <path fill="#fff" d="M16 12a4 4 0 1 1-8 0 4 4 0 0 1 8 0Zm-6.444 0a2.444 2.444 0 1 0 4.888 0 2.444 2.444 0 0 0-4.888 0Z"/>
  <path fill="#000" d="M11 1.75a.75.75 0 0 1 1.5 0v2.5a.75.75 0 0 1-1.5 0v-2.5Zm0 18a.75.75 0 0 1 1.5 0v2.5a.75.75 0 0 1-1.5 0v-2.5ZM1.75 12.5a.75.75 0 0 1 0-1.5h2.5a.75.75 0 0 1 0 1.5h-2.5Zm18 0a.75.75 0 0 1 0-1.5h2.5a.75.75 0 0 1 0 1.5h-2.5Z"/>
</svg>
