<svg xmlns="http://www.w3.org/2000/svg" width="24" height="24" fill="none" viewBox="0 0 24 24">
  <path fill="#000" d="m22.341 11.84-2.633-2.633a.707.707 0 1 0-1 1L20.5 12l-1.793 1.793a.707.707 0 0 0 1 1l2.634-2.634a.225.225 0 0 0 0-.318Zm-20.681 0 2.633-2.633a.707.707 0 0 1 1 1L3.501 12l1.792 1.793a.707.707 0 0 1-1 1L1.66 12.159a.225.225 0 0 1 0-.318Zm10.488-9.71 3.034 2.698a.67.67 0 0 1-.865 1.025L12 4 9.684 5.853a.67.67 0 0 1-.865-1.025l3.034-2.697a.222.222 0 0 1 .295 0Zm0 19.74 3.034-2.698a.67.67 0 0 0-.865-1.025L12 20l-2.317-1.853a.67.67 0 0 0-.865 1.025l3.034 2.697c.084.075.21.075.295 0Z"/>
  <path fill="#000" d="M11.232 4.25a.75.75 0 0 1 1.5 0v15.5a.75.75 0 0 1-1.5 0V4.25Z"/>
  <path fill="#000" d="M4.25 12.734a.75.75 0 1 1 0-1.5h15.5a.75.75 0 0 1 0 1.5H4.25Z"/>
</svg>
