<svg xmlns="http://www.w3.org/2000/svg" width="24" height="24" fill="none" viewBox="0 0 24 24">
  <path fill="#000" d="M19.377 19.69h.834a2.338 2.338 0 0 0 2.338-2.338v-1.016c0-.99-.52-1.907-1.369-2.416a17.839 17.839 0 0 0-17.814-.304l-.397.22a2.94 2.94 0 0 0-1.51 2.768l.07 1.04a2.38 2.38 0 0 0 2.558 2.215l.628-.048a1.7 1.7 0 0 0 1.57-1.696 1.7 1.7 0 0 1 1.197-1.625l1.059-.328a13 13 0 0 1 6.71-.264l1.313.297c.79.178 1.32.922 1.231 1.728a1.591 1.591 0 0 0 1.582 1.767Zm-.804-11.684c.368-.226.459-.723.162-1.036a8.898 8.898 0 0 0-2.697-1.922 9.915 9.915 0 0 0-4.18-.914c-1.456 0-2.89.314-4.179.916a8.895 8.895 0 0 0-2.695 1.923c-.297.313-.206.81.161 1.036.315.193.722.116.975-.153a7.4 7.4 0 0 1 2.26-1.619 8.253 8.253 0 0 1 3.479-.762c1.211 0 2.405.26 3.479.76a7.401 7.401 0 0 1 2.261 1.619c.253.268.66.345.974.152Z"/>
  <path fill="#000" d="M15.27 9.501a.607.607 0 0 0-.332-.825 9 9 0 0 0-6.64.193.607.607 0 0 0-.284.843c.163.314.548.434.875.298a7.718 7.718 0 0 1 5.525-.16c.334.117.712-.026.856-.349Z"/>
</svg>
