<svg xmlns="http://www.w3.org/2000/svg" width="24" height="24" fill="none" viewBox="0 0 24 24">
  <path fill="#000" d="m8.788 4.938-.543-.543a2.2 2.2 0 0 0-3.292.205l-.81 1.04a3 3 0 0 0-.315 3.184l1.655 3.31a.955.955 0 0 0 1.41.35l1.287-.92a1.516 1.516 0 0 0 .303-2.18l-.055-.07a1.512 1.512 0 0 1 .236-2.126 1.512 1.512 0 0 0 .124-2.25Zm10.869 10.63-.509-.436a1.657 1.657 0 0 0-2.25.086 1.657 1.657 0 0 1-2.024.25l-3.891-2.335-3 2.5 3.769 2.638c.818.573 1.7 1.05 2.627 1.42l1.631.653a3 3 0 0 0 3.372-.81l.517-.59a2.38 2.38 0 0 0-.242-3.376Z"/>
  <path fill="#000" d="M17.985 3.697a.75.75 0 0 1 1.129.989L5.605 20.106a.75.75 0 1 1-1.128-.989l13.508-15.42Z"/>
</svg>
