<svg xmlns="http://www.w3.org/2000/svg" width="24" height="24" fill="none" viewBox="0 0 24 24">
  <path fill="#000" d="M14.677 19.524c.182.521-.091 1.098-.63 1.222A9 9 0 1 1 11.035 3.03c.55-.06.998.393.998.945l-.005 7.83c0 .113.02.225.057.331l2.593 7.388Z"/>
  <path fill="#000" d="M15.984 18.32c.233.5.832.723 1.3.429a8 8 0 0 0 3.674-5.725c.073-.547-.378-1-.93-1.003l-5.42-.035a1 1 0 0 0-.913 1.422l2.289 4.912Zm4.043-7.345c.553 0 1.007-.45.938-.997a8 8 0 0 0-6.94-6.94c-.548-.07-.998.385-.998.937v6a1 1 0 0 0 1 1h6Z"/>
</svg>
