<svg xmlns="http://www.w3.org/2000/svg" width="24" height="24" fill="none" viewBox="0 0 24 24">
  <path fill="#000" d="m14.986 15.069-1.462 5.116a1 1 0 0 1-1.669.433l-8.18-8.181a1 1 0 0 1 .37-1.65l5.3-1.892a1 1 0 0 0 .37-.235l1.727-1.726a1 1 0 0 0 .187-.26l1.807-3.614a1 1 0 0 1 1.602-.26l6.113 6.114a1 1 0 0 1-.192 1.564l-3.797 2.278c-.07.042-.134.093-.192.15l-1.73 1.73c-.12.12-.208.27-.255.433Z"/>
  <path fill="#000" d="M8.078 14.91a.75.75 0 1 1 1.06 1.06l-5.303 5.303a.75.75 0 1 1-1.06-1.06l5.303-5.304Z"/>
</svg>
