<svg xmlns="http://www.w3.org/2000/svg" width="24" height="24" fill="none" viewBox="0 0 24 24">
  <path fill="#000" d="M3 13V3.5h18V13a3 3 0 0 1-3 3H6a3 3 0 0 1-3-3ZM2 2.75A.75.75 0 0 1 2.75 2h18.5a.75.75 0 0 1 0 1.5H2.75A.75.75 0 0 1 2 2.75Z"/>
  <path fill="#fff" d="M7 6.75a.75.75 0 0 1 1.5 0v5.5a.75.75 0 0 1-1.5 0v-5.5Zm4 2a.75.75 0 0 1 1.5 0v3.5a.75.75 0 0 1-1.5 0v-3.5Zm4 2a.75.75 0 0 1 1.5 0v1.5a.75.75 0 0 1-1.5 0v-1.5Z"/>
  <path fill="#000" d="M6.207 20.793 11 16h2l4.793 4.793a.707.707 0 0 1-1 1L13 18v3a1 1 0 1 1-2 0v-3l-3.793 3.793a.707.707 0 0 1-1-1Z"/>
</svg>
