<svg xmlns="http://www.w3.org/2000/svg" width="24" height="24" fill="none" viewBox="0 0 24 24">
  <path fill="#000" d="M9.543 4.428c.863-2.255 4.053-2.255 4.915 0a2.63 2.63 0 0 0 2.872 1.658c2.384-.381 3.98 2.382 2.457 4.256a2.63 2.63 0 0 0 0 3.316c1.522 1.875-.073 4.637-2.457 4.256a2.63 2.63 0 0 0-2.872 1.659c-.862 2.255-4.052 2.255-4.915 0a2.63 2.63 0 0 0-2.872-1.659c-2.384.381-3.979-2.382-2.457-4.256a2.63 2.63 0 0 0 0-3.316c-1.522-1.874.073-4.637 2.457-4.256a2.63 2.63 0 0 0 2.872-1.658Z"/>
  <path fill="#fff" d="M15 12a3 3 0 1 1-6 0 3 3 0 0 1 6 0Z"/>
</svg>
