<svg xmlns="http://www.w3.org/2000/svg" width="24" height="24" fill="none" viewBox="0 0 24 24">
  <path fill="#000" d="M3 7.5h18v12a3 3 0 0 1-3 3H6a3 3 0 0 1-3-3v-12Z"/>
  <path fill="#fff" d="M15.995 12.12a.61.61 0 0 1 .592.699 5.406 5.406 0 0 1-.301 1.214 5.061 5.061 0 0 1-.984 1.622 4.538 4.538 0 0 1-1.473 1.084c-.55.251-1.14.38-1.737.38a4.183 4.183 0 0 1-1.737-.38 4.537 4.537 0 0 1-1.472-1.084 5.062 5.062 0 0 1-.984-1.622 5.404 5.404 0 0 1-.301-1.214c-.05-.384.24-.7.592-.7.351 0 .63.317.698.697.042.233.104.46.187.68.164.436.405.833.708 1.167.303.334.663.6 1.06.78.396.18.82.274 1.25.274.428 0 .853-.093 1.249-.274.396-.18.756-.446 1.06-.78a3.64 3.64 0 0 0 .707-1.167c.083-.22.145-.447.187-.68.068-.38.347-.697.699-.697Z"/>
  <path fill="#000" fill-rule="evenodd" d="M7.236 1.5a2 2 0 0 0-1.789 1.106L3 7.5h18l-2.447-4.894a2 2 0 0 0-1.79-1.106H7.237Zm.382 1a1 1 0 0 0-.894.553L5 6.5h14l-1.724-3.447a1 1 0 0 0-.894-.553H7.618Z" clip-rule="evenodd"/>
</svg>
