<svg xmlns="http://www.w3.org/2000/svg" width="24" height="24" fill="none" viewBox="0 0 24 24">
  <path fill="#000" d="M15 10.252a3 3 0 1 1-6 0 3 3 0 0 1 6 0Z"/>
  <path fill="#000" d="M11.5 13.002a.75.75 0 0 1 1.5 0v7.5a.75.75 0 1 1-1.5 0v-7.5Zm6.682 4.888c.24.352.72.446 1.053.18a10 10 0 0 0 .58-15.136c-.311-.29-.798-.233-1.063.1-.265.333-.208.815.1 1.11a8.46 8.46 0 0 1-.485 12.647c-.33.27-.424.747-.185 1.099Z"/>
  <path fill="#000" d="M16.423 14.858c.28.174.645.13.858-.12 1.1-1.3 1.7-2.835 1.719-4.412.018-1.576-.546-3.117-1.614-4.432a.664.664 0 0 0-.86-.137c-.385.23-.457.755-.195 1.119.75 1.04 1.142 2.227 1.128 3.438-.014 1.213-.435 2.395-1.21 3.426-.268.357-.206.883.174 1.118ZM5.818 17.89c-.24.352-.72.446-1.053.18a10 10 0 0 1-.58-15.136c.311-.29.798-.233 1.063.1.265.333.208.815-.1 1.11a8.46 8.46 0 0 0 .485 12.647c.33.27.424.747.185 1.099Z"/>
  <path fill="#000" d="M7.577 14.858a.662.662 0 0 1-.858-.12c-1.1-1.3-1.7-2.835-1.719-4.412-.018-1.576.546-3.117 1.614-4.432a.664.664 0 0 1 .86-.137c.385.23.457.755.195 1.119-.75 1.04-1.142 2.227-1.128 3.438.014 1.213.435 2.395 1.21 3.426.268.357.206.883-.174 1.118Z"/>
</svg>
