<svg xmlns="http://www.w3.org/2000/svg" width="24" height="24" fill="none" viewBox="0 0 24 24">
  <path fill="#000" d="m6.25 16.842-1.06 1.06a.75.75 0 1 0 1.06 1.061l1.06-1.06a.75.75 0 0 0-1.06-1.061ZM20 13.506h1.5a.75.75 0 1 0 0-1.5H20a.75.75 0 0 0 0 1.5Zm-7.25-8.75v-1.5a.75.75 0 0 0-1.5 0v1.5a.75.75 0 0 0 1.5 0Zm3.836 13.75 1.06 1.061a.75.75 0 0 0 1.061-1.06l-1.06-1.061a.75.75 0 1 0-1.061 1.06ZM4 11.506H2.5a.75.75 0 0 0 0 1.5H4a.75.75 0 1 0 0-1.5Zm13.988-3.848 1.06-1.06a.75.75 0 0 0-1.06-1.061l-1.061 1.06a.75.75 0 1 0 1.06 1.061Zm-7.001 11.586v1.5a.75.75 0 0 0 1.5 0v-1.5a.75.75 0 1 0-1.5 0Zm5.763-7.238a5 5 0 1 1-10 0 5 5 0 0 1 10 0ZM7.402 6.244 6.34 5.183a.75.75 0 0 0-1.06 1.06l1.06 1.061a.75.75 0 0 0 1.06-1.06Z"/>
</svg>
