<svg xmlns="http://www.w3.org/2000/svg" width="24" height="24" fill="none" viewBox="0 0 24 24">
  <path fill="#000" d="M12.448 4.134a.5.5 0 0 1 .926 0l2.067 5.062a.5.5 0 0 0 .274.274l5.062 2.067a.5.5 0 0 1 0 .926l-5.062 2.067a.5.5 0 0 0-.274.274l-2.067 5.062a.5.5 0 0 1-.926 0l-2.067-5.062a.5.5 0 0 0-.274-.274l-5.062-2.067a.5.5 0 0 1 0-.926l5.062-2.067a.5.5 0 0 0 .274-.274l2.067-5.062ZM4.911 19h-1.5a.5.5 0 0 0 0 1h1.5v1.5a.5.5 0 0 0 1 0V20h1.5a.5.5 0 0 0 0-1h-1.5v-1.5a.5.5 0 0 0-1 0V19Zm0-15h-1.5a.5.5 0 0 0 0 1h1.5v1.5a.5.5 0 0 0 1 0V5h1.5a.5.5 0 1 0 0-1h-1.5V2.5a.5.5 0 1 0-1 0V4Z"/>
</svg>
