<svg xmlns="http://www.w3.org/2000/svg" width="24" height="24" fill="none" viewBox="0 0 24 24">
  <path fill="#000" d="M11.592 3.578a.5.5 0 0 1 .816 0l2.009 2.843a.5.5 0 0 0 .438.211l3.475-.202a.5.5 0 0 1 .51.638l-.971 3.344a.5.5 0 0 0 .108.473l2.325 2.59a.5.5 0 0 1-.182.797l-3.22 1.326a.5.5 0 0 0-.302.38l-.576 3.433a.5.5 0 0 1-.736.354l-3.043-1.69a.5.5 0 0 0-.486 0l-3.043 1.69a.5.5 0 0 1-.736-.354l-.576-3.434a.5.5 0 0 0-.303-.38L3.88 14.273a.5.5 0 0 1-.182-.796l2.325-2.591a.5.5 0 0 0 .109-.473L5.16 7.068a.5.5 0 0 1 .51-.638l3.475.202a.5.5 0 0 0 .437-.21l2.009-2.844Z"/>
</svg>
