<svg xmlns="http://www.w3.org/2000/svg" width="24" height="24" fill="none" viewBox="0 0 24 24">
  <path fill="#000" d="M3.91 20.625a.75.75 0 0 1 .75-.75h14.5a.75.75 0 0 1 0 1.5H4.66a.75.75 0 0 1-.75-.75Zm-2-4a.75.75 0 0 1 .75-.75h18.5a.75.75 0 0 1 0 1.5H2.66a.75.75 0 0 1-.75-.75Zm0-4a.75.75 0 0 1 .75-.75h1.5a.75.75 0 0 1 0 1.5h-1.5a.75.75 0 0 1-.75-.75Zm20.181 0a.75.75 0 0 0-.75-.75h-1.5a.75.75 0 0 0 0 1.5h1.5a.75.75 0 0 0 .75-.75ZM4.44 5.405a.75.75 0 0 1 1.06 0l1.06 1.061a.75.75 0 1 1-1.06 1.06l-1.06-1.06a.75.75 0 0 1 0-1.06Zm15.12 0a.75.75 0 0 0-1.06 0l-1.06 1.061a.75.75 0 1 0 1.06 1.06l1.06-1.06a.75.75 0 0 0 0-1.06Zm-7.778-2.78a.75.75 0 0 1 .75.75v1.5a.75.75 0 0 1-1.5 0v-1.5a.75.75 0 0 1 .75-.75Zm5.128 11.25a5 5 0 0 0-10 0h10Z"/>
</svg>
