<svg xmlns="http://www.w3.org/2000/svg" width="24" height="24" fill="none" viewBox="0 0 24 24">
  <path fill="#000" d="M16.491 3a.75.75 0 0 1 .75.75v14.5a.75.75 0 0 1-1.5 0V3.75a.75.75 0 0 1 .75-.75Zm-9 18a.75.75 0 0 0 .75-.75V5.75a.75.75 0 0 0-1.5 0v14.5c0 .414.336.75.75.75Z"/>
  <path fill="#000" d="m20.292 17.207-3.594 3.594a.281.281 0 0 1-.397 0l-3.594-3.594a.707.707 0 1 1 1-1L16.5 19l2.792-2.793a.707.707 0 1 1 1 1Zm-9-10.414L7.698 3.199a.281.281 0 0 0-.397 0L3.707 6.793a.707.707 0 0 0 1 1L7.499 5l2.793 2.793a.707.707 0 1 0 1-1Z"/>
</svg>
