<svg xmlns="http://www.w3.org/2000/svg" width="24" height="24" fill="none" viewBox="0 0 24 24">
  <path fill="#000" d="M15 12a3 3 0 1 1-6 0 3 3 0 0 1 6 0Z"/>
  <path fill="#000" d="M20 12a8 8 0 1 1-16 0 8 8 0 0 1 16 0ZM5.4 12a6.6 6.6 0 1 0 13.2 0 6.6 6.6 0 0 0-13.2 0Z"/>
  <path fill="#000" d="M11 2.75a.75.75 0 0 1 1.5 0v3.5a.75.75 0 0 1-1.5 0v-3.5ZM21.25 11a.75.75 0 0 1 0 1.5h-3.5a.75.75 0 0 1 0-1.5h3.5Zm-15 0a.75.75 0 0 1 0 1.5h-3.5a.75.75 0 0 1 0-1.5h3.5ZM11 17.75a.75.75 0 0 1 1.5 0v3.5a.75.75 0 0 1-1.5 0v-3.5Z"/>
</svg>
