<svg xmlns="http://www.w3.org/2000/svg" width="24" height="24" fill="none" viewBox="0 0 24 24">
  <path fill="#000" d="M14.25 22.25h-4.5a.75.75 0 0 1 0-1.5h4.5a.75.75 0 0 1 0 1.5Zm6.25-10.5h-17v5a3 3 0 0 0 3 3h11a3 3 0 0 0 3-3v-5ZM5 6.75v5H3.5v-5.5a2 2 0 0 1 2-2h13a2 2 0 0 1 2 2v5.5H19v-5a1 1 0 0 0-1-1H6a1 1 0 0 0-1 1Z"/>
  <path fill="#fff" d="M10 15.25a1.5 1.5 0 1 1-3 0 1.5 1.5 0 0 1 3 0Zm7 0a1.5 1.5 0 1 1-3 0 1.5 1.5 0 0 1 3 0Z"/>
  <path fill="#000" d="m4.985 20.78.83-1.66a.67.67 0 0 1 1.2.6l-.83 1.66a.67.67 0 0 1-1.2-.6Zm14.03 0-.83-1.66a.67.67 0 0 0-1.2.6l.83 1.66a.67.67 0 0 0 1.2-.6ZM11.5 3.568V5.25h2V3.568c0-.176.143-.318.318-.318h2.432a.75.75 0 0 0 0-1.5h-7.5a.75.75 0 0 0 0 1.5h2.432c.175 0 .318.142.318.318Z"/>
</svg>
