<svg xmlns="http://www.w3.org/2000/svg" width="24" height="24" fill="none" viewBox="0 0 24 24">
  <path fill="#000" d="M2.864 16.876c5.522-4.14 7.14-8.484 7.318-10.756.032-.405.353-.751.759-.751.403 0 .723.343.673.742-.768 6.16-5.393 10.137-7.951 11.932a.69.69 0 0 1-.885-.083.72.72 0 0 1 .086-1.084Z"/>
  <path fill="#000" d="M9.91 15.268c-3.654-.655-5.167-3.597-5.6-5.591-.093-.431.254-.808.695-.808.387 0 .706.295.78.675.562 2.926 2.694 4.004 4.187 4.26.392.067.715.386.715.784 0 .42-.362.754-.776.68ZM2.187 5.119a.75.75 0 0 1 .75-.75h12.5a.75.75 0 0 1 0 1.5h-12.5a.75.75 0 0 1-.75-.75Z"/>
  <path fill="#000" d="M7.187 3.119a.75.75 0 0 1 1.5 0v1.5a.75.75 0 1 1-1.5 0v-1.5Zm8.398 7.535a.993.993 0 0 1 1.602-.285L12.33 21.19a.745.745 0 1 1-1.355-.62l4.61-9.917Z"/>
  <path fill="#000" d="M17.392 10.572a.88.88 0 1 0-1.604.72l4.58 9.887a.758.758 0 0 0 1.382-.622l-4.358-9.985Z"/>
  <path fill="#000" d="M13.187 16.369h6v1.5h-6v-1.5Z"/>
</svg>
