<svg xmlns="http://www.w3.org/2000/svg" width="24" height="24" fill="none" viewBox="0 0 24 24">
  <path fill="#000" d="m7.986 6 .028-1.5c0-1.657 1.315-2.5 2.972-2.5h2c1.657 0 2.962 1.017 2.962 2.517L15.986 6h3v13a3 3 0 0 1-3 3h-8a3 3 0 0 1-3-3V6h3Z"/>
  <path fill="#000" d="M2.986 5.25a.75.75 0 0 1 .75-.75h4.278L7.986 6h-4.25a.75.75 0 0 1-.75-.75Zm18.028 0a.75.75 0 0 0-.75-.75h-4.317l.04 1.5h4.277a.75.75 0 0 0 .75-.75Z"/>
  <path fill="#fff" d="M8.986 10.75a.75.75 0 0 1 1.5 0v4.5a.75.75 0 0 1-1.5 0v-4.5Zm4 0a.75.75 0 0 1 1.5 0v4.5a.75.75 0 0 1-1.5 0v-4.5Z"/>
</svg>
