<svg xmlns="http://www.w3.org/2000/svg" width="24" height="24" fill="none" viewBox="0 0 24 24">
  <path fill="color(display-p3 .0208 .0208 .0208)" d="M8.75 18.75a2.5 2.5 0 1 1-5 0 2.5 2.5 0 0 1 5 0Zm11 0a2.5 2.5 0 1 1-5 0 2.5 2.5 0 0 1 5 0Z"/>
  <path fill="#000" d="M16.699 7.614h-.449V6.25h1.39a1 1 0 0 1 .695.28l4.11 3.97a1 1 0 0 1 .305.72v5.53h-6.5v-1.864h5.088V12.13a1 1 0 0 0-.305-.72l-3.64-3.515a1 1 0 0 0-.694-.28ZM15.25 2.75H2.75a1.5 1.5 0 0 0-1.5 1.5h13.5v11h-6.5v1.5h8v-13a1 1 0 0 0-1-1Z"/>
  <path fill="#000" d="M1.25 15.75V4.25h1.5v11h5.5v1.5h-6a1 1 0 0 1-1-1Z"/>
</svg>
