<svg xmlns="http://www.w3.org/2000/svg" width="24" height="24" fill="none" viewBox="0 0 24 24">
  <path fill="#000" d="M13.25 7.866a4 4 0 1 1-8 0 4 4 0 0 1 8 0Zm2.26 2.07c.143.348.545.52.864.32a4 4 0 0 0-.577-7.078c-.347-.146-.716.088-.801.455-.085.367.15.725.484.9a2.638 2.638 0 0 1 .361 4.436c-.3.227-.474.62-.331.967Zm-12.26 7.93v2a1 1 0 0 0 1 1h10a1 1 0 0 0 1-1v-2a3 3 0 0 0-3-3h-6a3 3 0 0 0-3 3Zm14.5-2H17a.75.75 0 1 1 0-1.5h1.5a2.25 2.25 0 0 1 2.25 2.25v3.5a.75.75 0 1 1-1.5 0v-2.75a1.5 1.5 0 0 0-1.5-1.5Z"/>
</svg>
