<svg xmlns="http://www.w3.org/2000/svg" width="24" height="24" fill="none" viewBox="0 0 24 24">
  <path fill="#000" d="M12.5 8a4 4 0 1 1-8 0 4 4 0 0 1 8 0Zm-10 10v2a1 1 0 0 0 1 1h10a1 1 0 0 0 1-1v-2a3 3 0 0 0-3-3h-6a3 3 0 0 0-3 3ZM20.225 3.244a.693.693 0 0 1 1.056 0 .903.903 0 0 1 0 1.178L16.48 9.78a.396.396 0 0 1-.603 0 1.29 1.29 0 0 1 0-1.683l4.35-4.853Z"/>
  <path fill="#000" d="M13.719 7.822a.903.903 0 0 1 0-1.179.693.693 0 0 1 1.056 0l1.733 1.935a.903.903 0 0 1 0 1.178.693.693 0 0 1-1.056 0L13.72 7.822Z"/>
</svg>
