<svg xmlns="http://www.w3.org/2000/svg" width="24" height="24" fill="none" viewBox="0 0 24 24">
  <path fill="#000" d="M3 15.122v-6.5a1 1 0 0 1 1-1h2.65a1 1 0 0 0 .624-.22l3.101-2.48a1 1 0 0 1 1.625.78v12.674c0 .866-1.025 1.323-1.669.743l-3.046-2.74a1 1 0 0 0-.669-.257H4a1 1 0 0 1-1-1Zm13.82 3.198c.207.319.625.404.913.164a8.964 8.964 0 0 0 2.178-2.685 9.342 9.342 0 0 0 1.083-4.041 9.38 9.38 0 0 0-.783-4.117 9.043 9.043 0 0 0-1.974-2.85c-.27-.262-.693-.21-.923.09-.23.301-.18.738.087 1.004a7.658 7.658 0 0 1 1.595 2.337 7.935 7.935 0 0 1-.254 6.901 7.589 7.589 0 0 1-1.762 2.204c-.286.244-.367.675-.16.993Z"/>
  <path fill="#000" d="M15.293 15.578c.243.157.56.118.744-.11.955-1.175 1.476-2.563 1.492-3.99.016-1.426-.474-2.82-1.4-4.01a.56.56 0 0 0-.747-.123c-.333.207-.396.683-.168 1.011.65.942.99 2.016.978 3.111-.012 1.097-.377 2.167-1.05 3.1-.232.322-.178.797.151 1.01Z"/>
</svg>
