<svg xmlns="http://www.w3.org/2000/svg" width="24" height="24" fill="none" viewBox="0 0 24 24">
  <path fill="#000" d="M21 6c0 1.38-4.03 2.5-9 2.5S3 7.38 3 6s4.03-2.5 9-2.5 9 1.12 9 2.5Zm-2.43 3.96c-4.562 1.992-10.276.94-13.48-.08-.531-.169-1.09.22-1.09.777 0 .341.217.646.543.747 6.04 1.879 11.915.957 14.74.072a.785.785 0 0 0 .506-.979c-.148-.51-.733-.75-1.22-.538Zm-.974 4.074c-3.892 1.856-8.693.891-11.486-.098-.53-.187-1.11.195-1.11.758a.76.76 0 0 0 .501.72c5.275 1.866 10.402.946 12.87.062a.753.753 0 0 0 .463-.905c-.134-.528-.747-.772-1.238-.537Zm-.971 4.093c-3.224 1.688-7.124.826-9.497-.12-.526-.209-1.128.166-1.128.732 0 .298.174.57.45.683 4.519 1.857 8.908.935 11.018.051.32-.134.48-.48.407-.82-.117-.54-.76-.784-1.25-.526Z"/>
</svg>
